M48
; DRILL file KiCad 10.0.4 date 2026-06-29T11:22:24
; FORMAT={-:-/ absolute / metric / decimal}
; #@! TF.CreationDate,2026-06-29T11:22:24+02:00
; #@! TF.GenerationSoftware,Kicad,Pcbnew,10.0.4
; #@! TF.FileFunction,Plated,1,2,PTH
FMAT,2
METRIC
; #@! TA.AperFunction,Plated,PTH,ViaDrill
T1C0.200
; #@! TA.AperFunction,Plated,PTH,ComponentDrill
T2C0.600
; #@! TA.AperFunction,Plated,PTH,ComponentDrill
T3C1.000
; #@! TA.AperFunction,Plated,PTH,ComponentDrill
T4C1.000
%
G90
G05
T1
X77.6Y-120.2
X77.8Y-97.5
X77.8Y-111.0
X78.7Y-78.1
X79.0Y-83.5
X81.3Y-111.0
X81.4Y-105.3
X81.6Y-83.5
X81.6Y-88.4
X81.6Y-89.7
X83.4Y-90.4
X83.5Y-92.1
X84.497Y-108.12
X85.7Y-78.2
X88.6Y-105.0
X89.5Y-79.6
X90.2Y-113.3
X91.1Y-88.4
X92.2Y-105.8
X92.9Y-111.5
X93.1Y-95.3
X93.3Y-98.2
X93.7Y-92.8
X95.4Y-79.4
X95.6Y-86.8
X95.6Y-96.5
X97.649Y-110.867
X98.4Y-111.0
X98.5Y-119.1
X99.262Y-105.167
X100.0Y-101.6
X100.0Y-103.6
X102.4Y-104.5
X102.5Y-122.7
X103.8Y-96.6
X103.8Y-107.5
X105.2Y-93.0
X107.272Y-98.162
X107.9Y-93.5
X107.909Y-102.002
X108.121Y-91.879
X108.121Y-106.644
X108.8Y-82.0
X109.59Y-105.415
X110.6Y-86.9
X110.7Y-119.3
X112.551Y-108.119
X112.609Y-96.023
X113.8Y-105.415
X113.931Y-94.736
X114.2Y-82.2
X114.2Y-88.1
X115.111Y-92.929
X115.197Y-95.034
X115.599Y-96.664
X115.958Y-93.742
X116.98Y-97.785
X123.7Y-106.0
T3
X83.19Y-115.8
X85.73Y-115.8
X88.27Y-115.8
X90.81Y-115.8
T4
X110.2Y-112.33
X110.2Y-114.87
X114.1Y-112.33
X114.1Y-114.87
X122.0Y-77.57
X122.0Y-80.11
X122.0Y-82.65
X122.0Y-85.19
X122.0Y-87.73
X122.0Y-90.27
X122.0Y-92.81
X122.0Y-95.35
X122.0Y-97.89
X122.0Y-100.43
X122.0Y-106.19
X122.0Y-108.73
X122.0Y-111.27
X122.0Y-113.81
X122.0Y-118.23
X122.0Y-120.77
T2
G00X78.175Y-76.675
M15
G01X78.175Y-76.075
M16
G05
G00X78.175Y-81.025
M15
G01X78.175Y-80.125
M16
G05
G00X86.825Y-76.675
M15
G01X86.825Y-76.075
M16
G05
G00X86.825Y-81.025
M15
G01X86.825Y-80.125
M16
G05
M30
