%TF.GenerationSoftware,KiCad,Pcbnew,10.0.4*%
%TF.CreationDate,2026-06-25T21:32:30+02:00*%
%TF.ProjectId,pura-mainboard-noroute,70757261-2d6d-4616-996e-626f6172642d,rev?*%
%TF.SameCoordinates,Original*%
%TF.FileFunction,Component,L1,Top*%
%TF.FilePolarity,Positive*%
%FSLAX46Y46*%
G04 Gerber Fmt 4.6, Leading zero omitted, Abs format (unit mm)*
G04 Created by KiCad (PCBNEW 10.0.4) date 2026-06-25 21:32:30*
%MOMM*%
%LPD*%
G01*
G04 APERTURE LIST*
%TA.AperFunction,ComponentMain*%
%ADD10C,0.300000*%
%TD*%
%TA.AperFunction,ComponentOutline,Courtyard*%
%ADD11C,0.100000*%
%TD*%
%TA.AperFunction,ComponentPin*%
%ADD12P,0.360000X4X0.000000*%
%TD*%
%TA.AperFunction,ComponentPin*%
%ADD13C,0.100000*%
%TD*%
G04 APERTURE END LIST*
D10*
%TO.C,C_IN*%
%TO.CFtp,capacitor_1210*%
%TO.CVal,220uF*%
%TO.CLbN,tscircuit*%
%TO.CMnt,Other*%
%TO.CRot,0*%
X117100000Y-84500000D03*
D11*
X119375000Y-82925000D02*
X119375000Y-86075000D01*
X114825000Y-86075000D01*
X114825000Y-82925000D01*
X119375000Y-82925000D01*
D12*
%TO.P,C_IN,1*%
X115637500Y-84500000D03*
D13*
%TO.P,C_IN,2*%
X118562500Y-84500000D03*
%TD*%
D10*
%TO.C,U3*%
%TO.CFtp,ADS1115IDGST*%
%TO.CVal,ADS1115IDGST*%
%TO.CLbN,tscircuit*%
%TO.CMnt,Other*%
%TO.CRot,0*%
X98400000Y-109700000D03*
D11*
X100166587Y-106450688D02*
X100166587Y-112935088D01*
X96526987Y-112935088D01*
X96526987Y-106450688D01*
X100166587Y-106450688D01*
D12*
%TO.P,U3,1*%
X97400129Y-112050008D03*
D13*
%TO.P,U3,2*%
X97900001Y-112050008D03*
%TO.P,U3,3*%
X98399873Y-112050008D03*
%TO.P,U3,4*%
X98899999Y-112050008D03*
%TO.P,U3,5*%
X99400125Y-112050008D03*
%TO.P,U3,6*%
X99399871Y-107349992D03*
%TO.P,U3,7*%
X98899999Y-107349992D03*
%TO.P,U3,8*%
X98400127Y-107349992D03*
%TO.P,U3,9*%
X97900001Y-107349992D03*
%TO.P,U3,10*%
X97399875Y-107349992D03*
%TD*%
D10*
%TO.C,C_OUT*%
%TO.CFtp,capacitor_1210*%
%TO.CVal,220uF*%
%TO.CLbN,tscircuit*%
%TO.CMnt,Other*%
%TO.CRot,0*%
X117000000Y-80000000D03*
D11*
X119275000Y-78425000D02*
X119275000Y-81575000D01*
X114725000Y-81575000D01*
X114725000Y-78425000D01*
X119275000Y-78425000D01*
D12*
%TO.P,C_OUT,1*%
X115537500Y-80000000D03*
D13*
%TO.P,C_OUT,2*%
X118462500Y-80000000D03*
%TD*%
D10*
%TO.C,D1*%
%TO.CFtp,SS34*%
%TO.CVal,D*%
%TO.CLbN,tscircuit*%
%TO.CMnt,Other*%
%TO.CRot,0*%
X96500000Y-90000000D03*
D11*
X99995000Y-88255000D02*
X99995000Y-91745000D01*
X93005000Y-91745000D01*
X93005000Y-88255000D01*
X99995000Y-88255000D01*
D12*
%TO.P,D1,1*%
X94500000Y-90000000D03*
D13*
%TO.P,D1,2*%
X98500000Y-90000000D03*
%TD*%
D10*
%TO.C,R_CC2*%
%TO.CFtp,resistor_res0402*%
%TO.CVal,5.1kΩ*%
%TO.CLbN,tscircuit*%
%TO.CMnt,Other*%
%TO.CRot,0*%
X80000000Y-88000000D03*
D11*
X80925000Y-87535000D02*
X80925000Y-88465000D01*
X79075000Y-88465000D01*
X79075000Y-87535000D01*
X80925000Y-87535000D01*
D12*
%TO.P,R_CC2,1*%
X79490000Y-88000000D03*
D13*
%TO.P,R_CC2,2*%
X80510000Y-88000000D03*
%TD*%
D10*
%TO.C,C_VM*%
%TO.CFtp,capacitor_0603*%
%TO.CVal,10uF*%
%TO.CLbN,tscircuit*%
%TO.CMnt,Other*%
%TO.CRot,0*%
X117000000Y-95000000D03*
D11*
X118475000Y-94275000D02*
X118475000Y-95725000D01*
X115525000Y-95725000D01*
X115525000Y-94275000D01*
X118475000Y-94275000D01*
D12*
%TO.P,C_VM,1*%
X116175000Y-95000000D03*
D13*
%TO.P,C_VM,2*%
X117825000Y-95000000D03*
%TD*%
D10*
%TO.C,R_CFG2*%
%TO.CFtp,resistor_res0402*%
%TO.CVal,0Ω*%
%TO.CLbN,tscircuit*%
%TO.CMnt,Other*%
%TO.CRot,0*%
X79700000Y-91700000D03*
D11*
X80625000Y-91235000D02*
X80625000Y-92165000D01*
X78775000Y-92165000D01*
X78775000Y-91235000D01*
X80625000Y-91235000D01*
D12*
%TO.P,R_CFG2,1*%
X79190000Y-91700000D03*
D13*
%TO.P,R_CFG2,2*%
X80210000Y-91700000D03*
%TD*%
D10*
%TO.C,R_SDA*%
%TO.CFtp,resistor_res0402*%
%TO.CVal,4.7kΩ*%
%TO.CLbN,tscircuit*%
%TO.CMnt,Other*%
%TO.CRot,0*%
X96800000Y-101600000D03*
D11*
X97725000Y-101135000D02*
X97725000Y-102065000D01*
X95875000Y-102065000D01*
X95875000Y-101135000D01*
X97725000Y-101135000D01*
D12*
%TO.P,R_SDA,1*%
X96290000Y-101600000D03*
D13*
%TO.P,R_SDA,2*%
X97310000Y-101600000D03*
%TD*%
D10*
%TO.C,U2*%
%TO.CFtp,LM2596S_5_0_UMW*%
%TO.CVal,LM2596S_5_0_UMW_*%
%TO.CLbN,tscircuit*%
%TO.CMnt,Other*%
%TO.CRot,0*%
X105000000Y-81700000D03*
D11*
X113299162Y-75943200D02*
X113299162Y-87431400D01*
X96705562Y-87431400D01*
X96705562Y-75943200D01*
X113299162Y-75943200D01*
D12*
%TO.P,U2,1*%
X111514160Y-85100044D03*
D13*
%TO.P,U2,2*%
X111514160Y-83400022D03*
%TO.P,U2,3*%
X111514160Y-81700000D03*
%TO.P,U2,4*%
X111514160Y-79999978D03*
%TO.P,U2,5*%
X111514160Y-78299956D03*
%TO.P,U2,6*%
X101194420Y-81700000D03*
%TD*%
D10*
%TO.C,MOTOR 1*%
%TO.CFtp,pin_header_pinrow2_nopinlabels*%
%TO.CVal,J_M1*%
%TO.CLbN,tscircuit*%
%TO.CMnt,Other*%
%TO.CRot,90*%
X110200000Y-113600000D03*
D11*
X111965000Y-110565000D02*
X111965000Y-116635000D01*
X108435000Y-116635000D01*
X108435000Y-110565000D01*
X111965000Y-110565000D01*
D12*
%TO.P,MOTOR 1,1*%
X110200000Y-114870000D03*
D13*
%TO.P,MOTOR 1,2*%
X110200000Y-112330000D03*
%TD*%
D10*
%TO.C,PROBES*%
%TO.CFtp,pin_header_pinrow4_nopinlabels*%
%TO.CVal,J_PROBE*%
%TO.CLbN,tscircuit*%
%TO.CMnt,Other*%
%TO.CRot,90*%
X122000000Y-110000000D03*
D11*
X123765000Y-104425000D02*
X123765000Y-115575000D01*
X120235000Y-115575000D01*
X120235000Y-104425000D01*
X123765000Y-104425000D01*
D12*
%TO.P,PROBES,1*%
X122000000Y-113810000D03*
D13*
%TO.P,PROBES,2*%
X122000000Y-111270000D03*
%TO.P,PROBES,3*%
X122000000Y-108730000D03*
%TO.P,PROBES,4*%
X122000000Y-106190000D03*
%TD*%
D10*
%TO.C,U5*%
%TO.CFtp,B0505S_1WR3*%
%TO.CVal,B0505S_1WR3*%
%TO.CLbN,tscircuit*%
%TO.CMnt,Other*%
%TO.CRot,180*%
X87000000Y-115800000D03*
D11*
X93061600Y-114640600D02*
X93061600Y-121404400D01*
X80938400Y-121404400D01*
X80938400Y-114640600D01*
X93061600Y-114640600D01*
D12*
%TO.P,U5,1*%
X90810000Y-115800000D03*
D13*
%TO.P,U5,2*%
X88270000Y-115800000D03*
%TO.P,U5,3*%
X85730000Y-115800000D03*
%TO.P,U5,4*%
X83190000Y-115800000D03*
%TD*%
D10*
%TO.C,C_VCC*%
%TO.CFtp,capacitor_0402*%
%TO.CVal,100nF*%
%TO.CLbN,tscircuit*%
%TO.CMnt,Other*%
%TO.CRot,0*%
X116600000Y-99900000D03*
D11*
X117525000Y-99435000D02*
X117525000Y-100365000D01*
X115675000Y-100365000D01*
X115675000Y-99435000D01*
X117525000Y-99435000D01*
D12*
%TO.P,C_VCC,1*%
X116090000Y-99900000D03*
D13*
%TO.P,C_VCC,2*%
X117110000Y-99900000D03*
%TD*%
D10*
%TO.C,C_DC_IN*%
%TO.CFtp,capacitor_0603*%
%TO.CVal,10uF*%
%TO.CLbN,tscircuit*%
%TO.CMnt,Other*%
%TO.CRot,0*%
X110500000Y-89400000D03*
D11*
X111975000Y-88675000D02*
X111975000Y-90125000D01*
X109025000Y-90125000D01*
X109025000Y-88675000D01*
X111975000Y-88675000D01*
D12*
%TO.P,C_DC_IN,1*%
X109675000Y-89400000D03*
D13*
%TO.P,C_DC_IN,2*%
X111325000Y-89400000D03*
%TD*%
D10*
%TO.C,USB-C*%
%TO.CFtp,TYPE_C_16PIN_2MD_073*%
%TO.CVal,TYPE_C_16PIN_2MD_073_*%
%TO.CLbN,tscircuit*%
%TO.CMnt,Other*%
%TO.CRot,180*%
X82500000Y-78575000D03*
D11*
X87679331Y-73514027D02*
X87679331Y-81928827D01*
X77334131Y-81928827D01*
X77334131Y-73514027D01*
X87679331Y-73514027D01*
D13*
%TO.P,USB-C,*%
X85389885Y-80054925D03*
X79609861Y-80054925D03*
%TO.P,USB-C,13*%
X86824985Y-80575117D03*
%TO.P,USB-C,14*%
X78175015Y-80575117D03*
%TO.P,USB-C,15*%
X86824985Y-76374973D03*
%TO.P,USB-C,16*%
X78175015Y-76374973D03*
%TO.P,USB-C,17*%
X85700019Y-81125027D03*
%TO.P,USB-C,18*%
X84899919Y-81125027D03*
%TO.P,USB-C,19*%
X84249933Y-81125027D03*
%TO.P,USB-C,20*%
X83749807Y-81125027D03*
%TO.P,USB-C,21*%
X83249935Y-81125027D03*
%TO.P,USB-C,22*%
X82750063Y-81125027D03*
%TO.P,USB-C,23*%
X82249937Y-81125027D03*
%TO.P,USB-C,24*%
X81750065Y-81125027D03*
%TO.P,USB-C,25*%
X81249939Y-81125027D03*
%TO.P,USB-C,26*%
X80749813Y-81125027D03*
%TO.P,USB-C,27*%
X80099827Y-81125027D03*
%TO.P,USB-C,28*%
X79299981Y-81125027D03*
%TD*%
D10*
%TO.C,LED2*%
%TO.CFtp,led_0402_color(cyan)*%
%TO.CVal,LED*%
%TO.CLbN,tscircuit*%
%TO.CMnt,Other*%
%TO.CRot,0*%
X78000000Y-112000000D03*
D11*
X78925000Y-111535000D02*
X78925000Y-112465000D01*
X77075000Y-112465000D01*
X77075000Y-111535000D01*
X78925000Y-111535000D01*
D12*
%TO.P,LED2,1*%
X77490000Y-112000000D03*
D13*
%TO.P,LED2,2*%
X78510000Y-112000000D03*
%TD*%
D10*
%TO.C,R_CC1*%
%TO.CFtp,resistor_res0402*%
%TO.CVal,5.1kΩ*%
%TO.CLbN,tscircuit*%
%TO.CMnt,Other*%
%TO.CRot,0*%
X80000000Y-86000000D03*
D11*
X80925000Y-85535000D02*
X80925000Y-86465000D01*
X79075000Y-86465000D01*
X79075000Y-85535000D01*
X80925000Y-85535000D01*
D12*
%TO.P,R_CC1,1*%
X79490000Y-86000000D03*
D13*
%TO.P,R_CC1,2*%
X80510000Y-86000000D03*
%TD*%
D10*
%TO.C,C_VDD*%
%TO.CFtp,capacitor_0402*%
%TO.CVal,100nF*%
%TO.CLbN,tscircuit*%
%TO.CMnt,Other*%
%TO.CRot,0*%
X80000000Y-90000000D03*
D11*
X80925000Y-89535000D02*
X80925000Y-90465000D01*
X79075000Y-90465000D01*
X79075000Y-89535000D01*
X80925000Y-89535000D01*
D12*
%TO.P,C_VDD,1*%
X79490000Y-90000000D03*
D13*
%TO.P,C_VDD,2*%
X80510000Y-90000000D03*
%TD*%
D10*
%TO.C,C_DC_OUT*%
%TO.CFtp,capacitor_0603*%
%TO.CVal,10uF*%
%TO.CLbN,tscircuit*%
%TO.CMnt,Other*%
%TO.CRot,0*%
X93000000Y-98000000D03*
D11*
X94475000Y-97275000D02*
X94475000Y-98725000D01*
X91525000Y-98725000D01*
X91525000Y-97275000D01*
X94475000Y-97275000D01*
D12*
%TO.P,C_DC_OUT,1*%
X92175000Y-98000000D03*
D13*
%TO.P,C_DC_OUT,2*%
X93825000Y-98000000D03*
%TD*%
D10*
%TO.C,ORP pump*%
%TO.CFtp,pin_header_pinrow2_nopinlabels*%
%TO.CVal,J_M2*%
%TO.CLbN,tscircuit*%
%TO.CMnt,Other*%
%TO.CRot,90*%
X114100000Y-113600000D03*
D11*
X115865000Y-110565000D02*
X115865000Y-116635000D01*
X112335000Y-116635000D01*
X112335000Y-110565000D01*
X115865000Y-110565000D01*
D12*
%TO.P,ORP pump,1*%
X114100000Y-114870000D03*
D13*
%TO.P,ORP pump,2*%
X114100000Y-112330000D03*
%TD*%
D10*
%TO.C,R_LED2*%
%TO.CFtp,resistor_res0402*%
%TO.CVal,2.2kΩ*%
%TO.CLbN,tscircuit*%
%TO.CMnt,Other*%
%TO.CRot,0*%
X78000000Y-110000000D03*
D11*
X78925000Y-109535000D02*
X78925000Y-110465000D01*
X77075000Y-110465000D01*
X77075000Y-109535000D01*
X78925000Y-109535000D01*
D12*
%TO.P,R_LED2,1*%
X77490000Y-110000000D03*
D13*
%TO.P,R_LED2,2*%
X78510000Y-110000000D03*
%TD*%
D10*
%TO.C,C_ADS*%
%TO.CFtp,capacitor_0402*%
%TO.CVal,100nF*%
%TO.CLbN,tscircuit*%
%TO.CMnt,Other*%
%TO.CRot,0*%
X99900000Y-101600000D03*
D11*
X100825000Y-101135000D02*
X100825000Y-102065000D01*
X98975000Y-102065000D01*
X98975000Y-101135000D01*
X100825000Y-101135000D01*
D12*
%TO.P,C_ADS,1*%
X99390000Y-101600000D03*
D13*
%TO.P,C_ADS,2*%
X100410000Y-101600000D03*
%TD*%
D10*
%TO.C,12V*%
%TO.CFtp,pin_header_pinrow2_nopinlabels*%
%TO.CVal,J_12V*%
%TO.CLbN,tscircuit*%
%TO.CMnt,Other*%
%TO.CRot,90*%
X122000000Y-119500000D03*
D11*
X123765000Y-116465000D02*
X123765000Y-122535000D01*
X120235000Y-122535000D01*
X120235000Y-116465000D01*
X123765000Y-116465000D01*
D12*
%TO.P,12V,1*%
X122000000Y-120770000D03*
D13*
%TO.P,12V,2*%
X122000000Y-118230000D03*
%TD*%
D10*
%TO.C,R_LED*%
%TO.CFtp,resistor_res0402*%
%TO.CVal,2.2kΩ*%
%TO.CLbN,tscircuit*%
%TO.CMnt,Other*%
%TO.CRot,0*%
X109700000Y-91700000D03*
D11*
X110625000Y-91235000D02*
X110625000Y-92165000D01*
X108775000Y-92165000D01*
X108775000Y-91235000D01*
X110625000Y-91235000D01*
D12*
%TO.P,R_LED,1*%
X109190000Y-91700000D03*
D13*
%TO.P,R_LED,2*%
X110210000Y-91700000D03*
%TD*%
D10*
%TO.C,ESP*%
%TO.CFtp,pin_header_pinrow10_nopinlabels*%
%TO.CVal,J_ESP*%
%TO.CLbN,tscircuit*%
%TO.CMnt,Other*%
%TO.CRot,90*%
X122000000Y-89000000D03*
D11*
X123765000Y-75805000D02*
X123765000Y-102195000D01*
X120235000Y-102195000D01*
X120235000Y-75805000D01*
X123765000Y-75805000D01*
D12*
%TO.P,ESP,1*%
X122000000Y-100430000D03*
D13*
%TO.P,ESP,2*%
X122000000Y-97890000D03*
%TO.P,ESP,3*%
X122000000Y-95350000D03*
%TO.P,ESP,4*%
X122000000Y-92810000D03*
%TO.P,ESP,5*%
X122000000Y-90270000D03*
%TO.P,ESP,6*%
X122000000Y-87730000D03*
%TO.P,ESP,7*%
X122000000Y-85190000D03*
%TO.P,ESP,8*%
X122000000Y-82650000D03*
%TO.P,ESP,9*%
X122000000Y-80110000D03*
%TO.P,ESP,10*%
X122000000Y-77570000D03*
%TD*%
D10*
%TO.C,U1*%
%TO.CFtp,CH224K*%
%TO.CVal,CH224K*%
%TO.CLbN,tscircuit*%
%TO.CMnt,Other*%
%TO.CRot,0*%
X87100000Y-93100000D03*
D11*
X89840296Y-89093387D02*
X89840296Y-97304987D01*
X84346496Y-97304987D01*
X84346496Y-89093387D01*
X89840296Y-89093387D01*
D12*
%TO.P,U1,1*%
X85100004Y-96100121D03*
D13*
%TO.P,U1,2*%
X86100002Y-96100121D03*
%TO.P,U1,3*%
X87100000Y-96100121D03*
%TO.P,U1,4*%
X88099998Y-96100121D03*
%TO.P,U1,5*%
X89099996Y-96100121D03*
%TO.P,U1,6*%
X89099996Y-90100133D03*
%TO.P,U1,7*%
X88099998Y-90099879D03*
%TO.P,U1,8*%
X87100000Y-90099879D03*
%TO.P,U1,9*%
X86100002Y-90099879D03*
%TO.P,U1,10*%
X85100004Y-90100133D03*
%TO.P,U1,11*%
X87100000Y-93099873D03*
%TD*%
D10*
%TO.C,L1*%
%TO.CFtp,inductor_1210*%
%TO.CVal,33H*%
%TO.CLbN,tscircuit*%
%TO.CMnt,Other*%
%TO.CRot,0*%
X104100000Y-90200000D03*
D11*
X106375000Y-88625000D02*
X106375000Y-91775000D01*
X101825000Y-91775000D01*
X101825000Y-88625000D01*
X106375000Y-88625000D01*
D12*
%TO.P,L1,1*%
X102637500Y-90200000D03*
D13*
%TO.P,L1,2*%
X105562500Y-90200000D03*
%TD*%
D10*
%TO.C,LED1*%
%TO.CFtp,led_0402_color(green)*%
%TO.CVal,LED*%
%TO.CLbN,tscircuit*%
%TO.CMnt,Other*%
%TO.CRot,0*%
X112300000Y-91800000D03*
D11*
X113225000Y-91335000D02*
X113225000Y-92265000D01*
X111375000Y-92265000D01*
X111375000Y-91335000D01*
X113225000Y-91335000D01*
D12*
%TO.P,LED1,1*%
X111790000Y-91800000D03*
D13*
%TO.P,LED1,2*%
X112810000Y-91800000D03*
%TD*%
D10*
%TO.C,R_ADDR*%
%TO.CFtp,resistor_res0402*%
%TO.CVal,0Ω*%
%TO.CLbN,tscircuit*%
%TO.CMnt,Other*%
%TO.CRot,0*%
X99900000Y-103600000D03*
D11*
X100825000Y-103135000D02*
X100825000Y-104065000D01*
X98975000Y-104065000D01*
X98975000Y-103135000D01*
X100825000Y-103135000D01*
D12*
%TO.P,R_ADDR,1*%
X99390000Y-103600000D03*
D13*
%TO.P,R_ADDR,2*%
X100410000Y-103600000D03*
%TD*%
D10*
%TO.C,R_SCL*%
%TO.CFtp,resistor_res0402*%
%TO.CVal,4.7kΩ*%
%TO.CLbN,tscircuit*%
%TO.CMnt,Other*%
%TO.CRot,0*%
X96800000Y-103800000D03*
D11*
X97725000Y-103335000D02*
X97725000Y-104265000D01*
X95875000Y-104265000D01*
X95875000Y-103335000D01*
X97725000Y-103335000D01*
D12*
%TO.P,R_SCL,1*%
X96290000Y-103800000D03*
D13*
%TO.P,R_SCL,2*%
X97310000Y-103800000D03*
%TD*%
D10*
%TO.C,C_ISO2*%
%TO.CFtp,capacitor_0402*%
%TO.CVal,100nF*%
%TO.CLbN,tscircuit*%
%TO.CMnt,Other*%
%TO.CRot,0*%
X93000000Y-95400000D03*
D11*
X93925000Y-94935000D02*
X93925000Y-95865000D01*
X92075000Y-95865000D01*
X92075000Y-94935000D01*
X93925000Y-94935000D01*
D12*
%TO.P,C_ISO2,1*%
X92490000Y-95400000D03*
D13*
%TO.P,C_ISO2,2*%
X93510000Y-95400000D03*
%TD*%
D10*
%TO.C,U4*%
%TO.CFtp,TB6612FNG_C_8_EL*%
%TO.CVal,TB6612FNG_C_8_EL*%
%TO.CLbN,tscircuit*%
%TO.CMnt,Other*%
%TO.CRot,0*%
X110800000Y-100700000D03*
D11*
X115185200Y-96391000D02*
X115185200Y-105136000D01*
X106211600Y-105136000D01*
X106211600Y-96391000D01*
X115185200Y-96391000D01*
D12*
%TO.P,U4,1*%
X107224950Y-104262096D03*
D13*
%TO.P,U4,2*%
X107874936Y-104262096D03*
%TO.P,U4,3*%
X108524922Y-104262096D03*
%TO.P,U4,4*%
X109174908Y-104262096D03*
%TO.P,U4,5*%
X109824894Y-104262096D03*
%TO.P,U4,6*%
X110475134Y-104262096D03*
%TO.P,U4,7*%
X111125120Y-104262096D03*
%TO.P,U4,8*%
X111775106Y-104262096D03*
%TO.P,U4,9*%
X112425092Y-104262096D03*
%TO.P,U4,10*%
X113075078Y-104262096D03*
%TO.P,U4,11*%
X113725064Y-104262096D03*
%TO.P,U4,12*%
X114375050Y-104262096D03*
%TO.P,U4,13*%
X114375050Y-97137904D03*
%TO.P,U4,14*%
X113725064Y-97137904D03*
%TO.P,U4,15*%
X113075078Y-97137904D03*
%TO.P,U4,16*%
X112425092Y-97137904D03*
%TO.P,U4,17*%
X111775106Y-97137904D03*
%TO.P,U4,18*%
X111125120Y-97137904D03*
%TO.P,U4,19*%
X110475134Y-97137904D03*
%TO.P,U4,20*%
X109824894Y-97137904D03*
%TO.P,U4,21*%
X109174908Y-97137904D03*
%TO.P,U4,22*%
X108524922Y-97137904D03*
%TO.P,U4,23*%
X107874936Y-97137904D03*
%TO.P,U4,24*%
X107224950Y-97137904D03*
%TD*%
D10*
%TO.C,C_ISO1*%
%TO.CFtp,capacitor_0402*%
%TO.CVal,100nF*%
%TO.CLbN,tscircuit*%
%TO.CMnt,Other*%
%TO.CRot,0*%
X82900000Y-103200000D03*
D11*
X83825000Y-102735000D02*
X83825000Y-103665000D01*
X81975000Y-103665000D01*
X81975000Y-102735000D01*
X83825000Y-102735000D01*
D12*
%TO.P,C_ISO1,1*%
X82390000Y-103200000D03*
D13*
%TO.P,C_ISO1,2*%
X83410000Y-103200000D03*
%TD*%
D10*
%TO.C,U6*%
%TO.CFtp,ADUM1250ARZ_RL7*%
%TO.CVal,ADUM1250ARZ_RL7*%
%TO.CLbN,tscircuit*%
%TO.CMnt,Other*%
%TO.CRot,0*%
X86200000Y-107500000D03*
D11*
X88985000Y-103953000D02*
X88985000Y-111301000D01*
X83161000Y-111301000D01*
X83161000Y-103953000D01*
X88985000Y-103953000D01*
D12*
%TO.P,U6,1*%
X84295000Y-110069972D03*
D13*
%TO.P,U6,2*%
X85565000Y-110069972D03*
%TO.P,U6,3*%
X86835000Y-110069972D03*
%TO.P,U6,4*%
X88105000Y-110069972D03*
%TO.P,U6,5*%
X88105000Y-104930028D03*
%TO.P,U6,6*%
X86835000Y-104930028D03*
%TO.P,U6,7*%
X85565000Y-104930028D03*
%TO.P,U6,8*%
X84295000Y-104930028D03*
%TD*%
M02*
