ISO-10303-21;
HEADER;
FILE_DESCRIPTION(('shape.step'),'2;1');
FILE_NAME('shape.step','2026-06-25',('tscircuit'),('tscircuit'),'generator','','');
FILE_SCHEMA(('AUTOMOTIVE_DESIGN { 1 0 10303 214 1 1 1 1 }'));
ENDSEC;
DATA;
#1 = APPLICATION_CONTEXT('core data for automotive mechanical design processes');
#2 = APPLICATION_PROTOCOL_DEFINITION('international standard','automotive_design',2000,#1);
#3 = PRODUCT_CONTEXT('',#1,'mechanical');
#4 = PRODUCT('shape','shape','',(#3));
#5 = PRODUCT_DEFINITION_CONTEXT('part definition',#1,'design');
#6 = PRODUCT_DEFINITION_FORMATION('','',#4);
#7 = PRODUCT_DEFINITION('design','',#6,#5);
#8 = PRODUCT_DEFINITION_SHAPE('','',#7);
#9 = (
LENGTH_UNIT()
NAMED_UNIT(*)
SI_UNIT(.MILLI.,.METRE.)
);
#10 = (
NAMED_UNIT(*)
PLANE_ANGLE_UNIT()
SI_UNIT($,.RADIAN.)
);
#11 = (
NAMED_UNIT(*)
SI_UNIT($,.STERADIAN.)
SOLID_ANGLE_UNIT()
);
#12 = UNCERTAINTY_MEASURE_WITH_UNIT(LENGTH_MEASURE(1.E-07),#9,'distance_accuracy_value','confusion accuracy');
#13 = (
GEOMETRIC_REPRESENTATION_CONTEXT(3)
GLOBAL_UNCERTAINTY_ASSIGNED_CONTEXT((#12))
GLOBAL_UNIT_ASSIGNED_CONTEXT((#9,#10,#11))
REPRESENTATION_CONTEXT('Context #1','3D
Context with
TORTURE://UNITS')
);
#14 = CARTESIAN_POINT('',(0.,0.,0.));
#15 = DIRECTION('',(0.,0.,1.));
#16 = DIRECTION('',(1.,0.,0.));
#17 = AXIS2_PLACEMENT_3D('',#14,#15,#16);
#18 = CARTESIAN_POINT('',(-5.08,-1.27,-3.6));
#19 = VERTEX_POINT('',#18);
#20 = CARTESIAN_POINT('',(-5.08,-1.27,-1.6));
#21 = VERTEX_POINT('',#20);
#22 = CARTESIAN_POINT('',(-5.08,1.27,-1.6));
#23 = VERTEX_POINT('',#22);
#24 = CARTESIAN_POINT('',(-5.08,1.27,-3.6));
#25 = VERTEX_POINT('',#24);
#26 = DIRECTION('',(0.,0.,-1.));
#27 = VECTOR('',#26,1.);
#28 = LINE('',#20,#27);
#29 = EDGE_CURVE('',#21,#19,#28,.T.);
#30 = ORIENTED_EDGE('',*,*,#29,.F.);
#31 = DIRECTION('',(0.,1.,0.));
#32 = VECTOR('',#31,1.);
#33 = LINE('',#20,#32);
#34 = EDGE_CURVE('',#21,#23,#33,.T.);
#35 = ORIENTED_EDGE('',*,*,#34,.T.);
#36 = DIRECTION('',(0.,0.,-1.));
#37 = VECTOR('',#36,1.);
#38 = LINE('',#22,#37);
#39 = EDGE_CURVE('',#23,#25,#38,.T.);
#40 = ORIENTED_EDGE('',*,*,#39,.T.);
#41 = DIRECTION('',(0.,1.,0.));
#42 = VECTOR('',#41,1.);
#43 = LINE('',#18,#42);
#44 = EDGE_CURVE('',#19,#25,#43,.T.);
#45 = ORIENTED_EDGE('',*,*,#44,.F.);
#46 = CARTESIAN_POINT('',(-5.08,-1.27,-3.6));
#47 = DIRECTION('',(-1.,0.,0.));
#48 = DIRECTION('',(0.,0.,1.));
#49 = AXIS2_PLACEMENT_3D('',#46,#47,#48);
#50 = PLANE('',#49);
#51 = EDGE_LOOP('',(#30,#35,#40,#45));
#52 = FACE_OUTER_BOUND('',#51,.T.);
#53 = ADVANCED_FACE('',(#52),#50,.T.);
#54 = CARTESIAN_POINT('',(-2.54,-1.27,-3.6));
#55 = VERTEX_POINT('',#54);
#56 = CARTESIAN_POINT('',(-2.54,1.27,-3.6));
#57 = VERTEX_POINT('',#56);
#58 = CARTESIAN_POINT('',(-2.54,1.27,-1.6));
#59 = VERTEX_POINT('',#58);
#60 = CARTESIAN_POINT('',(-2.54,-1.27,-1.6));
#61 = VERTEX_POINT('',#60);
#62 = DIRECTION('',(0.,1.,0.));
#63 = VECTOR('',#62,1.);
#64 = LINE('',#54,#63);
#65 = EDGE_CURVE('',#55,#57,#64,.T.);
#66 = ORIENTED_EDGE('',*,*,#65,.T.);
#67 = DIRECTION('',(0.,0.,-1.));
#68 = VECTOR('',#67,1.);
#69 = LINE('',#58,#68);
#70 = EDGE_CURVE('',#59,#57,#69,.T.);
#71 = ORIENTED_EDGE('',*,*,#70,.F.);
#72 = DIRECTION('',(0.,1.,0.));
#73 = VECTOR('',#72,1.);
#74 = LINE('',#60,#73);
#75 = EDGE_CURVE('',#61,#59,#74,.T.);
#76 = ORIENTED_EDGE('',*,*,#75,.F.);
#77 = DIRECTION('',(0.,0.,-1.));
#78 = VECTOR('',#77,1.);
#79 = LINE('',#60,#78);
#80 = EDGE_CURVE('',#61,#55,#79,.T.);
#81 = ORIENTED_EDGE('',*,*,#80,.T.);
#82 = CARTESIAN_POINT('',(-2.54,-1.27,-3.6));
#83 = DIRECTION('',(1.,0.,0.));
#84 = DIRECTION('',(0.,1.,0.));
#85 = AXIS2_PLACEMENT_3D('',#82,#83,#84);
#86 = PLANE('',#85);
#87 = EDGE_LOOP('',(#66,#71,#76,#81));
#88 = FACE_OUTER_BOUND('',#87,.T.);
#89 = ADVANCED_FACE('',(#88),#86,.T.);
#90 = DIRECTION('',(-1.,0.,0.));
#91 = VECTOR('',#90,1.);
#92 = LINE('',#54,#91);
#93 = EDGE_CURVE('',#55,#19,#92,.T.);
#94 = ORIENTED_EDGE('',*,*,#93,.F.);
#95 = ORIENTED_EDGE('',*,*,#80,.F.);
#96 = DIRECTION('',(-1.,0.,0.));
#97 = VECTOR('',#96,1.);
#98 = LINE('',#60,#97);
#99 = EDGE_CURVE('',#61,#21,#98,.T.);
#100 = ORIENTED_EDGE('',*,*,#99,.T.);
#101 = ORIENTED_EDGE('',*,*,#29,.T.);
#102 = CARTESIAN_POINT('',(-5.08,-1.27,-3.6));
#103 = DIRECTION('',(0.,-1.,0.));
#104 = DIRECTION('',(1.,0.,0.));
#105 = AXIS2_PLACEMENT_3D('',#102,#103,#104);
#106 = PLANE('',#105);
#107 = EDGE_LOOP('',(#94,#95,#100,#101));
#108 = FACE_OUTER_BOUND('',#107,.T.);
#109 = ADVANCED_FACE('',(#108),#106,.T.);
#110 = ORIENTED_EDGE('',*,*,#39,.F.);
#111 = DIRECTION('',(-1.,0.,0.));
#112 = VECTOR('',#111,1.);
#113 = LINE('',#58,#112);
#114 = EDGE_CURVE('',#59,#23,#113,.T.);
#115 = ORIENTED_EDGE('',*,*,#114,.F.);
#116 = ORIENTED_EDGE('',*,*,#70,.T.);
#117 = DIRECTION('',(-1.,0.,0.));
#118 = VECTOR('',#117,1.);
#119 = LINE('',#56,#118);
#120 = EDGE_CURVE('',#57,#25,#119,.T.);
#121 = ORIENTED_EDGE('',*,*,#120,.T.);
#122 = CARTESIAN_POINT('',(-5.08,1.27,-3.6));
#123 = DIRECTION('',(0.,1.,0.));
#124 = DIRECTION('',(0.,0.,1.));
#125 = AXIS2_PLACEMENT_3D('',#122,#123,#124);
#126 = PLANE('',#125);
#127 = EDGE_LOOP('',(#110,#115,#116,#121));
#128 = FACE_OUTER_BOUND('',#127,.T.);
#129 = ADVANCED_FACE('',(#128),#126,.T.);
#130 = ORIENTED_EDGE('',*,*,#44,.T.);
#131 = ORIENTED_EDGE('',*,*,#120,.F.);
#132 = ORIENTED_EDGE('',*,*,#65,.F.);
#133 = ORIENTED_EDGE('',*,*,#93,.T.);
#134 = CARTESIAN_POINT('',(-5.08,-1.27,-3.6));
#135 = DIRECTION('',(0.,0.,-1.));
#136 = DIRECTION('',(0.,1.,0.));
#137 = AXIS2_PLACEMENT_3D('',#134,#135,#136);
#138 = PLANE('',#137);
#139 = EDGE_LOOP('',(#130,#131,#132,#133));
#140 = FACE_OUTER_BOUND('',#139,.T.);
#141 = ADVANCED_FACE('',(#140),#138,.T.);
#142 = ORIENTED_EDGE('',*,*,#99,.F.);
#143 = ORIENTED_EDGE('',*,*,#75,.T.);
#144 = ORIENTED_EDGE('',*,*,#114,.T.);
#145 = ORIENTED_EDGE('',*,*,#34,.F.);
#146 = CARTESIAN_POINT('',(-5.08,-1.27,-1.6));
#147 = DIRECTION('',(0.,0.,1.));
#148 = DIRECTION('',(1.,0.,0.));
#149 = AXIS2_PLACEMENT_3D('',#146,#147,#148);
#150 = PLANE('',#149);
#151 = EDGE_LOOP('',(#142,#143,#144,#145));
#152 = FACE_OUTER_BOUND('',#151,.T.);
#153 = ADVANCED_FACE('',(#152),#150,.T.);
#154 = CLOSED_SHELL('',(#53,#89,#109,#129,#141,#153));
#155 = MANIFOLD_SOLID_BREP('',#154);
#156 = COLOUR_RGB('',0.13333333333333333,0.13333333333333333,0.13333333333333333);
#157 = FILL_AREA_STYLE_COLOUR('',#156);
#158 = FILL_AREA_STYLE('',(#157));
#159 = SURFACE_STYLE_FILL_AREA(#158);
#160 = SURFACE_SIDE_STYLE('',(#159));
#161 = SURFACE_STYLE_USAGE(.BOTH.,#160);
#162 = PRESENTATION_STYLE_ASSIGNMENT((#161));
#163 = STYLED_ITEM('',(#162),#155);
#164 = CARTESIAN_POINT('',(-4.125,0.315,-2.1500000000000004));
#165 = VERTEX_POINT('',#164);
#166 = CARTESIAN_POINT('',(-4.125,-0.315,-2.1500000000000004));
#167 = VERTEX_POINT('',#166);
#168 = CARTESIAN_POINT('',(-4.125,-0.315,0.5499999999999998));
#169 = VERTEX_POINT('',#168);
#170 = CARTESIAN_POINT('',(-4.125,0.315,0.5499999999999998));
#171 = VERTEX_POINT('',#170);
#172 = DIRECTION('',(0.,1.,0.));
#173 = VECTOR('',#172,1.);
#174 = LINE('',#166,#173);
#175 = EDGE_CURVE('',#167,#165,#174,.T.);
#176 = ORIENTED_EDGE('',*,*,#175,.F.);
#177 = DIRECTION('',(0.,0.,1.));
#178 = VECTOR('',#177,1.);
#179 = LINE('',#166,#178);
#180 = EDGE_CURVE('',#167,#169,#179,.T.);
#181 = ORIENTED_EDGE('',*,*,#180,.T.);
#182 = DIRECTION('',(0.,1.,0.));
#183 = VECTOR('',#182,1.);
#184 = LINE('',#168,#183);
#185 = EDGE_CURVE('',#169,#171,#184,.T.);
#186 = ORIENTED_EDGE('',*,*,#185,.T.);
#187 = DIRECTION('',(0.,0.,1.));
#188 = VECTOR('',#187,1.);
#189 = LINE('',#164,#188);
#190 = EDGE_CURVE('',#165,#171,#189,.T.);
#191 = ORIENTED_EDGE('',*,*,#190,.F.);
#192 = CARTESIAN_POINT('',(-4.125,0.315,-2.1500000000000004));
#193 = DIRECTION('',(-1.,0.,0.));
#194 = DIRECTION('',(0.,-1.,0.));
#195 = AXIS2_PLACEMENT_3D('',#192,#193,#194);
#196 = PLANE('',#195);
#197 = EDGE_LOOP('',(#176,#181,#186,#191));
#198 = FACE_OUTER_BOUND('',#197,.T.);
#199 = ADVANCED_FACE('',(#198),#196,.T.);
#200 = CARTESIAN_POINT('',(-3.495,0.315,0.5499999999999998));
#201 = VERTEX_POINT('',#200);
#202 = CARTESIAN_POINT('',(-3.495,0.315,-2.1500000000000004));
#203 = VERTEX_POINT('',#202);
#204 = DIRECTION('',(0.,0.,1.));
#205 = VECTOR('',#204,1.);
#206 = LINE('',#202,#205);
#207 = EDGE_CURVE('',#203,#201,#206,.T.);
#208 = ORIENTED_EDGE('',*,*,#207,.F.);
#209 = DIRECTION('',(-1.,0.,0.));
#210 = VECTOR('',#209,1.);
#211 = LINE('',#202,#210);
#212 = EDGE_CURVE('',#203,#165,#211,.T.);
#213 = ORIENTED_EDGE('',*,*,#212,.T.);
#214 = ORIENTED_EDGE('',*,*,#190,.T.);
#215 = DIRECTION('',(-1.,0.,0.));
#216 = VECTOR('',#215,1.);
#217 = LINE('',#200,#216);
#218 = EDGE_CURVE('',#201,#171,#217,.T.);
#219 = ORIENTED_EDGE('',*,*,#218,.F.);
#220 = CARTESIAN_POINT('',(-3.495,0.315,0.5499999999999998));
#221 = DIRECTION('',(0.,1.,0.));
#222 = DIRECTION('',(0.,0.,-1.));
#223 = AXIS2_PLACEMENT_3D('',#220,#221,#222);
#224 = PLANE('',#223);
#225 = EDGE_LOOP('',(#208,#213,#214,#219));
#226 = FACE_OUTER_BOUND('',#225,.T.);
#227 = ADVANCED_FACE('',(#226),#224,.T.);
#228 = CARTESIAN_POINT('',(-3.985,0.175,0.8999999999999999));
#229 = VERTEX_POINT('',#228);
#230 = CARTESIAN_POINT('',(-3.985,-0.175,0.8999999999999999));
#231 = VERTEX_POINT('',#230);
#232 = DIRECTION('',(-0.34815531191139587,0.3481553119113956,-0.8703882797784892));
#233 = VECTOR('',#232,1.);
#234 = LINE('',#228,#233);
#235 = EDGE_CURVE('',#229,#171,#234,.T.);
#236 = ORIENTED_EDGE('',*,*,#235,.T.);
#237 = ORIENTED_EDGE('',*,*,#185,.F.);
#238 = DIRECTION('',(-0.34815531191139587,-0.3481553119113956,-0.8703882797784892));
#239 = VECTOR('',#238,1.);
#240 = LINE('',#230,#239);
#241 = EDGE_CURVE('',#231,#169,#240,.T.);
#242 = ORIENTED_EDGE('',*,*,#241,.F.);
#243 = DIRECTION('',(0.,1.,0.));
#244 = VECTOR('',#243,1.);
#245 = LINE('',#230,#244);
#246 = EDGE_CURVE('',#231,#229,#245,.T.);
#247 = ORIENTED_EDGE('',*,*,#246,.T.);
#248 = CARTESIAN_POINT('',(-3.985,0.175,0.8999999999999999));
#249 = DIRECTION('',(-0.9284766908852591,0.,0.3713906763541039));
#250 = DIRECTION('',(-0.34815531191139587,0.3481553119113956,-0.8703882797784892));
#251 = AXIS2_PLACEMENT_3D('',#248,#249,#250);
#252 = PLANE('',#251);
#253 = EDGE_LOOP('',(#236,#237,#242,#247));
#254 = FACE_OUTER_BOUND('',#253,.T.);
#255 = ADVANCED_FACE('',(#254),#252,.T.);
#256 = CARTESIAN_POINT('',(-3.495,-0.315,-2.1500000000000004));
#257 = VERTEX_POINT('',#256);
#258 = CARTESIAN_POINT('',(-3.495,-0.315,0.5499999999999998));
#259 = VERTEX_POINT('',#258);
#260 = DIRECTION('',(0.,1.,0.));
#261 = VECTOR('',#260,1.);
#262 = LINE('',#256,#261);
#263 = EDGE_CURVE('',#257,#203,#262,.T.);
#264 = ORIENTED_EDGE('',*,*,#263,.T.);
#265 = ORIENTED_EDGE('',*,*,#207,.T.);
#266 = DIRECTION('',(0.,1.,0.));
#267 = VECTOR('',#266,1.);
#268 = LINE('',#258,#267);
#269 = EDGE_CURVE('',#259,#201,#268,.T.);
#270 = ORIENTED_EDGE('',*,*,#269,.F.);
#271 = DIRECTION('',(0.,0.,1.));
#272 = VECTOR('',#271,1.);
#273 = LINE('',#256,#272);
#274 = EDGE_CURVE('',#257,#259,#273,.T.);
#275 = ORIENTED_EDGE('',*,*,#274,.F.);
#276 = CARTESIAN_POINT('',(-3.495,-0.315,-2.1500000000000004));
#277 = DIRECTION('',(1.,0.,0.));
#278 = DIRECTION('',(0.,1.,0.));
#279 = AXIS2_PLACEMENT_3D('',#276,#277,#278);
#280 = PLANE('',#279);
#281 = EDGE_LOOP('',(#264,#265,#270,#275));
#282 = FACE_OUTER_BOUND('',#281,.T.);
#283 = ADVANCED_FACE('',(#282),#280,.T.);
#284 = ORIENTED_EDGE('',*,*,#274,.T.);
#285 = DIRECTION('',(-1.,0.,0.));
#286 = VECTOR('',#285,1.);
#287 = LINE('',#258,#286);
#288 = EDGE_CURVE('',#259,#169,#287,.T.);
#289 = ORIENTED_EDGE('',*,*,#288,.T.);
#290 = ORIENTED_EDGE('',*,*,#180,.F.);
#291 = DIRECTION('',(-1.,0.,0.));
#292 = VECTOR('',#291,1.);
#293 = LINE('',#256,#292);
#294 = EDGE_CURVE('',#257,#167,#293,.T.);
#295 = ORIENTED_EDGE('',*,*,#294,.F.);
#296 = CARTESIAN_POINT('',(-3.495,-0.315,-2.1500000000000004));
#297 = DIRECTION('',(0.,-1.,0.));
#298 = DIRECTION('',(0.,0.,1.));
#299 = AXIS2_PLACEMENT_3D('',#296,#297,#298);
#300 = PLANE('',#299);
#301 = EDGE_LOOP('',(#284,#289,#290,#295));
#302 = FACE_OUTER_BOUND('',#301,.T.);
#303 = ADVANCED_FACE('',(#302),#300,.T.);
#304 = ORIENTED_EDGE('',*,*,#294,.T.);
#305 = ORIENTED_EDGE('',*,*,#175,.T.);
#306 = ORIENTED_EDGE('',*,*,#212,.F.);
#307 = ORIENTED_EDGE('',*,*,#263,.F.);
#308 = CARTESIAN_POINT('',(-3.495,-0.315,-2.1500000000000004));
#309 = DIRECTION('',(0.,0.,-1.));
#310 = DIRECTION('',(-1.,0.,0.));
#311 = AXIS2_PLACEMENT_3D('',#308,#309,#310);
#312 = PLANE('',#311);
#313 = EDGE_LOOP('',(#304,#305,#306,#307));
#314 = FACE_OUTER_BOUND('',#313,.T.);
#315 = ADVANCED_FACE('',(#314),#312,.T.);
#316 = CARTESIAN_POINT('',(-3.6350000000000002,0.175,0.8999999999999999));
#317 = VERTEX_POINT('',#316);
#318 = DIRECTION('',(-0.34815531191139587,-0.3481553119113956,0.8703882797784892));
#319 = VECTOR('',#318,1.);
#320 = LINE('',#200,#319);
#321 = EDGE_CURVE('',#201,#317,#320,.T.);
#322 = ORIENTED_EDGE('',*,*,#321,.F.);
#323 = ORIENTED_EDGE('',*,*,#218,.T.);
#324 = ORIENTED_EDGE('',*,*,#235,.F.);
#325 = DIRECTION('',(-1.,0.,0.));
#326 = VECTOR('',#325,1.);
#327 = LINE('',#316,#326);
#328 = EDGE_CURVE('',#317,#229,#327,.T.);
#329 = ORIENTED_EDGE('',*,*,#328,.F.);
#330 = CARTESIAN_POINT('',(-3.6350000000000002,0.175,0.8999999999999999));
#331 = DIRECTION('',(0.,0.9284766908852594,0.3713906763541036));
#332 = DIRECTION('',(0.34815531191139587,0.3481553119113956,-0.8703882797784892));
#333 = AXIS2_PLACEMENT_3D('',#330,#331,#332);
#334 = PLANE('',#333);
#335 = EDGE_LOOP('',(#322,#323,#324,#329));
#336 = FACE_OUTER_BOUND('',#335,.T.);
#337 = ADVANCED_FACE('',(#336),#334,.T.);
#338 = CARTESIAN_POINT('',(-3.6350000000000002,-0.175,0.8999999999999999));
#339 = VERTEX_POINT('',#338);
#340 = DIRECTION('',(-0.34815531191139587,0.3481553119113956,0.8703882797784892));
#341 = VECTOR('',#340,1.);
#342 = LINE('',#258,#341);
#343 = EDGE_CURVE('',#259,#339,#342,.T.);
#344 = ORIENTED_EDGE('',*,*,#343,.F.);
#345 = ORIENTED_EDGE('',*,*,#269,.T.);
#346 = ORIENTED_EDGE('',*,*,#321,.T.);
#347 = DIRECTION('',(0.,1.,0.));
#348 = VECTOR('',#347,1.);
#349 = LINE('',#338,#348);
#350 = EDGE_CURVE('',#339,#317,#349,.T.);
#351 = ORIENTED_EDGE('',*,*,#350,.F.);
#352 = CARTESIAN_POINT('',(-3.6350000000000002,-0.175,0.8999999999999999));
#353 = DIRECTION('',(0.9284766908852591,0.,0.3713906763541039));
#354 = DIRECTION('',(0.34815531191139587,-0.3481553119113956,-0.8703882797784892));
#355 = AXIS2_PLACEMENT_3D('',#352,#353,#354);
#356 = PLANE('',#355);
#357 = EDGE_LOOP('',(#344,#345,#346,#351));
#358 = FACE_OUTER_BOUND('',#357,.T.);
#359 = ADVANCED_FACE('',(#358),#356,.T.);
#360 = ORIENTED_EDGE('',*,*,#350,.T.);
#361 = ORIENTED_EDGE('',*,*,#328,.T.);
#362 = ORIENTED_EDGE('',*,*,#246,.F.);
#363 = DIRECTION('',(-1.,0.,0.));
#364 = VECTOR('',#363,1.);
#365 = LINE('',#338,#364);
#366 = EDGE_CURVE('',#339,#231,#365,.T.);
#367 = ORIENTED_EDGE('',*,*,#366,.F.);
#368 = CARTESIAN_POINT('',(-3.6350000000000002,-0.175,0.8999999999999999));
#369 = DIRECTION('',(0.,0.,1.));
#370 = DIRECTION('',(0.,1.,0.));
#371 = AXIS2_PLACEMENT_3D('',#368,#369,#370);
#372 = PLANE('',#371);
#373 = EDGE_LOOP('',(#360,#361,#362,#367));
#374 = FACE_OUTER_BOUND('',#373,.T.);
#375 = ADVANCED_FACE('',(#374),#372,.T.);
#376 = ORIENTED_EDGE('',*,*,#366,.T.);
#377 = ORIENTED_EDGE('',*,*,#241,.T.);
#378 = ORIENTED_EDGE('',*,*,#288,.F.);
#379 = ORIENTED_EDGE('',*,*,#343,.T.);
#380 = CARTESIAN_POINT('',(-3.6350000000000002,-0.175,0.8999999999999999));
#381 = DIRECTION('',(0.,-0.9284766908852594,0.3713906763541036));
#382 = DIRECTION('',(-1.,0.,0.));
#383 = AXIS2_PLACEMENT_3D('',#380,#381,#382);
#384 = PLANE('',#383);
#385 = EDGE_LOOP('',(#376,#377,#378,#379));
#386 = FACE_OUTER_BOUND('',#385,.T.);
#387 = ADVANCED_FACE('',(#386),#384,.T.);
#388 = CLOSED_SHELL('',(#199,#227,#255,#283,#303,#315,#337,#359,#375,#387));
#389 = MANIFOLD_SOLID_BREP('',#388);
#390 = CARTESIAN_POINT('',(-4.125,-0.315,-9.));
#391 = VERTEX_POINT('',#390);
#392 = CARTESIAN_POINT('',(-3.495,-0.315,-9.));
#393 = VERTEX_POINT('',#392);
#394 = CARTESIAN_POINT('',(-3.495,-0.315,-3.6000000000000005));
#395 = VERTEX_POINT('',#394);
#396 = CARTESIAN_POINT('',(-4.125,-0.315,-3.6000000000000005));
#397 = VERTEX_POINT('',#396);
#398 = DIRECTION('',(-1.,0.,0.));
#399 = VECTOR('',#398,1.);
#400 = LINE('',#392,#399);
#401 = EDGE_CURVE('',#393,#391,#400,.T.);
#402 = ORIENTED_EDGE('',*,*,#401,.F.);
#403 = DIRECTION('',(0.,0.,-1.));
#404 = VECTOR('',#403,1.);
#405 = LINE('',#394,#404);
#406 = EDGE_CURVE('',#395,#393,#405,.T.);
#407 = ORIENTED_EDGE('',*,*,#406,.F.);
#408 = DIRECTION('',(-1.,0.,0.));
#409 = VECTOR('',#408,1.);
#410 = LINE('',#394,#409);
#411 = EDGE_CURVE('',#395,#397,#410,.T.);
#412 = ORIENTED_EDGE('',*,*,#411,.T.);
#413 = DIRECTION('',(0.,0.,-1.));
#414 = VECTOR('',#413,1.);
#415 = LINE('',#396,#414);
#416 = EDGE_CURVE('',#397,#391,#415,.T.);
#417 = ORIENTED_EDGE('',*,*,#416,.T.);
#418 = CARTESIAN_POINT('',(-4.125,-0.315,-9.));
#419 = DIRECTION('',(0.,-1.,0.));
#420 = DIRECTION('',(1.,0.,0.));
#421 = AXIS2_PLACEMENT_3D('',#418,#419,#420);
#422 = PLANE('',#421);
#423 = EDGE_LOOP('',(#402,#407,#412,#417));
#424 = FACE_OUTER_BOUND('',#423,.T.);
#425 = ADVANCED_FACE('',(#424),#422,.T.);
#426 = CARTESIAN_POINT('',(-3.495,0.315,-3.6000000000000005));
#427 = VERTEX_POINT('',#426);
#428 = CARTESIAN_POINT('',(-3.495,0.315,-9.));
#429 = VERTEX_POINT('',#428);
#430 = DIRECTION('',(0.,1.,0.));
#431 = VECTOR('',#430,1.);
#432 = LINE('',#394,#431);
#433 = EDGE_CURVE('',#395,#427,#432,.T.);
#434 = ORIENTED_EDGE('',*,*,#433,.F.);
#435 = ORIENTED_EDGE('',*,*,#406,.T.);
#436 = DIRECTION('',(0.,1.,0.));
#437 = VECTOR('',#436,1.);
#438 = LINE('',#392,#437);
#439 = EDGE_CURVE('',#393,#429,#438,.T.);
#440 = ORIENTED_EDGE('',*,*,#439,.T.);
#441 = DIRECTION('',(0.,0.,-1.));
#442 = VECTOR('',#441,1.);
#443 = LINE('',#426,#442);
#444 = EDGE_CURVE('',#427,#429,#443,.T.);
#445 = ORIENTED_EDGE('',*,*,#444,.F.);
#446 = CARTESIAN_POINT('',(-3.495,0.315,-3.6000000000000005));
#447 = DIRECTION('',(1.,0.,0.));
#448 = DIRECTION('',(0.,-1.,0.));
#449 = AXIS2_PLACEMENT_3D('',#446,#447,#448);
#450 = PLANE('',#449);
#451 = EDGE_LOOP('',(#434,#435,#440,#445));
#452 = FACE_OUTER_BOUND('',#451,.T.);
#453 = ADVANCED_FACE('',(#452),#450,.T.);
#454 = CARTESIAN_POINT('',(-3.6350000000000002,-0.175,-9.6));
#455 = VERTEX_POINT('',#454);
#456 = CARTESIAN_POINT('',(-3.6350000000000002,0.175,-9.6));
#457 = VERTEX_POINT('',#456);
#458 = DIRECTION('',(0.,1.,0.));
#459 = VECTOR('',#458,1.);
#460 = LINE('',#454,#459);
#461 = EDGE_CURVE('',#455,#457,#460,.T.);
#462 = ORIENTED_EDGE('',*,*,#461,.T.);
#463 = DIRECTION('',(-0.22158112824152176,-0.22158112824152157,-0.9496334067493776));
#464 = VECTOR('',#463,1.);
#465 = LINE('',#428,#464);
#466 = EDGE_CURVE('',#429,#457,#465,.T.);
#467 = ORIENTED_EDGE('',*,*,#466,.F.);
#468 = ORIENTED_EDGE('',*,*,#439,.F.);
#469 = DIRECTION('',(-0.22158112824152176,0.22158112824152157,-0.9496334067493776));
#470 = VECTOR('',#469,1.);
#471 = LINE('',#392,#470);
#472 = EDGE_CURVE('',#393,#455,#471,.T.);
#473 = ORIENTED_EDGE('',*,*,#472,.T.);
#474 = CARTESIAN_POINT('',(-3.6350000000000002,-0.175,-9.6));
#475 = DIRECTION('',(0.9738412097417932,0.,-0.2272296156064184));
#476 = DIRECTION('',(0.,1.,0.));
#477 = AXIS2_PLACEMENT_3D('',#474,#475,#476);
#478 = PLANE('',#477);
#479 = EDGE_LOOP('',(#462,#467,#468,#473));
#480 = FACE_OUTER_BOUND('',#479,.T.);
#481 = ADVANCED_FACE('',(#480),#478,.T.);
#482 = CARTESIAN_POINT('',(-3.985,-0.175,-9.6));
#483 = VERTEX_POINT('',#482);
#484 = ORIENTED_EDGE('',*,*,#472,.F.);
#485 = ORIENTED_EDGE('',*,*,#401,.T.);
#486 = DIRECTION('',(-0.22158112824152176,-0.22158112824152157,0.9496334067493776));
#487 = VECTOR('',#486,1.);
#488 = LINE('',#482,#487);
#489 = EDGE_CURVE('',#483,#391,#488,.T.);
#490 = ORIENTED_EDGE('',*,*,#489,.F.);
#491 = DIRECTION('',(-1.,0.,0.));
#492 = VECTOR('',#491,1.);
#493 = LINE('',#454,#492);
#494 = EDGE_CURVE('',#455,#483,#493,.T.);
#495 = ORIENTED_EDGE('',*,*,#494,.F.);
#496 = CARTESIAN_POINT('',(-3.6350000000000002,-0.175,-9.6));
#497 = DIRECTION('',(0.,-0.9738412097417931,-0.2272296156064186));
#498 = DIRECTION('',(0.22158112824152176,-0.22158112824152157,0.9496334067493776));
#499 = AXIS2_PLACEMENT_3D('',#496,#497,#498);
#500 = PLANE('',#499);
#501 = EDGE_LOOP('',(#484,#485,#490,#495));
#502 = FACE_OUTER_BOUND('',#501,.T.);
#503 = ADVANCED_FACE('',(#502),#500,.T.);
#504 = CARTESIAN_POINT('',(-3.985,0.175,-9.6));
#505 = VERTEX_POINT('',#504);
#506 = CARTESIAN_POINT('',(-4.125,0.315,-9.));
#507 = VERTEX_POINT('',#506);
#508 = DIRECTION('',(0.,1.,0.));
#509 = VECTOR('',#508,1.);
#510 = LINE('',#482,#509);
#511 = EDGE_CURVE('',#483,#505,#510,.T.);
#512 = ORIENTED_EDGE('',*,*,#511,.F.);
#513 = ORIENTED_EDGE('',*,*,#489,.T.);
#514 = DIRECTION('',(0.,1.,0.));
#515 = VECTOR('',#514,1.);
#516 = LINE('',#390,#515);
#517 = EDGE_CURVE('',#391,#507,#516,.T.);
#518 = ORIENTED_EDGE('',*,*,#517,.T.);
#519 = DIRECTION('',(-0.22158112824152176,0.22158112824152157,0.9496334067493776));
#520 = VECTOR('',#519,1.);
#521 = LINE('',#504,#520);
#522 = EDGE_CURVE('',#505,#507,#521,.T.);
#523 = ORIENTED_EDGE('',*,*,#522,.F.);
#524 = CARTESIAN_POINT('',(-3.985,0.175,-9.6));
#525 = DIRECTION('',(-0.9738412097417932,0.,-0.2272296156064184));
#526 = DIRECTION('',(0.,-1.,0.));
#527 = AXIS2_PLACEMENT_3D('',#524,#525,#526);
#528 = PLANE('',#527);
#529 = EDGE_LOOP('',(#512,#513,#518,#523));
#530 = FACE_OUTER_BOUND('',#529,.T.);
#531 = ADVANCED_FACE('',(#530),#528,.T.);
#532 = ORIENTED_EDGE('',*,*,#522,.T.);
#533 = DIRECTION('',(-1.,0.,0.));
#534 = VECTOR('',#533,1.);
#535 = LINE('',#428,#534);
#536 = EDGE_CURVE('',#429,#507,#535,.T.);
#537 = ORIENTED_EDGE('',*,*,#536,.F.);
#538 = ORIENTED_EDGE('',*,*,#466,.T.);
#539 = DIRECTION('',(-1.,0.,0.));
#540 = VECTOR('',#539,1.);
#541 = LINE('',#456,#540);
#542 = EDGE_CURVE('',#457,#505,#541,.T.);
#543 = ORIENTED_EDGE('',*,*,#542,.T.);
#544 = CARTESIAN_POINT('',(-3.985,0.175,-9.6));
#545 = DIRECTION('',(0.,0.9738412097417931,-0.2272296156064186));
#546 = DIRECTION('',(-0.22158112824152176,0.22158112824152157,0.9496334067493776));
#547 = AXIS2_PLACEMENT_3D('',#544,#545,#546);
#548 = PLANE('',#547);
#549 = EDGE_LOOP('',(#532,#537,#538,#543));
#550 = FACE_OUTER_BOUND('',#549,.T.);
#551 = ADVANCED_FACE('',(#550),#548,.T.);
#552 = ORIENTED_EDGE('',*,*,#542,.F.);
#553 = ORIENTED_EDGE('',*,*,#461,.F.);
#554 = ORIENTED_EDGE('',*,*,#494,.T.);
#555 = ORIENTED_EDGE('',*,*,#511,.T.);
#556 = CARTESIAN_POINT('',(-3.985,0.175,-9.6));
#557 = DIRECTION('',(0.,0.,-1.));
#558 = DIRECTION('',(1.,0.,0.));
#559 = AXIS2_PLACEMENT_3D('',#556,#557,#558);
#560 = PLANE('',#559);
#561 = EDGE_LOOP('',(#552,#553,#554,#555));
#562 = FACE_OUTER_BOUND('',#561,.T.);
#563 = ADVANCED_FACE('',(#562),#560,.T.);
#564 = CARTESIAN_POINT('',(-4.125,0.315,-3.6000000000000005));
#565 = VERTEX_POINT('',#564);
#566 = DIRECTION('',(-1.,0.,0.));
#567 = VECTOR('',#566,1.);
#568 = LINE('',#426,#567);
#569 = EDGE_CURVE('',#427,#565,#568,.T.);
#570 = ORIENTED_EDGE('',*,*,#569,.F.);
#571 = ORIENTED_EDGE('',*,*,#444,.T.);
#572 = ORIENTED_EDGE('',*,*,#536,.T.);
#573 = DIRECTION('',(0.,0.,-1.));
#574 = VECTOR('',#573,1.);
#575 = LINE('',#564,#574);
#576 = EDGE_CURVE('',#565,#507,#575,.T.);
#577 = ORIENTED_EDGE('',*,*,#576,.F.);
#578 = CARTESIAN_POINT('',(-4.125,0.315,-3.6000000000000005));
#579 = DIRECTION('',(0.,1.,0.));
#580 = DIRECTION('',(1.,0.,0.));
#581 = AXIS2_PLACEMENT_3D('',#578,#579,#580);
#582 = PLANE('',#581);
#583 = EDGE_LOOP('',(#570,#571,#572,#577));
#584 = FACE_OUTER_BOUND('',#583,.T.);
#585 = ADVANCED_FACE('',(#584),#582,.T.);
#586 = ORIENTED_EDGE('',*,*,#576,.T.);
#587 = ORIENTED_EDGE('',*,*,#517,.F.);
#588 = ORIENTED_EDGE('',*,*,#416,.F.);
#589 = DIRECTION('',(0.,1.,0.));
#590 = VECTOR('',#589,1.);
#591 = LINE('',#396,#590);
#592 = EDGE_CURVE('',#397,#565,#591,.T.);
#593 = ORIENTED_EDGE('',*,*,#592,.T.);
#594 = CARTESIAN_POINT('',(-4.125,0.315,-3.6000000000000005));
#595 = DIRECTION('',(-1.,0.,0.));
#596 = DIRECTION('',(0.,0.,-1.));
#597 = AXIS2_PLACEMENT_3D('',#594,#595,#596);
#598 = PLANE('',#597);
#599 = EDGE_LOOP('',(#586,#587,#588,#593));
#600 = FACE_OUTER_BOUND('',#599,.T.);
#601 = ADVANCED_FACE('',(#600),#598,.T.);
#602 = ORIENTED_EDGE('',*,*,#592,.F.);
#603 = ORIENTED_EDGE('',*,*,#411,.F.);
#604 = ORIENTED_EDGE('',*,*,#433,.T.);
#605 = ORIENTED_EDGE('',*,*,#569,.T.);
#606 = CARTESIAN_POINT('',(-4.125,0.315,-3.6000000000000005));
#607 = DIRECTION('',(0.,0.,1.));
#608 = DIRECTION('',(0.,-1.,0.));
#609 = AXIS2_PLACEMENT_3D('',#606,#607,#608);
#610 = PLANE('',#609);
#611 = EDGE_LOOP('',(#602,#603,#604,#605));
#612 = FACE_OUTER_BOUND('',#611,.T.);
#613 = ADVANCED_FACE('',(#612),#610,.T.);
#614 = CLOSED_SHELL('',(#425,#453,#481,#503,#531,#551,#563,#585,#601,#613));
#615 = MANIFOLD_SOLID_BREP('',#614);
#616 = CARTESIAN_POINT('',(-2.54,-1.27,-3.6));
#617 = VERTEX_POINT('',#616);
#618 = CARTESIAN_POINT('',(-2.54,-1.27,-1.6));
#619 = VERTEX_POINT('',#618);
#620 = CARTESIAN_POINT('',(-2.54,1.27,-1.6));
#621 = VERTEX_POINT('',#620);
#622 = CARTESIAN_POINT('',(-2.54,1.27,-3.6));
#623 = VERTEX_POINT('',#622);
#624 = DIRECTION('',(0.,0.,-1.));
#625 = VECTOR('',#624,1.);
#626 = LINE('',#618,#625);
#627 = EDGE_CURVE('',#619,#617,#626,.T.);
#628 = ORIENTED_EDGE('',*,*,#627,.F.);
#629 = DIRECTION('',(0.,1.,0.));
#630 = VECTOR('',#629,1.);
#631 = LINE('',#618,#630);
#632 = EDGE_CURVE('',#619,#621,#631,.T.);
#633 = ORIENTED_EDGE('',*,*,#632,.T.);
#634 = DIRECTION('',(0.,0.,-1.));
#635 = VECTOR('',#634,1.);
#636 = LINE('',#620,#635);
#637 = EDGE_CURVE('',#621,#623,#636,.T.);
#638 = ORIENTED_EDGE('',*,*,#637,.T.);
#639 = DIRECTION('',(0.,1.,0.));
#640 = VECTOR('',#639,1.);
#641 = LINE('',#616,#640);
#642 = EDGE_CURVE('',#617,#623,#641,.T.);
#643 = ORIENTED_EDGE('',*,*,#642,.F.);
#644 = CARTESIAN_POINT('',(-2.54,-1.27,-3.6));
#645 = DIRECTION('',(-1.,0.,0.));
#646 = DIRECTION('',(0.,0.,1.));
#647 = AXIS2_PLACEMENT_3D('',#644,#645,#646);
#648 = PLANE('',#647);
#649 = EDGE_LOOP('',(#628,#633,#638,#643));
#650 = FACE_OUTER_BOUND('',#649,.T.);
#651 = ADVANCED_FACE('',(#650),#648,.T.);
#652 = CARTESIAN_POINT('',(0.,-1.27,-3.6));
#653 = VERTEX_POINT('',#652);
#654 = CARTESIAN_POINT('',(0.,1.27,-3.6));
#655 = VERTEX_POINT('',#654);
#656 = CARTESIAN_POINT('',(0.,1.27,-1.6));
#657 = VERTEX_POINT('',#656);
#658 = CARTESIAN_POINT('',(0.,-1.27,-1.6));
#659 = VERTEX_POINT('',#658);
#660 = DIRECTION('',(0.,1.,0.));
#661 = VECTOR('',#660,1.);
#662 = LINE('',#652,#661);
#663 = EDGE_CURVE('',#653,#655,#662,.T.);
#664 = ORIENTED_EDGE('',*,*,#663,.T.);
#665 = DIRECTION('',(0.,0.,-1.));
#666 = VECTOR('',#665,1.);
#667 = LINE('',#656,#666);
#668 = EDGE_CURVE('',#657,#655,#667,.T.);
#669 = ORIENTED_EDGE('',*,*,#668,.F.);
#670 = DIRECTION('',(0.,1.,0.));
#671 = VECTOR('',#670,1.);
#672 = LINE('',#658,#671);
#673 = EDGE_CURVE('',#659,#657,#672,.T.);
#674 = ORIENTED_EDGE('',*,*,#673,.F.);
#675 = DIRECTION('',(0.,0.,-1.));
#676 = VECTOR('',#675,1.);
#677 = LINE('',#658,#676);
#678 = EDGE_CURVE('',#659,#653,#677,.T.);
#679 = ORIENTED_EDGE('',*,*,#678,.T.);
#680 = CARTESIAN_POINT('',(0.,-1.27,-3.6));
#681 = DIRECTION('',(1.,0.,0.));
#682 = DIRECTION('',(0.,1.,0.));
#683 = AXIS2_PLACEMENT_3D('',#680,#681,#682);
#684 = PLANE('',#683);
#685 = EDGE_LOOP('',(#664,#669,#674,#679));
#686 = FACE_OUTER_BOUND('',#685,.T.);
#687 = ADVANCED_FACE('',(#686),#684,.T.);
#688 = DIRECTION('',(1.,0.,0.));
#689 = VECTOR('',#688,1.);
#690 = LINE('',#616,#689);
#691 = EDGE_CURVE('',#617,#653,#690,.T.);
#692 = ORIENTED_EDGE('',*,*,#691,.T.);
#693 = ORIENTED_EDGE('',*,*,#678,.F.);
#694 = DIRECTION('',(1.,0.,0.));
#695 = VECTOR('',#694,1.);
#696 = LINE('',#618,#695);
#697 = EDGE_CURVE('',#619,#659,#696,.T.);
#698 = ORIENTED_EDGE('',*,*,#697,.F.);
#699 = ORIENTED_EDGE('',*,*,#627,.T.);
#700 = CARTESIAN_POINT('',(-2.54,-1.27,-3.6));
#701 = DIRECTION('',(0.,-1.,0.));
#702 = DIRECTION('',(1.,0.,0.));
#703 = AXIS2_PLACEMENT_3D('',#700,#701,#702);
#704 = PLANE('',#703);
#705 = EDGE_LOOP('',(#692,#693,#698,#699));
#706 = FACE_OUTER_BOUND('',#705,.T.);
#707 = ADVANCED_FACE('',(#706),#704,.T.);
#708 = ORIENTED_EDGE('',*,*,#637,.F.);
#709 = DIRECTION('',(1.,0.,0.));
#710 = VECTOR('',#709,1.);
#711 = LINE('',#620,#710);
#712 = EDGE_CURVE('',#621,#657,#711,.T.);
#713 = ORIENTED_EDGE('',*,*,#712,.T.);
#714 = ORIENTED_EDGE('',*,*,#668,.T.);
#715 = DIRECTION('',(1.,0.,0.));
#716 = VECTOR('',#715,1.);
#717 = LINE('',#622,#716);
#718 = EDGE_CURVE('',#623,#655,#717,.T.);
#719 = ORIENTED_EDGE('',*,*,#718,.F.);
#720 = CARTESIAN_POINT('',(-2.54,1.27,-3.6));
#721 = DIRECTION('',(0.,1.,0.));
#722 = DIRECTION('',(0.,0.,1.));
#723 = AXIS2_PLACEMENT_3D('',#720,#721,#722);
#724 = PLANE('',#723);
#725 = EDGE_LOOP('',(#708,#713,#714,#719));
#726 = FACE_OUTER_BOUND('',#725,.T.);
#727 = ADVANCED_FACE('',(#726),#724,.T.);
#728 = ORIENTED_EDGE('',*,*,#642,.T.);
#729 = ORIENTED_EDGE('',*,*,#718,.T.);
#730 = ORIENTED_EDGE('',*,*,#663,.F.);
#731 = ORIENTED_EDGE('',*,*,#691,.F.);
#732 = CARTESIAN_POINT('',(-2.54,-1.27,-3.6));
#733 = DIRECTION('',(0.,0.,-1.));
#734 = DIRECTION('',(0.,1.,0.));
#735 = AXIS2_PLACEMENT_3D('',#732,#733,#734);
#736 = PLANE('',#735);
#737 = EDGE_LOOP('',(#728,#729,#730,#731));
#738 = FACE_OUTER_BOUND('',#737,.T.);
#739 = ADVANCED_FACE('',(#738),#736,.T.);
#740 = ORIENTED_EDGE('',*,*,#697,.T.);
#741 = ORIENTED_EDGE('',*,*,#673,.T.);
#742 = ORIENTED_EDGE('',*,*,#712,.F.);
#743 = ORIENTED_EDGE('',*,*,#632,.F.);
#744 = CARTESIAN_POINT('',(-2.54,-1.27,-1.6));
#745 = DIRECTION('',(0.,0.,1.));
#746 = DIRECTION('',(1.,0.,0.));
#747 = AXIS2_PLACEMENT_3D('',#744,#745,#746);
#748 = PLANE('',#747);
#749 = EDGE_LOOP('',(#740,#741,#742,#743));
#750 = FACE_OUTER_BOUND('',#749,.T.);
#751 = ADVANCED_FACE('',(#750),#748,.T.);
#752 = CLOSED_SHELL('',(#651,#687,#707,#727,#739,#751));
#753 = MANIFOLD_SOLID_BREP('',#752);
#754 = COLOUR_RGB('',0.13333333333333333,0.13333333333333333,0.13333333333333333);
#755 = FILL_AREA_STYLE_COLOUR('',#754);
#756 = FILL_AREA_STYLE('',(#755));
#757 = SURFACE_STYLE_FILL_AREA(#756);
#758 = SURFACE_SIDE_STYLE('',(#757));
#759 = SURFACE_STYLE_USAGE(.BOTH.,#758);
#760 = PRESENTATION_STYLE_ASSIGNMENT((#759));
#761 = STYLED_ITEM('',(#760),#753);
#762 = CARTESIAN_POINT('',(-0.9550000000000001,-0.315,-2.1500000000000004));
#763 = VERTEX_POINT('',#762);
#764 = CARTESIAN_POINT('',(-0.9550000000000001,-0.315,0.5499999999999998));
#765 = VERTEX_POINT('',#764);
#766 = CARTESIAN_POINT('',(-1.585,-0.315,0.5499999999999998));
#767 = VERTEX_POINT('',#766);
#768 = CARTESIAN_POINT('',(-1.585,-0.315,-2.1500000000000004));
#769 = VERTEX_POINT('',#768);
#770 = DIRECTION('',(0.,0.,1.));
#771 = VECTOR('',#770,1.);
#772 = LINE('',#762,#771);
#773 = EDGE_CURVE('',#763,#765,#772,.T.);
#774 = ORIENTED_EDGE('',*,*,#773,.T.);
#775 = DIRECTION('',(-1.,0.,0.));
#776 = VECTOR('',#775,1.);
#777 = LINE('',#764,#776);
#778 = EDGE_CURVE('',#765,#767,#777,.T.);
#779 = ORIENTED_EDGE('',*,*,#778,.T.);
#780 = DIRECTION('',(0.,0.,1.));
#781 = VECTOR('',#780,1.);
#782 = LINE('',#768,#781);
#783 = EDGE_CURVE('',#769,#767,#782,.T.);
#784 = ORIENTED_EDGE('',*,*,#783,.F.);
#785 = DIRECTION('',(-1.,0.,0.));
#786 = VECTOR('',#785,1.);
#787 = LINE('',#762,#786);
#788 = EDGE_CURVE('',#763,#769,#787,.T.);
#789 = ORIENTED_EDGE('',*,*,#788,.F.);
#790 = CARTESIAN_POINT('',(-0.9550000000000001,-0.315,-2.1500000000000004));
#791 = DIRECTION('',(0.,-1.,0.));
#792 = DIRECTION('',(0.,0.,1.));
#793 = AXIS2_PLACEMENT_3D('',#790,#791,#792);
#794 = PLANE('',#793);
#795 = EDGE_LOOP('',(#774,#779,#784,#789));
#796 = FACE_OUTER_BOUND('',#795,.T.);
#797 = ADVANCED_FACE('',(#796),#794,.T.);
#798 = CARTESIAN_POINT('',(-0.9550000000000001,0.315,0.5499999999999998));
#799 = VERTEX_POINT('',#798);
#800 = CARTESIAN_POINT('',(-0.9550000000000001,0.315,-2.1500000000000004));
#801 = VERTEX_POINT('',#800);
#802 = DIRECTION('',(0.,1.,0.));
#803 = VECTOR('',#802,1.);
#804 = LINE('',#764,#803);
#805 = EDGE_CURVE('',#765,#799,#804,.T.);
#806 = ORIENTED_EDGE('',*,*,#805,.F.);
#807 = ORIENTED_EDGE('',*,*,#773,.F.);
#808 = DIRECTION('',(0.,1.,0.));
#809 = VECTOR('',#808,1.);
#810 = LINE('',#762,#809);
#811 = EDGE_CURVE('',#763,#801,#810,.T.);
#812 = ORIENTED_EDGE('',*,*,#811,.T.);
#813 = DIRECTION('',(0.,0.,1.));
#814 = VECTOR('',#813,1.);
#815 = LINE('',#800,#814);
#816 = EDGE_CURVE('',#801,#799,#815,.T.);
#817 = ORIENTED_EDGE('',*,*,#816,.T.);
#818 = CARTESIAN_POINT('',(-0.9550000000000001,0.315,0.5499999999999998));
#819 = DIRECTION('',(1.,0.,0.));
#820 = DIRECTION('',(0.,-1.,0.));
#821 = AXIS2_PLACEMENT_3D('',#818,#819,#820);
#822 = PLANE('',#821);
#823 = EDGE_LOOP('',(#806,#807,#812,#817));
#824 = FACE_OUTER_BOUND('',#823,.T.);
#825 = ADVANCED_FACE('',(#824),#822,.T.);
#826 = CARTESIAN_POINT('',(-1.585,0.315,-2.1500000000000004));
#827 = VERTEX_POINT('',#826);
#828 = DIRECTION('',(-1.,0.,0.));
#829 = VECTOR('',#828,1.);
#830 = LINE('',#800,#829);
#831 = EDGE_CURVE('',#801,#827,#830,.T.);
#832 = ORIENTED_EDGE('',*,*,#831,.F.);
#833 = ORIENTED_EDGE('',*,*,#811,.F.);
#834 = ORIENTED_EDGE('',*,*,#788,.T.);
#835 = DIRECTION('',(0.,1.,0.));
#836 = VECTOR('',#835,1.);
#837 = LINE('',#768,#836);
#838 = EDGE_CURVE('',#769,#827,#837,.T.);
#839 = ORIENTED_EDGE('',*,*,#838,.T.);
#840 = CARTESIAN_POINT('',(-1.585,0.315,-2.1500000000000004));
#841 = DIRECTION('',(0.,0.,-1.));
#842 = DIRECTION('',(1.,0.,0.));
#843 = AXIS2_PLACEMENT_3D('',#840,#841,#842);
#844 = PLANE('',#843);
#845 = EDGE_LOOP('',(#832,#833,#834,#839));
#846 = FACE_OUTER_BOUND('',#845,.T.);
#847 = ADVANCED_FACE('',(#846),#844,.T.);
#848 = CARTESIAN_POINT('',(-1.095,-0.175,0.8999999999999999));
#849 = VERTEX_POINT('',#848);
#850 = CARTESIAN_POINT('',(-1.095,0.175,0.8999999999999999));
#851 = VERTEX_POINT('',#850);
#852 = DIRECTION('',(-0.3481553119113954,0.3481553119113957,0.8703882797784894));
#853 = VECTOR('',#852,1.);
#854 = LINE('',#764,#853);
#855 = EDGE_CURVE('',#765,#849,#854,.T.);
#856 = ORIENTED_EDGE('',*,*,#855,.F.);
#857 = ORIENTED_EDGE('',*,*,#805,.T.);
#858 = DIRECTION('',(-0.3481553119113954,-0.3481553119113957,0.8703882797784894));
#859 = VECTOR('',#858,1.);
#860 = LINE('',#798,#859);
#861 = EDGE_CURVE('',#799,#851,#860,.T.);
#862 = ORIENTED_EDGE('',*,*,#861,.T.);
#863 = DIRECTION('',(0.,1.,0.));
#864 = VECTOR('',#863,1.);
#865 = LINE('',#848,#864);
#866 = EDGE_CURVE('',#849,#851,#865,.T.);
#867 = ORIENTED_EDGE('',*,*,#866,.F.);
#868 = CARTESIAN_POINT('',(-1.095,-0.175,0.8999999999999999));
#869 = DIRECTION('',(0.9284766908852594,0.,0.37139067635410344));
#870 = DIRECTION('',(0.3481553119113954,-0.3481553119113957,-0.8703882797784894));
#871 = AXIS2_PLACEMENT_3D('',#868,#869,#870);
#872 = PLANE('',#871);
#873 = EDGE_LOOP('',(#856,#857,#862,#867));
#874 = FACE_OUTER_BOUND('',#873,.T.);
#875 = ADVANCED_FACE('',(#874),#872,.T.);
#876 = CARTESIAN_POINT('',(-1.445,-0.175,0.8999999999999999));
#877 = VERTEX_POINT('',#876);
#878 = DIRECTION('',(-1.,0.,0.));
#879 = VECTOR('',#878,1.);
#880 = LINE('',#848,#879);
#881 = EDGE_CURVE('',#849,#877,#880,.T.);
#882 = ORIENTED_EDGE('',*,*,#881,.T.);
#883 = DIRECTION('',(-0.3481553119113954,-0.3481553119113957,-0.8703882797784894));
#884 = VECTOR('',#883,1.);
#885 = LINE('',#876,#884);
#886 = EDGE_CURVE('',#877,#767,#885,.T.);
#887 = ORIENTED_EDGE('',*,*,#886,.T.);
#888 = ORIENTED_EDGE('',*,*,#778,.F.);
#889 = ORIENTED_EDGE('',*,*,#855,.T.);
#890 = CARTESIAN_POINT('',(-1.095,-0.175,0.8999999999999999));
#891 = DIRECTION('',(0.,-0.9284766908852593,0.3713906763541034));
#892 = DIRECTION('',(-1.,0.,0.));
#893 = AXIS2_PLACEMENT_3D('',#890,#891,#892);
#894 = PLANE('',#893);
#895 = EDGE_LOOP('',(#882,#887,#888,#889));
#896 = FACE_OUTER_BOUND('',#895,.T.);
#897 = ADVANCED_FACE('',(#896),#894,.T.);
#898 = CARTESIAN_POINT('',(-1.585,0.315,0.5499999999999998));
#899 = VERTEX_POINT('',#898);
#900 = DIRECTION('',(0.,0.,1.));
#901 = VECTOR('',#900,1.);
#902 = LINE('',#826,#901);
#903 = EDGE_CURVE('',#827,#899,#902,.T.);
#904 = ORIENTED_EDGE('',*,*,#903,.F.);
#905 = ORIENTED_EDGE('',*,*,#838,.F.);
#906 = ORIENTED_EDGE('',*,*,#783,.T.);
#907 = DIRECTION('',(0.,1.,0.));
#908 = VECTOR('',#907,1.);
#909 = LINE('',#766,#908);
#910 = EDGE_CURVE('',#767,#899,#909,.T.);
#911 = ORIENTED_EDGE('',*,*,#910,.T.);
#912 = CARTESIAN_POINT('',(-1.585,0.315,0.5499999999999998));
#913 = DIRECTION('',(-1.,0.,0.));
#914 = DIRECTION('',(0.,0.,-1.));
#915 = AXIS2_PLACEMENT_3D('',#912,#913,#914);
#916 = PLANE('',#915);
#917 = EDGE_LOOP('',(#904,#905,#906,#911));
#918 = FACE_OUTER_BOUND('',#917,.T.);
#919 = ADVANCED_FACE('',(#918),#916,.T.);
#920 = DIRECTION('',(-1.,0.,0.));
#921 = VECTOR('',#920,1.);
#922 = LINE('',#798,#921);
#923 = EDGE_CURVE('',#799,#899,#922,.T.);
#924 = ORIENTED_EDGE('',*,*,#923,.F.);
#925 = ORIENTED_EDGE('',*,*,#816,.F.);
#926 = ORIENTED_EDGE('',*,*,#831,.T.);
#927 = ORIENTED_EDGE('',*,*,#903,.T.);
#928 = CARTESIAN_POINT('',(-1.585,0.315,0.5499999999999998));
#929 = DIRECTION('',(0.,1.,0.));
#930 = DIRECTION('',(1.,0.,0.));
#931 = AXIS2_PLACEMENT_3D('',#928,#929,#930);
#932 = PLANE('',#931);
#933 = EDGE_LOOP('',(#924,#925,#926,#927));
#934 = FACE_OUTER_BOUND('',#933,.T.);
#935 = ADVANCED_FACE('',(#934),#932,.T.);
#936 = CARTESIAN_POINT('',(-1.445,0.175,0.8999999999999999));
#937 = VERTEX_POINT('',#936);
#938 = DIRECTION('',(-1.,0.,0.));
#939 = VECTOR('',#938,1.);
#940 = LINE('',#850,#939);
#941 = EDGE_CURVE('',#851,#937,#940,.T.);
#942 = ORIENTED_EDGE('',*,*,#941,.F.);
#943 = ORIENTED_EDGE('',*,*,#861,.F.);
#944 = ORIENTED_EDGE('',*,*,#923,.T.);
#945 = DIRECTION('',(-0.3481553119113954,0.3481553119113957,-0.8703882797784894));
#946 = VECTOR('',#945,1.);
#947 = LINE('',#936,#946);
#948 = EDGE_CURVE('',#937,#899,#947,.T.);
#949 = ORIENTED_EDGE('',*,*,#948,.F.);
#950 = CARTESIAN_POINT('',(-1.445,0.175,0.8999999999999999));
#951 = DIRECTION('',(0.,0.9284766908852593,0.3713906763541034));
#952 = DIRECTION('',(1.,0.,0.));
#953 = AXIS2_PLACEMENT_3D('',#950,#951,#952);
#954 = PLANE('',#953);
#955 = EDGE_LOOP('',(#942,#943,#944,#949));
#956 = FACE_OUTER_BOUND('',#955,.T.);
#957 = ADVANCED_FACE('',(#956),#954,.T.);
#958 = ORIENTED_EDGE('',*,*,#948,.T.);
#959 = ORIENTED_EDGE('',*,*,#910,.F.);
#960 = ORIENTED_EDGE('',*,*,#886,.F.);
#961 = DIRECTION('',(0.,1.,0.));
#962 = VECTOR('',#961,1.);
#963 = LINE('',#876,#962);
#964 = EDGE_CURVE('',#877,#937,#963,.T.);
#965 = ORIENTED_EDGE('',*,*,#964,.T.);
#966 = CARTESIAN_POINT('',(-1.445,0.175,0.8999999999999999));
#967 = DIRECTION('',(-0.9284766908852594,0.,0.37139067635410344));
#968 = DIRECTION('',(-0.3481553119113954,0.3481553119113957,-0.8703882797784894));
#969 = AXIS2_PLACEMENT_3D('',#966,#967,#968);
#970 = PLANE('',#969);
#971 = EDGE_LOOP('',(#958,#959,#960,#965));
#972 = FACE_OUTER_BOUND('',#971,.T.);
#973 = ADVANCED_FACE('',(#972),#970,.T.);
#974 = ORIENTED_EDGE('',*,*,#964,.F.);
#975 = ORIENTED_EDGE('',*,*,#881,.F.);
#976 = ORIENTED_EDGE('',*,*,#866,.T.);
#977 = ORIENTED_EDGE('',*,*,#941,.T.);
#978 = CARTESIAN_POINT('',(-1.445,0.175,0.8999999999999999));
#979 = DIRECTION('',(0.,0.,1.));
#980 = DIRECTION('',(0.,-1.,0.));
#981 = AXIS2_PLACEMENT_3D('',#978,#979,#980);
#982 = PLANE('',#981);
#983 = EDGE_LOOP('',(#974,#975,#976,#977));
#984 = FACE_OUTER_BOUND('',#983,.T.);
#985 = ADVANCED_FACE('',(#984),#982,.T.);
#986 = CLOSED_SHELL('',(#797,#825,#847,#875,#897,#919,#935,#957,#973,#985));
#987 = MANIFOLD_SOLID_BREP('',#986);
#988 = CARTESIAN_POINT('',(-0.9550000000000001,0.315,-3.6000000000000005));
#989 = VERTEX_POINT('',#988);
#990 = CARTESIAN_POINT('',(-0.9550000000000001,0.315,-9.));
#991 = VERTEX_POINT('',#990);
#992 = CARTESIAN_POINT('',(-1.585,0.315,-9.));
#993 = VERTEX_POINT('',#992);
#994 = CARTESIAN_POINT('',(-1.585,0.315,-3.6000000000000005));
#995 = VERTEX_POINT('',#994);
#996 = DIRECTION('',(0.,0.,-1.));
#997 = VECTOR('',#996,1.);
#998 = LINE('',#988,#997);
#999 = EDGE_CURVE('',#989,#991,#998,.T.);
#1000 = ORIENTED_EDGE('',*,*,#999,.T.);
#1001 = DIRECTION('',(-1.,0.,0.));
#1002 = VECTOR('',#1001,1.);
#1003 = LINE('',#990,#1002);
#1004 = EDGE_CURVE('',#991,#993,#1003,.T.);
#1005 = ORIENTED_EDGE('',*,*,#1004,.T.);
#1006 = DIRECTION('',(0.,0.,-1.));
#1007 = VECTOR('',#1006,1.);
#1008 = LINE('',#994,#1007);
#1009 = EDGE_CURVE('',#995,#993,#1008,.T.);
#1010 = ORIENTED_EDGE('',*,*,#1009,.F.);
#1011 = DIRECTION('',(-1.,0.,0.));
#1012 = VECTOR('',#1011,1.);
#1013 = LINE('',#988,#1012);
#1014 = EDGE_CURVE('',#989,#995,#1013,.T.);
#1015 = ORIENTED_EDGE('',*,*,#1014,.F.);
#1016 = CARTESIAN_POINT('',(-0.9550000000000001,0.315,-3.6000000000000005));
#1017 = DIRECTION('',(0.,1.,0.));
#1018 = DIRECTION('',(0.,0.,-1.));
#1019 = AXIS2_PLACEMENT_3D('',#1016,#1017,#1018);
#1020 = PLANE('',#1019);
#1021 = EDGE_LOOP('',(#1000,#1005,#1010,#1015));
#1022 = FACE_OUTER_BOUND('',#1021,.T.);
#1023 = ADVANCED_FACE('',(#1022),#1020,.T.);
#1024 = CARTESIAN_POINT('',(-1.585,-0.315,-9.));
#1025 = VERTEX_POINT('',#1024);
#1026 = CARTESIAN_POINT('',(-1.585,-0.315,-3.6000000000000005));
#1027 = VERTEX_POINT('',#1026);
#1028 = DIRECTION('',(0.,0.,-1.));
#1029 = VECTOR('',#1028,1.);
#1030 = LINE('',#1026,#1029);
#1031 = EDGE_CURVE('',#1027,#1025,#1030,.T.);
#1032 = ORIENTED_EDGE('',*,*,#1031,.F.);
#1033 = DIRECTION('',(0.,1.,0.));
#1034 = VECTOR('',#1033,1.);
#1035 = LINE('',#1026,#1034);
#1036 = EDGE_CURVE('',#1027,#995,#1035,.T.);
#1037 = ORIENTED_EDGE('',*,*,#1036,.T.);
#1038 = ORIENTED_EDGE('',*,*,#1009,.T.);
#1039 = DIRECTION('',(0.,1.,0.));
#1040 = VECTOR('',#1039,1.);
#1041 = LINE('',#1024,#1040);
#1042 = EDGE_CURVE('',#1025,#993,#1041,.T.);
#1043 = ORIENTED_EDGE('',*,*,#1042,.F.);
#1044 = CARTESIAN_POINT('',(-1.585,-0.315,-9.));
#1045 = DIRECTION('',(-1.,0.,0.));
#1046 = DIRECTION('',(0.,0.,1.));
#1047 = AXIS2_PLACEMENT_3D('',#1044,#1045,#1046);
#1048 = PLANE('',#1047);
#1049 = EDGE_LOOP('',(#1032,#1037,#1038,#1043));
#1050 = FACE_OUTER_BOUND('',#1049,.T.);
#1051 = ADVANCED_FACE('',(#1050),#1048,.T.);
#1052 = CARTESIAN_POINT('',(-1.445,0.175,-9.6));
#1053 = VERTEX_POINT('',#1052);
#1054 = CARTESIAN_POINT('',(-1.445,-0.175,-9.6));
#1055 = VERTEX_POINT('',#1054);
#1056 = ORIENTED_EDGE('',*,*,#1042,.T.);
#1057 = DIRECTION('',(-0.2215811282415214,0.22158112824152157,0.9496334067493776));
#1058 = VECTOR('',#1057,1.);
#1059 = LINE('',#1052,#1058);
#1060 = EDGE_CURVE('',#1053,#993,#1059,.T.);
#1061 = ORIENTED_EDGE('',*,*,#1060,.F.);
#1062 = DIRECTION('',(0.,1.,0.));
#1063 = VECTOR('',#1062,1.);
#1064 = LINE('',#1054,#1063);
#1065 = EDGE_CURVE('',#1055,#1053,#1064,.T.);
#1066 = ORIENTED_EDGE('',*,*,#1065,.F.);
#1067 = DIRECTION('',(-0.2215811282415214,-0.22158112824152157,0.9496334067493776));
#1068 = VECTOR('',#1067,1.);
#1069 = LINE('',#1054,#1068);
#1070 = EDGE_CURVE('',#1055,#1025,#1069,.T.);
#1071 = ORIENTED_EDGE('',*,*,#1070,.T.);
#1072 = CARTESIAN_POINT('',(-1.585,-0.315,-9.));
#1073 = DIRECTION('',(-0.9738412097417934,0.,-0.22722961560641775));
#1074 = DIRECTION('',(0.,1.,0.));
#1075 = AXIS2_PLACEMENT_3D('',#1072,#1073,#1074);
#1076 = PLANE('',#1075);
#1077 = EDGE_LOOP('',(#1056,#1061,#1066,#1071));
#1078 = FACE_OUTER_BOUND('',#1077,.T.);
#1079 = ADVANCED_FACE('',(#1078),#1076,.T.);
#1080 = CARTESIAN_POINT('',(-1.095,0.175,-9.6));
#1081 = VERTEX_POINT('',#1080);
#1082 = DIRECTION('',(-1.,0.,0.));
#1083 = VECTOR('',#1082,1.);
#1084 = LINE('',#1080,#1083);
#1085 = EDGE_CURVE('',#1081,#1053,#1084,.T.);
#1086 = ORIENTED_EDGE('',*,*,#1085,.T.);
#1087 = ORIENTED_EDGE('',*,*,#1060,.T.);
#1088 = ORIENTED_EDGE('',*,*,#1004,.F.);
#1089 = DIRECTION('',(-0.2215811282415214,-0.22158112824152157,-0.9496334067493776));
#1090 = VECTOR('',#1089,1.);
#1091 = LINE('',#990,#1090);
#1092 = EDGE_CURVE('',#991,#1081,#1091,.T.);
#1093 = ORIENTED_EDGE('',*,*,#1092,.T.);
#1094 = CARTESIAN_POINT('',(-1.095,0.175,-9.6));
#1095 = DIRECTION('',(0.,0.9738412097417931,-0.22722961560641836));
#1096 = DIRECTION('',(-1.,0.,0.));
#1097 = AXIS2_PLACEMENT_3D('',#1094,#1095,#1096);
#1098 = PLANE('',#1097);
#1099 = EDGE_LOOP('',(#1086,#1087,#1088,#1093));
#1100 = FACE_OUTER_BOUND('',#1099,.T.);
#1101 = ADVANCED_FACE('',(#1100),#1098,.T.);
#1102 = CARTESIAN_POINT('',(-0.9550000000000001,-0.315,-3.6000000000000005));
#1103 = VERTEX_POINT('',#1102);
#1104 = DIRECTION('',(0.,1.,0.));
#1105 = VECTOR('',#1104,1.);
#1106 = LINE('',#1102,#1105);
#1107 = EDGE_CURVE('',#1103,#989,#1106,.T.);
#1108 = ORIENTED_EDGE('',*,*,#1107,.T.);
#1109 = ORIENTED_EDGE('',*,*,#1014,.T.);
#1110 = ORIENTED_EDGE('',*,*,#1036,.F.);
#1111 = DIRECTION('',(-1.,0.,0.));
#1112 = VECTOR('',#1111,1.);
#1113 = LINE('',#1102,#1112);
#1114 = EDGE_CURVE('',#1103,#1027,#1113,.T.);
#1115 = ORIENTED_EDGE('',*,*,#1114,.F.);
#1116 = CARTESIAN_POINT('',(-0.9550000000000001,-0.315,-3.6000000000000005));
#1117 = DIRECTION('',(0.,0.,1.));
#1118 = DIRECTION('',(0.,1.,0.));
#1119 = AXIS2_PLACEMENT_3D('',#1116,#1117,#1118);
#1120 = PLANE('',#1119);
#1121 = EDGE_LOOP('',(#1108,#1109,#1110,#1115));
#1122 = FACE_OUTER_BOUND('',#1121,.T.);
#1123 = ADVANCED_FACE('',(#1122),#1120,.T.);
#1124 = CARTESIAN_POINT('',(-0.9550000000000001,-0.315,-9.));
#1125 = VERTEX_POINT('',#1124);
#1126 = DIRECTION('',(0.,1.,0.));
#1127 = VECTOR('',#1126,1.);
#1128 = LINE('',#1124,#1127);
#1129 = EDGE_CURVE('',#1125,#991,#1128,.T.);
#1130 = ORIENTED_EDGE('',*,*,#1129,.T.);
#1131 = ORIENTED_EDGE('',*,*,#999,.F.);
#1132 = ORIENTED_EDGE('',*,*,#1107,.F.);
#1133 = DIRECTION('',(0.,0.,-1.));
#1134 = VECTOR('',#1133,1.);
#1135 = LINE('',#1102,#1134);
#1136 = EDGE_CURVE('',#1103,#1125,#1135,.T.);
#1137 = ORIENTED_EDGE('',*,*,#1136,.T.);
#1138 = CARTESIAN_POINT('',(-0.9550000000000001,-0.315,-9.));
#1139 = DIRECTION('',(1.,0.,0.));
#1140 = DIRECTION('',(0.,1.,0.));
#1141 = AXIS2_PLACEMENT_3D('',#1138,#1139,#1140);
#1142 = PLANE('',#1141);
#1143 = EDGE_LOOP('',(#1130,#1131,#1132,#1137));
#1144 = FACE_OUTER_BOUND('',#1143,.T.);
#1145 = ADVANCED_FACE('',(#1144),#1142,.T.);
#1146 = ORIENTED_EDGE('',*,*,#1136,.F.);
#1147 = ORIENTED_EDGE('',*,*,#1114,.T.);
#1148 = ORIENTED_EDGE('',*,*,#1031,.T.);
#1149 = DIRECTION('',(-1.,0.,0.));
#1150 = VECTOR('',#1149,1.);
#1151 = LINE('',#1124,#1150);
#1152 = EDGE_CURVE('',#1125,#1025,#1151,.T.);
#1153 = ORIENTED_EDGE('',*,*,#1152,.F.);
#1154 = CARTESIAN_POINT('',(-0.9550000000000001,-0.315,-9.));
#1155 = DIRECTION('',(0.,-1.,0.));
#1156 = DIRECTION('',(0.,0.,1.));
#1157 = AXIS2_PLACEMENT_3D('',#1154,#1155,#1156);
#1158 = PLANE('',#1157);
#1159 = EDGE_LOOP('',(#1146,#1147,#1148,#1153));
#1160 = FACE_OUTER_BOUND('',#1159,.T.);
#1161 = ADVANCED_FACE('',(#1160),#1158,.T.);
#1162 = CARTESIAN_POINT('',(-1.095,-0.175,-9.6));
#1163 = VERTEX_POINT('',#1162);
#1164 = DIRECTION('',(0.,1.,0.));
#1165 = VECTOR('',#1164,1.);
#1166 = LINE('',#1162,#1165);
#1167 = EDGE_CURVE('',#1163,#1081,#1166,.T.);
#1168 = ORIENTED_EDGE('',*,*,#1167,.T.);
#1169 = ORIENTED_EDGE('',*,*,#1092,.F.);
#1170 = ORIENTED_EDGE('',*,*,#1129,.F.);
#1171 = DIRECTION('',(-0.2215811282415214,0.22158112824152157,-0.9496334067493776));
#1172 = VECTOR('',#1171,1.);
#1173 = LINE('',#1124,#1172);
#1174 = EDGE_CURVE('',#1125,#1163,#1173,.T.);
#1175 = ORIENTED_EDGE('',*,*,#1174,.T.);
#1176 = CARTESIAN_POINT('',(-1.095,-0.175,-9.6));
#1177 = DIRECTION('',(0.9738412097417933,0.,-0.2272296156064181));
#1178 = DIRECTION('',(0.,1.,0.));
#1179 = AXIS2_PLACEMENT_3D('',#1176,#1177,#1178);
#1180 = PLANE('',#1179);
#1181 = EDGE_LOOP('',(#1168,#1169,#1170,#1175));
#1182 = FACE_OUTER_BOUND('',#1181,.T.);
#1183 = ADVANCED_FACE('',(#1182),#1180,.T.);
#1184 = ORIENTED_EDGE('',*,*,#1174,.F.);
#1185 = ORIENTED_EDGE('',*,*,#1152,.T.);
#1186 = ORIENTED_EDGE('',*,*,#1070,.F.);
#1187 = DIRECTION('',(-1.,0.,0.));
#1188 = VECTOR('',#1187,1.);
#1189 = LINE('',#1162,#1188);
#1190 = EDGE_CURVE('',#1163,#1055,#1189,.T.);
#1191 = ORIENTED_EDGE('',*,*,#1190,.F.);
#1192 = CARTESIAN_POINT('',(-1.095,-0.175,-9.6));
#1193 = DIRECTION('',(0.,-0.9738412097417931,-0.2272296156064184));
#1194 = DIRECTION('',(0.2215811282415214,-0.22158112824152157,0.9496334067493776));
#1195 = AXIS2_PLACEMENT_3D('',#1192,#1193,#1194);
#1196 = PLANE('',#1195);
#1197 = EDGE_LOOP('',(#1184,#1185,#1186,#1191));
#1198 = FACE_OUTER_BOUND('',#1197,.T.);
#1199 = ADVANCED_FACE('',(#1198),#1196,.T.);
#1200 = ORIENTED_EDGE('',*,*,#1190,.T.);
#1201 = ORIENTED_EDGE('',*,*,#1065,.T.);
#1202 = ORIENTED_EDGE('',*,*,#1085,.F.);
#1203 = ORIENTED_EDGE('',*,*,#1167,.F.);
#1204 = CARTESIAN_POINT('',(-1.095,-0.175,-9.6));
#1205 = DIRECTION('',(0.,0.,-1.));
#1206 = DIRECTION('',(-1.,0.,0.));
#1207 = AXIS2_PLACEMENT_3D('',#1204,#1205,#1206);
#1208 = PLANE('',#1207);
#1209 = EDGE_LOOP('',(#1200,#1201,#1202,#1203));
#1210 = FACE_OUTER_BOUND('',#1209,.T.);
#1211 = ADVANCED_FACE('',(#1210),#1208,.T.);
#1212 = CLOSED_SHELL('',(#1023,#1051,#1079,#1101,#1123,#1145,#1161,#1183,#1199,#1211));
#1213 = MANIFOLD_SOLID_BREP('',#1212);
#1214 = CARTESIAN_POINT('',(0.,-1.27,-3.6));
#1215 = VERTEX_POINT('',#1214);
#1216 = CARTESIAN_POINT('',(0.,-1.27,-1.6));
#1217 = VERTEX_POINT('',#1216);
#1218 = CARTESIAN_POINT('',(0.,1.27,-1.6));
#1219 = VERTEX_POINT('',#1218);
#1220 = CARTESIAN_POINT('',(0.,1.27,-3.6));
#1221 = VERTEX_POINT('',#1220);
#1222 = DIRECTION('',(0.,0.,-1.));
#1223 = VECTOR('',#1222,1.);
#1224 = LINE('',#1216,#1223);
#1225 = EDGE_CURVE('',#1217,#1215,#1224,.T.);
#1226 = ORIENTED_EDGE('',*,*,#1225,.F.);
#1227 = DIRECTION('',(0.,1.,0.));
#1228 = VECTOR('',#1227,1.);
#1229 = LINE('',#1216,#1228);
#1230 = EDGE_CURVE('',#1217,#1219,#1229,.T.);
#1231 = ORIENTED_EDGE('',*,*,#1230,.T.);
#1232 = DIRECTION('',(0.,0.,-1.));
#1233 = VECTOR('',#1232,1.);
#1234 = LINE('',#1218,#1233);
#1235 = EDGE_CURVE('',#1219,#1221,#1234,.T.);
#1236 = ORIENTED_EDGE('',*,*,#1235,.T.);
#1237 = DIRECTION('',(0.,1.,0.));
#1238 = VECTOR('',#1237,1.);
#1239 = LINE('',#1214,#1238);
#1240 = EDGE_CURVE('',#1215,#1221,#1239,.T.);
#1241 = ORIENTED_EDGE('',*,*,#1240,.F.);
#1242 = CARTESIAN_POINT('',(0.,-1.27,-3.6));
#1243 = DIRECTION('',(-1.,0.,0.));
#1244 = DIRECTION('',(0.,0.,1.));
#1245 = AXIS2_PLACEMENT_3D('',#1242,#1243,#1244);
#1246 = PLANE('',#1245);
#1247 = EDGE_LOOP('',(#1226,#1231,#1236,#1241));
#1248 = FACE_OUTER_BOUND('',#1247,.T.);
#1249 = ADVANCED_FACE('',(#1248),#1246,.T.);
#1250 = CARTESIAN_POINT('',(2.54,-1.27,-3.6));
#1251 = VERTEX_POINT('',#1250);
#1252 = CARTESIAN_POINT('',(2.54,1.27,-3.6));
#1253 = VERTEX_POINT('',#1252);
#1254 = CARTESIAN_POINT('',(2.54,1.27,-1.6));
#1255 = VERTEX_POINT('',#1254);
#1256 = CARTESIAN_POINT('',(2.54,-1.27,-1.6));
#1257 = VERTEX_POINT('',#1256);
#1258 = DIRECTION('',(0.,1.,0.));
#1259 = VECTOR('',#1258,1.);
#1260 = LINE('',#1250,#1259);
#1261 = EDGE_CURVE('',#1251,#1253,#1260,.T.);
#1262 = ORIENTED_EDGE('',*,*,#1261,.T.);
#1263 = DIRECTION('',(0.,0.,-1.));
#1264 = VECTOR('',#1263,1.);
#1265 = LINE('',#1254,#1264);
#1266 = EDGE_CURVE('',#1255,#1253,#1265,.T.);
#1267 = ORIENTED_EDGE('',*,*,#1266,.F.);
#1268 = DIRECTION('',(0.,1.,0.));
#1269 = VECTOR('',#1268,1.);
#1270 = LINE('',#1256,#1269);
#1271 = EDGE_CURVE('',#1257,#1255,#1270,.T.);
#1272 = ORIENTED_EDGE('',*,*,#1271,.F.);
#1273 = DIRECTION('',(0.,0.,-1.));
#1274 = VECTOR('',#1273,1.);
#1275 = LINE('',#1256,#1274);
#1276 = EDGE_CURVE('',#1257,#1251,#1275,.T.);
#1277 = ORIENTED_EDGE('',*,*,#1276,.T.);
#1278 = CARTESIAN_POINT('',(2.54,-1.27,-3.6));
#1279 = DIRECTION('',(1.,0.,0.));
#1280 = DIRECTION('',(0.,1.,0.));
#1281 = AXIS2_PLACEMENT_3D('',#1278,#1279,#1280);
#1282 = PLANE('',#1281);
#1283 = EDGE_LOOP('',(#1262,#1267,#1272,#1277));
#1284 = FACE_OUTER_BOUND('',#1283,.T.);
#1285 = ADVANCED_FACE('',(#1284),#1282,.T.);
#1286 = DIRECTION('',(1.,0.,0.));
#1287 = VECTOR('',#1286,1.);
#1288 = LINE('',#1214,#1287);
#1289 = EDGE_CURVE('',#1215,#1251,#1288,.T.);
#1290 = ORIENTED_EDGE('',*,*,#1289,.T.);
#1291 = ORIENTED_EDGE('',*,*,#1276,.F.);
#1292 = DIRECTION('',(1.,0.,0.));
#1293 = VECTOR('',#1292,1.);
#1294 = LINE('',#1216,#1293);
#1295 = EDGE_CURVE('',#1217,#1257,#1294,.T.);
#1296 = ORIENTED_EDGE('',*,*,#1295,.F.);
#1297 = ORIENTED_EDGE('',*,*,#1225,.T.);
#1298 = CARTESIAN_POINT('',(0.,-1.27,-3.6));
#1299 = DIRECTION('',(0.,-1.,0.));
#1300 = DIRECTION('',(1.,0.,0.));
#1301 = AXIS2_PLACEMENT_3D('',#1298,#1299,#1300);
#1302 = PLANE('',#1301);
#1303 = EDGE_LOOP('',(#1290,#1291,#1296,#1297));
#1304 = FACE_OUTER_BOUND('',#1303,.T.);
#1305 = ADVANCED_FACE('',(#1304),#1302,.T.);
#1306 = ORIENTED_EDGE('',*,*,#1235,.F.);
#1307 = DIRECTION('',(1.,0.,0.));
#1308 = VECTOR('',#1307,1.);
#1309 = LINE('',#1218,#1308);
#1310 = EDGE_CURVE('',#1219,#1255,#1309,.T.);
#1311 = ORIENTED_EDGE('',*,*,#1310,.T.);
#1312 = ORIENTED_EDGE('',*,*,#1266,.T.);
#1313 = DIRECTION('',(1.,0.,0.));
#1314 = VECTOR('',#1313,1.);
#1315 = LINE('',#1220,#1314);
#1316 = EDGE_CURVE('',#1221,#1253,#1315,.T.);
#1317 = ORIENTED_EDGE('',*,*,#1316,.F.);
#1318 = CARTESIAN_POINT('',(0.,1.27,-3.6));
#1319 = DIRECTION('',(0.,1.,0.));
#1320 = DIRECTION('',(0.,0.,1.));
#1321 = AXIS2_PLACEMENT_3D('',#1318,#1319,#1320);
#1322 = PLANE('',#1321);
#1323 = EDGE_LOOP('',(#1306,#1311,#1312,#1317));
#1324 = FACE_OUTER_BOUND('',#1323,.T.);
#1325 = ADVANCED_FACE('',(#1324),#1322,.T.);
#1326 = ORIENTED_EDGE('',*,*,#1240,.T.);
#1327 = ORIENTED_EDGE('',*,*,#1316,.T.);
#1328 = ORIENTED_EDGE('',*,*,#1261,.F.);
#1329 = ORIENTED_EDGE('',*,*,#1289,.F.);
#1330 = CARTESIAN_POINT('',(0.,-1.27,-3.6));
#1331 = DIRECTION('',(0.,0.,-1.));
#1332 = DIRECTION('',(0.,1.,0.));
#1333 = AXIS2_PLACEMENT_3D('',#1330,#1331,#1332);
#1334 = PLANE('',#1333);
#1335 = EDGE_LOOP('',(#1326,#1327,#1328,#1329));
#1336 = FACE_OUTER_BOUND('',#1335,.T.);
#1337 = ADVANCED_FACE('',(#1336),#1334,.T.);
#1338 = ORIENTED_EDGE('',*,*,#1295,.T.);
#1339 = ORIENTED_EDGE('',*,*,#1271,.T.);
#1340 = ORIENTED_EDGE('',*,*,#1310,.F.);
#1341 = ORIENTED_EDGE('',*,*,#1230,.F.);
#1342 = CARTESIAN_POINT('',(0.,-1.27,-1.6));
#1343 = DIRECTION('',(0.,0.,1.));
#1344 = DIRECTION('',(1.,0.,0.));
#1345 = AXIS2_PLACEMENT_3D('',#1342,#1343,#1344);
#1346 = PLANE('',#1345);
#1347 = EDGE_LOOP('',(#1338,#1339,#1340,#1341));
#1348 = FACE_OUTER_BOUND('',#1347,.T.);
#1349 = ADVANCED_FACE('',(#1348),#1346,.T.);
#1350 = CLOSED_SHELL('',(#1249,#1285,#1305,#1325,#1337,#1349));
#1351 = MANIFOLD_SOLID_BREP('',#1350);
#1352 = COLOUR_RGB('',0.13333333333333333,0.13333333333333333,0.13333333333333333);
#1353 = FILL_AREA_STYLE_COLOUR('',#1352);
#1354 = FILL_AREA_STYLE('',(#1353));
#1355 = SURFACE_STYLE_FILL_AREA(#1354);
#1356 = SURFACE_SIDE_STYLE('',(#1355));
#1357 = SURFACE_STYLE_USAGE(.BOTH.,#1356);
#1358 = PRESENTATION_STYLE_ASSIGNMENT((#1357));
#1359 = STYLED_ITEM('',(#1358),#1351);
#1360 = CARTESIAN_POINT('',(0.9550000000000001,0.315,0.5499999999999998));
#1361 = VERTEX_POINT('',#1360);
#1362 = CARTESIAN_POINT('',(1.585,0.315,0.5499999999999998));
#1363 = VERTEX_POINT('',#1362);
#1364 = CARTESIAN_POINT('',(1.585,0.315,-2.1500000000000004));
#1365 = VERTEX_POINT('',#1364);
#1366 = CARTESIAN_POINT('',(0.9550000000000001,0.315,-2.1500000000000004));
#1367 = VERTEX_POINT('',#1366);
#1368 = DIRECTION('',(1.,0.,0.));
#1369 = VECTOR('',#1368,1.);
#1370 = LINE('',#1360,#1369);
#1371 = EDGE_CURVE('',#1361,#1363,#1370,.T.);
#1372 = ORIENTED_EDGE('',*,*,#1371,.T.);
#1373 = DIRECTION('',(0.,0.,1.));
#1374 = VECTOR('',#1373,1.);
#1375 = LINE('',#1364,#1374);
#1376 = EDGE_CURVE('',#1365,#1363,#1375,.T.);
#1377 = ORIENTED_EDGE('',*,*,#1376,.F.);
#1378 = DIRECTION('',(1.,0.,0.));
#1379 = VECTOR('',#1378,1.);
#1380 = LINE('',#1366,#1379);
#1381 = EDGE_CURVE('',#1367,#1365,#1380,.T.);
#1382 = ORIENTED_EDGE('',*,*,#1381,.F.);
#1383 = DIRECTION('',(0.,0.,1.));
#1384 = VECTOR('',#1383,1.);
#1385 = LINE('',#1366,#1384);
#1386 = EDGE_CURVE('',#1367,#1361,#1385,.T.);
#1387 = ORIENTED_EDGE('',*,*,#1386,.T.);
#1388 = CARTESIAN_POINT('',(0.9550000000000001,0.315,0.5499999999999998));
#1389 = DIRECTION('',(0.,1.,0.));
#1390 = DIRECTION('',(1.,0.,0.));
#1391 = AXIS2_PLACEMENT_3D('',#1388,#1389,#1390);
#1392 = PLANE('',#1391);
#1393 = EDGE_LOOP('',(#1372,#1377,#1382,#1387));
#1394 = FACE_OUTER_BOUND('',#1393,.T.);
#1395 = ADVANCED_FACE('',(#1394),#1392,.T.);
#1396 = CARTESIAN_POINT('',(0.9550000000000001,-0.315,-2.1500000000000004));
#1397 = VERTEX_POINT('',#1396);
#1398 = CARTESIAN_POINT('',(0.9550000000000001,-0.315,0.5499999999999998));
#1399 = VERTEX_POINT('',#1398);
#1400 = ORIENTED_EDGE('',*,*,#1386,.F.);
#1401 = DIRECTION('',(0.,1.,0.));
#1402 = VECTOR('',#1401,1.);
#1403 = LINE('',#1396,#1402);
#1404 = EDGE_CURVE('',#1397,#1367,#1403,.T.);
#1405 = ORIENTED_EDGE('',*,*,#1404,.F.);
#1406 = DIRECTION('',(0.,0.,1.));
#1407 = VECTOR('',#1406,1.);
#1408 = LINE('',#1396,#1407);
#1409 = EDGE_CURVE('',#1397,#1399,#1408,.T.);
#1410 = ORIENTED_EDGE('',*,*,#1409,.T.);
#1411 = DIRECTION('',(0.,1.,0.));
#1412 = VECTOR('',#1411,1.);
#1413 = LINE('',#1398,#1412);
#1414 = EDGE_CURVE('',#1399,#1361,#1413,.T.);
#1415 = ORIENTED_EDGE('',*,*,#1414,.T.);
#1416 = CARTESIAN_POINT('',(0.9550000000000001,0.315,0.5499999999999998));
#1417 = DIRECTION('',(-1.,0.,0.));
#1418 = DIRECTION('',(0.,0.,-1.));
#1419 = AXIS2_PLACEMENT_3D('',#1416,#1417,#1418);
#1420 = PLANE('',#1419);
#1421 = EDGE_LOOP('',(#1400,#1405,#1410,#1415));
#1422 = FACE_OUTER_BOUND('',#1421,.T.);
#1423 = ADVANCED_FACE('',(#1422),#1420,.T.);
#1424 = CARTESIAN_POINT('',(1.445,-0.175,0.8999999999999999));
#1425 = VERTEX_POINT('',#1424);
#1426 = CARTESIAN_POINT('',(1.095,-0.175,0.8999999999999999));
#1427 = VERTEX_POINT('',#1426);
#1428 = CARTESIAN_POINT('',(1.585,-0.315,0.5499999999999998));
#1429 = VERTEX_POINT('',#1428);
#1430 = DIRECTION('',(1.,0.,0.));
#1431 = VECTOR('',#1430,1.);
#1432 = LINE('',#1426,#1431);
#1433 = EDGE_CURVE('',#1427,#1425,#1432,.T.);
#1434 = ORIENTED_EDGE('',*,*,#1433,.F.);
#1435 = DIRECTION('',(0.3481553119113954,0.3481553119113957,0.8703882797784894));
#1436 = VECTOR('',#1435,1.);
#1437 = LINE('',#1398,#1436);
#1438 = EDGE_CURVE('',#1399,#1427,#1437,.T.);
#1439 = ORIENTED_EDGE('',*,*,#1438,.F.);
#1440 = DIRECTION('',(1.,0.,0.));
#1441 = VECTOR('',#1440,1.);
#1442 = LINE('',#1398,#1441);
#1443 = EDGE_CURVE('',#1399,#1429,#1442,.T.);
#1444 = ORIENTED_EDGE('',*,*,#1443,.T.);
#1445 = DIRECTION('',(0.3481553119113954,-0.3481553119113957,-0.8703882797784894));
#1446 = VECTOR('',#1445,1.);
#1447 = LINE('',#1424,#1446);
#1448 = EDGE_CURVE('',#1425,#1429,#1447,.T.);
#1449 = ORIENTED_EDGE('',*,*,#1448,.F.);
#1450 = CARTESIAN_POINT('',(1.445,-0.175,0.8999999999999999));
#1451 = DIRECTION('',(0.,-0.9284766908852593,0.3713906763541034));
#1452 = DIRECTION('',(-1.,0.,0.));
#1453 = AXIS2_PLACEMENT_3D('',#1450,#1451,#1452);
#1454 = PLANE('',#1453);
#1455 = EDGE_LOOP('',(#1434,#1439,#1444,#1449));
#1456 = FACE_OUTER_BOUND('',#1455,.T.);
#1457 = ADVANCED_FACE('',(#1456),#1454,.T.);
#1458 = CARTESIAN_POINT('',(1.585,-0.315,-2.1500000000000004));
#1459 = VERTEX_POINT('',#1458);
#1460 = DIRECTION('',(0.,1.,0.));
#1461 = VECTOR('',#1460,1.);
#1462 = LINE('',#1458,#1461);
#1463 = EDGE_CURVE('',#1459,#1365,#1462,.T.);
#1464 = ORIENTED_EDGE('',*,*,#1463,.T.);
#1465 = ORIENTED_EDGE('',*,*,#1376,.T.);
#1466 = DIRECTION('',(0.,1.,0.));
#1467 = VECTOR('',#1466,1.);
#1468 = LINE('',#1428,#1467);
#1469 = EDGE_CURVE('',#1429,#1363,#1468,.T.);
#1470 = ORIENTED_EDGE('',*,*,#1469,.F.);
#1471 = DIRECTION('',(0.,0.,1.));
#1472 = VECTOR('',#1471,1.);
#1473 = LINE('',#1458,#1472);
#1474 = EDGE_CURVE('',#1459,#1429,#1473,.T.);
#1475 = ORIENTED_EDGE('',*,*,#1474,.F.);
#1476 = CARTESIAN_POINT('',(1.585,-0.315,-2.1500000000000004));
#1477 = DIRECTION('',(1.,0.,0.));
#1478 = DIRECTION('',(0.,1.,0.));
#1479 = AXIS2_PLACEMENT_3D('',#1476,#1477,#1478);
#1480 = PLANE('',#1479);
#1481 = EDGE_LOOP('',(#1464,#1465,#1470,#1475));
#1482 = FACE_OUTER_BOUND('',#1481,.T.);
#1483 = ADVANCED_FACE('',(#1482),#1480,.T.);
#1484 = ORIENTED_EDGE('',*,*,#1474,.T.);
#1485 = ORIENTED_EDGE('',*,*,#1443,.F.);
#1486 = ORIENTED_EDGE('',*,*,#1409,.F.);
#1487 = DIRECTION('',(1.,0.,0.));
#1488 = VECTOR('',#1487,1.);
#1489 = LINE('',#1396,#1488);
#1490 = EDGE_CURVE('',#1397,#1459,#1489,.T.);
#1491 = ORIENTED_EDGE('',*,*,#1490,.T.);
#1492 = CARTESIAN_POINT('',(1.585,-0.315,-2.1500000000000004));
#1493 = DIRECTION('',(0.,-1.,0.));
#1494 = DIRECTION('',(0.,0.,1.));
#1495 = AXIS2_PLACEMENT_3D('',#1492,#1493,#1494);
#1496 = PLANE('',#1495);
#1497 = EDGE_LOOP('',(#1484,#1485,#1486,#1491));
#1498 = FACE_OUTER_BOUND('',#1497,.T.);
#1499 = ADVANCED_FACE('',(#1498),#1496,.T.);
#1500 = ORIENTED_EDGE('',*,*,#1490,.F.);
#1501 = ORIENTED_EDGE('',*,*,#1404,.T.);
#1502 = ORIENTED_EDGE('',*,*,#1381,.T.);
#1503 = ORIENTED_EDGE('',*,*,#1463,.F.);
#1504 = CARTESIAN_POINT('',(1.585,-0.315,-2.1500000000000004));
#1505 = DIRECTION('',(0.,0.,-1.));
#1506 = DIRECTION('',(-1.,0.,0.));
#1507 = AXIS2_PLACEMENT_3D('',#1504,#1505,#1506);
#1508 = PLANE('',#1507);
#1509 = EDGE_LOOP('',(#1500,#1501,#1502,#1503));
#1510 = FACE_OUTER_BOUND('',#1509,.T.);
#1511 = ADVANCED_FACE('',(#1510),#1508,.T.);
#1512 = CARTESIAN_POINT('',(1.095,0.175,0.8999999999999999));
#1513 = VERTEX_POINT('',#1512);
#1514 = DIRECTION('',(0.3481553119113954,-0.3481553119113957,0.8703882797784894));
#1515 = VECTOR('',#1514,1.);
#1516 = LINE('',#1360,#1515);
#1517 = EDGE_CURVE('',#1361,#1513,#1516,.T.);
#1518 = ORIENTED_EDGE('',*,*,#1517,.F.);
#1519 = ORIENTED_EDGE('',*,*,#1414,.F.);
#1520 = ORIENTED_EDGE('',*,*,#1438,.T.);
#1521 = DIRECTION('',(0.,1.,0.));
#1522 = VECTOR('',#1521,1.);
#1523 = LINE('',#1426,#1522);
#1524 = EDGE_CURVE('',#1427,#1513,#1523,.T.);
#1525 = ORIENTED_EDGE('',*,*,#1524,.T.);
#1526 = CARTESIAN_POINT('',(1.095,0.175,0.8999999999999999));
#1527 = DIRECTION('',(-0.9284766908852594,0.,0.37139067635410344));
#1528 = DIRECTION('',(-0.3481553119113954,0.3481553119113957,-0.8703882797784894));
#1529 = AXIS2_PLACEMENT_3D('',#1526,#1527,#1528);
#1530 = PLANE('',#1529);
#1531 = EDGE_LOOP('',(#1518,#1519,#1520,#1525));
#1532 = FACE_OUTER_BOUND('',#1531,.T.);
#1533 = ADVANCED_FACE('',(#1532),#1530,.T.);
#1534 = CARTESIAN_POINT('',(1.445,0.175,0.8999999999999999));
#1535 = VERTEX_POINT('',#1534);
#1536 = DIRECTION('',(0.3481553119113954,0.3481553119113957,-0.8703882797784894));
#1537 = VECTOR('',#1536,1.);
#1538 = LINE('',#1534,#1537);
#1539 = EDGE_CURVE('',#1535,#1363,#1538,.T.);
#1540 = ORIENTED_EDGE('',*,*,#1539,.T.);
#1541 = ORIENTED_EDGE('',*,*,#1371,.F.);
#1542 = ORIENTED_EDGE('',*,*,#1517,.T.);
#1543 = DIRECTION('',(1.,0.,0.));
#1544 = VECTOR('',#1543,1.);
#1545 = LINE('',#1512,#1544);
#1546 = EDGE_CURVE('',#1513,#1535,#1545,.T.);
#1547 = ORIENTED_EDGE('',*,*,#1546,.T.);
#1548 = CARTESIAN_POINT('',(1.445,0.175,0.8999999999999999));
#1549 = DIRECTION('',(0.,0.9284766908852593,0.37139067635410344));
#1550 = DIRECTION('',(0.3481553119113954,0.3481553119113957,-0.8703882797784894));
#1551 = AXIS2_PLACEMENT_3D('',#1548,#1549,#1550);
#1552 = PLANE('',#1551);
#1553 = EDGE_LOOP('',(#1540,#1541,#1542,#1547));
#1554 = FACE_OUTER_BOUND('',#1553,.T.);
#1555 = ADVANCED_FACE('',(#1554),#1552,.T.);
#1556 = ORIENTED_EDGE('',*,*,#1546,.F.);
#1557 = ORIENTED_EDGE('',*,*,#1524,.F.);
#1558 = ORIENTED_EDGE('',*,*,#1433,.T.);
#1559 = DIRECTION('',(0.,1.,0.));
#1560 = VECTOR('',#1559,1.);
#1561 = LINE('',#1424,#1560);
#1562 = EDGE_CURVE('',#1425,#1535,#1561,.T.);
#1563 = ORIENTED_EDGE('',*,*,#1562,.T.);
#1564 = CARTESIAN_POINT('',(1.445,0.175,0.8999999999999999));
#1565 = DIRECTION('',(0.,0.,1.));
#1566 = DIRECTION('',(-1.,0.,0.));
#1567 = AXIS2_PLACEMENT_3D('',#1564,#1565,#1566);
#1568 = PLANE('',#1567);
#1569 = EDGE_LOOP('',(#1556,#1557,#1558,#1563));
#1570 = FACE_OUTER_BOUND('',#1569,.T.);
#1571 = ADVANCED_FACE('',(#1570),#1568,.T.);
#1572 = ORIENTED_EDGE('',*,*,#1562,.F.);
#1573 = ORIENTED_EDGE('',*,*,#1448,.T.);
#1574 = ORIENTED_EDGE('',*,*,#1469,.T.);
#1575 = ORIENTED_EDGE('',*,*,#1539,.F.);
#1576 = CARTESIAN_POINT('',(1.445,0.175,0.8999999999999999));
#1577 = DIRECTION('',(0.9284766908852594,0.,0.37139067635410344));
#1578 = DIRECTION('',(0.,-1.,0.));
#1579 = AXIS2_PLACEMENT_3D('',#1576,#1577,#1578);
#1580 = PLANE('',#1579);
#1581 = EDGE_LOOP('',(#1572,#1573,#1574,#1575));
#1582 = FACE_OUTER_BOUND('',#1581,.T.);
#1583 = ADVANCED_FACE('',(#1582),#1580,.T.);
#1584 = CLOSED_SHELL('',(#1395,#1423,#1457,#1483,#1499,#1511,#1533,#1555,#1571,#1583));
#1585 = MANIFOLD_SOLID_BREP('',#1584);
#1586 = CARTESIAN_POINT('',(0.9550000000000001,-0.315,-9.));
#1587 = VERTEX_POINT('',#1586);
#1588 = CARTESIAN_POINT('',(1.585,-0.315,-9.));
#1589 = VERTEX_POINT('',#1588);
#1590 = CARTESIAN_POINT('',(1.585,-0.315,-3.6000000000000005));
#1591 = VERTEX_POINT('',#1590);
#1592 = CARTESIAN_POINT('',(0.9550000000000001,-0.315,-3.6000000000000005));
#1593 = VERTEX_POINT('',#1592);
#1594 = DIRECTION('',(1.,0.,0.));
#1595 = VECTOR('',#1594,1.);
#1596 = LINE('',#1586,#1595);
#1597 = EDGE_CURVE('',#1587,#1589,#1596,.T.);
#1598 = ORIENTED_EDGE('',*,*,#1597,.T.);
#1599 = DIRECTION('',(0.,0.,-1.));
#1600 = VECTOR('',#1599,1.);
#1601 = LINE('',#1590,#1600);
#1602 = EDGE_CURVE('',#1591,#1589,#1601,.T.);
#1603 = ORIENTED_EDGE('',*,*,#1602,.F.);
#1604 = DIRECTION('',(1.,0.,0.));
#1605 = VECTOR('',#1604,1.);
#1606 = LINE('',#1592,#1605);
#1607 = EDGE_CURVE('',#1593,#1591,#1606,.T.);
#1608 = ORIENTED_EDGE('',*,*,#1607,.F.);
#1609 = DIRECTION('',(0.,0.,-1.));
#1610 = VECTOR('',#1609,1.);
#1611 = LINE('',#1592,#1610);
#1612 = EDGE_CURVE('',#1593,#1587,#1611,.T.);
#1613 = ORIENTED_EDGE('',*,*,#1612,.T.);
#1614 = CARTESIAN_POINT('',(0.9550000000000001,-0.315,-9.));
#1615 = DIRECTION('',(0.,-1.,0.));
#1616 = DIRECTION('',(1.,0.,0.));
#1617 = AXIS2_PLACEMENT_3D('',#1614,#1615,#1616);
#1618 = PLANE('',#1617);
#1619 = EDGE_LOOP('',(#1598,#1603,#1608,#1613));
#1620 = FACE_OUTER_BOUND('',#1619,.T.);
#1621 = ADVANCED_FACE('',(#1620),#1618,.T.);
#1622 = CARTESIAN_POINT('',(1.585,0.315,-3.6000000000000005));
#1623 = VERTEX_POINT('',#1622);
#1624 = CARTESIAN_POINT('',(1.585,0.315,-9.));
#1625 = VERTEX_POINT('',#1624);
#1626 = DIRECTION('',(0.,1.,0.));
#1627 = VECTOR('',#1626,1.);
#1628 = LINE('',#1590,#1627);
#1629 = EDGE_CURVE('',#1591,#1623,#1628,.T.);
#1630 = ORIENTED_EDGE('',*,*,#1629,.F.);
#1631 = ORIENTED_EDGE('',*,*,#1602,.T.);
#1632 = DIRECTION('',(0.,1.,0.));
#1633 = VECTOR('',#1632,1.);
#1634 = LINE('',#1588,#1633);
#1635 = EDGE_CURVE('',#1589,#1625,#1634,.T.);
#1636 = ORIENTED_EDGE('',*,*,#1635,.T.);
#1637 = DIRECTION('',(0.,0.,-1.));
#1638 = VECTOR('',#1637,1.);
#1639 = LINE('',#1622,#1638);
#1640 = EDGE_CURVE('',#1623,#1625,#1639,.T.);
#1641 = ORIENTED_EDGE('',*,*,#1640,.F.);
#1642 = CARTESIAN_POINT('',(1.585,0.315,-3.6000000000000005));
#1643 = DIRECTION('',(1.,0.,0.));
#1644 = DIRECTION('',(0.,-1.,0.));
#1645 = AXIS2_PLACEMENT_3D('',#1642,#1643,#1644);
#1646 = PLANE('',#1645);
#1647 = EDGE_LOOP('',(#1630,#1631,#1636,#1641));
#1648 = FACE_OUTER_BOUND('',#1647,.T.);
#1649 = ADVANCED_FACE('',(#1648),#1646,.T.);
#1650 = CARTESIAN_POINT('',(1.445,-0.175,-9.6));
#1651 = VERTEX_POINT('',#1650);
#1652 = CARTESIAN_POINT('',(1.445,0.175,-9.6));
#1653 = VERTEX_POINT('',#1652);
#1654 = DIRECTION('',(0.,1.,0.));
#1655 = VECTOR('',#1654,1.);
#1656 = LINE('',#1650,#1655);
#1657 = EDGE_CURVE('',#1651,#1653,#1656,.T.);
#1658 = ORIENTED_EDGE('',*,*,#1657,.T.);
#1659 = DIRECTION('',(0.2215811282415214,0.22158112824152157,0.9496334067493776));
#1660 = VECTOR('',#1659,1.);
#1661 = LINE('',#1652,#1660);
#1662 = EDGE_CURVE('',#1653,#1625,#1661,.T.);
#1663 = ORIENTED_EDGE('',*,*,#1662,.T.);
#1664 = ORIENTED_EDGE('',*,*,#1635,.F.);
#1665 = DIRECTION('',(0.2215811282415214,-0.22158112824152157,0.9496334067493776));
#1666 = VECTOR('',#1665,1.);
#1667 = LINE('',#1650,#1666);
#1668 = EDGE_CURVE('',#1651,#1589,#1667,.T.);
#1669 = ORIENTED_EDGE('',*,*,#1668,.F.);
#1670 = CARTESIAN_POINT('',(1.445,-0.175,-9.6));
#1671 = DIRECTION('',(0.9738412097417933,0.,-0.2272296156064181));
#1672 = DIRECTION('',(0.,1.,0.));
#1673 = AXIS2_PLACEMENT_3D('',#1670,#1671,#1672);
#1674 = PLANE('',#1673);
#1675 = EDGE_LOOP('',(#1658,#1663,#1664,#1669));
#1676 = FACE_OUTER_BOUND('',#1675,.T.);
#1677 = ADVANCED_FACE('',(#1676),#1674,.T.);
#1678 = CARTESIAN_POINT('',(1.095,-0.175,-9.6));
#1679 = VERTEX_POINT('',#1678);
#1680 = ORIENTED_EDGE('',*,*,#1668,.T.);
#1681 = ORIENTED_EDGE('',*,*,#1597,.F.);
#1682 = DIRECTION('',(0.2215811282415214,0.22158112824152157,-0.9496334067493776));
#1683 = VECTOR('',#1682,1.);
#1684 = LINE('',#1586,#1683);
#1685 = EDGE_CURVE('',#1587,#1679,#1684,.T.);
#1686 = ORIENTED_EDGE('',*,*,#1685,.T.);
#1687 = DIRECTION('',(1.,0.,0.));
#1688 = VECTOR('',#1687,1.);
#1689 = LINE('',#1678,#1688);
#1690 = EDGE_CURVE('',#1679,#1651,#1689,.T.);
#1691 = ORIENTED_EDGE('',*,*,#1690,.T.);
#1692 = CARTESIAN_POINT('',(1.445,-0.175,-9.6));
#1693 = DIRECTION('',(0.,-0.9738412097417931,-0.2272296156064184));
#1694 = DIRECTION('',(0.2215811282415214,-0.22158112824152157,0.9496334067493776));
#1695 = AXIS2_PLACEMENT_3D('',#1692,#1693,#1694);
#1696 = PLANE('',#1695);
#1697 = EDGE_LOOP('',(#1680,#1681,#1686,#1691));
#1698 = FACE_OUTER_BOUND('',#1697,.T.);
#1699 = ADVANCED_FACE('',(#1698),#1696,.T.);
#1700 = CARTESIAN_POINT('',(1.095,0.175,-9.6));
#1701 = VERTEX_POINT('',#1700);
#1702 = CARTESIAN_POINT('',(0.9550000000000001,0.315,-9.));
#1703 = VERTEX_POINT('',#1702);
#1704 = DIRECTION('',(0.,1.,0.));
#1705 = VECTOR('',#1704,1.);
#1706 = LINE('',#1678,#1705);
#1707 = EDGE_CURVE('',#1679,#1701,#1706,.T.);
#1708 = ORIENTED_EDGE('',*,*,#1707,.F.);
#1709 = ORIENTED_EDGE('',*,*,#1685,.F.);
#1710 = DIRECTION('',(0.,1.,0.));
#1711 = VECTOR('',#1710,1.);
#1712 = LINE('',#1586,#1711);
#1713 = EDGE_CURVE('',#1587,#1703,#1712,.T.);
#1714 = ORIENTED_EDGE('',*,*,#1713,.T.);
#1715 = DIRECTION('',(0.2215811282415214,-0.22158112824152157,-0.9496334067493776));
#1716 = VECTOR('',#1715,1.);
#1717 = LINE('',#1702,#1716);
#1718 = EDGE_CURVE('',#1703,#1701,#1717,.T.);
#1719 = ORIENTED_EDGE('',*,*,#1718,.T.);
#1720 = CARTESIAN_POINT('',(1.095,0.175,-9.6));
#1721 = DIRECTION('',(-0.9738412097417933,0.,-0.2272296156064181));
#1722 = DIRECTION('',(0.,-1.,0.));
#1723 = AXIS2_PLACEMENT_3D('',#1720,#1721,#1722);
#1724 = PLANE('',#1723);
#1725 = EDGE_LOOP('',(#1708,#1709,#1714,#1719));
#1726 = FACE_OUTER_BOUND('',#1725,.T.);
#1727 = ADVANCED_FACE('',(#1726),#1724,.T.);
#1728 = ORIENTED_EDGE('',*,*,#1718,.F.);
#1729 = DIRECTION('',(1.,0.,0.));
#1730 = VECTOR('',#1729,1.);
#1731 = LINE('',#1702,#1730);
#1732 = EDGE_CURVE('',#1703,#1625,#1731,.T.);
#1733 = ORIENTED_EDGE('',*,*,#1732,.T.);
#1734 = ORIENTED_EDGE('',*,*,#1662,.F.);
#1735 = DIRECTION('',(1.,0.,0.));
#1736 = VECTOR('',#1735,1.);
#1737 = LINE('',#1700,#1736);
#1738 = EDGE_CURVE('',#1701,#1653,#1737,.T.);
#1739 = ORIENTED_EDGE('',*,*,#1738,.F.);
#1740 = CARTESIAN_POINT('',(1.095,0.175,-9.6));
#1741 = DIRECTION('',(0.,0.9738412097417931,-0.2272296156064184));
#1742 = DIRECTION('',(-0.2215811282415214,0.22158112824152157,0.9496334067493776));
#1743 = AXIS2_PLACEMENT_3D('',#1740,#1741,#1742);
#1744 = PLANE('',#1743);
#1745 = EDGE_LOOP('',(#1728,#1733,#1734,#1739));
#1746 = FACE_OUTER_BOUND('',#1745,.T.);
#1747 = ADVANCED_FACE('',(#1746),#1744,.T.);
#1748 = ORIENTED_EDGE('',*,*,#1738,.T.);
#1749 = ORIENTED_EDGE('',*,*,#1657,.F.);
#1750 = ORIENTED_EDGE('',*,*,#1690,.F.);
#1751 = ORIENTED_EDGE('',*,*,#1707,.T.);
#1752 = CARTESIAN_POINT('',(1.095,0.175,-9.6));
#1753 = DIRECTION('',(0.,0.,-1.));
#1754 = DIRECTION('',(1.,0.,0.));
#1755 = AXIS2_PLACEMENT_3D('',#1752,#1753,#1754);
#1756 = PLANE('',#1755);
#1757 = EDGE_LOOP('',(#1748,#1749,#1750,#1751));
#1758 = FACE_OUTER_BOUND('',#1757,.T.);
#1759 = ADVANCED_FACE('',(#1758),#1756,.T.);
#1760 = CARTESIAN_POINT('',(0.9550000000000001,0.315,-3.6000000000000005));
#1761 = VERTEX_POINT('',#1760);
#1762 = DIRECTION('',(1.,0.,0.));
#1763 = VECTOR('',#1762,1.);
#1764 = LINE('',#1760,#1763);
#1765 = EDGE_CURVE('',#1761,#1623,#1764,.T.);
#1766 = ORIENTED_EDGE('',*,*,#1765,.T.);
#1767 = ORIENTED_EDGE('',*,*,#1640,.T.);
#1768 = ORIENTED_EDGE('',*,*,#1732,.F.);
#1769 = DIRECTION('',(0.,0.,-1.));
#1770 = VECTOR('',#1769,1.);
#1771 = LINE('',#1760,#1770);
#1772 = EDGE_CURVE('',#1761,#1703,#1771,.T.);
#1773 = ORIENTED_EDGE('',*,*,#1772,.F.);
#1774 = CARTESIAN_POINT('',(0.9550000000000001,0.315,-3.6000000000000005));
#1775 = DIRECTION('',(0.,1.,0.));
#1776 = DIRECTION('',(1.,0.,0.));
#1777 = AXIS2_PLACEMENT_3D('',#1774,#1775,#1776);
#1778 = PLANE('',#1777);
#1779 = EDGE_LOOP('',(#1766,#1767,#1768,#1773));
#1780 = FACE_OUTER_BOUND('',#1779,.T.);
#1781 = ADVANCED_FACE('',(#1780),#1778,.T.);
#1782 = ORIENTED_EDGE('',*,*,#1772,.T.);
#1783 = ORIENTED_EDGE('',*,*,#1713,.F.);
#1784 = ORIENTED_EDGE('',*,*,#1612,.F.);
#1785 = DIRECTION('',(0.,1.,0.));
#1786 = VECTOR('',#1785,1.);
#1787 = LINE('',#1592,#1786);
#1788 = EDGE_CURVE('',#1593,#1761,#1787,.T.);
#1789 = ORIENTED_EDGE('',*,*,#1788,.T.);
#1790 = CARTESIAN_POINT('',(0.9550000000000001,0.315,-3.6000000000000005));
#1791 = DIRECTION('',(-1.,0.,0.));
#1792 = DIRECTION('',(0.,0.,-1.));
#1793 = AXIS2_PLACEMENT_3D('',#1790,#1791,#1792);
#1794 = PLANE('',#1793);
#1795 = EDGE_LOOP('',(#1782,#1783,#1784,#1789));
#1796 = FACE_OUTER_BOUND('',#1795,.T.);
#1797 = ADVANCED_FACE('',(#1796),#1794,.T.);
#1798 = ORIENTED_EDGE('',*,*,#1788,.F.);
#1799 = ORIENTED_EDGE('',*,*,#1607,.T.);
#1800 = ORIENTED_EDGE('',*,*,#1629,.T.);
#1801 = ORIENTED_EDGE('',*,*,#1765,.F.);
#1802 = CARTESIAN_POINT('',(0.9550000000000001,0.315,-3.6000000000000005));
#1803 = DIRECTION('',(0.,0.,1.));
#1804 = DIRECTION('',(0.,-1.,0.));
#1805 = AXIS2_PLACEMENT_3D('',#1802,#1803,#1804);
#1806 = PLANE('',#1805);
#1807 = EDGE_LOOP('',(#1798,#1799,#1800,#1801));
#1808 = FACE_OUTER_BOUND('',#1807,.T.);
#1809 = ADVANCED_FACE('',(#1808),#1806,.T.);
#1810 = CLOSED_SHELL('',(#1621,#1649,#1677,#1699,#1727,#1747,#1759,#1781,#1797,#1809));
#1811 = MANIFOLD_SOLID_BREP('',#1810);
#1812 = CARTESIAN_POINT('',(2.54,-1.27,-3.6));
#1813 = VERTEX_POINT('',#1812);
#1814 = CARTESIAN_POINT('',(2.54,-1.27,-1.6));
#1815 = VERTEX_POINT('',#1814);
#1816 = CARTESIAN_POINT('',(2.54,1.27,-1.6));
#1817 = VERTEX_POINT('',#1816);
#1818 = CARTESIAN_POINT('',(2.54,1.27,-3.6));
#1819 = VERTEX_POINT('',#1818);
#1820 = DIRECTION('',(0.,0.,-1.));
#1821 = VECTOR('',#1820,1.);
#1822 = LINE('',#1814,#1821);
#1823 = EDGE_CURVE('',#1815,#1813,#1822,.T.);
#1824 = ORIENTED_EDGE('',*,*,#1823,.F.);
#1825 = DIRECTION('',(0.,1.,0.));
#1826 = VECTOR('',#1825,1.);
#1827 = LINE('',#1814,#1826);
#1828 = EDGE_CURVE('',#1815,#1817,#1827,.T.);
#1829 = ORIENTED_EDGE('',*,*,#1828,.T.);
#1830 = DIRECTION('',(0.,0.,-1.));
#1831 = VECTOR('',#1830,1.);
#1832 = LINE('',#1816,#1831);
#1833 = EDGE_CURVE('',#1817,#1819,#1832,.T.);
#1834 = ORIENTED_EDGE('',*,*,#1833,.T.);
#1835 = DIRECTION('',(0.,1.,0.));
#1836 = VECTOR('',#1835,1.);
#1837 = LINE('',#1812,#1836);
#1838 = EDGE_CURVE('',#1813,#1819,#1837,.T.);
#1839 = ORIENTED_EDGE('',*,*,#1838,.F.);
#1840 = CARTESIAN_POINT('',(2.54,-1.27,-3.6));
#1841 = DIRECTION('',(-1.,0.,0.));
#1842 = DIRECTION('',(0.,0.,1.));
#1843 = AXIS2_PLACEMENT_3D('',#1840,#1841,#1842);
#1844 = PLANE('',#1843);
#1845 = EDGE_LOOP('',(#1824,#1829,#1834,#1839));
#1846 = FACE_OUTER_BOUND('',#1845,.T.);
#1847 = ADVANCED_FACE('',(#1846),#1844,.T.);
#1848 = CARTESIAN_POINT('',(5.08,-1.27,-3.6));
#1849 = VERTEX_POINT('',#1848);
#1850 = CARTESIAN_POINT('',(5.08,1.27,-3.6));
#1851 = VERTEX_POINT('',#1850);
#1852 = CARTESIAN_POINT('',(5.08,1.27,-1.6));
#1853 = VERTEX_POINT('',#1852);
#1854 = CARTESIAN_POINT('',(5.08,-1.27,-1.6));
#1855 = VERTEX_POINT('',#1854);
#1856 = DIRECTION('',(0.,1.,0.));
#1857 = VECTOR('',#1856,1.);
#1858 = LINE('',#1848,#1857);
#1859 = EDGE_CURVE('',#1849,#1851,#1858,.T.);
#1860 = ORIENTED_EDGE('',*,*,#1859,.T.);
#1861 = DIRECTION('',(0.,0.,-1.));
#1862 = VECTOR('',#1861,1.);
#1863 = LINE('',#1852,#1862);
#1864 = EDGE_CURVE('',#1853,#1851,#1863,.T.);
#1865 = ORIENTED_EDGE('',*,*,#1864,.F.);
#1866 = DIRECTION('',(0.,1.,0.));
#1867 = VECTOR('',#1866,1.);
#1868 = LINE('',#1854,#1867);
#1869 = EDGE_CURVE('',#1855,#1853,#1868,.T.);
#1870 = ORIENTED_EDGE('',*,*,#1869,.F.);
#1871 = DIRECTION('',(0.,0.,-1.));
#1872 = VECTOR('',#1871,1.);
#1873 = LINE('',#1854,#1872);
#1874 = EDGE_CURVE('',#1855,#1849,#1873,.T.);
#1875 = ORIENTED_EDGE('',*,*,#1874,.T.);
#1876 = CARTESIAN_POINT('',(5.08,-1.27,-3.6));
#1877 = DIRECTION('',(1.,0.,0.));
#1878 = DIRECTION('',(0.,1.,0.));
#1879 = AXIS2_PLACEMENT_3D('',#1876,#1877,#1878);
#1880 = PLANE('',#1879);
#1881 = EDGE_LOOP('',(#1860,#1865,#1870,#1875));
#1882 = FACE_OUTER_BOUND('',#1881,.T.);
#1883 = ADVANCED_FACE('',(#1882),#1880,.T.);
#1884 = DIRECTION('',(1.,0.,0.));
#1885 = VECTOR('',#1884,1.);
#1886 = LINE('',#1812,#1885);
#1887 = EDGE_CURVE('',#1813,#1849,#1886,.T.);
#1888 = ORIENTED_EDGE('',*,*,#1887,.T.);
#1889 = ORIENTED_EDGE('',*,*,#1874,.F.);
#1890 = DIRECTION('',(1.,0.,0.));
#1891 = VECTOR('',#1890,1.);
#1892 = LINE('',#1814,#1891);
#1893 = EDGE_CURVE('',#1815,#1855,#1892,.T.);
#1894 = ORIENTED_EDGE('',*,*,#1893,.F.);
#1895 = ORIENTED_EDGE('',*,*,#1823,.T.);
#1896 = CARTESIAN_POINT('',(2.54,-1.27,-3.6));
#1897 = DIRECTION('',(0.,-1.,0.));
#1898 = DIRECTION('',(1.,0.,0.));
#1899 = AXIS2_PLACEMENT_3D('',#1896,#1897,#1898);
#1900 = PLANE('',#1899);
#1901 = EDGE_LOOP('',(#1888,#1889,#1894,#1895));
#1902 = FACE_OUTER_BOUND('',#1901,.T.);
#1903 = ADVANCED_FACE('',(#1902),#1900,.T.);
#1904 = ORIENTED_EDGE('',*,*,#1833,.F.);
#1905 = DIRECTION('',(1.,0.,0.));
#1906 = VECTOR('',#1905,1.);
#1907 = LINE('',#1816,#1906);
#1908 = EDGE_CURVE('',#1817,#1853,#1907,.T.);
#1909 = ORIENTED_EDGE('',*,*,#1908,.T.);
#1910 = ORIENTED_EDGE('',*,*,#1864,.T.);
#1911 = DIRECTION('',(1.,0.,0.));
#1912 = VECTOR('',#1911,1.);
#1913 = LINE('',#1818,#1912);
#1914 = EDGE_CURVE('',#1819,#1851,#1913,.T.);
#1915 = ORIENTED_EDGE('',*,*,#1914,.F.);
#1916 = CARTESIAN_POINT('',(2.54,1.27,-3.6));
#1917 = DIRECTION('',(0.,1.,0.));
#1918 = DIRECTION('',(0.,0.,1.));
#1919 = AXIS2_PLACEMENT_3D('',#1916,#1917,#1918);
#1920 = PLANE('',#1919);
#1921 = EDGE_LOOP('',(#1904,#1909,#1910,#1915));
#1922 = FACE_OUTER_BOUND('',#1921,.T.);
#1923 = ADVANCED_FACE('',(#1922),#1920,.T.);
#1924 = ORIENTED_EDGE('',*,*,#1838,.T.);
#1925 = ORIENTED_EDGE('',*,*,#1914,.T.);
#1926 = ORIENTED_EDGE('',*,*,#1859,.F.);
#1927 = ORIENTED_EDGE('',*,*,#1887,.F.);
#1928 = CARTESIAN_POINT('',(2.54,-1.27,-3.6));
#1929 = DIRECTION('',(0.,0.,-1.));
#1930 = DIRECTION('',(0.,1.,0.));
#1931 = AXIS2_PLACEMENT_3D('',#1928,#1929,#1930);
#1932 = PLANE('',#1931);
#1933 = EDGE_LOOP('',(#1924,#1925,#1926,#1927));
#1934 = FACE_OUTER_BOUND('',#1933,.T.);
#1935 = ADVANCED_FACE('',(#1934),#1932,.T.);
#1936 = ORIENTED_EDGE('',*,*,#1893,.T.);
#1937 = ORIENTED_EDGE('',*,*,#1869,.T.);
#1938 = ORIENTED_EDGE('',*,*,#1908,.F.);
#1939 = ORIENTED_EDGE('',*,*,#1828,.F.);
#1940 = CARTESIAN_POINT('',(2.54,-1.27,-1.6));
#1941 = DIRECTION('',(0.,0.,1.));
#1942 = DIRECTION('',(1.,0.,0.));
#1943 = AXIS2_PLACEMENT_3D('',#1940,#1941,#1942);
#1944 = PLANE('',#1943);
#1945 = EDGE_LOOP('',(#1936,#1937,#1938,#1939));
#1946 = FACE_OUTER_BOUND('',#1945,.T.);
#1947 = ADVANCED_FACE('',(#1946),#1944,.T.);
#1948 = CLOSED_SHELL('',(#1847,#1883,#1903,#1923,#1935,#1947));
#1949 = MANIFOLD_SOLID_BREP('',#1948);
#1950 = COLOUR_RGB('',0.13333333333333333,0.13333333333333333,0.13333333333333333);
#1951 = FILL_AREA_STYLE_COLOUR('',#1950);
#1952 = FILL_AREA_STYLE('',(#1951));
#1953 = SURFACE_STYLE_FILL_AREA(#1952);
#1954 = SURFACE_SIDE_STYLE('',(#1953));
#1955 = SURFACE_STYLE_USAGE(.BOTH.,#1954);
#1956 = PRESENTATION_STYLE_ASSIGNMENT((#1955));
#1957 = STYLED_ITEM('',(#1956),#1949);
#1958 = CARTESIAN_POINT('',(3.495,0.315,-2.1500000000000004));
#1959 = VERTEX_POINT('',#1958);
#1960 = CARTESIAN_POINT('',(3.495,-0.315,-2.1500000000000004));
#1961 = VERTEX_POINT('',#1960);
#1962 = CARTESIAN_POINT('',(3.495,-0.315,0.5499999999999998));
#1963 = VERTEX_POINT('',#1962);
#1964 = CARTESIAN_POINT('',(3.495,0.315,0.5499999999999998));
#1965 = VERTEX_POINT('',#1964);
#1966 = DIRECTION('',(0.,1.,0.));
#1967 = VECTOR('',#1966,1.);
#1968 = LINE('',#1960,#1967);
#1969 = EDGE_CURVE('',#1961,#1959,#1968,.T.);
#1970 = ORIENTED_EDGE('',*,*,#1969,.F.);
#1971 = DIRECTION('',(0.,0.,1.));
#1972 = VECTOR('',#1971,1.);
#1973 = LINE('',#1960,#1972);
#1974 = EDGE_CURVE('',#1961,#1963,#1973,.T.);
#1975 = ORIENTED_EDGE('',*,*,#1974,.T.);
#1976 = DIRECTION('',(0.,1.,0.));
#1977 = VECTOR('',#1976,1.);
#1978 = LINE('',#1962,#1977);
#1979 = EDGE_CURVE('',#1963,#1965,#1978,.T.);
#1980 = ORIENTED_EDGE('',*,*,#1979,.T.);
#1981 = DIRECTION('',(0.,0.,1.));
#1982 = VECTOR('',#1981,1.);
#1983 = LINE('',#1958,#1982);
#1984 = EDGE_CURVE('',#1959,#1965,#1983,.T.);
#1985 = ORIENTED_EDGE('',*,*,#1984,.F.);
#1986 = CARTESIAN_POINT('',(3.495,0.315,-2.1500000000000004));
#1987 = DIRECTION('',(-1.,0.,0.));
#1988 = DIRECTION('',(0.,-1.,0.));
#1989 = AXIS2_PLACEMENT_3D('',#1986,#1987,#1988);
#1990 = PLANE('',#1989);
#1991 = EDGE_LOOP('',(#1970,#1975,#1980,#1985));
#1992 = FACE_OUTER_BOUND('',#1991,.T.);
#1993 = ADVANCED_FACE('',(#1992),#1990,.T.);
#1994 = CARTESIAN_POINT('',(4.125,0.315,0.5499999999999998));
#1995 = VERTEX_POINT('',#1994);
#1996 = CARTESIAN_POINT('',(4.125,0.315,-2.1500000000000004));
#1997 = VERTEX_POINT('',#1996);
#1998 = DIRECTION('',(0.,0.,1.));
#1999 = VECTOR('',#1998,1.);
#2000 = LINE('',#1996,#1999);
#2001 = EDGE_CURVE('',#1997,#1995,#2000,.T.);
#2002 = ORIENTED_EDGE('',*,*,#2001,.F.);
#2003 = DIRECTION('',(1.,0.,0.));
#2004 = VECTOR('',#2003,1.);
#2005 = LINE('',#1958,#2004);
#2006 = EDGE_CURVE('',#1959,#1997,#2005,.T.);
#2007 = ORIENTED_EDGE('',*,*,#2006,.F.);
#2008 = ORIENTED_EDGE('',*,*,#1984,.T.);
#2009 = DIRECTION('',(1.,0.,0.));
#2010 = VECTOR('',#2009,1.);
#2011 = LINE('',#1964,#2010);
#2012 = EDGE_CURVE('',#1965,#1995,#2011,.T.);
#2013 = ORIENTED_EDGE('',*,*,#2012,.T.);
#2014 = CARTESIAN_POINT('',(4.125,0.315,0.5499999999999998));
#2015 = DIRECTION('',(0.,1.,0.));
#2016 = DIRECTION('',(0.,0.,-1.));
#2017 = AXIS2_PLACEMENT_3D('',#2014,#2015,#2016);
#2018 = PLANE('',#2017);
#2019 = EDGE_LOOP('',(#2002,#2007,#2008,#2013));
#2020 = FACE_OUTER_BOUND('',#2019,.T.);
#2021 = ADVANCED_FACE('',(#2020),#2018,.T.);
#2022 = CARTESIAN_POINT('',(3.6350000000000002,0.175,0.8999999999999999));
#2023 = VERTEX_POINT('',#2022);
#2024 = CARTESIAN_POINT('',(3.6350000000000002,-0.175,0.8999999999999999));
#2025 = VERTEX_POINT('',#2024);
#2026 = DIRECTION('',(0.34815531191139587,-0.3481553119113956,0.8703882797784892));
#2027 = VECTOR('',#2026,1.);
#2028 = LINE('',#1964,#2027);
#2029 = EDGE_CURVE('',#1965,#2023,#2028,.T.);
#2030 = ORIENTED_EDGE('',*,*,#2029,.F.);
#2031 = ORIENTED_EDGE('',*,*,#1979,.F.);
#2032 = DIRECTION('',(0.34815531191139587,0.3481553119113956,0.8703882797784892));
#2033 = VECTOR('',#2032,1.);
#2034 = LINE('',#1962,#2033);
#2035 = EDGE_CURVE('',#1963,#2025,#2034,.T.);
#2036 = ORIENTED_EDGE('',*,*,#2035,.T.);
#2037 = DIRECTION('',(0.,1.,0.));
#2038 = VECTOR('',#2037,1.);
#2039 = LINE('',#2024,#2038);
#2040 = EDGE_CURVE('',#2025,#2023,#2039,.T.);
#2041 = ORIENTED_EDGE('',*,*,#2040,.T.);
#2042 = CARTESIAN_POINT('',(3.6350000000000002,0.175,0.8999999999999999));
#2043 = DIRECTION('',(-0.9284766908852591,0.,0.3713906763541039));
#2044 = DIRECTION('',(-0.34815531191139587,0.3481553119113956,-0.8703882797784892));
#2045 = AXIS2_PLACEMENT_3D('',#2042,#2043,#2044);
#2046 = PLANE('',#2045);
#2047 = EDGE_LOOP('',(#2030,#2031,#2036,#2041));
#2048 = FACE_OUTER_BOUND('',#2047,.T.);
#2049 = ADVANCED_FACE('',(#2048),#2046,.T.);
#2050 = CARTESIAN_POINT('',(4.125,-0.315,-2.1500000000000004));
#2051 = VERTEX_POINT('',#2050);
#2052 = CARTESIAN_POINT('',(4.125,-0.315,0.5499999999999998));
#2053 = VERTEX_POINT('',#2052);
#2054 = DIRECTION('',(0.,1.,0.));
#2055 = VECTOR('',#2054,1.);
#2056 = LINE('',#2050,#2055);
#2057 = EDGE_CURVE('',#2051,#1997,#2056,.T.);
#2058 = ORIENTED_EDGE('',*,*,#2057,.T.);
#2059 = ORIENTED_EDGE('',*,*,#2001,.T.);
#2060 = DIRECTION('',(0.,1.,0.));
#2061 = VECTOR('',#2060,1.);
#2062 = LINE('',#2052,#2061);
#2063 = EDGE_CURVE('',#2053,#1995,#2062,.T.);
#2064 = ORIENTED_EDGE('',*,*,#2063,.F.);
#2065 = DIRECTION('',(0.,0.,1.));
#2066 = VECTOR('',#2065,1.);
#2067 = LINE('',#2050,#2066);
#2068 = EDGE_CURVE('',#2051,#2053,#2067,.T.);
#2069 = ORIENTED_EDGE('',*,*,#2068,.F.);
#2070 = CARTESIAN_POINT('',(4.125,-0.315,-2.1500000000000004));
#2071 = DIRECTION('',(1.,0.,0.));
#2072 = DIRECTION('',(0.,1.,0.));
#2073 = AXIS2_PLACEMENT_3D('',#2070,#2071,#2072);
#2074 = PLANE('',#2073);
#2075 = EDGE_LOOP('',(#2058,#2059,#2064,#2069));
#2076 = FACE_OUTER_BOUND('',#2075,.T.);
#2077 = ADVANCED_FACE('',(#2076),#2074,.T.);
#2078 = ORIENTED_EDGE('',*,*,#2068,.T.);
#2079 = DIRECTION('',(1.,0.,0.));
#2080 = VECTOR('',#2079,1.);
#2081 = LINE('',#1962,#2080);
#2082 = EDGE_CURVE('',#1963,#2053,#2081,.T.);
#2083 = ORIENTED_EDGE('',*,*,#2082,.F.);
#2084 = ORIENTED_EDGE('',*,*,#1974,.F.);
#2085 = DIRECTION('',(1.,0.,0.));
#2086 = VECTOR('',#2085,1.);
#2087 = LINE('',#1960,#2086);
#2088 = EDGE_CURVE('',#1961,#2051,#2087,.T.);
#2089 = ORIENTED_EDGE('',*,*,#2088,.T.);
#2090 = CARTESIAN_POINT('',(4.125,-0.315,-2.1500000000000004));
#2091 = DIRECTION('',(0.,-1.,0.));
#2092 = DIRECTION('',(0.,0.,1.));
#2093 = AXIS2_PLACEMENT_3D('',#2090,#2091,#2092);
#2094 = PLANE('',#2093);
#2095 = EDGE_LOOP('',(#2078,#2083,#2084,#2089));
#2096 = FACE_OUTER_BOUND('',#2095,.T.);
#2097 = ADVANCED_FACE('',(#2096),#2094,.T.);
#2098 = ORIENTED_EDGE('',*,*,#2088,.F.);
#2099 = ORIENTED_EDGE('',*,*,#1969,.T.);
#2100 = ORIENTED_EDGE('',*,*,#2006,.T.);
#2101 = ORIENTED_EDGE('',*,*,#2057,.F.);
#2102 = CARTESIAN_POINT('',(4.125,-0.315,-2.1500000000000004));
#2103 = DIRECTION('',(0.,0.,-1.));
#2104 = DIRECTION('',(-1.,0.,0.));
#2105 = AXIS2_PLACEMENT_3D('',#2102,#2103,#2104);
#2106 = PLANE('',#2105);
#2107 = EDGE_LOOP('',(#2098,#2099,#2100,#2101));
#2108 = FACE_OUTER_BOUND('',#2107,.T.);
#2109 = ADVANCED_FACE('',(#2108),#2106,.T.);
#2110 = CARTESIAN_POINT('',(3.985,0.175,0.8999999999999999));
#2111 = VERTEX_POINT('',#2110);
#2112 = DIRECTION('',(0.34815531191139587,0.3481553119113956,-0.8703882797784892));
#2113 = VECTOR('',#2112,1.);
#2114 = LINE('',#2110,#2113);
#2115 = EDGE_CURVE('',#2111,#1995,#2114,.T.);
#2116 = ORIENTED_EDGE('',*,*,#2115,.T.);
#2117 = ORIENTED_EDGE('',*,*,#2012,.F.);
#2118 = ORIENTED_EDGE('',*,*,#2029,.T.);
#2119 = DIRECTION('',(1.,0.,0.));
#2120 = VECTOR('',#2119,1.);
#2121 = LINE('',#2022,#2120);
#2122 = EDGE_CURVE('',#2023,#2111,#2121,.T.);
#2123 = ORIENTED_EDGE('',*,*,#2122,.T.);
#2124 = CARTESIAN_POINT('',(3.985,0.175,0.8999999999999999));
#2125 = DIRECTION('',(0.,0.9284766908852594,0.3713906763541036));
#2126 = DIRECTION('',(0.34815531191139587,0.3481553119113956,-0.8703882797784892));
#2127 = AXIS2_PLACEMENT_3D('',#2124,#2125,#2126);
#2128 = PLANE('',#2127);
#2129 = EDGE_LOOP('',(#2116,#2117,#2118,#2123));
#2130 = FACE_OUTER_BOUND('',#2129,.T.);
#2131 = ADVANCED_FACE('',(#2130),#2128,.T.);
#2132 = CARTESIAN_POINT('',(3.985,-0.175,0.8999999999999999));
#2133 = VERTEX_POINT('',#2132);
#2134 = DIRECTION('',(0.34815531191139587,-0.3481553119113956,-0.8703882797784892));
#2135 = VECTOR('',#2134,1.);
#2136 = LINE('',#2132,#2135);
#2137 = EDGE_CURVE('',#2133,#2053,#2136,.T.);
#2138 = ORIENTED_EDGE('',*,*,#2137,.T.);
#2139 = ORIENTED_EDGE('',*,*,#2063,.T.);
#2140 = ORIENTED_EDGE('',*,*,#2115,.F.);
#2141 = DIRECTION('',(0.,1.,0.));
#2142 = VECTOR('',#2141,1.);
#2143 = LINE('',#2132,#2142);
#2144 = EDGE_CURVE('',#2133,#2111,#2143,.T.);
#2145 = ORIENTED_EDGE('',*,*,#2144,.F.);
#2146 = CARTESIAN_POINT('',(3.985,-0.175,0.8999999999999999));
#2147 = DIRECTION('',(0.9284766908852591,0.,0.3713906763541039));
#2148 = DIRECTION('',(0.34815531191139587,-0.3481553119113956,-0.8703882797784892));
#2149 = AXIS2_PLACEMENT_3D('',#2146,#2147,#2148);
#2150 = PLANE('',#2149);
#2151 = EDGE_LOOP('',(#2138,#2139,#2140,#2145));
#2152 = FACE_OUTER_BOUND('',#2151,.T.);
#2153 = ADVANCED_FACE('',(#2152),#2150,.T.);
#2154 = ORIENTED_EDGE('',*,*,#2144,.T.);
#2155 = ORIENTED_EDGE('',*,*,#2122,.F.);
#2156 = ORIENTED_EDGE('',*,*,#2040,.F.);
#2157 = DIRECTION('',(1.,0.,0.));
#2158 = VECTOR('',#2157,1.);
#2159 = LINE('',#2024,#2158);
#2160 = EDGE_CURVE('',#2025,#2133,#2159,.T.);
#2161 = ORIENTED_EDGE('',*,*,#2160,.T.);
#2162 = CARTESIAN_POINT('',(3.985,-0.175,0.8999999999999999));
#2163 = DIRECTION('',(0.,0.,1.));
#2164 = DIRECTION('',(0.,1.,0.));
#2165 = AXIS2_PLACEMENT_3D('',#2162,#2163,#2164);
#2166 = PLANE('',#2165);
#2167 = EDGE_LOOP('',(#2154,#2155,#2156,#2161));
#2168 = FACE_OUTER_BOUND('',#2167,.T.);
#2169 = ADVANCED_FACE('',(#2168),#2166,.T.);
#2170 = ORIENTED_EDGE('',*,*,#2160,.F.);
#2171 = ORIENTED_EDGE('',*,*,#2035,.F.);
#2172 = ORIENTED_EDGE('',*,*,#2082,.T.);
#2173 = ORIENTED_EDGE('',*,*,#2137,.F.);
#2174 = CARTESIAN_POINT('',(3.985,-0.175,0.8999999999999999));
#2175 = DIRECTION('',(0.,-0.9284766908852594,0.3713906763541036));
#2176 = DIRECTION('',(-1.,0.,0.));
#2177 = AXIS2_PLACEMENT_3D('',#2174,#2175,#2176);
#2178 = PLANE('',#2177);
#2179 = EDGE_LOOP('',(#2170,#2171,#2172,#2173));
#2180 = FACE_OUTER_BOUND('',#2179,.T.);
#2181 = ADVANCED_FACE('',(#2180),#2178,.T.);
#2182 = CLOSED_SHELL('',(#1993,#2021,#2049,#2077,#2097,#2109,#2131,#2153,#2169,#2181));
#2183 = MANIFOLD_SOLID_BREP('',#2182);
#2184 = CARTESIAN_POINT('',(4.125,0.315,-3.6000000000000005));
#2185 = VERTEX_POINT('',#2184);
#2186 = CARTESIAN_POINT('',(4.125,0.315,-9.));
#2187 = VERTEX_POINT('',#2186);
#2188 = CARTESIAN_POINT('',(3.495,0.315,-9.));
#2189 = VERTEX_POINT('',#2188);
#2190 = CARTESIAN_POINT('',(3.495,0.315,-3.6000000000000005));
#2191 = VERTEX_POINT('',#2190);
#2192 = DIRECTION('',(0.,0.,-1.));
#2193 = VECTOR('',#2192,1.);
#2194 = LINE('',#2184,#2193);
#2195 = EDGE_CURVE('',#2185,#2187,#2194,.T.);
#2196 = ORIENTED_EDGE('',*,*,#2195,.T.);
#2197 = DIRECTION('',(1.,0.,0.));
#2198 = VECTOR('',#2197,1.);
#2199 = LINE('',#2188,#2198);
#2200 = EDGE_CURVE('',#2189,#2187,#2199,.T.);
#2201 = ORIENTED_EDGE('',*,*,#2200,.F.);
#2202 = DIRECTION('',(0.,0.,-1.));
#2203 = VECTOR('',#2202,1.);
#2204 = LINE('',#2190,#2203);
#2205 = EDGE_CURVE('',#2191,#2189,#2204,.T.);
#2206 = ORIENTED_EDGE('',*,*,#2205,.F.);
#2207 = DIRECTION('',(1.,0.,0.));
#2208 = VECTOR('',#2207,1.);
#2209 = LINE('',#2190,#2208);
#2210 = EDGE_CURVE('',#2191,#2185,#2209,.T.);
#2211 = ORIENTED_EDGE('',*,*,#2210,.T.);
#2212 = CARTESIAN_POINT('',(4.125,0.315,-3.6000000000000005));
#2213 = DIRECTION('',(0.,1.,0.));
#2214 = DIRECTION('',(0.,0.,-1.));
#2215 = AXIS2_PLACEMENT_3D('',#2212,#2213,#2214);
#2216 = PLANE('',#2215);
#2217 = EDGE_LOOP('',(#2196,#2201,#2206,#2211));
#2218 = FACE_OUTER_BOUND('',#2217,.T.);
#2219 = ADVANCED_FACE('',(#2218),#2216,.T.);
#2220 = CARTESIAN_POINT('',(3.495,-0.315,-9.));
#2221 = VERTEX_POINT('',#2220);
#2222 = CARTESIAN_POINT('',(3.495,-0.315,-3.6000000000000005));
#2223 = VERTEX_POINT('',#2222);
#2224 = DIRECTION('',(0.,0.,-1.));
#2225 = VECTOR('',#2224,1.);
#2226 = LINE('',#2222,#2225);
#2227 = EDGE_CURVE('',#2223,#2221,#2226,.T.);
#2228 = ORIENTED_EDGE('',*,*,#2227,.F.);
#2229 = DIRECTION('',(0.,1.,0.));
#2230 = VECTOR('',#2229,1.);
#2231 = LINE('',#2222,#2230);
#2232 = EDGE_CURVE('',#2223,#2191,#2231,.T.);
#2233 = ORIENTED_EDGE('',*,*,#2232,.T.);
#2234 = ORIENTED_EDGE('',*,*,#2205,.T.);
#2235 = DIRECTION('',(0.,1.,0.));
#2236 = VECTOR('',#2235,1.);
#2237 = LINE('',#2220,#2236);
#2238 = EDGE_CURVE('',#2221,#2189,#2237,.T.);
#2239 = ORIENTED_EDGE('',*,*,#2238,.F.);
#2240 = CARTESIAN_POINT('',(3.495,-0.315,-9.));
#2241 = DIRECTION('',(-1.,0.,0.));
#2242 = DIRECTION('',(0.,0.,1.));
#2243 = AXIS2_PLACEMENT_3D('',#2240,#2241,#2242);
#2244 = PLANE('',#2243);
#2245 = EDGE_LOOP('',(#2228,#2233,#2234,#2239));
#2246 = FACE_OUTER_BOUND('',#2245,.T.);
#2247 = ADVANCED_FACE('',(#2246),#2244,.T.);
#2248 = CARTESIAN_POINT('',(3.6350000000000002,0.175,-9.6));
#2249 = VERTEX_POINT('',#2248);
#2250 = CARTESIAN_POINT('',(3.6350000000000002,-0.175,-9.6));
#2251 = VERTEX_POINT('',#2250);
#2252 = ORIENTED_EDGE('',*,*,#2238,.T.);
#2253 = DIRECTION('',(0.22158112824152176,-0.22158112824152157,-0.9496334067493776));
#2254 = VECTOR('',#2253,1.);
#2255 = LINE('',#2188,#2254);
#2256 = EDGE_CURVE('',#2189,#2249,#2255,.T.);
#2257 = ORIENTED_EDGE('',*,*,#2256,.T.);
#2258 = DIRECTION('',(0.,1.,0.));
#2259 = VECTOR('',#2258,1.);
#2260 = LINE('',#2250,#2259);
#2261 = EDGE_CURVE('',#2251,#2249,#2260,.T.);
#2262 = ORIENTED_EDGE('',*,*,#2261,.F.);
#2263 = DIRECTION('',(0.22158112824152176,0.22158112824152157,-0.9496334067493776));
#2264 = VECTOR('',#2263,1.);
#2265 = LINE('',#2220,#2264);
#2266 = EDGE_CURVE('',#2221,#2251,#2265,.T.);
#2267 = ORIENTED_EDGE('',*,*,#2266,.F.);
#2268 = CARTESIAN_POINT('',(3.495,-0.315,-9.));
#2269 = DIRECTION('',(-0.9738412097417934,0.,-0.22722961560641813));
#2270 = DIRECTION('',(0.,1.,0.));
#2271 = AXIS2_PLACEMENT_3D('',#2268,#2269,#2270);
#2272 = PLANE('',#2271);
#2273 = EDGE_LOOP('',(#2252,#2257,#2262,#2267));
#2274 = FACE_OUTER_BOUND('',#2273,.T.);
#2275 = ADVANCED_FACE('',(#2274),#2272,.T.);
#2276 = CARTESIAN_POINT('',(3.985,0.175,-9.6));
#2277 = VERTEX_POINT('',#2276);
#2278 = DIRECTION('',(1.,0.,0.));
#2279 = VECTOR('',#2278,1.);
#2280 = LINE('',#2248,#2279);
#2281 = EDGE_CURVE('',#2249,#2277,#2280,.T.);
#2282 = ORIENTED_EDGE('',*,*,#2281,.F.);
#2283 = ORIENTED_EDGE('',*,*,#2256,.F.);
#2284 = ORIENTED_EDGE('',*,*,#2200,.T.);
#2285 = DIRECTION('',(0.22158112824152176,0.22158112824152157,0.9496334067493776));
#2286 = VECTOR('',#2285,1.);
#2287 = LINE('',#2276,#2286);
#2288 = EDGE_CURVE('',#2277,#2187,#2287,.T.);
#2289 = ORIENTED_EDGE('',*,*,#2288,.F.);
#2290 = CARTESIAN_POINT('',(3.985,0.175,-9.6));
#2291 = DIRECTION('',(0.,0.9738412097417931,-0.2272296156064186));
#2292 = DIRECTION('',(-1.,0.,0.));
#2293 = AXIS2_PLACEMENT_3D('',#2290,#2291,#2292);
#2294 = PLANE('',#2293);
#2295 = EDGE_LOOP('',(#2282,#2283,#2284,#2289));
#2296 = FACE_OUTER_BOUND('',#2295,.T.);
#2297 = ADVANCED_FACE('',(#2296),#2294,.T.);
#2298 = CARTESIAN_POINT('',(4.125,-0.315,-3.6000000000000005));
#2299 = VERTEX_POINT('',#2298);
#2300 = DIRECTION('',(0.,1.,0.));
#2301 = VECTOR('',#2300,1.);
#2302 = LINE('',#2298,#2301);
#2303 = EDGE_CURVE('',#2299,#2185,#2302,.T.);
#2304 = ORIENTED_EDGE('',*,*,#2303,.T.);
#2305 = ORIENTED_EDGE('',*,*,#2210,.F.);
#2306 = ORIENTED_EDGE('',*,*,#2232,.F.);
#2307 = DIRECTION('',(1.,0.,0.));
#2308 = VECTOR('',#2307,1.);
#2309 = LINE('',#2222,#2308);
#2310 = EDGE_CURVE('',#2223,#2299,#2309,.T.);
#2311 = ORIENTED_EDGE('',*,*,#2310,.T.);
#2312 = CARTESIAN_POINT('',(4.125,-0.315,-3.6000000000000005));
#2313 = DIRECTION('',(0.,0.,1.));
#2314 = DIRECTION('',(0.,1.,0.));
#2315 = AXIS2_PLACEMENT_3D('',#2312,#2313,#2314);
#2316 = PLANE('',#2315);
#2317 = EDGE_LOOP('',(#2304,#2305,#2306,#2311));
#2318 = FACE_OUTER_BOUND('',#2317,.T.);
#2319 = ADVANCED_FACE('',(#2318),#2316,.T.);
#2320 = CARTESIAN_POINT('',(4.125,-0.315,-9.));
#2321 = VERTEX_POINT('',#2320);
#2322 = DIRECTION('',(0.,1.,0.));
#2323 = VECTOR('',#2322,1.);
#2324 = LINE('',#2320,#2323);
#2325 = EDGE_CURVE('',#2321,#2187,#2324,.T.);
#2326 = ORIENTED_EDGE('',*,*,#2325,.T.);
#2327 = ORIENTED_EDGE('',*,*,#2195,.F.);
#2328 = ORIENTED_EDGE('',*,*,#2303,.F.);
#2329 = DIRECTION('',(0.,0.,-1.));
#2330 = VECTOR('',#2329,1.);
#2331 = LINE('',#2298,#2330);
#2332 = EDGE_CURVE('',#2299,#2321,#2331,.T.);
#2333 = ORIENTED_EDGE('',*,*,#2332,.T.);
#2334 = CARTESIAN_POINT('',(4.125,-0.315,-9.));
#2335 = DIRECTION('',(1.,0.,0.));
#2336 = DIRECTION('',(0.,1.,0.));
#2337 = AXIS2_PLACEMENT_3D('',#2334,#2335,#2336);
#2338 = PLANE('',#2337);
#2339 = EDGE_LOOP('',(#2326,#2327,#2328,#2333));
#2340 = FACE_OUTER_BOUND('',#2339,.T.);
#2341 = ADVANCED_FACE('',(#2340),#2338,.T.);
#2342 = ORIENTED_EDGE('',*,*,#2332,.F.);
#2343 = ORIENTED_EDGE('',*,*,#2310,.F.);
#2344 = ORIENTED_EDGE('',*,*,#2227,.T.);
#2345 = DIRECTION('',(1.,0.,0.));
#2346 = VECTOR('',#2345,1.);
#2347 = LINE('',#2220,#2346);
#2348 = EDGE_CURVE('',#2221,#2321,#2347,.T.);
#2349 = ORIENTED_EDGE('',*,*,#2348,.T.);
#2350 = CARTESIAN_POINT('',(4.125,-0.315,-9.));
#2351 = DIRECTION('',(0.,-1.,0.));
#2352 = DIRECTION('',(0.,0.,1.));
#2353 = AXIS2_PLACEMENT_3D('',#2350,#2351,#2352);
#2354 = PLANE('',#2353);
#2355 = EDGE_LOOP('',(#2342,#2343,#2344,#2349));
#2356 = FACE_OUTER_BOUND('',#2355,.T.);
#2357 = ADVANCED_FACE('',(#2356),#2354,.T.);
#2358 = CARTESIAN_POINT('',(3.985,-0.175,-9.6));
#2359 = VERTEX_POINT('',#2358);
#2360 = DIRECTION('',(0.,1.,0.));
#2361 = VECTOR('',#2360,1.);
#2362 = LINE('',#2358,#2361);
#2363 = EDGE_CURVE('',#2359,#2277,#2362,.T.);
#2364 = ORIENTED_EDGE('',*,*,#2363,.T.);
#2365 = ORIENTED_EDGE('',*,*,#2288,.T.);
#2366 = ORIENTED_EDGE('',*,*,#2325,.F.);
#2367 = DIRECTION('',(0.22158112824152176,-0.22158112824152157,0.9496334067493776));
#2368 = VECTOR('',#2367,1.);
#2369 = LINE('',#2358,#2368);
#2370 = EDGE_CURVE('',#2359,#2321,#2369,.T.);
#2371 = ORIENTED_EDGE('',*,*,#2370,.F.);
#2372 = CARTESIAN_POINT('',(3.985,-0.175,-9.6));
#2373 = DIRECTION('',(0.9738412097417932,0.,-0.2272296156064184));
#2374 = DIRECTION('',(0.,1.,0.));
#2375 = AXIS2_PLACEMENT_3D('',#2372,#2373,#2374);
#2376 = PLANE('',#2375);
#2377 = EDGE_LOOP('',(#2364,#2365,#2366,#2371));
#2378 = FACE_OUTER_BOUND('',#2377,.T.);
#2379 = ADVANCED_FACE('',(#2378),#2376,.T.);
#2380 = ORIENTED_EDGE('',*,*,#2370,.T.);
#2381 = ORIENTED_EDGE('',*,*,#2348,.F.);
#2382 = ORIENTED_EDGE('',*,*,#2266,.T.);
#2383 = DIRECTION('',(1.,0.,0.));
#2384 = VECTOR('',#2383,1.);
#2385 = LINE('',#2250,#2384);
#2386 = EDGE_CURVE('',#2251,#2359,#2385,.T.);
#2387 = ORIENTED_EDGE('',*,*,#2386,.T.);
#2388 = CARTESIAN_POINT('',(3.985,-0.175,-9.6));
#2389 = DIRECTION('',(0.,-0.9738412097417931,-0.2272296156064186));
#2390 = DIRECTION('',(0.22158112824152176,-0.22158112824152157,0.9496334067493776));
#2391 = AXIS2_PLACEMENT_3D('',#2388,#2389,#2390);
#2392 = PLANE('',#2391);
#2393 = EDGE_LOOP('',(#2380,#2381,#2382,#2387));
#2394 = FACE_OUTER_BOUND('',#2393,.T.);
#2395 = ADVANCED_FACE('',(#2394),#2392,.T.);
#2396 = ORIENTED_EDGE('',*,*,#2386,.F.);
#2397 = ORIENTED_EDGE('',*,*,#2261,.T.);
#2398 = ORIENTED_EDGE('',*,*,#2281,.T.);
#2399 = ORIENTED_EDGE('',*,*,#2363,.F.);
#2400 = CARTESIAN_POINT('',(3.985,-0.175,-9.6));
#2401 = DIRECTION('',(0.,0.,-1.));
#2402 = DIRECTION('',(-1.,0.,0.));
#2403 = AXIS2_PLACEMENT_3D('',#2400,#2401,#2402);
#2404 = PLANE('',#2403);
#2405 = EDGE_LOOP('',(#2396,#2397,#2398,#2399));
#2406 = FACE_OUTER_BOUND('',#2405,.T.);
#2407 = ADVANCED_FACE('',(#2406),#2404,.T.);
#2408 = CLOSED_SHELL('',(#2219,#2247,#2275,#2297,#2319,#2341,#2357,#2379,#2395,#2407));
#2409 = MANIFOLD_SOLID_BREP('',#2408);
#2410 = ADVANCED_BREP_SHAPE_REPRESENTATION('',(#17,#155,#389,#615,#753,#987,#1213,#1351,#1585,#1811,#1949,#2183,#2409),#13);
#2411 = SHAPE_DEFINITION_REPRESENTATION(#8,#2410);
#2412 = MECHANICAL_DESIGN_GEOMETRIC_PRESENTATION_REPRESENTATION('',(#163,#761,#1359,#1957),#13);
ENDSEC;
END-ISO-10303-21;