ISO-10303-21;
HEADER;
FILE_DESCRIPTION(('shape.step'),'2;1');
FILE_NAME('shape.step','2026-06-25',('tscircuit'),('tscircuit'),'generator','','');
FILE_SCHEMA(('AUTOMOTIVE_DESIGN { 1 0 10303 214 1 1 1 1 }'));
ENDSEC;
DATA;
#1 = APPLICATION_CONTEXT('core data for automotive mechanical design processes');
#2 = APPLICATION_PROTOCOL_DEFINITION('international standard','automotive_design',2000,#1);
#3 = PRODUCT_CONTEXT('',#1,'mechanical');
#4 = PRODUCT('shape','shape','',(#3));
#5 = PRODUCT_DEFINITION_CONTEXT('part definition',#1,'design');
#6 = PRODUCT_DEFINITION_FORMATION('','',#4);
#7 = PRODUCT_DEFINITION('design','',#6,#5);
#8 = PRODUCT_DEFINITION_SHAPE('','',#7);
#9 = (
LENGTH_UNIT()
NAMED_UNIT(*)
SI_UNIT(.MILLI.,.METRE.)
);
#10 = (
NAMED_UNIT(*)
PLANE_ANGLE_UNIT()
SI_UNIT($,.RADIAN.)
);
#11 = (
NAMED_UNIT(*)
SI_UNIT($,.STERADIAN.)
SOLID_ANGLE_UNIT()
);
#12 = UNCERTAINTY_MEASURE_WITH_UNIT(LENGTH_MEASURE(1.E-07),#9,'distance_accuracy_value','confusion accuracy');
#13 = (
GEOMETRIC_REPRESENTATION_CONTEXT(3)
GLOBAL_UNCERTAINTY_ASSIGNED_CONTEXT((#12))
GLOBAL_UNIT_ASSIGNED_CONTEXT((#9,#10,#11))
REPRESENTATION_CONTEXT('Context #1','3D
Context with
TORTURE://UNITS')
);
#14 = CARTESIAN_POINT('',(0.,0.,0.));
#15 = DIRECTION('',(0.,0.,1.));
#16 = DIRECTION('',(1.,0.,0.));
#17 = AXIS2_PLACEMENT_3D('',#14,#15,#16);
#18 = CARTESIAN_POINT('',(1.5999999999999996,-0.725,1.14));
#19 = VERTEX_POINT('',#18);
#20 = CARTESIAN_POINT('',(1.5999999999999996,-0.725,1.34));
#21 = VERTEX_POINT('',#20);
#22 = CARTESIAN_POINT('',(1.5999999999999996,0.725,1.34));
#23 = VERTEX_POINT('',#22);
#24 = CARTESIAN_POINT('',(1.5999999999999996,0.725,1.14));
#25 = VERTEX_POINT('',#24);
#26 = DIRECTION('',(0.,0.,1.));
#27 = VECTOR('',#26,1.);
#28 = LINE('',#18,#27);
#29 = EDGE_CURVE('',#19,#21,#28,.T.);
#30 = ORIENTED_EDGE('',*,*,#29,.T.);
#31 = DIRECTION('',(0.,1.,0.));
#32 = VECTOR('',#31,1.);
#33 = LINE('',#20,#32);
#34 = EDGE_CURVE('',#21,#23,#33,.T.);
#35 = ORIENTED_EDGE('',*,*,#34,.T.);
#36 = DIRECTION('',(0.,0.,1.));
#37 = VECTOR('',#36,1.);
#38 = LINE('',#24,#37);
#39 = EDGE_CURVE('',#25,#23,#38,.T.);
#40 = ORIENTED_EDGE('',*,*,#39,.F.);
#41 = DIRECTION('',(0.,1.,0.));
#42 = VECTOR('',#41,1.);
#43 = LINE('',#18,#42);
#44 = EDGE_CURVE('',#19,#25,#43,.T.);
#45 = ORIENTED_EDGE('',*,*,#44,.F.);
#46 = CARTESIAN_POINT('',(1.5999999999999996,-0.725,1.14));
#47 = DIRECTION('',(-1.,0.,0.));
#48 = DIRECTION('',(0.,0.,1.));
#49 = AXIS2_PLACEMENT_3D('',#46,#47,#48);
#50 = PLANE('',#49);
#51 = EDGE_LOOP('',(#30,#35,#40,#45));
#52 = FACE_OUTER_BOUND('',#51,.T.);
#53 = ADVANCED_FACE('',(#52),#50,.T.);
#54 = CARTESIAN_POINT('',(2.4999999999999996,-0.725,1.14));
#55 = VERTEX_POINT('',#54);
#56 = CARTESIAN_POINT('',(2.6999999999999997,-0.725,1.14));
#57 = VERTEX_POINT('',#56);
#58 = CARTESIAN_POINT('',(2.6999999999999997,-0.725,1.34));
#59 = VERTEX_POINT('',#58);
#60 = ORIENTED_EDGE('',*,*,#29,.F.);
#61 = DIRECTION('',(1.,0.,0.));
#62 = VECTOR('',#61,1.);
#63 = LINE('',#18,#62);
#64 = EDGE_CURVE('',#19,#55,#63,.T.);
#65 = ORIENTED_EDGE('',*,*,#64,.T.);
#66 = DIRECTION('',(1.,0.,0.));
#67 = VECTOR('',#66,1.);
#68 = LINE('',#54,#67);
#69 = EDGE_CURVE('',#55,#57,#68,.T.);
#70 = ORIENTED_EDGE('',*,*,#69,.T.);
#71 = DIRECTION('',(0.,0.,1.));
#72 = VECTOR('',#71,1.);
#73 = LINE('',#56,#72);
#74 = EDGE_CURVE('',#57,#59,#73,.T.);
#75 = ORIENTED_EDGE('',*,*,#74,.T.);
#76 = DIRECTION('',(1.,0.,0.));
#77 = VECTOR('',#76,1.);
#78 = LINE('',#20,#77);
#79 = EDGE_CURVE('',#21,#59,#78,.T.);
#80 = ORIENTED_EDGE('',*,*,#79,.F.);
#81 = CARTESIAN_POINT('',(1.5999999999999996,-0.725,1.34));
#82 = DIRECTION('',(0.,-1.,0.));
#83 = DIRECTION('',(0.,0.,-1.));
#84 = AXIS2_PLACEMENT_3D('',#81,#82,#83);
#85 = PLANE('',#84);
#86 = EDGE_LOOP('',(#60,#65,#70,#75,#80));
#87 = FACE_OUTER_BOUND('',#86,.T.);
#88 = ADVANCED_FACE('',(#87),#85,.T.);
#89 = CARTESIAN_POINT('',(2.4999999999999996,-0.725,0.2));
#90 = VERTEX_POINT('',#89);
#91 = CARTESIAN_POINT('',(2.6999999999999997,-0.725,0.2));
#92 = VERTEX_POINT('',#91);
#93 = DIRECTION('',(0.,0.,1.));
#94 = VECTOR('',#93,1.);
#95 = LINE('',#89,#94);
#96 = EDGE_CURVE('',#90,#55,#95,.T.);
#97 = ORIENTED_EDGE('',*,*,#96,.F.);
#98 = DIRECTION('',(1.,0.,0.));
#99 = VECTOR('',#98,1.);
#100 = LINE('',#89,#99);
#101 = EDGE_CURVE('',#90,#92,#100,.T.);
#102 = ORIENTED_EDGE('',*,*,#101,.T.);
#103 = DIRECTION('',(0.,0.,1.));
#104 = VECTOR('',#103,1.);
#105 = LINE('',#91,#104);
#106 = EDGE_CURVE('',#92,#57,#105,.T.);
#107 = ORIENTED_EDGE('',*,*,#106,.T.);
#108 = ORIENTED_EDGE('',*,*,#69,.F.);
#109 = CARTESIAN_POINT('',(2.4999999999999996,-0.725,1.14));
#110 = DIRECTION('',(0.,-1.,0.));
#111 = DIRECTION('',(0.,0.,-1.));
#112 = AXIS2_PLACEMENT_3D('',#109,#110,#111);
#113 = PLANE('',#112);
#114 = EDGE_LOOP('',(#97,#102,#107,#108));
#115 = FACE_OUTER_BOUND('',#114,.T.);
#116 = ADVANCED_FACE('',(#115),#113,.T.);
#117 = CARTESIAN_POINT('',(0.8600000000000001,-0.725,0.2));
#118 = VERTEX_POINT('',#117);
#119 = CARTESIAN_POINT('',(0.8600000000000001,-0.725,0.));
#120 = VERTEX_POINT('',#119);
#121 = CARTESIAN_POINT('',(2.7,-0.725,0.));
#122 = VERTEX_POINT('',#121);
#123 = DIRECTION('',(0.,0.,1.));
#124 = VECTOR('',#123,1.);
#125 = LINE('',#119,#124);
#126 = EDGE_CURVE('',#120,#118,#125,.T.);
#127 = ORIENTED_EDGE('',*,*,#126,.F.);
#128 = DIRECTION('',(1.,0.,0.));
#129 = VECTOR('',#128,1.);
#130 = LINE('',#119,#129);
#131 = EDGE_CURVE('',#120,#122,#130,.T.);
#132 = ORIENTED_EDGE('',*,*,#131,.T.);
#133 = DIRECTION('',(0.,0.,1.));
#134 = VECTOR('',#133,1.);
#135 = LINE('',#121,#134);
#136 = EDGE_CURVE('',#122,#92,#135,.T.);
#137 = ORIENTED_EDGE('',*,*,#136,.T.);
#138 = ORIENTED_EDGE('',*,*,#101,.F.);
#139 = DIRECTION('',(1.,0.,0.));
#140 = VECTOR('',#139,1.);
#141 = LINE('',#117,#140);
#142 = EDGE_CURVE('',#118,#90,#141,.T.);
#143 = ORIENTED_EDGE('',*,*,#142,.F.);
#144 = CARTESIAN_POINT('',(0.8600000000000001,-0.725,0.2));
#145 = DIRECTION('',(0.,-1.,0.));
#146 = DIRECTION('',(0.,0.,-1.));
#147 = AXIS2_PLACEMENT_3D('',#144,#145,#146);
#148 = PLANE('',#147);
#149 = EDGE_LOOP('',(#127,#132,#137,#138,#143));
#150 = FACE_OUTER_BOUND('',#149,.T.);
#151 = ADVANCED_FACE('',(#150),#148,.T.);
#152 = CARTESIAN_POINT('',(2.6999999999999997,0.725,1.34));
#153 = VERTEX_POINT('',#152);
#154 = CARTESIAN_POINT('',(2.6999999999999997,0.725,1.14));
#155 = VERTEX_POINT('',#154);
#156 = CARTESIAN_POINT('',(2.4999999999999996,0.725,1.14));
#157 = VERTEX_POINT('',#156);
#158 = DIRECTION('',(0.,0.,1.));
#159 = VECTOR('',#158,1.);
#160 = LINE('',#154,#159);
#161 = EDGE_CURVE('',#155,#153,#160,.T.);
#162 = ORIENTED_EDGE('',*,*,#161,.F.);
#163 = DIRECTION('',(1.,0.,0.));
#164 = VECTOR('',#163,1.);
#165 = LINE('',#156,#164);
#166 = EDGE_CURVE('',#157,#155,#165,.T.);
#167 = ORIENTED_EDGE('',*,*,#166,.F.);
#168 = DIRECTION('',(1.,0.,0.));
#169 = VECTOR('',#168,1.);
#170 = LINE('',#24,#169);
#171 = EDGE_CURVE('',#25,#157,#170,.T.);
#172 = ORIENTED_EDGE('',*,*,#171,.F.);
#173 = ORIENTED_EDGE('',*,*,#39,.T.);
#174 = DIRECTION('',(1.,0.,0.));
#175 = VECTOR('',#174,1.);
#176 = LINE('',#22,#175);
#177 = EDGE_CURVE('',#23,#153,#176,.T.);
#178 = ORIENTED_EDGE('',*,*,#177,.T.);
#179 = CARTESIAN_POINT('',(2.6999999999999997,0.725,1.34));
#180 = DIRECTION('',(0.,1.,0.));
#181 = DIRECTION('',(0.,0.,-1.));
#182 = AXIS2_PLACEMENT_3D('',#179,#180,#181);
#183 = PLANE('',#182);
#184 = EDGE_LOOP('',(#162,#167,#172,#173,#178));
#185 = FACE_OUTER_BOUND('',#184,.T.);
#186 = ADVANCED_FACE('',(#185),#183,.T.);
#187 = CARTESIAN_POINT('',(2.6999999999999997,0.725,0.2));
#188 = VERTEX_POINT('',#187);
#189 = CARTESIAN_POINT('',(2.4999999999999996,0.725,0.2));
#190 = VERTEX_POINT('',#189);
#191 = DIRECTION('',(0.,0.,1.));
#192 = VECTOR('',#191,1.);
#193 = LINE('',#187,#192);
#194 = EDGE_CURVE('',#188,#155,#193,.T.);
#195 = ORIENTED_EDGE('',*,*,#194,.F.);
#196 = DIRECTION('',(1.,0.,0.));
#197 = VECTOR('',#196,1.);
#198 = LINE('',#189,#197);
#199 = EDGE_CURVE('',#190,#188,#198,.T.);
#200 = ORIENTED_EDGE('',*,*,#199,.F.);
#201 = DIRECTION('',(0.,0.,1.));
#202 = VECTOR('',#201,1.);
#203 = LINE('',#189,#202);
#204 = EDGE_CURVE('',#190,#157,#203,.T.);
#205 = ORIENTED_EDGE('',*,*,#204,.T.);
#206 = ORIENTED_EDGE('',*,*,#166,.T.);
#207 = CARTESIAN_POINT('',(2.6999999999999997,0.725,1.14));
#208 = DIRECTION('',(0.,1.,0.));
#209 = DIRECTION('',(0.,0.,-1.));
#210 = AXIS2_PLACEMENT_3D('',#207,#208,#209);
#211 = PLANE('',#210);
#212 = EDGE_LOOP('',(#195,#200,#205,#206));
#213 = FACE_OUTER_BOUND('',#212,.T.);
#214 = ADVANCED_FACE('',(#213),#211,.T.);
#215 = CARTESIAN_POINT('',(2.7,0.725,0.));
#216 = VERTEX_POINT('',#215);
#217 = CARTESIAN_POINT('',(0.8600000000000001,0.725,0.));
#218 = VERTEX_POINT('',#217);
#219 = CARTESIAN_POINT('',(0.8600000000000001,0.725,0.2));
#220 = VERTEX_POINT('',#219);
#221 = DIRECTION('',(0.,0.,1.));
#222 = VECTOR('',#221,1.);
#223 = LINE('',#215,#222);
#224 = EDGE_CURVE('',#216,#188,#223,.T.);
#225 = ORIENTED_EDGE('',*,*,#224,.F.);
#226 = DIRECTION('',(1.,0.,0.));
#227 = VECTOR('',#226,1.);
#228 = LINE('',#217,#227);
#229 = EDGE_CURVE('',#218,#216,#228,.T.);
#230 = ORIENTED_EDGE('',*,*,#229,.F.);
#231 = DIRECTION('',(0.,0.,1.));
#232 = VECTOR('',#231,1.);
#233 = LINE('',#217,#232);
#234 = EDGE_CURVE('',#218,#220,#233,.T.);
#235 = ORIENTED_EDGE('',*,*,#234,.T.);
#236 = DIRECTION('',(1.,0.,0.));
#237 = VECTOR('',#236,1.);
#238 = LINE('',#219,#237);
#239 = EDGE_CURVE('',#220,#190,#238,.T.);
#240 = ORIENTED_EDGE('',*,*,#239,.T.);
#241 = ORIENTED_EDGE('',*,*,#199,.T.);
#242 = CARTESIAN_POINT('',(2.7,0.725,0.2));
#243 = DIRECTION('',(0.,1.,0.));
#244 = DIRECTION('',(0.,0.,-1.));
#245 = AXIS2_PLACEMENT_3D('',#242,#243,#244);
#246 = PLANE('',#245);
#247 = EDGE_LOOP('',(#225,#230,#235,#240,#241));
#248 = FACE_OUTER_BOUND('',#247,.T.);
#249 = ADVANCED_FACE('',(#248),#246,.T.);
#250 = ORIENTED_EDGE('',*,*,#34,.F.);
#251 = ORIENTED_EDGE('',*,*,#79,.T.);
#252 = DIRECTION('',(0.,1.,0.));
#253 = VECTOR('',#252,1.);
#254 = LINE('',#58,#253);
#255 = EDGE_CURVE('',#59,#153,#254,.T.);
#256 = ORIENTED_EDGE('',*,*,#255,.T.);
#257 = ORIENTED_EDGE('',*,*,#177,.F.);
#258 = CARTESIAN_POINT('',(1.5999999999999996,0.725,1.34));
#259 = DIRECTION('',(0.,0.,1.));
#260 = DIRECTION('',(0.,-1.,0.));
#261 = AXIS2_PLACEMENT_3D('',#258,#259,#260);
#262 = PLANE('',#261);
#263 = EDGE_LOOP('',(#250,#251,#256,#257));
#264 = FACE_OUTER_BOUND('',#263,.T.);
#265 = ADVANCED_FACE('',(#264),#262,.T.);
#266 = ORIENTED_EDGE('',*,*,#44,.T.);
#267 = ORIENTED_EDGE('',*,*,#171,.T.);
#268 = DIRECTION('',(0.,1.,0.));
#269 = VECTOR('',#268,1.);
#270 = LINE('',#54,#269);
#271 = EDGE_CURVE('',#55,#157,#270,.T.);
#272 = ORIENTED_EDGE('',*,*,#271,.F.);
#273 = ORIENTED_EDGE('',*,*,#64,.F.);
#274 = CARTESIAN_POINT('',(1.5999999999999996,-0.725,1.14));
#275 = DIRECTION('',(0.,0.,-1.));
#276 = DIRECTION('',(0.,1.,0.));
#277 = AXIS2_PLACEMENT_3D('',#274,#275,#276);
#278 = PLANE('',#277);
#279 = EDGE_LOOP('',(#266,#267,#272,#273));
#280 = FACE_OUTER_BOUND('',#279,.T.);
#281 = ADVANCED_FACE('',(#280),#278,.T.);
#282 = ORIENTED_EDGE('',*,*,#126,.T.);
#283 = DIRECTION('',(0.,1.,0.));
#284 = VECTOR('',#283,1.);
#285 = LINE('',#117,#284);
#286 = EDGE_CURVE('',#118,#220,#285,.T.);
#287 = ORIENTED_EDGE('',*,*,#286,.T.);
#288 = ORIENTED_EDGE('',*,*,#234,.F.);
#289 = DIRECTION('',(0.,1.,0.));
#290 = VECTOR('',#289,1.);
#291 = LINE('',#119,#290);
#292 = EDGE_CURVE('',#120,#218,#291,.T.);
#293 = ORIENTED_EDGE('',*,*,#292,.F.);
#294 = CARTESIAN_POINT('',(0.8600000000000001,-0.725,0.));
#295 = DIRECTION('',(-1.,0.,0.));
#296 = DIRECTION('',(0.,0.,1.));
#297 = AXIS2_PLACEMENT_3D('',#294,#295,#296);
#298 = PLANE('',#297);
#299 = EDGE_LOOP('',(#282,#287,#288,#293));
#300 = FACE_OUTER_BOUND('',#299,.T.);
#301 = ADVANCED_FACE('',(#300),#298,.T.);
#302 = ORIENTED_EDGE('',*,*,#74,.F.);
#303 = ORIENTED_EDGE('',*,*,#106,.F.);
#304 = ORIENTED_EDGE('',*,*,#136,.F.);
#305 = DIRECTION('',(0.,1.,0.));
#306 = VECTOR('',#305,1.);
#307 = LINE('',#121,#306);
#308 = EDGE_CURVE('',#122,#216,#307,.T.);
#309 = ORIENTED_EDGE('',*,*,#308,.T.);
#310 = ORIENTED_EDGE('',*,*,#224,.T.);
#311 = ORIENTED_EDGE('',*,*,#194,.T.);
#312 = ORIENTED_EDGE('',*,*,#161,.T.);
#313 = ORIENTED_EDGE('',*,*,#255,.F.);
#314 = CARTESIAN_POINT('',(2.7,-0.725,1.3399999999999999));
#315 = DIRECTION('',(1.,0.,0.));
#316 = DIRECTION('',(0.,0.,-1.));
#317 = AXIS2_PLACEMENT_3D('',#314,#315,#316);
#318 = PLANE('',#317);
#319 = EDGE_LOOP('',(#302,#303,#304,#309,#310,#311,#312,#313));
#320 = FACE_OUTER_BOUND('',#319,.T.);
#321 = ADVANCED_FACE('',(#320),#318,.T.);
#322 = ORIENTED_EDGE('',*,*,#292,.T.);
#323 = ORIENTED_EDGE('',*,*,#229,.T.);
#324 = ORIENTED_EDGE('',*,*,#308,.F.);
#325 = ORIENTED_EDGE('',*,*,#131,.F.);
#326 = CARTESIAN_POINT('',(0.8600000000000001,-0.725,0.));
#327 = DIRECTION('',(0.,0.,-1.));
#328 = DIRECTION('',(0.,1.,0.));
#329 = AXIS2_PLACEMENT_3D('',#326,#327,#328);
#330 = PLANE('',#329);
#331 = EDGE_LOOP('',(#322,#323,#324,#325));
#332 = FACE_OUTER_BOUND('',#331,.T.);
#333 = ADVANCED_FACE('',(#332),#330,.T.);
#334 = ORIENTED_EDGE('',*,*,#142,.T.);
#335 = DIRECTION('',(0.,1.,0.));
#336 = VECTOR('',#335,1.);
#337 = LINE('',#89,#336);
#338 = EDGE_CURVE('',#90,#190,#337,.T.);
#339 = ORIENTED_EDGE('',*,*,#338,.T.);
#340 = ORIENTED_EDGE('',*,*,#239,.F.);
#341 = ORIENTED_EDGE('',*,*,#286,.F.);
#342 = CARTESIAN_POINT('',(0.8600000000000001,-0.725,0.2));
#343 = DIRECTION('',(0.,0.,1.));
#344 = DIRECTION('',(1.,0.,0.));
#345 = AXIS2_PLACEMENT_3D('',#342,#343,#344);
#346 = PLANE('',#345);
#347 = EDGE_LOOP('',(#334,#339,#340,#341));
#348 = FACE_OUTER_BOUND('',#347,.T.);
#349 = ADVANCED_FACE('',(#348),#346,.T.);
#350 = ORIENTED_EDGE('',*,*,#96,.T.);
#351 = ORIENTED_EDGE('',*,*,#271,.T.);
#352 = ORIENTED_EDGE('',*,*,#204,.F.);
#353 = ORIENTED_EDGE('',*,*,#338,.F.);
#354 = CARTESIAN_POINT('',(2.4999999999999996,-0.725,0.20000000000000007));
#355 = DIRECTION('',(-1.,0.,0.));
#356 = DIRECTION('',(0.,0.,1.));
#357 = AXIS2_PLACEMENT_3D('',#354,#355,#356);
#358 = PLANE('',#357);
#359 = EDGE_LOOP('',(#350,#351,#352,#353));
#360 = FACE_OUTER_BOUND('',#359,.T.);
#361 = ADVANCED_FACE('',(#360),#358,.T.);
#362 = CLOSED_SHELL('',(#53,#88,#116,#151,#186,#214,#249,#265,#281,#301,#321,#333,#349,#361));
#363 = MANIFOLD_SOLID_BREP('',#362);
#364 = COLOUR_RGB('',0.7529411764705882,0.7529411764705882,0.7529411764705882);
#365 = FILL_AREA_STYLE_COLOUR('',#364);
#366 = FILL_AREA_STYLE('',(#365));
#367 = SURFACE_STYLE_FILL_AREA(#366);
#368 = SURFACE_SIDE_STYLE('',(#367));
#369 = SURFACE_STYLE_USAGE(.BOTH.,#368);
#370 = PRESENTATION_STYLE_ASSIGNMENT((#369));
#371 = STYLED_ITEM('',(#370),#363);
#372 = CARTESIAN_POINT('',(-1.5999999999999996,-0.725,1.14));
#373 = VERTEX_POINT('',#372);
#374 = CARTESIAN_POINT('',(-1.5999999999999996,0.725,1.14));
#375 = VERTEX_POINT('',#374);
#376 = CARTESIAN_POINT('',(-1.5999999999999996,0.725,1.34));
#377 = VERTEX_POINT('',#376);
#378 = CARTESIAN_POINT('',(-1.5999999999999996,-0.725,1.34));
#379 = VERTEX_POINT('',#378);
#380 = DIRECTION('',(0.,1.,0.));
#381 = VECTOR('',#380,1.);
#382 = LINE('',#372,#381);
#383 = EDGE_CURVE('',#373,#375,#382,.T.);
#384 = ORIENTED_EDGE('',*,*,#383,.T.);
#385 = DIRECTION('',(0.,0.,1.));
#386 = VECTOR('',#385,1.);
#387 = LINE('',#374,#386);
#388 = EDGE_CURVE('',#375,#377,#387,.T.);
#389 = ORIENTED_EDGE('',*,*,#388,.T.);
#390 = DIRECTION('',(0.,1.,0.));
#391 = VECTOR('',#390,1.);
#392 = LINE('',#378,#391);
#393 = EDGE_CURVE('',#379,#377,#392,.T.);
#394 = ORIENTED_EDGE('',*,*,#393,.F.);
#395 = DIRECTION('',(0.,0.,1.));
#396 = VECTOR('',#395,1.);
#397 = LINE('',#372,#396);
#398 = EDGE_CURVE('',#373,#379,#397,.T.);
#399 = ORIENTED_EDGE('',*,*,#398,.F.);
#400 = CARTESIAN_POINT('',(-1.5999999999999996,-0.725,1.14));
#401 = DIRECTION('',(1.,0.,0.));
#402 = DIRECTION('',(0.,1.,0.));
#403 = AXIS2_PLACEMENT_3D('',#400,#401,#402);
#404 = PLANE('',#403);
#405 = EDGE_LOOP('',(#384,#389,#394,#399));
#406 = FACE_OUTER_BOUND('',#405,.T.);
#407 = ADVANCED_FACE('',(#406),#404,.T.);
#408 = CARTESIAN_POINT('',(-2.6999999999999997,-0.725,1.34));
#409 = VERTEX_POINT('',#408);
#410 = CARTESIAN_POINT('',(-2.6999999999999997,-0.725,1.14));
#411 = VERTEX_POINT('',#410);
#412 = CARTESIAN_POINT('',(-2.4999999999999996,-0.725,1.14));
#413 = VERTEX_POINT('',#412);
#414 = DIRECTION('',(0.,0.,1.));
#415 = VECTOR('',#414,1.);
#416 = LINE('',#410,#415);
#417 = EDGE_CURVE('',#411,#409,#416,.T.);
#418 = ORIENTED_EDGE('',*,*,#417,.F.);
#419 = DIRECTION('',(-1.,0.,0.));
#420 = VECTOR('',#419,1.);
#421 = LINE('',#412,#420);
#422 = EDGE_CURVE('',#413,#411,#421,.T.);
#423 = ORIENTED_EDGE('',*,*,#422,.F.);
#424 = DIRECTION('',(-1.,0.,0.));
#425 = VECTOR('',#424,1.);
#426 = LINE('',#372,#425);
#427 = EDGE_CURVE('',#373,#413,#426,.T.);
#428 = ORIENTED_EDGE('',*,*,#427,.F.);
#429 = ORIENTED_EDGE('',*,*,#398,.T.);
#430 = DIRECTION('',(-1.,0.,0.));
#431 = VECTOR('',#430,1.);
#432 = LINE('',#378,#431);
#433 = EDGE_CURVE('',#379,#409,#432,.T.);
#434 = ORIENTED_EDGE('',*,*,#433,.T.);
#435 = CARTESIAN_POINT('',(-2.6999999999999997,-0.725,1.34));
#436 = DIRECTION('',(0.,-1.,0.));
#437 = DIRECTION('',(0.,0.,-1.));
#438 = AXIS2_PLACEMENT_3D('',#435,#436,#437);
#439 = PLANE('',#438);
#440 = EDGE_LOOP('',(#418,#423,#428,#429,#434));
#441 = FACE_OUTER_BOUND('',#440,.T.);
#442 = ADVANCED_FACE('',(#441),#439,.T.);
#443 = CARTESIAN_POINT('',(-2.6999999999999997,-0.725,0.2));
#444 = VERTEX_POINT('',#443);
#445 = CARTESIAN_POINT('',(-2.4999999999999996,-0.725,0.2));
#446 = VERTEX_POINT('',#445);
#447 = DIRECTION('',(0.,0.,1.));
#448 = VECTOR('',#447,1.);
#449 = LINE('',#443,#448);
#450 = EDGE_CURVE('',#444,#411,#449,.T.);
#451 = ORIENTED_EDGE('',*,*,#450,.F.);
#452 = DIRECTION('',(-1.,0.,0.));
#453 = VECTOR('',#452,1.);
#454 = LINE('',#445,#453);
#455 = EDGE_CURVE('',#446,#444,#454,.T.);
#456 = ORIENTED_EDGE('',*,*,#455,.F.);
#457 = DIRECTION('',(0.,0.,1.));
#458 = VECTOR('',#457,1.);
#459 = LINE('',#445,#458);
#460 = EDGE_CURVE('',#446,#413,#459,.T.);
#461 = ORIENTED_EDGE('',*,*,#460,.T.);
#462 = ORIENTED_EDGE('',*,*,#422,.T.);
#463 = CARTESIAN_POINT('',(-2.6999999999999997,-0.725,1.14));
#464 = DIRECTION('',(0.,-1.,0.));
#465 = DIRECTION('',(0.,0.,-1.));
#466 = AXIS2_PLACEMENT_3D('',#463,#464,#465);
#467 = PLANE('',#466);
#468 = EDGE_LOOP('',(#451,#456,#461,#462));
#469 = FACE_OUTER_BOUND('',#468,.T.);
#470 = ADVANCED_FACE('',(#469),#467,.T.);
#471 = CARTESIAN_POINT('',(-2.7,-0.725,0.));
#472 = VERTEX_POINT('',#471);
#473 = CARTESIAN_POINT('',(-0.8600000000000001,-0.725,0.));
#474 = VERTEX_POINT('',#473);
#475 = CARTESIAN_POINT('',(-0.8600000000000001,-0.725,0.2));
#476 = VERTEX_POINT('',#475);
#477 = DIRECTION('',(0.,0.,1.));
#478 = VECTOR('',#477,1.);
#479 = LINE('',#471,#478);
#480 = EDGE_CURVE('',#472,#444,#479,.T.);
#481 = ORIENTED_EDGE('',*,*,#480,.F.);
#482 = DIRECTION('',(-1.,0.,0.));
#483 = VECTOR('',#482,1.);
#484 = LINE('',#473,#483);
#485 = EDGE_CURVE('',#474,#472,#484,.T.);
#486 = ORIENTED_EDGE('',*,*,#485,.F.);
#487 = DIRECTION('',(0.,0.,1.));
#488 = VECTOR('',#487,1.);
#489 = LINE('',#473,#488);
#490 = EDGE_CURVE('',#474,#476,#489,.T.);
#491 = ORIENTED_EDGE('',*,*,#490,.T.);
#492 = DIRECTION('',(-1.,0.,0.));
#493 = VECTOR('',#492,1.);
#494 = LINE('',#475,#493);
#495 = EDGE_CURVE('',#476,#446,#494,.T.);
#496 = ORIENTED_EDGE('',*,*,#495,.T.);
#497 = ORIENTED_EDGE('',*,*,#455,.T.);
#498 = CARTESIAN_POINT('',(-2.7,-0.725,0.2));
#499 = DIRECTION('',(0.,-1.,0.));
#500 = DIRECTION('',(0.,0.,-1.));
#501 = AXIS2_PLACEMENT_3D('',#498,#499,#500);
#502 = PLANE('',#501);
#503 = EDGE_LOOP('',(#481,#486,#491,#496,#497));
#504 = FACE_OUTER_BOUND('',#503,.T.);
#505 = ADVANCED_FACE('',(#504),#502,.T.);
#506 = CARTESIAN_POINT('',(-2.4999999999999996,0.725,1.14));
#507 = VERTEX_POINT('',#506);
#508 = CARTESIAN_POINT('',(-2.6999999999999997,0.725,1.14));
#509 = VERTEX_POINT('',#508);
#510 = CARTESIAN_POINT('',(-2.6999999999999997,0.725,1.34));
#511 = VERTEX_POINT('',#510);
#512 = ORIENTED_EDGE('',*,*,#388,.F.);
#513 = DIRECTION('',(-1.,0.,0.));
#514 = VECTOR('',#513,1.);
#515 = LINE('',#374,#514);
#516 = EDGE_CURVE('',#375,#507,#515,.T.);
#517 = ORIENTED_EDGE('',*,*,#516,.T.);
#518 = DIRECTION('',(-1.,0.,0.));
#519 = VECTOR('',#518,1.);
#520 = LINE('',#506,#519);
#521 = EDGE_CURVE('',#507,#509,#520,.T.);
#522 = ORIENTED_EDGE('',*,*,#521,.T.);
#523 = DIRECTION('',(0.,0.,1.));
#524 = VECTOR('',#523,1.);
#525 = LINE('',#508,#524);
#526 = EDGE_CURVE('',#509,#511,#525,.T.);
#527 = ORIENTED_EDGE('',*,*,#526,.T.);
#528 = DIRECTION('',(-1.,0.,0.));
#529 = VECTOR('',#528,1.);
#530 = LINE('',#376,#529);
#531 = EDGE_CURVE('',#377,#511,#530,.T.);
#532 = ORIENTED_EDGE('',*,*,#531,.F.);
#533 = CARTESIAN_POINT('',(-1.5999999999999996,0.725,1.34));
#534 = DIRECTION('',(0.,1.,0.));
#535 = DIRECTION('',(0.,0.,-1.));
#536 = AXIS2_PLACEMENT_3D('',#533,#534,#535);
#537 = PLANE('',#536);
#538 = EDGE_LOOP('',(#512,#517,#522,#527,#532));
#539 = FACE_OUTER_BOUND('',#538,.T.);
#540 = ADVANCED_FACE('',(#539),#537,.T.);
#541 = CARTESIAN_POINT('',(-2.4999999999999996,0.725,0.2));
#542 = VERTEX_POINT('',#541);
#543 = CARTESIAN_POINT('',(-2.6999999999999997,0.725,0.2));
#544 = VERTEX_POINT('',#543);
#545 = DIRECTION('',(0.,0.,1.));
#546 = VECTOR('',#545,1.);
#547 = LINE('',#541,#546);
#548 = EDGE_CURVE('',#542,#507,#547,.T.);
#549 = ORIENTED_EDGE('',*,*,#548,.F.);
#550 = DIRECTION('',(-1.,0.,0.));
#551 = VECTOR('',#550,1.);
#552 = LINE('',#541,#551);
#553 = EDGE_CURVE('',#542,#544,#552,.T.);
#554 = ORIENTED_EDGE('',*,*,#553,.T.);
#555 = DIRECTION('',(0.,0.,1.));
#556 = VECTOR('',#555,1.);
#557 = LINE('',#543,#556);
#558 = EDGE_CURVE('',#544,#509,#557,.T.);
#559 = ORIENTED_EDGE('',*,*,#558,.T.);
#560 = ORIENTED_EDGE('',*,*,#521,.F.);
#561 = CARTESIAN_POINT('',(-2.4999999999999996,0.725,1.14));
#562 = DIRECTION('',(0.,1.,0.));
#563 = DIRECTION('',(0.,0.,-1.));
#564 = AXIS2_PLACEMENT_3D('',#561,#562,#563);
#565 = PLANE('',#564);
#566 = EDGE_LOOP('',(#549,#554,#559,#560));
#567 = FACE_OUTER_BOUND('',#566,.T.);
#568 = ADVANCED_FACE('',(#567),#565,.T.);
#569 = CARTESIAN_POINT('',(-0.8600000000000001,0.725,0.2));
#570 = VERTEX_POINT('',#569);
#571 = CARTESIAN_POINT('',(-0.8600000000000001,0.725,0.));
#572 = VERTEX_POINT('',#571);
#573 = CARTESIAN_POINT('',(-2.7,0.725,0.));
#574 = VERTEX_POINT('',#573);
#575 = DIRECTION('',(0.,0.,1.));
#576 = VECTOR('',#575,1.);
#577 = LINE('',#571,#576);
#578 = EDGE_CURVE('',#572,#570,#577,.T.);
#579 = ORIENTED_EDGE('',*,*,#578,.F.);
#580 = DIRECTION('',(-1.,0.,0.));
#581 = VECTOR('',#580,1.);
#582 = LINE('',#571,#581);
#583 = EDGE_CURVE('',#572,#574,#582,.T.);
#584 = ORIENTED_EDGE('',*,*,#583,.T.);
#585 = DIRECTION('',(0.,0.,1.));
#586 = VECTOR('',#585,1.);
#587 = LINE('',#573,#586);
#588 = EDGE_CURVE('',#574,#544,#587,.T.);
#589 = ORIENTED_EDGE('',*,*,#588,.T.);
#590 = ORIENTED_EDGE('',*,*,#553,.F.);
#591 = DIRECTION('',(-1.,0.,0.));
#592 = VECTOR('',#591,1.);
#593 = LINE('',#569,#592);
#594 = EDGE_CURVE('',#570,#542,#593,.T.);
#595 = ORIENTED_EDGE('',*,*,#594,.F.);
#596 = CARTESIAN_POINT('',(-0.8600000000000001,0.725,0.2));
#597 = DIRECTION('',(0.,1.,0.));
#598 = DIRECTION('',(0.,0.,-1.));
#599 = AXIS2_PLACEMENT_3D('',#596,#597,#598);
#600 = PLANE('',#599);
#601 = EDGE_LOOP('',(#579,#584,#589,#590,#595));
#602 = FACE_OUTER_BOUND('',#601,.T.);
#603 = ADVANCED_FACE('',(#602),#600,.T.);
#604 = DIRECTION('',(0.,1.,0.));
#605 = VECTOR('',#604,1.);
#606 = LINE('',#408,#605);
#607 = EDGE_CURVE('',#409,#511,#606,.T.);
#608 = ORIENTED_EDGE('',*,*,#607,.F.);
#609 = ORIENTED_EDGE('',*,*,#433,.F.);
#610 = ORIENTED_EDGE('',*,*,#393,.T.);
#611 = ORIENTED_EDGE('',*,*,#531,.T.);
#612 = CARTESIAN_POINT('',(-2.6999999999999997,0.725,1.34));
#613 = DIRECTION('',(0.,0.,1.));
#614 = DIRECTION('',(0.,-1.,0.));
#615 = AXIS2_PLACEMENT_3D('',#612,#613,#614);
#616 = PLANE('',#615);
#617 = EDGE_LOOP('',(#608,#609,#610,#611));
#618 = FACE_OUTER_BOUND('',#617,.T.);
#619 = ADVANCED_FACE('',(#618),#616,.T.);
#620 = ORIENTED_EDGE('',*,*,#516,.F.);
#621 = ORIENTED_EDGE('',*,*,#383,.F.);
#622 = ORIENTED_EDGE('',*,*,#427,.T.);
#623 = DIRECTION('',(0.,1.,0.));
#624 = VECTOR('',#623,1.);
#625 = LINE('',#412,#624);
#626 = EDGE_CURVE('',#413,#507,#625,.T.);
#627 = ORIENTED_EDGE('',*,*,#626,.T.);
#628 = CARTESIAN_POINT('',(-2.4999999999999996,0.725,1.14));
#629 = DIRECTION('',(0.,0.,-1.));
#630 = DIRECTION('',(1.,0.,0.));
#631 = AXIS2_PLACEMENT_3D('',#628,#629,#630);
#632 = PLANE('',#631);
#633 = EDGE_LOOP('',(#620,#621,#622,#627));
#634 = FACE_OUTER_BOUND('',#633,.T.);
#635 = ADVANCED_FACE('',(#634),#632,.T.);
#636 = ORIENTED_EDGE('',*,*,#526,.F.);
#637 = ORIENTED_EDGE('',*,*,#558,.F.);
#638 = ORIENTED_EDGE('',*,*,#588,.F.);
#639 = DIRECTION('',(0.,1.,0.));
#640 = VECTOR('',#639,1.);
#641 = LINE('',#471,#640);
#642 = EDGE_CURVE('',#472,#574,#641,.T.);
#643 = ORIENTED_EDGE('',*,*,#642,.F.);
#644 = ORIENTED_EDGE('',*,*,#480,.T.);
#645 = ORIENTED_EDGE('',*,*,#450,.T.);
#646 = ORIENTED_EDGE('',*,*,#417,.T.);
#647 = ORIENTED_EDGE('',*,*,#607,.T.);
#648 = CARTESIAN_POINT('',(-2.7,0.725,1.3399999999999999));
#649 = DIRECTION('',(-1.,0.,0.));
#650 = DIRECTION('',(0.,0.,-1.));
#651 = AXIS2_PLACEMENT_3D('',#648,#649,#650);
#652 = PLANE('',#651);
#653 = EDGE_LOOP('',(#636,#637,#638,#643,#644,#645,#646,#647));
#654 = FACE_OUTER_BOUND('',#653,.T.);
#655 = ADVANCED_FACE('',(#654),#652,.T.);
#656 = DIRECTION('',(0.,1.,0.));
#657 = VECTOR('',#656,1.);
#658 = LINE('',#473,#657);
#659 = EDGE_CURVE('',#474,#572,#658,.T.);
#660 = ORIENTED_EDGE('',*,*,#659,.T.);
#661 = ORIENTED_EDGE('',*,*,#578,.T.);
#662 = DIRECTION('',(0.,1.,0.));
#663 = VECTOR('',#662,1.);
#664 = LINE('',#475,#663);
#665 = EDGE_CURVE('',#476,#570,#664,.T.);
#666 = ORIENTED_EDGE('',*,*,#665,.F.);
#667 = ORIENTED_EDGE('',*,*,#490,.F.);
#668 = CARTESIAN_POINT('',(-0.8600000000000001,-0.725,0.));
#669 = DIRECTION('',(1.,0.,0.));
#670 = DIRECTION('',(0.,1.,0.));
#671 = AXIS2_PLACEMENT_3D('',#668,#669,#670);
#672 = PLANE('',#671);
#673 = EDGE_LOOP('',(#660,#661,#666,#667));
#674 = FACE_OUTER_BOUND('',#673,.T.);
#675 = ADVANCED_FACE('',(#674),#672,.T.);
#676 = ORIENTED_EDGE('',*,*,#642,.T.);
#677 = ORIENTED_EDGE('',*,*,#583,.F.);
#678 = ORIENTED_EDGE('',*,*,#659,.F.);
#679 = ORIENTED_EDGE('',*,*,#485,.T.);
#680 = CARTESIAN_POINT('',(-2.7,-0.725,0.));
#681 = DIRECTION('',(0.,0.,-1.));
#682 = DIRECTION('',(0.,1.,0.));
#683 = AXIS2_PLACEMENT_3D('',#680,#681,#682);
#684 = PLANE('',#683);
#685 = EDGE_LOOP('',(#676,#677,#678,#679));
#686 = FACE_OUTER_BOUND('',#685,.T.);
#687 = ADVANCED_FACE('',(#686),#684,.T.);
#688 = ORIENTED_EDGE('',*,*,#495,.F.);
#689 = ORIENTED_EDGE('',*,*,#665,.T.);
#690 = ORIENTED_EDGE('',*,*,#594,.T.);
#691 = DIRECTION('',(0.,1.,0.));
#692 = VECTOR('',#691,1.);
#693 = LINE('',#445,#692);
#694 = EDGE_CURVE('',#446,#542,#693,.T.);
#695 = ORIENTED_EDGE('',*,*,#694,.F.);
#696 = CARTESIAN_POINT('',(-2.4999999999999996,-0.725,0.2));
#697 = DIRECTION('',(0.,0.,1.));
#698 = DIRECTION('',(1.,0.,0.));
#699 = AXIS2_PLACEMENT_3D('',#696,#697,#698);
#700 = PLANE('',#699);
#701 = EDGE_LOOP('',(#688,#689,#690,#695));
#702 = FACE_OUTER_BOUND('',#701,.T.);
#703 = ADVANCED_FACE('',(#702),#700,.T.);
#704 = ORIENTED_EDGE('',*,*,#694,.T.);
#705 = ORIENTED_EDGE('',*,*,#548,.T.);
#706 = ORIENTED_EDGE('',*,*,#626,.F.);
#707 = ORIENTED_EDGE('',*,*,#460,.F.);
#708 = CARTESIAN_POINT('',(-2.4999999999999996,-0.725,0.20000000000000007));
#709 = DIRECTION('',(1.,0.,0.));
#710 = DIRECTION('',(0.,1.,0.));
#711 = AXIS2_PLACEMENT_3D('',#708,#709,#710);
#712 = PLANE('',#711);
#713 = EDGE_LOOP('',(#704,#705,#706,#707));
#714 = FACE_OUTER_BOUND('',#713,.T.);
#715 = ADVANCED_FACE('',(#714),#712,.T.);
#716 = CLOSED_SHELL('',(#407,#442,#470,#505,#540,#568,#603,#619,#635,#655,#675,#687,#703,#715));
#717 = MANIFOLD_SOLID_BREP('',#716);
#718 = COLOUR_RGB('',0.7529411764705882,0.7529411764705882,0.7529411764705882);
#719 = FILL_AREA_STYLE_COLOUR('',#718);
#720 = FILL_AREA_STYLE('',(#719));
#721 = SURFACE_STYLE_FILL_AREA(#720);
#722 = SURFACE_SIDE_STYLE('',(#721));
#723 = SURFACE_STYLE_USAGE(.BOTH.,#722);
#724 = PRESENTATION_STYLE_ASSIGNMENT((#723));
#725 = STYLED_ITEM('',(#724),#717);
#726 = CARTESIAN_POINT('',(-2.,-1.5,0.115));
#727 = VERTEX_POINT('',#726);
#728 = CARTESIAN_POINT('',(2.,-1.5,0.115));
#729 = VERTEX_POINT('',#728);
#730 = CARTESIAN_POINT('',(2.2,-1.7,1.145));
#731 = VERTEX_POINT('',#730);
#732 = CARTESIAN_POINT('',(-2.2,-1.7,1.145));
#733 = VERTEX_POINT('',#732);
#734 = DIRECTION('',(1.,0.,0.));
#735 = VECTOR('',#734,1.);
#736 = LINE('',#726,#735);
#737 = EDGE_CURVE('',#727,#729,#736,.T.);
#738 = ORIENTED_EDGE('',*,*,#737,.T.);
#739 = DIRECTION('',(0.1872432650832772,-0.18724326508327702,0.9643028151788768));
#740 = VECTOR('',#739,1.);
#741 = LINE('',#728,#740);
#742 = EDGE_CURVE('',#729,#731,#741,.T.);
#743 = ORIENTED_EDGE('',*,*,#742,.T.);
#744 = DIRECTION('',(1.,0.,0.));
#745 = VECTOR('',#744,1.);
#746 = LINE('',#732,#745);
#747 = EDGE_CURVE('',#733,#731,#746,.T.);
#748 = ORIENTED_EDGE('',*,*,#747,.F.);
#749 = DIRECTION('',(-0.1872432650832772,-0.18724326508327702,0.9643028151788768));
#750 = VECTOR('',#749,1.);
#751 = LINE('',#726,#750);
#752 = EDGE_CURVE('',#727,#733,#751,.T.);
#753 = ORIENTED_EDGE('',*,*,#752,.F.);
#754 = CARTESIAN_POINT('',(-2.,-1.5,0.115));
#755 = DIRECTION('',(0.,-0.981664958822398,-0.1906145551111452));
#756 = DIRECTION('',(1.,0.,0.));
#757 = AXIS2_PLACEMENT_3D('',#754,#755,#756);
#758 = PLANE('',#757);
#759 = EDGE_LOOP('',(#738,#743,#748,#753));
#760 = FACE_OUTER_BOUND('',#759,.T.);
#761 = ADVANCED_FACE('',(#760),#758,.T.);
#762 = CARTESIAN_POINT('',(-2.2,1.7,1.145));
#763 = VERTEX_POINT('',#762);
#764 = CARTESIAN_POINT('',(-2.,1.5,0.115));
#765 = VERTEX_POINT('',#764);
#766 = ORIENTED_EDGE('',*,*,#752,.T.);
#767 = DIRECTION('',(0.,1.,0.));
#768 = VECTOR('',#767,1.);
#769 = LINE('',#732,#768);
#770 = EDGE_CURVE('',#733,#763,#769,.T.);
#771 = ORIENTED_EDGE('',*,*,#770,.T.);
#772 = DIRECTION('',(-0.1872432650832772,0.18724326508327702,0.9643028151788768));
#773 = VECTOR('',#772,1.);
#774 = LINE('',#764,#773);
#775 = EDGE_CURVE('',#765,#763,#774,.T.);
#776 = ORIENTED_EDGE('',*,*,#775,.F.);
#777 = DIRECTION('',(0.,1.,0.));
#778 = VECTOR('',#777,1.);
#779 = LINE('',#726,#778);
#780 = EDGE_CURVE('',#727,#765,#779,.T.);
#781 = ORIENTED_EDGE('',*,*,#780,.F.);
#782 = CARTESIAN_POINT('',(-2.,-1.5,0.115));
#783 = DIRECTION('',(-0.9816649588223978,0.,-0.1906145551111454));
#784 = DIRECTION('',(-0.1872432650832772,-0.18724326508327702,0.9643028151788768));
#785 = AXIS2_PLACEMENT_3D('',#782,#783,#784);
#786 = PLANE('',#785);
#787 = EDGE_LOOP('',(#766,#771,#776,#781));
#788 = FACE_OUTER_BOUND('',#787,.T.);
#789 = ADVANCED_FACE('',(#788),#786,.T.);
#790 = CARTESIAN_POINT('',(-2.2,-1.7,1.1549999999999998));
#791 = VERTEX_POINT('',#790);
#792 = CARTESIAN_POINT('',(2.2,-1.7,1.1549999999999998));
#793 = VERTEX_POINT('',#792);
#794 = DIRECTION('',(0.,0.,1.));
#795 = VECTOR('',#794,1.);
#796 = LINE('',#732,#795);
#797 = EDGE_CURVE('',#733,#791,#796,.T.);
#798 = ORIENTED_EDGE('',*,*,#797,.F.);
#799 = ORIENTED_EDGE('',*,*,#747,.T.);
#800 = DIRECTION('',(0.,0.,1.));
#801 = VECTOR('',#800,1.);
#802 = LINE('',#730,#801);
#803 = EDGE_CURVE('',#731,#793,#802,.T.);
#804 = ORIENTED_EDGE('',*,*,#803,.T.);
#805 = DIRECTION('',(1.,0.,0.));
#806 = VECTOR('',#805,1.);
#807 = LINE('',#790,#806);
#808 = EDGE_CURVE('',#791,#793,#807,.T.);
#809 = ORIENTED_EDGE('',*,*,#808,.F.);
#810 = CARTESIAN_POINT('',(-2.2,-1.7,1.1549999999999998));
#811 = DIRECTION('',(0.,-1.,0.));
#812 = DIRECTION('',(0.,0.,-1.));
#813 = AXIS2_PLACEMENT_3D('',#810,#811,#812);
#814 = PLANE('',#813);
#815 = EDGE_LOOP('',(#798,#799,#804,#809));
#816 = FACE_OUTER_BOUND('',#815,.T.);
#817 = ADVANCED_FACE('',(#816),#814,.T.);
#818 = CARTESIAN_POINT('',(-2.2,1.7,1.1549999999999998));
#819 = VERTEX_POINT('',#818);
#820 = DIRECTION('',(0.,1.,0.));
#821 = VECTOR('',#820,1.);
#822 = LINE('',#790,#821);
#823 = EDGE_CURVE('',#791,#819,#822,.T.);
#824 = ORIENTED_EDGE('',*,*,#823,.T.);
#825 = DIRECTION('',(0.,0.,1.));
#826 = VECTOR('',#825,1.);
#827 = LINE('',#762,#826);
#828 = EDGE_CURVE('',#763,#819,#827,.T.);
#829 = ORIENTED_EDGE('',*,*,#828,.F.);
#830 = ORIENTED_EDGE('',*,*,#770,.F.);
#831 = ORIENTED_EDGE('',*,*,#797,.T.);
#832 = CARTESIAN_POINT('',(-2.2,-1.7,1.1549999999999998));
#833 = DIRECTION('',(-1.,0.,0.));
#834 = DIRECTION('',(0.,1.,0.));
#835 = AXIS2_PLACEMENT_3D('',#832,#833,#834);
#836 = PLANE('',#835);
#837 = EDGE_LOOP('',(#824,#829,#830,#831));
#838 = FACE_OUTER_BOUND('',#837,.T.);
#839 = ADVANCED_FACE('',(#838),#836,.T.);
#840 = CARTESIAN_POINT('',(2.,1.5,0.115));
#841 = VERTEX_POINT('',#840);
#842 = CARTESIAN_POINT('',(2.2,1.7,1.145));
#843 = VERTEX_POINT('',#842);
#844 = DIRECTION('',(1.,0.,0.));
#845 = VECTOR('',#844,1.);
#846 = LINE('',#764,#845);
#847 = EDGE_CURVE('',#765,#841,#846,.T.);
#848 = ORIENTED_EDGE('',*,*,#847,.F.);
#849 = ORIENTED_EDGE('',*,*,#775,.T.);
#850 = DIRECTION('',(1.,0.,0.));
#851 = VECTOR('',#850,1.);
#852 = LINE('',#762,#851);
#853 = EDGE_CURVE('',#763,#843,#852,.T.);
#854 = ORIENTED_EDGE('',*,*,#853,.T.);
#855 = DIRECTION('',(0.1872432650832772,0.18724326508327702,0.9643028151788768));
#856 = VECTOR('',#855,1.);
#857 = LINE('',#840,#856);
#858 = EDGE_CURVE('',#841,#843,#857,.T.);
#859 = ORIENTED_EDGE('',*,*,#858,.F.);
#860 = CARTESIAN_POINT('',(2.,1.5,0.115));
#861 = DIRECTION('',(0.,0.981664958822398,-0.1906145551111452));
#862 = DIRECTION('',(-1.,0.,0.));
#863 = AXIS2_PLACEMENT_3D('',#860,#861,#862);
#864 = PLANE('',#863);
#865 = EDGE_LOOP('',(#848,#849,#854,#859));
#866 = FACE_OUTER_BOUND('',#865,.T.);
#867 = ADVANCED_FACE('',(#866),#864,.T.);
#868 = ORIENTED_EDGE('',*,*,#858,.T.);
#869 = DIRECTION('',(0.,1.,0.));
#870 = VECTOR('',#869,1.);
#871 = LINE('',#730,#870);
#872 = EDGE_CURVE('',#731,#843,#871,.T.);
#873 = ORIENTED_EDGE('',*,*,#872,.F.);
#874 = ORIENTED_EDGE('',*,*,#742,.F.);
#875 = DIRECTION('',(0.,1.,0.));
#876 = VECTOR('',#875,1.);
#877 = LINE('',#728,#876);
#878 = EDGE_CURVE('',#729,#841,#877,.T.);
#879 = ORIENTED_EDGE('',*,*,#878,.T.);
#880 = CARTESIAN_POINT('',(2.,1.5,0.115));
#881 = DIRECTION('',(0.9816649588223978,0.,-0.1906145551111454));
#882 = DIRECTION('',(0.1872432650832772,0.18724326508327702,0.9643028151788768));
#883 = AXIS2_PLACEMENT_3D('',#880,#881,#882);
#884 = PLANE('',#883);
#885 = EDGE_LOOP('',(#868,#873,#874,#879));
#886 = FACE_OUTER_BOUND('',#885,.T.);
#887 = ADVANCED_FACE('',(#886),#884,.T.);
#888 = ORIENTED_EDGE('',*,*,#878,.F.);
#889 = ORIENTED_EDGE('',*,*,#737,.F.);
#890 = ORIENTED_EDGE('',*,*,#780,.T.);
#891 = ORIENTED_EDGE('',*,*,#847,.T.);
#892 = CARTESIAN_POINT('',(2.,1.5,0.115));
#893 = DIRECTION('',(0.,0.,-1.));
#894 = DIRECTION('',(0.,-1.,0.));
#895 = AXIS2_PLACEMENT_3D('',#892,#893,#894);
#896 = PLANE('',#895);
#897 = EDGE_LOOP('',(#888,#889,#890,#891));
#898 = FACE_OUTER_BOUND('',#897,.T.);
#899 = ADVANCED_FACE('',(#898),#896,.T.);
#900 = CARTESIAN_POINT('',(2.2,1.7,1.1549999999999998));
#901 = VERTEX_POINT('',#900);
#902 = DIRECTION('',(0.,1.,0.));
#903 = VECTOR('',#902,1.);
#904 = LINE('',#792,#903);
#905 = EDGE_CURVE('',#793,#901,#904,.T.);
#906 = ORIENTED_EDGE('',*,*,#905,.F.);
#907 = ORIENTED_EDGE('',*,*,#803,.F.);
#908 = ORIENTED_EDGE('',*,*,#872,.T.);
#909 = DIRECTION('',(0.,0.,1.));
#910 = VECTOR('',#909,1.);
#911 = LINE('',#842,#910);
#912 = EDGE_CURVE('',#843,#901,#911,.T.);
#913 = ORIENTED_EDGE('',*,*,#912,.T.);
#914 = CARTESIAN_POINT('',(2.2,1.7,1.1549999999999998));
#915 = DIRECTION('',(1.,0.,0.));
#916 = DIRECTION('',(0.,-1.,0.));
#917 = AXIS2_PLACEMENT_3D('',#914,#915,#916);
#918 = PLANE('',#917);
#919 = EDGE_LOOP('',(#906,#907,#908,#913));
#920 = FACE_OUTER_BOUND('',#919,.T.);
#921 = ADVANCED_FACE('',(#920),#918,.T.);
#922 = ORIENTED_EDGE('',*,*,#912,.F.);
#923 = ORIENTED_EDGE('',*,*,#853,.F.);
#924 = ORIENTED_EDGE('',*,*,#828,.T.);
#925 = DIRECTION('',(1.,0.,0.));
#926 = VECTOR('',#925,1.);
#927 = LINE('',#818,#926);
#928 = EDGE_CURVE('',#819,#901,#927,.T.);
#929 = ORIENTED_EDGE('',*,*,#928,.T.);
#930 = CARTESIAN_POINT('',(2.2,1.7,1.1549999999999998));
#931 = DIRECTION('',(0.,1.,0.));
#932 = DIRECTION('',(0.,0.,-1.));
#933 = AXIS2_PLACEMENT_3D('',#930,#931,#932);
#934 = PLANE('',#933);
#935 = EDGE_LOOP('',(#922,#923,#924,#929));
#936 = FACE_OUTER_BOUND('',#935,.T.);
#937 = ADVANCED_FACE('',(#936),#934,.T.);
#938 = CARTESIAN_POINT('',(-2.,-1.5,2.3049999999999997));
#939 = VERTEX_POINT('',#938);
#940 = CARTESIAN_POINT('',(-2.,1.5,2.3049999999999997));
#941 = VERTEX_POINT('',#940);
#942 = DIRECTION('',(-0.16888013236829977,-0.16888013236829957,-0.9710607611177227));
#943 = VECTOR('',#942,1.);
#944 = LINE('',#938,#943);
#945 = EDGE_CURVE('',#939,#791,#944,.T.);
#946 = ORIENTED_EDGE('',*,*,#945,.F.);
#947 = DIRECTION('',(0.,1.,0.));
#948 = VECTOR('',#947,1.);
#949 = LINE('',#938,#948);
#950 = EDGE_CURVE('',#939,#941,#949,.T.);
#951 = ORIENTED_EDGE('',*,*,#950,.T.);
#952 = DIRECTION('',(-0.16888013236829977,0.16888013236829957,-0.9710607611177227));
#953 = VECTOR('',#952,1.);
#954 = LINE('',#940,#953);
#955 = EDGE_CURVE('',#941,#819,#954,.T.);
#956 = ORIENTED_EDGE('',*,*,#955,.T.);
#957 = ORIENTED_EDGE('',*,*,#823,.F.);
#958 = CARTESIAN_POINT('',(-2.2,-1.7,1.1549999999999998));
#959 = DIRECTION('',(-0.9852117548196746,0.,0.1713411747512479));
#960 = DIRECTION('',(0.16888013236829977,0.16888013236829957,0.9710607611177227));
#961 = AXIS2_PLACEMENT_3D('',#958,#959,#960);
#962 = PLANE('',#961);
#963 = EDGE_LOOP('',(#946,#951,#956,#957));
#964 = FACE_OUTER_BOUND('',#963,.T.);
#965 = ADVANCED_FACE('',(#964),#962,.T.);
#966 = CARTESIAN_POINT('',(2.,1.5,2.3049999999999997));
#967 = VERTEX_POINT('',#966);
#968 = DIRECTION('',(0.16888013236829977,0.16888013236829957,-0.9710607611177227));
#969 = VECTOR('',#968,1.);
#970 = LINE('',#966,#969);
#971 = EDGE_CURVE('',#967,#901,#970,.T.);
#972 = ORIENTED_EDGE('',*,*,#971,.T.);
#973 = ORIENTED_EDGE('',*,*,#928,.F.);
#974 = ORIENTED_EDGE('',*,*,#955,.F.);
#975 = DIRECTION('',(1.,0.,0.));
#976 = VECTOR('',#975,1.);
#977 = LINE('',#940,#976);
#978 = EDGE_CURVE('',#941,#967,#977,.T.);
#979 = ORIENTED_EDGE('',*,*,#978,.T.);
#980 = CARTESIAN_POINT('',(2.,1.5,2.3049999999999997));
#981 = DIRECTION('',(0.,0.9852117548196745,0.17134117475124772));
#982 = DIRECTION('',(0.16888013236829977,0.16888013236829957,-0.9710607611177227));
#983 = AXIS2_PLACEMENT_3D('',#980,#981,#982);
#984 = PLANE('',#983);
#985 = EDGE_LOOP('',(#972,#973,#974,#979));
#986 = FACE_OUTER_BOUND('',#985,.T.);
#987 = ADVANCED_FACE('',(#986),#984,.T.);
#988 = CARTESIAN_POINT('',(2.,-1.5,2.3049999999999997));
#989 = VERTEX_POINT('',#988);
#990 = ORIENTED_EDGE('',*,*,#978,.F.);
#991 = ORIENTED_EDGE('',*,*,#950,.F.);
#992 = DIRECTION('',(1.,0.,0.));
#993 = VECTOR('',#992,1.);
#994 = LINE('',#938,#993);
#995 = EDGE_CURVE('',#939,#989,#994,.T.);
#996 = ORIENTED_EDGE('',*,*,#995,.T.);
#997 = DIRECTION('',(0.,1.,0.));
#998 = VECTOR('',#997,1.);
#999 = LINE('',#988,#998);
#1000 = EDGE_CURVE('',#989,#967,#999,.T.);
#1001 = ORIENTED_EDGE('',*,*,#1000,.T.);
#1002 = CARTESIAN_POINT('',(2.,1.5,2.3049999999999997));
#1003 = DIRECTION('',(0.,0.,1.));
#1004 = DIRECTION('',(-1.,0.,0.));
#1005 = AXIS2_PLACEMENT_3D('',#1002,#1003,#1004);
#1006 = PLANE('',#1005);
#1007 = EDGE_LOOP('',(#990,#991,#996,#1001));
#1008 = FACE_OUTER_BOUND('',#1007,.T.);
#1009 = ADVANCED_FACE('',(#1008),#1006,.T.);
#1010 = DIRECTION('',(0.16888013236829977,-0.16888013236829957,-0.9710607611177227));
#1011 = VECTOR('',#1010,1.);
#1012 = LINE('',#988,#1011);
#1013 = EDGE_CURVE('',#989,#793,#1012,.T.);
#1014 = ORIENTED_EDGE('',*,*,#1013,.F.);
#1015 = ORIENTED_EDGE('',*,*,#995,.F.);
#1016 = ORIENTED_EDGE('',*,*,#945,.T.);
#1017 = ORIENTED_EDGE('',*,*,#808,.T.);
#1018 = CARTESIAN_POINT('',(2.2,-1.7,1.1549999999999998));
#1019 = DIRECTION('',(0.,-0.9852117548196745,0.17134117475124772));
#1020 = DIRECTION('',(-0.16888013236829977,0.16888013236829957,0.9710607611177227));
#1021 = AXIS2_PLACEMENT_3D('',#1018,#1019,#1020);
#1022 = PLANE('',#1021);
#1023 = EDGE_LOOP('',(#1014,#1015,#1016,#1017));
#1024 = FACE_OUTER_BOUND('',#1023,.T.);
#1025 = ADVANCED_FACE('',(#1024),#1022,.T.);
#1026 = ORIENTED_EDGE('',*,*,#905,.T.);
#1027 = ORIENTED_EDGE('',*,*,#971,.F.);
#1028 = ORIENTED_EDGE('',*,*,#1000,.F.);
#1029 = ORIENTED_EDGE('',*,*,#1013,.T.);
#1030 = CARTESIAN_POINT('',(2.2,-1.7,1.1549999999999998));
#1031 = DIRECTION('',(0.9852117548196746,0.,0.1713411747512479));
#1032 = DIRECTION('',(0.,1.,0.));
#1033 = AXIS2_PLACEMENT_3D('',#1030,#1031,#1032);
#1034 = PLANE('',#1033);
#1035 = EDGE_LOOP('',(#1026,#1027,#1028,#1029));
#1036 = FACE_OUTER_BOUND('',#1035,.T.);
#1037 = ADVANCED_FACE('',(#1036),#1034,.T.);
#1038 = CLOSED_SHELL('',(#761,#789,#817,#839,#867,#887,#899,#921,#937,#965,#987,#1009,#1025,#1037));
#1039 = MANIFOLD_SOLID_BREP('',#1038);
#1040 = COLOUR_RGB('',0.10196078431372549,0.10196078431372549,0.10196078431372549);
#1041 = FILL_AREA_STYLE_COLOUR('',#1040);
#1042 = FILL_AREA_STYLE('',(#1041));
#1043 = SURFACE_STYLE_FILL_AREA(#1042);
#1044 = SURFACE_SIDE_STYLE('',(#1043));
#1045 = SURFACE_STYLE_USAGE(.BOTH.,#1044);
#1046 = PRESENTATION_STYLE_ASSIGNMENT((#1045));
#1047 = STYLED_ITEM('',(#1046),#1039);
#1048 = ADVANCED_BREP_SHAPE_REPRESENTATION('',(#17,#363,#717,#1039),#13);
#1049 = SHAPE_DEFINITION_REPRESENTATION(#8,#1048);
#1050 = MECHANICAL_DESIGN_GEOMETRIC_PRESENTATION_REPRESENTATION('',(#371,#725,#1047),#13);
ENDSEC;
END-ISO-10303-21;