M48
; DRILL file KiCad 10.0.4 date 2026-07-14T22:15:52
; FORMAT={-:-/ absolute / metric / decimal}
; #@! TF.CreationDate,2026-07-14T22:15:52+02:00
; #@! TF.GenerationSoftware,Kicad,Pcbnew,10.0.4
; #@! TF.FileFunction,Plated,1,2,PTH
FMAT,2
METRIC
; #@! TA.AperFunction,Plated,PTH,ViaDrill
T1C0.300
; #@! TA.AperFunction,Plated,PTH,ViaDrill
T2C0.400
; #@! TA.AperFunction,Plated,PTH,ComponentDrill
T3C0.600
; #@! TA.AperFunction,Plated,PTH,ComponentDrill
T4C1.000
; #@! TA.AperFunction,Plated,PTH,ComponentDrill
T5C1.000
%
G90
G05
T1
X78.91Y-113.3
X80.2Y-114.4
X82.2Y-110.4
X82.2Y-112.4
X84.6Y-103.95
X85.487Y-108.548
X85.56Y-106.4
X86.84Y-105.35
X89.127Y-109.781
X89.512Y-108.277
X92.2Y-112.4
X92.2Y-114.4
X93.0Y-109.0
X93.2Y-99.3
X94.2Y-116.4
X94.35Y-101.6
X94.35Y-103.8
X95.6Y-120.0
X96.2Y-114.4
X97.0Y-108.8
X98.1Y-109.4
X99.5Y-117.0
X101.5Y-116.8
X102.1Y-105.5
X108.252Y-99.182
X109.208Y-98.056
X109.831Y-99.625
X109.939Y-97.406
X114.775Y-87.879
X115.161Y-95.53
X115.45Y-86.149
X122.2Y-116.4
X122.941Y-107.219
T2
X96.923Y-96.828
X103.549Y-90.4
X113.654Y-83.4
T4
X83.19Y-115.8
X85.73Y-115.8
X88.27Y-115.8
X90.81Y-115.8
T5
X110.2Y-112.33
X110.2Y-114.87
X114.1Y-112.33
X114.1Y-114.87
X122.0Y-76.8
X122.0Y-79.34
X122.0Y-81.88
X122.0Y-84.42
X122.0Y-86.96
X122.0Y-89.5
X122.0Y-92.04
X122.0Y-94.58
X122.0Y-97.12
X122.0Y-99.66
X122.0Y-102.2
X122.0Y-106.19
X122.0Y-108.73
X122.0Y-111.27
X122.0Y-113.81
X122.0Y-118.23
X122.0Y-120.77
T3
G00X78.175Y-77.445
M15
G01X78.175Y-76.845
M16
G05
G00X78.175Y-81.795
M15
G01X78.175Y-80.895
M16
G05
G00X86.825Y-77.445
M15
G01X86.825Y-76.845
M16
G05
G00X86.825Y-81.795
M15
G01X86.825Y-80.895
M16
G05
M30
