%TF.GenerationSoftware,KiCad,Pcbnew,10.0.4*%
%TF.CreationDate,2026-07-14T22:15:49+02:00*%
%TF.ProjectId,pura-mainboard-0805-0.3,70757261-2d6d-4616-996e-626f6172642d,rev?*%
%TF.SameCoordinates,Original*%
%TF.FileFunction,Legend,Top*%
%TF.FilePolarity,Positive*%
%FSLAX46Y46*%
G04 Gerber Fmt 4.6, Leading zero omitted, Abs format (unit mm)*
G04 Created by KiCad (PCBNEW 10.0.4) date 2026-07-14 22:15:49*
%MOMM*%
%LPD*%
G01*
G04 APERTURE LIST*
%ADD10C,0.300000*%
%ADD11C,0.200000*%
%ADD12C,0.250000*%
%ADD13C,0.000000*%
%ADD14C,0.033333*%
%ADD15C,0.041667*%
%ADD16C,0.083333*%
%ADD17C,0.120000*%
%ADD18C,0.100000*%
%ADD19C,0.080000*%
G04 APERTURE END LIST*
D10*
X118890476Y-83515066D02*
X120109524Y-83515066D01*
X119500000Y-84124590D02*
X119500000Y-82905542D01*
X95990476Y-97115066D02*
X97209524Y-97115066D01*
X96600000Y-97724590D02*
X96600000Y-96505542D01*
D11*
X123616171Y-92071427D02*
X123616171Y-91671427D01*
X124244742Y-91499999D02*
X124244742Y-92071427D01*
X124244742Y-92071427D02*
X123044742Y-92071427D01*
X123044742Y-92071427D02*
X123044742Y-91499999D01*
X124187600Y-91042856D02*
X124244742Y-90871428D01*
X124244742Y-90871428D02*
X124244742Y-90585713D01*
X124244742Y-90585713D02*
X124187600Y-90471428D01*
X124187600Y-90471428D02*
X124130457Y-90414285D01*
X124130457Y-90414285D02*
X124016171Y-90357142D01*
X124016171Y-90357142D02*
X123901885Y-90357142D01*
X123901885Y-90357142D02*
X123787600Y-90414285D01*
X123787600Y-90414285D02*
X123730457Y-90471428D01*
X123730457Y-90471428D02*
X123673314Y-90585713D01*
X123673314Y-90585713D02*
X123616171Y-90814285D01*
X123616171Y-90814285D02*
X123559028Y-90928570D01*
X123559028Y-90928570D02*
X123501885Y-90985713D01*
X123501885Y-90985713D02*
X123387600Y-91042856D01*
X123387600Y-91042856D02*
X123273314Y-91042856D01*
X123273314Y-91042856D02*
X123159028Y-90985713D01*
X123159028Y-90985713D02*
X123101885Y-90928570D01*
X123101885Y-90928570D02*
X123044742Y-90814285D01*
X123044742Y-90814285D02*
X123044742Y-90528570D01*
X123044742Y-90528570D02*
X123101885Y-90357142D01*
X124244742Y-89842856D02*
X123044742Y-89842856D01*
X123044742Y-89842856D02*
X123044742Y-89385713D01*
X123044742Y-89385713D02*
X123101885Y-89271428D01*
X123101885Y-89271428D02*
X123159028Y-89214285D01*
X123159028Y-89214285D02*
X123273314Y-89157142D01*
X123273314Y-89157142D02*
X123444742Y-89157142D01*
X123444742Y-89157142D02*
X123559028Y-89214285D01*
X123559028Y-89214285D02*
X123616171Y-89271428D01*
X123616171Y-89271428D02*
X123673314Y-89385713D01*
X123673314Y-89385713D02*
X123673314Y-89842856D01*
X123044742Y-88757142D02*
X123044742Y-88014285D01*
X123044742Y-88014285D02*
X123501885Y-88414285D01*
X123501885Y-88414285D02*
X123501885Y-88242856D01*
X123501885Y-88242856D02*
X123559028Y-88128571D01*
X123559028Y-88128571D02*
X123616171Y-88071428D01*
X123616171Y-88071428D02*
X123730457Y-88014285D01*
X123730457Y-88014285D02*
X124016171Y-88014285D01*
X124016171Y-88014285D02*
X124130457Y-88071428D01*
X124130457Y-88071428D02*
X124187600Y-88128571D01*
X124187600Y-88128571D02*
X124244742Y-88242856D01*
X124244742Y-88242856D02*
X124244742Y-88585713D01*
X124244742Y-88585713D02*
X124187600Y-88699999D01*
X124187600Y-88699999D02*
X124130457Y-88757142D01*
X123159028Y-87557142D02*
X123101885Y-87499999D01*
X123101885Y-87499999D02*
X123044742Y-87385714D01*
X123044742Y-87385714D02*
X123044742Y-87099999D01*
X123044742Y-87099999D02*
X123101885Y-86985714D01*
X123101885Y-86985714D02*
X123159028Y-86928571D01*
X123159028Y-86928571D02*
X123273314Y-86871428D01*
X123273314Y-86871428D02*
X123387600Y-86871428D01*
X123387600Y-86871428D02*
X123559028Y-86928571D01*
X123559028Y-86928571D02*
X124244742Y-87614285D01*
X124244742Y-87614285D02*
X124244742Y-86871428D01*
X124244742Y-113257142D02*
X123044742Y-113257142D01*
X123044742Y-113257142D02*
X123044742Y-112799999D01*
X123044742Y-112799999D02*
X123101885Y-112685714D01*
X123101885Y-112685714D02*
X123159028Y-112628571D01*
X123159028Y-112628571D02*
X123273314Y-112571428D01*
X123273314Y-112571428D02*
X123444742Y-112571428D01*
X123444742Y-112571428D02*
X123559028Y-112628571D01*
X123559028Y-112628571D02*
X123616171Y-112685714D01*
X123616171Y-112685714D02*
X123673314Y-112799999D01*
X123673314Y-112799999D02*
X123673314Y-113257142D01*
X124244742Y-111371428D02*
X123673314Y-111771428D01*
X124244742Y-112057142D02*
X123044742Y-112057142D01*
X123044742Y-112057142D02*
X123044742Y-111599999D01*
X123044742Y-111599999D02*
X123101885Y-111485714D01*
X123101885Y-111485714D02*
X123159028Y-111428571D01*
X123159028Y-111428571D02*
X123273314Y-111371428D01*
X123273314Y-111371428D02*
X123444742Y-111371428D01*
X123444742Y-111371428D02*
X123559028Y-111428571D01*
X123559028Y-111428571D02*
X123616171Y-111485714D01*
X123616171Y-111485714D02*
X123673314Y-111599999D01*
X123673314Y-111599999D02*
X123673314Y-112057142D01*
X123044742Y-110628571D02*
X123044742Y-110399999D01*
X123044742Y-110399999D02*
X123101885Y-110285714D01*
X123101885Y-110285714D02*
X123216171Y-110171428D01*
X123216171Y-110171428D02*
X123444742Y-110114285D01*
X123444742Y-110114285D02*
X123844742Y-110114285D01*
X123844742Y-110114285D02*
X124073314Y-110171428D01*
X124073314Y-110171428D02*
X124187600Y-110285714D01*
X124187600Y-110285714D02*
X124244742Y-110399999D01*
X124244742Y-110399999D02*
X124244742Y-110628571D01*
X124244742Y-110628571D02*
X124187600Y-110742857D01*
X124187600Y-110742857D02*
X124073314Y-110857142D01*
X124073314Y-110857142D02*
X123844742Y-110914285D01*
X123844742Y-110914285D02*
X123444742Y-110914285D01*
X123444742Y-110914285D02*
X123216171Y-110857142D01*
X123216171Y-110857142D02*
X123101885Y-110742857D01*
X123101885Y-110742857D02*
X123044742Y-110628571D01*
X123616171Y-109199999D02*
X123673314Y-109028571D01*
X123673314Y-109028571D02*
X123730457Y-108971428D01*
X123730457Y-108971428D02*
X123844742Y-108914285D01*
X123844742Y-108914285D02*
X124016171Y-108914285D01*
X124016171Y-108914285D02*
X124130457Y-108971428D01*
X124130457Y-108971428D02*
X124187600Y-109028571D01*
X124187600Y-109028571D02*
X124244742Y-109142856D01*
X124244742Y-109142856D02*
X124244742Y-109599999D01*
X124244742Y-109599999D02*
X123044742Y-109599999D01*
X123044742Y-109599999D02*
X123044742Y-109199999D01*
X123044742Y-109199999D02*
X123101885Y-109085714D01*
X123101885Y-109085714D02*
X123159028Y-109028571D01*
X123159028Y-109028571D02*
X123273314Y-108971428D01*
X123273314Y-108971428D02*
X123387600Y-108971428D01*
X123387600Y-108971428D02*
X123501885Y-109028571D01*
X123501885Y-109028571D02*
X123559028Y-109085714D01*
X123559028Y-109085714D02*
X123616171Y-109199999D01*
X123616171Y-109199999D02*
X123616171Y-109599999D01*
X123616171Y-108399999D02*
X123616171Y-107999999D01*
X124244742Y-107828571D02*
X124244742Y-108399999D01*
X124244742Y-108399999D02*
X123044742Y-108399999D01*
X123044742Y-108399999D02*
X123044742Y-107828571D01*
X124187600Y-107371428D02*
X124244742Y-107200000D01*
X124244742Y-107200000D02*
X124244742Y-106914285D01*
X124244742Y-106914285D02*
X124187600Y-106800000D01*
X124187600Y-106800000D02*
X124130457Y-106742857D01*
X124130457Y-106742857D02*
X124016171Y-106685714D01*
X124016171Y-106685714D02*
X123901885Y-106685714D01*
X123901885Y-106685714D02*
X123787600Y-106742857D01*
X123787600Y-106742857D02*
X123730457Y-106800000D01*
X123730457Y-106800000D02*
X123673314Y-106914285D01*
X123673314Y-106914285D02*
X123616171Y-107142857D01*
X123616171Y-107142857D02*
X123559028Y-107257142D01*
X123559028Y-107257142D02*
X123501885Y-107314285D01*
X123501885Y-107314285D02*
X123387600Y-107371428D01*
X123387600Y-107371428D02*
X123273314Y-107371428D01*
X123273314Y-107371428D02*
X123159028Y-107314285D01*
X123159028Y-107314285D02*
X123101885Y-107257142D01*
X123101885Y-107257142D02*
X123044742Y-107142857D01*
X123044742Y-107142857D02*
X123044742Y-106857142D01*
X123044742Y-106857142D02*
X123101885Y-106685714D01*
X124244742Y-120242856D02*
X124244742Y-120928570D01*
X124244742Y-120585713D02*
X123044742Y-120585713D01*
X123044742Y-120585713D02*
X123216171Y-120699999D01*
X123216171Y-120699999D02*
X123330457Y-120814284D01*
X123330457Y-120814284D02*
X123387600Y-120928570D01*
X123159028Y-119785713D02*
X123101885Y-119728570D01*
X123101885Y-119728570D02*
X123044742Y-119614285D01*
X123044742Y-119614285D02*
X123044742Y-119328570D01*
X123044742Y-119328570D02*
X123101885Y-119214285D01*
X123101885Y-119214285D02*
X123159028Y-119157142D01*
X123159028Y-119157142D02*
X123273314Y-119099999D01*
X123273314Y-119099999D02*
X123387600Y-119099999D01*
X123387600Y-119099999D02*
X123559028Y-119157142D01*
X123559028Y-119157142D02*
X124244742Y-119842856D01*
X124244742Y-119842856D02*
X124244742Y-119099999D01*
X123044742Y-118757142D02*
X124244742Y-118357142D01*
X124244742Y-118357142D02*
X123044742Y-117957142D01*
X118588095Y-108495147D02*
X118588095Y-109595147D01*
X118588095Y-108547528D02*
X118692857Y-108495147D01*
X118692857Y-108495147D02*
X118902381Y-108495147D01*
X118902381Y-108495147D02*
X119007143Y-108547528D01*
X119007143Y-108547528D02*
X119059524Y-108599909D01*
X119059524Y-108599909D02*
X119111905Y-108704671D01*
X119111905Y-108704671D02*
X119111905Y-109018957D01*
X119111905Y-109018957D02*
X119059524Y-109123719D01*
X119059524Y-109123719D02*
X119007143Y-109176100D01*
X119007143Y-109176100D02*
X118902381Y-109228480D01*
X118902381Y-109228480D02*
X118692857Y-109228480D01*
X118692857Y-109228480D02*
X118588095Y-109176100D01*
X119583333Y-109228480D02*
X119583333Y-108128480D01*
X119583333Y-108652290D02*
X120211905Y-108652290D01*
X120211905Y-109228480D02*
X120211905Y-108128480D01*
X118195238Y-105588480D02*
X118404762Y-105588480D01*
X118404762Y-105588480D02*
X118509524Y-105640861D01*
X118509524Y-105640861D02*
X118614286Y-105745623D01*
X118614286Y-105745623D02*
X118666667Y-105955147D01*
X118666667Y-105955147D02*
X118666667Y-106321814D01*
X118666667Y-106321814D02*
X118614286Y-106531338D01*
X118614286Y-106531338D02*
X118509524Y-106636100D01*
X118509524Y-106636100D02*
X118404762Y-106688480D01*
X118404762Y-106688480D02*
X118195238Y-106688480D01*
X118195238Y-106688480D02*
X118090476Y-106636100D01*
X118090476Y-106636100D02*
X117985714Y-106531338D01*
X117985714Y-106531338D02*
X117933333Y-106321814D01*
X117933333Y-106321814D02*
X117933333Y-105955147D01*
X117933333Y-105955147D02*
X117985714Y-105745623D01*
X117985714Y-105745623D02*
X118090476Y-105640861D01*
X118090476Y-105640861D02*
X118195238Y-105588480D01*
X119766667Y-106688480D02*
X119400000Y-106164671D01*
X119138095Y-106688480D02*
X119138095Y-105588480D01*
X119138095Y-105588480D02*
X119557143Y-105588480D01*
X119557143Y-105588480D02*
X119661905Y-105640861D01*
X119661905Y-105640861D02*
X119714286Y-105693242D01*
X119714286Y-105693242D02*
X119766667Y-105798004D01*
X119766667Y-105798004D02*
X119766667Y-105955147D01*
X119766667Y-105955147D02*
X119714286Y-106059909D01*
X119714286Y-106059909D02*
X119661905Y-106112290D01*
X119661905Y-106112290D02*
X119557143Y-106164671D01*
X119557143Y-106164671D02*
X119138095Y-106164671D01*
X120238095Y-106688480D02*
X120238095Y-105588480D01*
X120238095Y-105588480D02*
X120657143Y-105588480D01*
X120657143Y-105588480D02*
X120761905Y-105640861D01*
X120761905Y-105640861D02*
X120814286Y-105693242D01*
X120814286Y-105693242D02*
X120866667Y-105798004D01*
X120866667Y-105798004D02*
X120866667Y-105955147D01*
X120866667Y-105955147D02*
X120814286Y-106059909D01*
X120814286Y-106059909D02*
X120761905Y-106112290D01*
X120761905Y-106112290D02*
X120657143Y-106164671D01*
X120657143Y-106164671D02*
X120238095Y-106164671D01*
X107365147Y-117580952D02*
X108465147Y-117580952D01*
X107417528Y-117580952D02*
X107365147Y-117476190D01*
X107365147Y-117476190D02*
X107365147Y-117266666D01*
X107365147Y-117266666D02*
X107417528Y-117161904D01*
X107417528Y-117161904D02*
X107469909Y-117109523D01*
X107469909Y-117109523D02*
X107574671Y-117057142D01*
X107574671Y-117057142D02*
X107888957Y-117057142D01*
X107888957Y-117057142D02*
X107993719Y-117109523D01*
X107993719Y-117109523D02*
X108046100Y-117161904D01*
X108046100Y-117161904D02*
X108098480Y-117266666D01*
X108098480Y-117266666D02*
X108098480Y-117476190D01*
X108098480Y-117476190D02*
X108046100Y-117580952D01*
X108098480Y-116585714D02*
X106998480Y-116585714D01*
X107522290Y-116585714D02*
X107522290Y-115957142D01*
X108098480Y-115957142D02*
X106998480Y-115957142D01*
X108098480Y-114595238D02*
X106998480Y-114595238D01*
X106998480Y-114595238D02*
X107784195Y-114228571D01*
X107784195Y-114228571D02*
X106998480Y-113861904D01*
X106998480Y-113861904D02*
X108098480Y-113861904D01*
X106998480Y-113128571D02*
X106998480Y-112919047D01*
X106998480Y-112919047D02*
X107050861Y-112814285D01*
X107050861Y-112814285D02*
X107155623Y-112709523D01*
X107155623Y-112709523D02*
X107365147Y-112657142D01*
X107365147Y-112657142D02*
X107731814Y-112657142D01*
X107731814Y-112657142D02*
X107941338Y-112709523D01*
X107941338Y-112709523D02*
X108046100Y-112814285D01*
X108046100Y-112814285D02*
X108098480Y-112919047D01*
X108098480Y-112919047D02*
X108098480Y-113128571D01*
X108098480Y-113128571D02*
X108046100Y-113233333D01*
X108046100Y-113233333D02*
X107941338Y-113338095D01*
X107941338Y-113338095D02*
X107731814Y-113390476D01*
X107731814Y-113390476D02*
X107365147Y-113390476D01*
X107365147Y-113390476D02*
X107155623Y-113338095D01*
X107155623Y-113338095D02*
X107050861Y-113233333D01*
X107050861Y-113233333D02*
X106998480Y-113128571D01*
X106998480Y-112342857D02*
X106998480Y-111714285D01*
X108098480Y-112028571D02*
X106998480Y-112028571D01*
X106998480Y-111138095D02*
X106998480Y-110928571D01*
X106998480Y-110928571D02*
X107050861Y-110823809D01*
X107050861Y-110823809D02*
X107155623Y-110719047D01*
X107155623Y-110719047D02*
X107365147Y-110666666D01*
X107365147Y-110666666D02*
X107731814Y-110666666D01*
X107731814Y-110666666D02*
X107941338Y-110719047D01*
X107941338Y-110719047D02*
X108046100Y-110823809D01*
X108046100Y-110823809D02*
X108098480Y-110928571D01*
X108098480Y-110928571D02*
X108098480Y-111138095D01*
X108098480Y-111138095D02*
X108046100Y-111242857D01*
X108046100Y-111242857D02*
X107941338Y-111347619D01*
X107941338Y-111347619D02*
X107731814Y-111400000D01*
X107731814Y-111400000D02*
X107365147Y-111400000D01*
X107365147Y-111400000D02*
X107155623Y-111347619D01*
X107155623Y-111347619D02*
X107050861Y-111242857D01*
X107050861Y-111242857D02*
X106998480Y-111138095D01*
X108098480Y-109566666D02*
X107574671Y-109933333D01*
X108098480Y-110195238D02*
X106998480Y-110195238D01*
X106998480Y-110195238D02*
X106998480Y-109776190D01*
X106998480Y-109776190D02*
X107050861Y-109671428D01*
X107050861Y-109671428D02*
X107103242Y-109619047D01*
X107103242Y-109619047D02*
X107208004Y-109566666D01*
X107208004Y-109566666D02*
X107365147Y-109566666D01*
X107365147Y-109566666D02*
X107469909Y-109619047D01*
X107469909Y-109619047D02*
X107522290Y-109671428D01*
X107522290Y-109671428D02*
X107574671Y-109776190D01*
X107574671Y-109776190D02*
X107574671Y-110195238D01*
X116098480Y-117973809D02*
X116098480Y-117764285D01*
X116098480Y-117764285D02*
X116150861Y-117659523D01*
X116150861Y-117659523D02*
X116255623Y-117554761D01*
X116255623Y-117554761D02*
X116465147Y-117502380D01*
X116465147Y-117502380D02*
X116831814Y-117502380D01*
X116831814Y-117502380D02*
X117041338Y-117554761D01*
X117041338Y-117554761D02*
X117146100Y-117659523D01*
X117146100Y-117659523D02*
X117198480Y-117764285D01*
X117198480Y-117764285D02*
X117198480Y-117973809D01*
X117198480Y-117973809D02*
X117146100Y-118078571D01*
X117146100Y-118078571D02*
X117041338Y-118183333D01*
X117041338Y-118183333D02*
X116831814Y-118235714D01*
X116831814Y-118235714D02*
X116465147Y-118235714D01*
X116465147Y-118235714D02*
X116255623Y-118183333D01*
X116255623Y-118183333D02*
X116150861Y-118078571D01*
X116150861Y-118078571D02*
X116098480Y-117973809D01*
X117198480Y-116402380D02*
X116674671Y-116769047D01*
X117198480Y-117030952D02*
X116098480Y-117030952D01*
X116098480Y-117030952D02*
X116098480Y-116611904D01*
X116098480Y-116611904D02*
X116150861Y-116507142D01*
X116150861Y-116507142D02*
X116203242Y-116454761D01*
X116203242Y-116454761D02*
X116308004Y-116402380D01*
X116308004Y-116402380D02*
X116465147Y-116402380D01*
X116465147Y-116402380D02*
X116569909Y-116454761D01*
X116569909Y-116454761D02*
X116622290Y-116507142D01*
X116622290Y-116507142D02*
X116674671Y-116611904D01*
X116674671Y-116611904D02*
X116674671Y-117030952D01*
X117198480Y-115930952D02*
X116098480Y-115930952D01*
X116098480Y-115930952D02*
X116098480Y-115511904D01*
X116098480Y-115511904D02*
X116150861Y-115407142D01*
X116150861Y-115407142D02*
X116203242Y-115354761D01*
X116203242Y-115354761D02*
X116308004Y-115302380D01*
X116308004Y-115302380D02*
X116465147Y-115302380D01*
X116465147Y-115302380D02*
X116569909Y-115354761D01*
X116569909Y-115354761D02*
X116622290Y-115407142D01*
X116622290Y-115407142D02*
X116674671Y-115511904D01*
X116674671Y-115511904D02*
X116674671Y-115930952D01*
X117198480Y-113992857D02*
X116098480Y-113992857D01*
X116098480Y-113992857D02*
X116884195Y-113626190D01*
X116884195Y-113626190D02*
X116098480Y-113259523D01*
X116098480Y-113259523D02*
X117198480Y-113259523D01*
X116098480Y-112526190D02*
X116098480Y-112316666D01*
X116098480Y-112316666D02*
X116150861Y-112211904D01*
X116150861Y-112211904D02*
X116255623Y-112107142D01*
X116255623Y-112107142D02*
X116465147Y-112054761D01*
X116465147Y-112054761D02*
X116831814Y-112054761D01*
X116831814Y-112054761D02*
X117041338Y-112107142D01*
X117041338Y-112107142D02*
X117146100Y-112211904D01*
X117146100Y-112211904D02*
X117198480Y-112316666D01*
X117198480Y-112316666D02*
X117198480Y-112526190D01*
X117198480Y-112526190D02*
X117146100Y-112630952D01*
X117146100Y-112630952D02*
X117041338Y-112735714D01*
X117041338Y-112735714D02*
X116831814Y-112788095D01*
X116831814Y-112788095D02*
X116465147Y-112788095D01*
X116465147Y-112788095D02*
X116255623Y-112735714D01*
X116255623Y-112735714D02*
X116150861Y-112630952D01*
X116150861Y-112630952D02*
X116098480Y-112526190D01*
X116098480Y-111740476D02*
X116098480Y-111111904D01*
X117198480Y-111426190D02*
X116098480Y-111426190D01*
X116098480Y-110535714D02*
X116098480Y-110326190D01*
X116098480Y-110326190D02*
X116150861Y-110221428D01*
X116150861Y-110221428D02*
X116255623Y-110116666D01*
X116255623Y-110116666D02*
X116465147Y-110064285D01*
X116465147Y-110064285D02*
X116831814Y-110064285D01*
X116831814Y-110064285D02*
X117041338Y-110116666D01*
X117041338Y-110116666D02*
X117146100Y-110221428D01*
X117146100Y-110221428D02*
X117198480Y-110326190D01*
X117198480Y-110326190D02*
X117198480Y-110535714D01*
X117198480Y-110535714D02*
X117146100Y-110640476D01*
X117146100Y-110640476D02*
X117041338Y-110745238D01*
X117041338Y-110745238D02*
X116831814Y-110797619D01*
X116831814Y-110797619D02*
X116465147Y-110797619D01*
X116465147Y-110797619D02*
X116255623Y-110745238D01*
X116255623Y-110745238D02*
X116150861Y-110640476D01*
X116150861Y-110640476D02*
X116098480Y-110535714D01*
X117198480Y-108964285D02*
X116674671Y-109330952D01*
X117198480Y-109592857D02*
X116098480Y-109592857D01*
X116098480Y-109592857D02*
X116098480Y-109173809D01*
X116098480Y-109173809D02*
X116150861Y-109069047D01*
X116150861Y-109069047D02*
X116203242Y-109016666D01*
X116203242Y-109016666D02*
X116308004Y-108964285D01*
X116308004Y-108964285D02*
X116465147Y-108964285D01*
X116465147Y-108964285D02*
X116569909Y-109016666D01*
X116569909Y-109016666D02*
X116622290Y-109069047D01*
X116622290Y-109069047D02*
X116674671Y-109173809D01*
X116674671Y-109173809D02*
X116674671Y-109592857D01*
D12*
X105857143Y-123680928D02*
X105857143Y-122180928D01*
X105857143Y-122180928D02*
X106428572Y-122180928D01*
X106428572Y-122180928D02*
X106571429Y-122252357D01*
X106571429Y-122252357D02*
X106642858Y-122323785D01*
X106642858Y-122323785D02*
X106714286Y-122466642D01*
X106714286Y-122466642D02*
X106714286Y-122680928D01*
X106714286Y-122680928D02*
X106642858Y-122823785D01*
X106642858Y-122823785D02*
X106571429Y-122895214D01*
X106571429Y-122895214D02*
X106428572Y-122966642D01*
X106428572Y-122966642D02*
X105857143Y-122966642D01*
X108000001Y-122680928D02*
X108000001Y-123680928D01*
X107357143Y-122680928D02*
X107357143Y-123466642D01*
X107357143Y-123466642D02*
X107428572Y-123609500D01*
X107428572Y-123609500D02*
X107571429Y-123680928D01*
X107571429Y-123680928D02*
X107785715Y-123680928D01*
X107785715Y-123680928D02*
X107928572Y-123609500D01*
X107928572Y-123609500D02*
X108000001Y-123538071D01*
X108714286Y-123680928D02*
X108714286Y-122680928D01*
X108714286Y-122966642D02*
X108785715Y-122823785D01*
X108785715Y-122823785D02*
X108857144Y-122752357D01*
X108857144Y-122752357D02*
X109000001Y-122680928D01*
X109000001Y-122680928D02*
X109142858Y-122680928D01*
X110285715Y-123680928D02*
X110285715Y-122895214D01*
X110285715Y-122895214D02*
X110214286Y-122752357D01*
X110214286Y-122752357D02*
X110071429Y-122680928D01*
X110071429Y-122680928D02*
X109785715Y-122680928D01*
X109785715Y-122680928D02*
X109642857Y-122752357D01*
X110285715Y-123609500D02*
X110142857Y-123680928D01*
X110142857Y-123680928D02*
X109785715Y-123680928D01*
X109785715Y-123680928D02*
X109642857Y-123609500D01*
X109642857Y-123609500D02*
X109571429Y-123466642D01*
X109571429Y-123466642D02*
X109571429Y-123323785D01*
X109571429Y-123323785D02*
X109642857Y-123180928D01*
X109642857Y-123180928D02*
X109785715Y-123109500D01*
X109785715Y-123109500D02*
X110142857Y-123109500D01*
X110142857Y-123109500D02*
X110285715Y-123038071D01*
X112000000Y-122680928D02*
X112357143Y-123680928D01*
X112357143Y-123680928D02*
X112714286Y-122680928D01*
X113571429Y-122180928D02*
X113714286Y-122180928D01*
X113714286Y-122180928D02*
X113857143Y-122252357D01*
X113857143Y-122252357D02*
X113928572Y-122323785D01*
X113928572Y-122323785D02*
X114000000Y-122466642D01*
X114000000Y-122466642D02*
X114071429Y-122752357D01*
X114071429Y-122752357D02*
X114071429Y-123109500D01*
X114071429Y-123109500D02*
X114000000Y-123395214D01*
X114000000Y-123395214D02*
X113928572Y-123538071D01*
X113928572Y-123538071D02*
X113857143Y-123609500D01*
X113857143Y-123609500D02*
X113714286Y-123680928D01*
X113714286Y-123680928D02*
X113571429Y-123680928D01*
X113571429Y-123680928D02*
X113428572Y-123609500D01*
X113428572Y-123609500D02*
X113357143Y-123538071D01*
X113357143Y-123538071D02*
X113285714Y-123395214D01*
X113285714Y-123395214D02*
X113214286Y-123109500D01*
X113214286Y-123109500D02*
X113214286Y-122752357D01*
X113214286Y-122752357D02*
X113285714Y-122466642D01*
X113285714Y-122466642D02*
X113357143Y-122323785D01*
X113357143Y-122323785D02*
X113428572Y-122252357D01*
X113428572Y-122252357D02*
X113571429Y-122180928D01*
X114714285Y-123538071D02*
X114785714Y-123609500D01*
X114785714Y-123609500D02*
X114714285Y-123680928D01*
X114714285Y-123680928D02*
X114642857Y-123609500D01*
X114642857Y-123609500D02*
X114714285Y-123538071D01*
X114714285Y-123538071D02*
X114714285Y-123680928D01*
X115285714Y-122180928D02*
X116214286Y-122180928D01*
X116214286Y-122180928D02*
X115714286Y-122752357D01*
X115714286Y-122752357D02*
X115928571Y-122752357D01*
X115928571Y-122752357D02*
X116071429Y-122823785D01*
X116071429Y-122823785D02*
X116142857Y-122895214D01*
X116142857Y-122895214D02*
X116214286Y-123038071D01*
X116214286Y-123038071D02*
X116214286Y-123395214D01*
X116214286Y-123395214D02*
X116142857Y-123538071D01*
X116142857Y-123538071D02*
X116071429Y-123609500D01*
X116071429Y-123609500D02*
X115928571Y-123680928D01*
X115928571Y-123680928D02*
X115500000Y-123680928D01*
X115500000Y-123680928D02*
X115357143Y-123609500D01*
X115357143Y-123609500D02*
X115285714Y-123538071D01*
D13*
G36*
X113120000Y-91800000D02*
G01*
X112700000Y-92250000D01*
X112700000Y-91350000D01*
X113120000Y-91800000D01*
G37*
G36*
X113300000Y-92350000D02*
G01*
X113120000Y-92350000D01*
X113120000Y-91250000D01*
X113300000Y-91250000D01*
X113300000Y-92350000D01*
G37*
G36*
X78120000Y-112000000D02*
G01*
X77700000Y-112450000D01*
X77700000Y-111550000D01*
X78120000Y-112000000D01*
G37*
G36*
X78300000Y-112550000D02*
G01*
X78120000Y-112550000D01*
X78120000Y-111450000D01*
X78300000Y-111450000D01*
X78300000Y-112550000D01*
G37*
G36*
X96692000Y-90000000D02*
G01*
X96020000Y-90720000D01*
X96020000Y-89280000D01*
X96692000Y-90000000D01*
G37*
G36*
X96980000Y-90880000D02*
G01*
X96692000Y-90880000D01*
X96692000Y-89120000D01*
X96980000Y-89120000D01*
X96980000Y-90880000D01*
G37*
D14*
X99106349Y-116521631D02*
X99017460Y-116394647D01*
X98953968Y-116521631D02*
X98953968Y-116254964D01*
X98953968Y-116254964D02*
X99055555Y-116254964D01*
X99055555Y-116254964D02*
X99080952Y-116267662D01*
X99080952Y-116267662D02*
X99093650Y-116280361D01*
X99093650Y-116280361D02*
X99106349Y-116305758D01*
X99106349Y-116305758D02*
X99106349Y-116343853D01*
X99106349Y-116343853D02*
X99093650Y-116369250D01*
X99093650Y-116369250D02*
X99080952Y-116381948D01*
X99080952Y-116381948D02*
X99055555Y-116394647D01*
X99055555Y-116394647D02*
X98953968Y-116394647D01*
X99157143Y-116547028D02*
X99360317Y-116547028D01*
X99512699Y-116381948D02*
X99550794Y-116394647D01*
X99550794Y-116394647D02*
X99563492Y-116407345D01*
X99563492Y-116407345D02*
X99576191Y-116432742D01*
X99576191Y-116432742D02*
X99576191Y-116470837D01*
X99576191Y-116470837D02*
X99563492Y-116496234D01*
X99563492Y-116496234D02*
X99550794Y-116508933D01*
X99550794Y-116508933D02*
X99525397Y-116521631D01*
X99525397Y-116521631D02*
X99423810Y-116521631D01*
X99423810Y-116521631D02*
X99423810Y-116254964D01*
X99423810Y-116254964D02*
X99512699Y-116254964D01*
X99512699Y-116254964D02*
X99538096Y-116267662D01*
X99538096Y-116267662D02*
X99550794Y-116280361D01*
X99550794Y-116280361D02*
X99563492Y-116305758D01*
X99563492Y-116305758D02*
X99563492Y-116331155D01*
X99563492Y-116331155D02*
X99550794Y-116356551D01*
X99550794Y-116356551D02*
X99538096Y-116369250D01*
X99538096Y-116369250D02*
X99512699Y-116381948D01*
X99512699Y-116381948D02*
X99423810Y-116381948D01*
X99817461Y-116521631D02*
X99690477Y-116521631D01*
X99690477Y-116521631D02*
X99690477Y-116254964D01*
X99906350Y-116521631D02*
X99906350Y-116254964D01*
X99906350Y-116254964D02*
X99969842Y-116254964D01*
X99969842Y-116254964D02*
X100007937Y-116267662D01*
X100007937Y-116267662D02*
X100033334Y-116293059D01*
X100033334Y-116293059D02*
X100046032Y-116318456D01*
X100046032Y-116318456D02*
X100058731Y-116369250D01*
X100058731Y-116369250D02*
X100058731Y-116407345D01*
X100058731Y-116407345D02*
X100046032Y-116458139D01*
X100046032Y-116458139D02*
X100033334Y-116483536D01*
X100033334Y-116483536D02*
X100007937Y-116508933D01*
X100007937Y-116508933D02*
X99969842Y-116521631D01*
X99969842Y-116521631D02*
X99906350Y-116521631D01*
X117037301Y-95996234D02*
X117024602Y-96008933D01*
X117024602Y-96008933D02*
X116986507Y-96021631D01*
X116986507Y-96021631D02*
X116961110Y-96021631D01*
X116961110Y-96021631D02*
X116923015Y-96008933D01*
X116923015Y-96008933D02*
X116897618Y-95983536D01*
X116897618Y-95983536D02*
X116884920Y-95958139D01*
X116884920Y-95958139D02*
X116872221Y-95907345D01*
X116872221Y-95907345D02*
X116872221Y-95869250D01*
X116872221Y-95869250D02*
X116884920Y-95818456D01*
X116884920Y-95818456D02*
X116897618Y-95793059D01*
X116897618Y-95793059D02*
X116923015Y-95767662D01*
X116923015Y-95767662D02*
X116961110Y-95754964D01*
X116961110Y-95754964D02*
X116986507Y-95754964D01*
X116986507Y-95754964D02*
X117024602Y-95767662D01*
X117024602Y-95767662D02*
X117037301Y-95780361D01*
X117088095Y-96047028D02*
X117291269Y-96047028D01*
X117316666Y-95754964D02*
X117405555Y-96021631D01*
X117405555Y-96021631D02*
X117494444Y-95754964D01*
X117583334Y-96021631D02*
X117583334Y-95754964D01*
X117583334Y-95754964D02*
X117672223Y-95945440D01*
X117672223Y-95945440D02*
X117761112Y-95754964D01*
X117761112Y-95754964D02*
X117761112Y-96021631D01*
X117875397Y-95780361D02*
X117888096Y-95767662D01*
X117888096Y-95767662D02*
X117913493Y-95754964D01*
X117913493Y-95754964D02*
X117976985Y-95754964D01*
X117976985Y-95754964D02*
X118002382Y-95767662D01*
X118002382Y-95767662D02*
X118015080Y-95780361D01*
X118015080Y-95780361D02*
X118027778Y-95805758D01*
X118027778Y-95805758D02*
X118027778Y-95831155D01*
X118027778Y-95831155D02*
X118015080Y-95869250D01*
X118015080Y-95869250D02*
X117862699Y-96021631D01*
X117862699Y-96021631D02*
X118027778Y-96021631D01*
X95606348Y-100121631D02*
X95517459Y-99994647D01*
X95453967Y-100121631D02*
X95453967Y-99854964D01*
X95453967Y-99854964D02*
X95555554Y-99854964D01*
X95555554Y-99854964D02*
X95580951Y-99867662D01*
X95580951Y-99867662D02*
X95593649Y-99880361D01*
X95593649Y-99880361D02*
X95606348Y-99905758D01*
X95606348Y-99905758D02*
X95606348Y-99943853D01*
X95606348Y-99943853D02*
X95593649Y-99969250D01*
X95593649Y-99969250D02*
X95580951Y-99981948D01*
X95580951Y-99981948D02*
X95555554Y-99994647D01*
X95555554Y-99994647D02*
X95453967Y-99994647D01*
X95657142Y-100147028D02*
X95860316Y-100147028D01*
X95911110Y-100108933D02*
X95949206Y-100121631D01*
X95949206Y-100121631D02*
X96012698Y-100121631D01*
X96012698Y-100121631D02*
X96038095Y-100108933D01*
X96038095Y-100108933D02*
X96050793Y-100096234D01*
X96050793Y-100096234D02*
X96063491Y-100070837D01*
X96063491Y-100070837D02*
X96063491Y-100045440D01*
X96063491Y-100045440D02*
X96050793Y-100020044D01*
X96050793Y-100020044D02*
X96038095Y-100007345D01*
X96038095Y-100007345D02*
X96012698Y-99994647D01*
X96012698Y-99994647D02*
X95961904Y-99981948D01*
X95961904Y-99981948D02*
X95936507Y-99969250D01*
X95936507Y-99969250D02*
X95923809Y-99956551D01*
X95923809Y-99956551D02*
X95911110Y-99931155D01*
X95911110Y-99931155D02*
X95911110Y-99905758D01*
X95911110Y-99905758D02*
X95923809Y-99880361D01*
X95923809Y-99880361D02*
X95936507Y-99867662D01*
X95936507Y-99867662D02*
X95961904Y-99854964D01*
X95961904Y-99854964D02*
X96025396Y-99854964D01*
X96025396Y-99854964D02*
X96063491Y-99867662D01*
X96177778Y-100121631D02*
X96177778Y-99854964D01*
X96177778Y-99854964D02*
X96241270Y-99854964D01*
X96241270Y-99854964D02*
X96279365Y-99867662D01*
X96279365Y-99867662D02*
X96304762Y-99893059D01*
X96304762Y-99893059D02*
X96317460Y-99918456D01*
X96317460Y-99918456D02*
X96330159Y-99969250D01*
X96330159Y-99969250D02*
X96330159Y-100007345D01*
X96330159Y-100007345D02*
X96317460Y-100058139D01*
X96317460Y-100058139D02*
X96304762Y-100083536D01*
X96304762Y-100083536D02*
X96279365Y-100108933D01*
X96279365Y-100108933D02*
X96241270Y-100121631D01*
X96241270Y-100121631D02*
X96177778Y-100121631D01*
X96431746Y-100045440D02*
X96558731Y-100045440D01*
X96406349Y-100121631D02*
X96495238Y-99854964D01*
X96495238Y-99854964D02*
X96584127Y-100121631D01*
X108669047Y-90271631D02*
X108580158Y-90144647D01*
X108516666Y-90271631D02*
X108516666Y-90004964D01*
X108516666Y-90004964D02*
X108618253Y-90004964D01*
X108618253Y-90004964D02*
X108643650Y-90017662D01*
X108643650Y-90017662D02*
X108656348Y-90030361D01*
X108656348Y-90030361D02*
X108669047Y-90055758D01*
X108669047Y-90055758D02*
X108669047Y-90093853D01*
X108669047Y-90093853D02*
X108656348Y-90119250D01*
X108656348Y-90119250D02*
X108643650Y-90131948D01*
X108643650Y-90131948D02*
X108618253Y-90144647D01*
X108618253Y-90144647D02*
X108516666Y-90144647D01*
X108719841Y-90297028D02*
X108923015Y-90297028D01*
X109113492Y-90271631D02*
X108986508Y-90271631D01*
X108986508Y-90271631D02*
X108986508Y-90004964D01*
X109202381Y-90131948D02*
X109291270Y-90131948D01*
X109329365Y-90271631D02*
X109202381Y-90271631D01*
X109202381Y-90271631D02*
X109202381Y-90004964D01*
X109202381Y-90004964D02*
X109329365Y-90004964D01*
X109443651Y-90271631D02*
X109443651Y-90004964D01*
X109443651Y-90004964D02*
X109507143Y-90004964D01*
X109507143Y-90004964D02*
X109545238Y-90017662D01*
X109545238Y-90017662D02*
X109570635Y-90043059D01*
X109570635Y-90043059D02*
X109583333Y-90068456D01*
X109583333Y-90068456D02*
X109596032Y-90119250D01*
X109596032Y-90119250D02*
X109596032Y-90157345D01*
X109596032Y-90157345D02*
X109583333Y-90208139D01*
X109583333Y-90208139D02*
X109570635Y-90233536D01*
X109570635Y-90233536D02*
X109545238Y-90258933D01*
X109545238Y-90258933D02*
X109507143Y-90271631D01*
X109507143Y-90271631D02*
X109443651Y-90271631D01*
D15*
X96253969Y-87952040D02*
X96253969Y-87618707D01*
X96253969Y-87618707D02*
X96333334Y-87618707D01*
X96333334Y-87618707D02*
X96380953Y-87634580D01*
X96380953Y-87634580D02*
X96412699Y-87666326D01*
X96412699Y-87666326D02*
X96428572Y-87698072D01*
X96428572Y-87698072D02*
X96444445Y-87761564D01*
X96444445Y-87761564D02*
X96444445Y-87809183D01*
X96444445Y-87809183D02*
X96428572Y-87872675D01*
X96428572Y-87872675D02*
X96412699Y-87904421D01*
X96412699Y-87904421D02*
X96380953Y-87936167D01*
X96380953Y-87936167D02*
X96333334Y-87952040D01*
X96333334Y-87952040D02*
X96253969Y-87952040D01*
X96761905Y-87952040D02*
X96571429Y-87952040D01*
X96666667Y-87952040D02*
X96666667Y-87618707D01*
X96666667Y-87618707D02*
X96634921Y-87666326D01*
X96634921Y-87666326D02*
X96603175Y-87698072D01*
X96603175Y-87698072D02*
X96571429Y-87713945D01*
D14*
X77623809Y-99796234D02*
X77611110Y-99808933D01*
X77611110Y-99808933D02*
X77573015Y-99821631D01*
X77573015Y-99821631D02*
X77547618Y-99821631D01*
X77547618Y-99821631D02*
X77509523Y-99808933D01*
X77509523Y-99808933D02*
X77484126Y-99783536D01*
X77484126Y-99783536D02*
X77471428Y-99758139D01*
X77471428Y-99758139D02*
X77458729Y-99707345D01*
X77458729Y-99707345D02*
X77458729Y-99669250D01*
X77458729Y-99669250D02*
X77471428Y-99618456D01*
X77471428Y-99618456D02*
X77484126Y-99593059D01*
X77484126Y-99593059D02*
X77509523Y-99567662D01*
X77509523Y-99567662D02*
X77547618Y-99554964D01*
X77547618Y-99554964D02*
X77573015Y-99554964D01*
X77573015Y-99554964D02*
X77611110Y-99567662D01*
X77611110Y-99567662D02*
X77623809Y-99580361D01*
X77674603Y-99847028D02*
X77877777Y-99847028D01*
X77941270Y-99821631D02*
X77941270Y-99554964D01*
X78055555Y-99808933D02*
X78093651Y-99821631D01*
X78093651Y-99821631D02*
X78157143Y-99821631D01*
X78157143Y-99821631D02*
X78182540Y-99808933D01*
X78182540Y-99808933D02*
X78195238Y-99796234D01*
X78195238Y-99796234D02*
X78207936Y-99770837D01*
X78207936Y-99770837D02*
X78207936Y-99745440D01*
X78207936Y-99745440D02*
X78195238Y-99720044D01*
X78195238Y-99720044D02*
X78182540Y-99707345D01*
X78182540Y-99707345D02*
X78157143Y-99694647D01*
X78157143Y-99694647D02*
X78106349Y-99681948D01*
X78106349Y-99681948D02*
X78080952Y-99669250D01*
X78080952Y-99669250D02*
X78068254Y-99656551D01*
X78068254Y-99656551D02*
X78055555Y-99631155D01*
X78055555Y-99631155D02*
X78055555Y-99605758D01*
X78055555Y-99605758D02*
X78068254Y-99580361D01*
X78068254Y-99580361D02*
X78080952Y-99567662D01*
X78080952Y-99567662D02*
X78106349Y-99554964D01*
X78106349Y-99554964D02*
X78169841Y-99554964D01*
X78169841Y-99554964D02*
X78207936Y-99567662D01*
X78373016Y-99554964D02*
X78423810Y-99554964D01*
X78423810Y-99554964D02*
X78449207Y-99567662D01*
X78449207Y-99567662D02*
X78474604Y-99593059D01*
X78474604Y-99593059D02*
X78487302Y-99643853D01*
X78487302Y-99643853D02*
X78487302Y-99732742D01*
X78487302Y-99732742D02*
X78474604Y-99783536D01*
X78474604Y-99783536D02*
X78449207Y-99808933D01*
X78449207Y-99808933D02*
X78423810Y-99821631D01*
X78423810Y-99821631D02*
X78373016Y-99821631D01*
X78373016Y-99821631D02*
X78347620Y-99808933D01*
X78347620Y-99808933D02*
X78322223Y-99783536D01*
X78322223Y-99783536D02*
X78309524Y-99732742D01*
X78309524Y-99732742D02*
X78309524Y-99643853D01*
X78309524Y-99643853D02*
X78322223Y-99593059D01*
X78322223Y-99593059D02*
X78347620Y-99567662D01*
X78347620Y-99567662D02*
X78373016Y-99554964D01*
X78741270Y-99821631D02*
X78588889Y-99821631D01*
X78665080Y-99821631D02*
X78665080Y-99554964D01*
X78665080Y-99554964D02*
X78639683Y-99593059D01*
X78639683Y-99593059D02*
X78614286Y-99618456D01*
X78614286Y-99618456D02*
X78588889Y-99631155D01*
X92523809Y-93896234D02*
X92511110Y-93908933D01*
X92511110Y-93908933D02*
X92473015Y-93921631D01*
X92473015Y-93921631D02*
X92447618Y-93921631D01*
X92447618Y-93921631D02*
X92409523Y-93908933D01*
X92409523Y-93908933D02*
X92384126Y-93883536D01*
X92384126Y-93883536D02*
X92371428Y-93858139D01*
X92371428Y-93858139D02*
X92358729Y-93807345D01*
X92358729Y-93807345D02*
X92358729Y-93769250D01*
X92358729Y-93769250D02*
X92371428Y-93718456D01*
X92371428Y-93718456D02*
X92384126Y-93693059D01*
X92384126Y-93693059D02*
X92409523Y-93667662D01*
X92409523Y-93667662D02*
X92447618Y-93654964D01*
X92447618Y-93654964D02*
X92473015Y-93654964D01*
X92473015Y-93654964D02*
X92511110Y-93667662D01*
X92511110Y-93667662D02*
X92523809Y-93680361D01*
X92574603Y-93947028D02*
X92777777Y-93947028D01*
X92841270Y-93921631D02*
X92841270Y-93654964D01*
X92955555Y-93908933D02*
X92993651Y-93921631D01*
X92993651Y-93921631D02*
X93057143Y-93921631D01*
X93057143Y-93921631D02*
X93082540Y-93908933D01*
X93082540Y-93908933D02*
X93095238Y-93896234D01*
X93095238Y-93896234D02*
X93107936Y-93870837D01*
X93107936Y-93870837D02*
X93107936Y-93845440D01*
X93107936Y-93845440D02*
X93095238Y-93820044D01*
X93095238Y-93820044D02*
X93082540Y-93807345D01*
X93082540Y-93807345D02*
X93057143Y-93794647D01*
X93057143Y-93794647D02*
X93006349Y-93781948D01*
X93006349Y-93781948D02*
X92980952Y-93769250D01*
X92980952Y-93769250D02*
X92968254Y-93756551D01*
X92968254Y-93756551D02*
X92955555Y-93731155D01*
X92955555Y-93731155D02*
X92955555Y-93705758D01*
X92955555Y-93705758D02*
X92968254Y-93680361D01*
X92968254Y-93680361D02*
X92980952Y-93667662D01*
X92980952Y-93667662D02*
X93006349Y-93654964D01*
X93006349Y-93654964D02*
X93069841Y-93654964D01*
X93069841Y-93654964D02*
X93107936Y-93667662D01*
X93273016Y-93654964D02*
X93323810Y-93654964D01*
X93323810Y-93654964D02*
X93349207Y-93667662D01*
X93349207Y-93667662D02*
X93374604Y-93693059D01*
X93374604Y-93693059D02*
X93387302Y-93743853D01*
X93387302Y-93743853D02*
X93387302Y-93832742D01*
X93387302Y-93832742D02*
X93374604Y-93883536D01*
X93374604Y-93883536D02*
X93349207Y-93908933D01*
X93349207Y-93908933D02*
X93323810Y-93921631D01*
X93323810Y-93921631D02*
X93273016Y-93921631D01*
X93273016Y-93921631D02*
X93247620Y-93908933D01*
X93247620Y-93908933D02*
X93222223Y-93883536D01*
X93222223Y-93883536D02*
X93209524Y-93832742D01*
X93209524Y-93832742D02*
X93209524Y-93743853D01*
X93209524Y-93743853D02*
X93222223Y-93693059D01*
X93222223Y-93693059D02*
X93247620Y-93667662D01*
X93247620Y-93667662D02*
X93273016Y-93654964D01*
X93488889Y-93680361D02*
X93501588Y-93667662D01*
X93501588Y-93667662D02*
X93526985Y-93654964D01*
X93526985Y-93654964D02*
X93590477Y-93654964D01*
X93590477Y-93654964D02*
X93615874Y-93667662D01*
X93615874Y-93667662D02*
X93628572Y-93680361D01*
X93628572Y-93680361D02*
X93641270Y-93705758D01*
X93641270Y-93705758D02*
X93641270Y-93731155D01*
X93641270Y-93731155D02*
X93628572Y-93769250D01*
X93628572Y-93769250D02*
X93476191Y-93921631D01*
X93476191Y-93921631D02*
X93641270Y-93921631D01*
D16*
X82284508Y-83091239D02*
X82284508Y-83567429D01*
X82284508Y-83567429D02*
X82252762Y-83662667D01*
X82252762Y-83662667D02*
X82189270Y-83726160D01*
X82189270Y-83726160D02*
X82094032Y-83757906D01*
X82094032Y-83757906D02*
X82030540Y-83757906D01*
X82951175Y-83757906D02*
X82570223Y-83757906D01*
X82760699Y-83757906D02*
X82760699Y-83091239D01*
X82760699Y-83091239D02*
X82697207Y-83186477D01*
X82697207Y-83186477D02*
X82633715Y-83249969D01*
X82633715Y-83249969D02*
X82570223Y-83281715D01*
D14*
X79473015Y-86521631D02*
X79384126Y-86394647D01*
X79320634Y-86521631D02*
X79320634Y-86254964D01*
X79320634Y-86254964D02*
X79422221Y-86254964D01*
X79422221Y-86254964D02*
X79447618Y-86267662D01*
X79447618Y-86267662D02*
X79460316Y-86280361D01*
X79460316Y-86280361D02*
X79473015Y-86305758D01*
X79473015Y-86305758D02*
X79473015Y-86343853D01*
X79473015Y-86343853D02*
X79460316Y-86369250D01*
X79460316Y-86369250D02*
X79447618Y-86381948D01*
X79447618Y-86381948D02*
X79422221Y-86394647D01*
X79422221Y-86394647D02*
X79320634Y-86394647D01*
X79523809Y-86547028D02*
X79726983Y-86547028D01*
X79752380Y-86254964D02*
X79841269Y-86521631D01*
X79841269Y-86521631D02*
X79930158Y-86254964D01*
X80006349Y-86508933D02*
X80044445Y-86521631D01*
X80044445Y-86521631D02*
X80107937Y-86521631D01*
X80107937Y-86521631D02*
X80133334Y-86508933D01*
X80133334Y-86508933D02*
X80146032Y-86496234D01*
X80146032Y-86496234D02*
X80158730Y-86470837D01*
X80158730Y-86470837D02*
X80158730Y-86445440D01*
X80158730Y-86445440D02*
X80146032Y-86420044D01*
X80146032Y-86420044D02*
X80133334Y-86407345D01*
X80133334Y-86407345D02*
X80107937Y-86394647D01*
X80107937Y-86394647D02*
X80057143Y-86381948D01*
X80057143Y-86381948D02*
X80031746Y-86369250D01*
X80031746Y-86369250D02*
X80019048Y-86356551D01*
X80019048Y-86356551D02*
X80006349Y-86331155D01*
X80006349Y-86331155D02*
X80006349Y-86305758D01*
X80006349Y-86305758D02*
X80019048Y-86280361D01*
X80019048Y-86280361D02*
X80031746Y-86267662D01*
X80031746Y-86267662D02*
X80057143Y-86254964D01*
X80057143Y-86254964D02*
X80120635Y-86254964D01*
X80120635Y-86254964D02*
X80158730Y-86267662D01*
X80273017Y-86521631D02*
X80273017Y-86254964D01*
X80273017Y-86254964D02*
X80425398Y-86521631D01*
X80425398Y-86521631D02*
X80425398Y-86254964D01*
X80539683Y-86508933D02*
X80577779Y-86521631D01*
X80577779Y-86521631D02*
X80641271Y-86521631D01*
X80641271Y-86521631D02*
X80666668Y-86508933D01*
X80666668Y-86508933D02*
X80679366Y-86496234D01*
X80679366Y-86496234D02*
X80692064Y-86470837D01*
X80692064Y-86470837D02*
X80692064Y-86445440D01*
X80692064Y-86445440D02*
X80679366Y-86420044D01*
X80679366Y-86420044D02*
X80666668Y-86407345D01*
X80666668Y-86407345D02*
X80641271Y-86394647D01*
X80641271Y-86394647D02*
X80590477Y-86381948D01*
X80590477Y-86381948D02*
X80565080Y-86369250D01*
X80565080Y-86369250D02*
X80552382Y-86356551D01*
X80552382Y-86356551D02*
X80539683Y-86331155D01*
X80539683Y-86331155D02*
X80539683Y-86305758D01*
X80539683Y-86305758D02*
X80552382Y-86280361D01*
X80552382Y-86280361D02*
X80565080Y-86267662D01*
X80565080Y-86267662D02*
X80590477Y-86254964D01*
X80590477Y-86254964D02*
X80653969Y-86254964D01*
X80653969Y-86254964D02*
X80692064Y-86267662D01*
X80779364Y-103721631D02*
X80690475Y-103594647D01*
X80626983Y-103721631D02*
X80626983Y-103454964D01*
X80626983Y-103454964D02*
X80728570Y-103454964D01*
X80728570Y-103454964D02*
X80753967Y-103467662D01*
X80753967Y-103467662D02*
X80766665Y-103480361D01*
X80766665Y-103480361D02*
X80779364Y-103505758D01*
X80779364Y-103505758D02*
X80779364Y-103543853D01*
X80779364Y-103543853D02*
X80766665Y-103569250D01*
X80766665Y-103569250D02*
X80753967Y-103581948D01*
X80753967Y-103581948D02*
X80728570Y-103594647D01*
X80728570Y-103594647D02*
X80626983Y-103594647D01*
X80830158Y-103747028D02*
X81033332Y-103747028D01*
X81084126Y-103708933D02*
X81122222Y-103721631D01*
X81122222Y-103721631D02*
X81185714Y-103721631D01*
X81185714Y-103721631D02*
X81211111Y-103708933D01*
X81211111Y-103708933D02*
X81223809Y-103696234D01*
X81223809Y-103696234D02*
X81236507Y-103670837D01*
X81236507Y-103670837D02*
X81236507Y-103645440D01*
X81236507Y-103645440D02*
X81223809Y-103620044D01*
X81223809Y-103620044D02*
X81211111Y-103607345D01*
X81211111Y-103607345D02*
X81185714Y-103594647D01*
X81185714Y-103594647D02*
X81134920Y-103581948D01*
X81134920Y-103581948D02*
X81109523Y-103569250D01*
X81109523Y-103569250D02*
X81096825Y-103556551D01*
X81096825Y-103556551D02*
X81084126Y-103531155D01*
X81084126Y-103531155D02*
X81084126Y-103505758D01*
X81084126Y-103505758D02*
X81096825Y-103480361D01*
X81096825Y-103480361D02*
X81109523Y-103467662D01*
X81109523Y-103467662D02*
X81134920Y-103454964D01*
X81134920Y-103454964D02*
X81198412Y-103454964D01*
X81198412Y-103454964D02*
X81236507Y-103467662D01*
X81350794Y-103721631D02*
X81350794Y-103454964D01*
X81350794Y-103454964D02*
X81414286Y-103454964D01*
X81414286Y-103454964D02*
X81452381Y-103467662D01*
X81452381Y-103467662D02*
X81477778Y-103493059D01*
X81477778Y-103493059D02*
X81490476Y-103518456D01*
X81490476Y-103518456D02*
X81503175Y-103569250D01*
X81503175Y-103569250D02*
X81503175Y-103607345D01*
X81503175Y-103607345D02*
X81490476Y-103658139D01*
X81490476Y-103658139D02*
X81477778Y-103683536D01*
X81477778Y-103683536D02*
X81452381Y-103708933D01*
X81452381Y-103708933D02*
X81414286Y-103721631D01*
X81414286Y-103721631D02*
X81350794Y-103721631D01*
X81604762Y-103645440D02*
X81731747Y-103645440D01*
X81579365Y-103721631D02*
X81668254Y-103454964D01*
X81668254Y-103454964D02*
X81757143Y-103721631D01*
X81833334Y-103480361D02*
X81846033Y-103467662D01*
X81846033Y-103467662D02*
X81871430Y-103454964D01*
X81871430Y-103454964D02*
X81934922Y-103454964D01*
X81934922Y-103454964D02*
X81960319Y-103467662D01*
X81960319Y-103467662D02*
X81973017Y-103480361D01*
X81973017Y-103480361D02*
X81985715Y-103505758D01*
X81985715Y-103505758D02*
X81985715Y-103531155D01*
X81985715Y-103531155D02*
X81973017Y-103569250D01*
X81973017Y-103569250D02*
X81820636Y-103721631D01*
X81820636Y-103721631D02*
X81985715Y-103721631D01*
D16*
X104494425Y-74825612D02*
X104494425Y-75365294D01*
X104494425Y-75365294D02*
X104526171Y-75428786D01*
X104526171Y-75428786D02*
X104557917Y-75460533D01*
X104557917Y-75460533D02*
X104621409Y-75492279D01*
X104621409Y-75492279D02*
X104748393Y-75492279D01*
X104748393Y-75492279D02*
X104811885Y-75460533D01*
X104811885Y-75460533D02*
X104843631Y-75428786D01*
X104843631Y-75428786D02*
X104875377Y-75365294D01*
X104875377Y-75365294D02*
X104875377Y-74825612D01*
X105161092Y-74889104D02*
X105192838Y-74857358D01*
X105192838Y-74857358D02*
X105256330Y-74825612D01*
X105256330Y-74825612D02*
X105415060Y-74825612D01*
X105415060Y-74825612D02*
X105478552Y-74857358D01*
X105478552Y-74857358D02*
X105510298Y-74889104D01*
X105510298Y-74889104D02*
X105542044Y-74952596D01*
X105542044Y-74952596D02*
X105542044Y-75016088D01*
X105542044Y-75016088D02*
X105510298Y-75111326D01*
X105510298Y-75111326D02*
X105129346Y-75492279D01*
X105129346Y-75492279D02*
X105542044Y-75492279D01*
X86492063Y-121796812D02*
X86492063Y-122336494D01*
X86492063Y-122336494D02*
X86523809Y-122399986D01*
X86523809Y-122399986D02*
X86555555Y-122431733D01*
X86555555Y-122431733D02*
X86619047Y-122463479D01*
X86619047Y-122463479D02*
X86746031Y-122463479D01*
X86746031Y-122463479D02*
X86809523Y-122431733D01*
X86809523Y-122431733D02*
X86841269Y-122399986D01*
X86841269Y-122399986D02*
X86873015Y-122336494D01*
X86873015Y-122336494D02*
X86873015Y-121796812D01*
X87507936Y-121796812D02*
X87190476Y-121796812D01*
X87190476Y-121796812D02*
X87158730Y-122114272D01*
X87158730Y-122114272D02*
X87190476Y-122082526D01*
X87190476Y-122082526D02*
X87253968Y-122050780D01*
X87253968Y-122050780D02*
X87412698Y-122050780D01*
X87412698Y-122050780D02*
X87476190Y-122082526D01*
X87476190Y-122082526D02*
X87507936Y-122114272D01*
X87507936Y-122114272D02*
X87539682Y-122177764D01*
X87539682Y-122177764D02*
X87539682Y-122336494D01*
X87539682Y-122336494D02*
X87507936Y-122399986D01*
X87507936Y-122399986D02*
X87476190Y-122431733D01*
X87476190Y-122431733D02*
X87412698Y-122463479D01*
X87412698Y-122463479D02*
X87253968Y-122463479D01*
X87253968Y-122463479D02*
X87190476Y-122431733D01*
X87190476Y-122431733D02*
X87158730Y-122399986D01*
D14*
X112409523Y-87846234D02*
X112396824Y-87858933D01*
X112396824Y-87858933D02*
X112358729Y-87871631D01*
X112358729Y-87871631D02*
X112333332Y-87871631D01*
X112333332Y-87871631D02*
X112295237Y-87858933D01*
X112295237Y-87858933D02*
X112269840Y-87833536D01*
X112269840Y-87833536D02*
X112257142Y-87808139D01*
X112257142Y-87808139D02*
X112244443Y-87757345D01*
X112244443Y-87757345D02*
X112244443Y-87719250D01*
X112244443Y-87719250D02*
X112257142Y-87668456D01*
X112257142Y-87668456D02*
X112269840Y-87643059D01*
X112269840Y-87643059D02*
X112295237Y-87617662D01*
X112295237Y-87617662D02*
X112333332Y-87604964D01*
X112333332Y-87604964D02*
X112358729Y-87604964D01*
X112358729Y-87604964D02*
X112396824Y-87617662D01*
X112396824Y-87617662D02*
X112409523Y-87630361D01*
X112460317Y-87897028D02*
X112663491Y-87897028D01*
X112726984Y-87871631D02*
X112726984Y-87604964D01*
X112726984Y-87604964D02*
X112790476Y-87604964D01*
X112790476Y-87604964D02*
X112828571Y-87617662D01*
X112828571Y-87617662D02*
X112853968Y-87643059D01*
X112853968Y-87643059D02*
X112866666Y-87668456D01*
X112866666Y-87668456D02*
X112879365Y-87719250D01*
X112879365Y-87719250D02*
X112879365Y-87757345D01*
X112879365Y-87757345D02*
X112866666Y-87808139D01*
X112866666Y-87808139D02*
X112853968Y-87833536D01*
X112853968Y-87833536D02*
X112828571Y-87858933D01*
X112828571Y-87858933D02*
X112790476Y-87871631D01*
X112790476Y-87871631D02*
X112726984Y-87871631D01*
X113146032Y-87846234D02*
X113133333Y-87858933D01*
X113133333Y-87858933D02*
X113095238Y-87871631D01*
X113095238Y-87871631D02*
X113069841Y-87871631D01*
X113069841Y-87871631D02*
X113031746Y-87858933D01*
X113031746Y-87858933D02*
X113006349Y-87833536D01*
X113006349Y-87833536D02*
X112993651Y-87808139D01*
X112993651Y-87808139D02*
X112980952Y-87757345D01*
X112980952Y-87757345D02*
X112980952Y-87719250D01*
X112980952Y-87719250D02*
X112993651Y-87668456D01*
X112993651Y-87668456D02*
X113006349Y-87643059D01*
X113006349Y-87643059D02*
X113031746Y-87617662D01*
X113031746Y-87617662D02*
X113069841Y-87604964D01*
X113069841Y-87604964D02*
X113095238Y-87604964D01*
X113095238Y-87604964D02*
X113133333Y-87617662D01*
X113133333Y-87617662D02*
X113146032Y-87630361D01*
X113196826Y-87897028D02*
X113400000Y-87897028D01*
X113463493Y-87871631D02*
X113463493Y-87604964D01*
X113590477Y-87871631D02*
X113590477Y-87604964D01*
X113590477Y-87604964D02*
X113742858Y-87871631D01*
X113742858Y-87871631D02*
X113742858Y-87604964D01*
X77492063Y-108521631D02*
X77403174Y-108394647D01*
X77339682Y-108521631D02*
X77339682Y-108254964D01*
X77339682Y-108254964D02*
X77441269Y-108254964D01*
X77441269Y-108254964D02*
X77466666Y-108267662D01*
X77466666Y-108267662D02*
X77479364Y-108280361D01*
X77479364Y-108280361D02*
X77492063Y-108305758D01*
X77492063Y-108305758D02*
X77492063Y-108343853D01*
X77492063Y-108343853D02*
X77479364Y-108369250D01*
X77479364Y-108369250D02*
X77466666Y-108381948D01*
X77466666Y-108381948D02*
X77441269Y-108394647D01*
X77441269Y-108394647D02*
X77339682Y-108394647D01*
X77542857Y-108547028D02*
X77746031Y-108547028D01*
X77936508Y-108521631D02*
X77809524Y-108521631D01*
X77809524Y-108521631D02*
X77809524Y-108254964D01*
X78025397Y-108381948D02*
X78114286Y-108381948D01*
X78152381Y-108521631D02*
X78025397Y-108521631D01*
X78025397Y-108521631D02*
X78025397Y-108254964D01*
X78025397Y-108254964D02*
X78152381Y-108254964D01*
X78266667Y-108521631D02*
X78266667Y-108254964D01*
X78266667Y-108254964D02*
X78330159Y-108254964D01*
X78330159Y-108254964D02*
X78368254Y-108267662D01*
X78368254Y-108267662D02*
X78393651Y-108293059D01*
X78393651Y-108293059D02*
X78406349Y-108318456D01*
X78406349Y-108318456D02*
X78419048Y-108369250D01*
X78419048Y-108369250D02*
X78419048Y-108407345D01*
X78419048Y-108407345D02*
X78406349Y-108458139D01*
X78406349Y-108458139D02*
X78393651Y-108483536D01*
X78393651Y-108483536D02*
X78368254Y-108508933D01*
X78368254Y-108508933D02*
X78330159Y-108521631D01*
X78330159Y-108521631D02*
X78266667Y-108521631D01*
X78520635Y-108280361D02*
X78533334Y-108267662D01*
X78533334Y-108267662D02*
X78558731Y-108254964D01*
X78558731Y-108254964D02*
X78622223Y-108254964D01*
X78622223Y-108254964D02*
X78647620Y-108267662D01*
X78647620Y-108267662D02*
X78660318Y-108280361D01*
X78660318Y-108280361D02*
X78673016Y-108305758D01*
X78673016Y-108305758D02*
X78673016Y-108331155D01*
X78673016Y-108331155D02*
X78660318Y-108369250D01*
X78660318Y-108369250D02*
X78507937Y-108521631D01*
X78507937Y-108521631D02*
X78673016Y-108521631D01*
X117164285Y-93946234D02*
X117151586Y-93958933D01*
X117151586Y-93958933D02*
X117113491Y-93971631D01*
X117113491Y-93971631D02*
X117088094Y-93971631D01*
X117088094Y-93971631D02*
X117049999Y-93958933D01*
X117049999Y-93958933D02*
X117024602Y-93933536D01*
X117024602Y-93933536D02*
X117011904Y-93908139D01*
X117011904Y-93908139D02*
X116999205Y-93857345D01*
X116999205Y-93857345D02*
X116999205Y-93819250D01*
X116999205Y-93819250D02*
X117011904Y-93768456D01*
X117011904Y-93768456D02*
X117024602Y-93743059D01*
X117024602Y-93743059D02*
X117049999Y-93717662D01*
X117049999Y-93717662D02*
X117088094Y-93704964D01*
X117088094Y-93704964D02*
X117113491Y-93704964D01*
X117113491Y-93704964D02*
X117151586Y-93717662D01*
X117151586Y-93717662D02*
X117164285Y-93730361D01*
X117215079Y-93997028D02*
X117418253Y-93997028D01*
X117443650Y-93704964D02*
X117532539Y-93971631D01*
X117532539Y-93971631D02*
X117621428Y-93704964D01*
X117710318Y-93971631D02*
X117710318Y-93704964D01*
X117710318Y-93704964D02*
X117799207Y-93895440D01*
X117799207Y-93895440D02*
X117888096Y-93704964D01*
X117888096Y-93704964D02*
X117888096Y-93971631D01*
X112701587Y-90321631D02*
X112574603Y-90321631D01*
X112574603Y-90321631D02*
X112574603Y-90054964D01*
X112790476Y-90181948D02*
X112879365Y-90181948D01*
X112917460Y-90321631D02*
X112790476Y-90321631D01*
X112790476Y-90321631D02*
X112790476Y-90054964D01*
X112790476Y-90054964D02*
X112917460Y-90054964D01*
X113031746Y-90321631D02*
X113031746Y-90054964D01*
X113031746Y-90054964D02*
X113095238Y-90054964D01*
X113095238Y-90054964D02*
X113133333Y-90067662D01*
X113133333Y-90067662D02*
X113158730Y-90093059D01*
X113158730Y-90093059D02*
X113171428Y-90118456D01*
X113171428Y-90118456D02*
X113184127Y-90169250D01*
X113184127Y-90169250D02*
X113184127Y-90207345D01*
X113184127Y-90207345D02*
X113171428Y-90258139D01*
X113171428Y-90258139D02*
X113158730Y-90283536D01*
X113158730Y-90283536D02*
X113133333Y-90308933D01*
X113133333Y-90308933D02*
X113095238Y-90321631D01*
X113095238Y-90321631D02*
X113031746Y-90321631D01*
X113438095Y-90321631D02*
X113285714Y-90321631D01*
X113361905Y-90321631D02*
X113361905Y-90054964D01*
X113361905Y-90054964D02*
X113336508Y-90093059D01*
X113336508Y-90093059D02*
X113311111Y-90118456D01*
X113311111Y-90118456D02*
X113285714Y-90131155D01*
X79599999Y-84521631D02*
X79511110Y-84394647D01*
X79447618Y-84521631D02*
X79447618Y-84254964D01*
X79447618Y-84254964D02*
X79549205Y-84254964D01*
X79549205Y-84254964D02*
X79574602Y-84267662D01*
X79574602Y-84267662D02*
X79587300Y-84280361D01*
X79587300Y-84280361D02*
X79599999Y-84305758D01*
X79599999Y-84305758D02*
X79599999Y-84343853D01*
X79599999Y-84343853D02*
X79587300Y-84369250D01*
X79587300Y-84369250D02*
X79574602Y-84381948D01*
X79574602Y-84381948D02*
X79549205Y-84394647D01*
X79549205Y-84394647D02*
X79447618Y-84394647D01*
X79650793Y-84547028D02*
X79853967Y-84547028D01*
X79879364Y-84254964D02*
X79968253Y-84521631D01*
X79968253Y-84521631D02*
X80057142Y-84254964D01*
X80146032Y-84521631D02*
X80146032Y-84254964D01*
X80146032Y-84254964D02*
X80209524Y-84254964D01*
X80209524Y-84254964D02*
X80247619Y-84267662D01*
X80247619Y-84267662D02*
X80273016Y-84293059D01*
X80273016Y-84293059D02*
X80285714Y-84318456D01*
X80285714Y-84318456D02*
X80298413Y-84369250D01*
X80298413Y-84369250D02*
X80298413Y-84407345D01*
X80298413Y-84407345D02*
X80285714Y-84458139D01*
X80285714Y-84458139D02*
X80273016Y-84483536D01*
X80273016Y-84483536D02*
X80247619Y-84508933D01*
X80247619Y-84508933D02*
X80209524Y-84521631D01*
X80209524Y-84521631D02*
X80146032Y-84521631D01*
X80412699Y-84521631D02*
X80412699Y-84254964D01*
X80412699Y-84254964D02*
X80476191Y-84254964D01*
X80476191Y-84254964D02*
X80514286Y-84267662D01*
X80514286Y-84267662D02*
X80539683Y-84293059D01*
X80539683Y-84293059D02*
X80552381Y-84318456D01*
X80552381Y-84318456D02*
X80565080Y-84369250D01*
X80565080Y-84369250D02*
X80565080Y-84407345D01*
X80565080Y-84407345D02*
X80552381Y-84458139D01*
X80552381Y-84458139D02*
X80539683Y-84483536D01*
X80539683Y-84483536D02*
X80514286Y-84508933D01*
X80514286Y-84508933D02*
X80476191Y-84521631D01*
X80476191Y-84521631D02*
X80412699Y-84521631D01*
X100066666Y-105521631D02*
X99977777Y-105394647D01*
X99914285Y-105521631D02*
X99914285Y-105254964D01*
X99914285Y-105254964D02*
X100015872Y-105254964D01*
X100015872Y-105254964D02*
X100041269Y-105267662D01*
X100041269Y-105267662D02*
X100053967Y-105280361D01*
X100053967Y-105280361D02*
X100066666Y-105305758D01*
X100066666Y-105305758D02*
X100066666Y-105343853D01*
X100066666Y-105343853D02*
X100053967Y-105369250D01*
X100053967Y-105369250D02*
X100041269Y-105381948D01*
X100041269Y-105381948D02*
X100015872Y-105394647D01*
X100015872Y-105394647D02*
X99914285Y-105394647D01*
X100117460Y-105547028D02*
X100320634Y-105547028D01*
X100371428Y-105445440D02*
X100498413Y-105445440D01*
X100346031Y-105521631D02*
X100434920Y-105254964D01*
X100434920Y-105254964D02*
X100523809Y-105521631D01*
X100612699Y-105521631D02*
X100612699Y-105254964D01*
X100612699Y-105254964D02*
X100676191Y-105254964D01*
X100676191Y-105254964D02*
X100714286Y-105267662D01*
X100714286Y-105267662D02*
X100739683Y-105293059D01*
X100739683Y-105293059D02*
X100752381Y-105318456D01*
X100752381Y-105318456D02*
X100765080Y-105369250D01*
X100765080Y-105369250D02*
X100765080Y-105407345D01*
X100765080Y-105407345D02*
X100752381Y-105458139D01*
X100752381Y-105458139D02*
X100739683Y-105483536D01*
X100739683Y-105483536D02*
X100714286Y-105508933D01*
X100714286Y-105508933D02*
X100676191Y-105521631D01*
X100676191Y-105521631D02*
X100612699Y-105521631D01*
X100879366Y-105521631D02*
X100879366Y-105254964D01*
X100879366Y-105254964D02*
X100942858Y-105254964D01*
X100942858Y-105254964D02*
X100980953Y-105267662D01*
X100980953Y-105267662D02*
X101006350Y-105293059D01*
X101006350Y-105293059D02*
X101019048Y-105318456D01*
X101019048Y-105318456D02*
X101031747Y-105369250D01*
X101031747Y-105369250D02*
X101031747Y-105407345D01*
X101031747Y-105407345D02*
X101019048Y-105458139D01*
X101019048Y-105458139D02*
X101006350Y-105483536D01*
X101006350Y-105483536D02*
X100980953Y-105508933D01*
X100980953Y-105508933D02*
X100942858Y-105521631D01*
X100942858Y-105521631D02*
X100879366Y-105521631D01*
X101298414Y-105521631D02*
X101209525Y-105394647D01*
X101146033Y-105521631D02*
X101146033Y-105254964D01*
X101146033Y-105254964D02*
X101247620Y-105254964D01*
X101247620Y-105254964D02*
X101273017Y-105267662D01*
X101273017Y-105267662D02*
X101285715Y-105280361D01*
X101285715Y-105280361D02*
X101298414Y-105305758D01*
X101298414Y-105305758D02*
X101298414Y-105343853D01*
X101298414Y-105343853D02*
X101285715Y-105369250D01*
X101285715Y-105369250D02*
X101273017Y-105381948D01*
X101273017Y-105381948D02*
X101247620Y-105394647D01*
X101247620Y-105394647D02*
X101146033Y-105394647D01*
X95612698Y-105521631D02*
X95523809Y-105394647D01*
X95460317Y-105521631D02*
X95460317Y-105254964D01*
X95460317Y-105254964D02*
X95561904Y-105254964D01*
X95561904Y-105254964D02*
X95587301Y-105267662D01*
X95587301Y-105267662D02*
X95599999Y-105280361D01*
X95599999Y-105280361D02*
X95612698Y-105305758D01*
X95612698Y-105305758D02*
X95612698Y-105343853D01*
X95612698Y-105343853D02*
X95599999Y-105369250D01*
X95599999Y-105369250D02*
X95587301Y-105381948D01*
X95587301Y-105381948D02*
X95561904Y-105394647D01*
X95561904Y-105394647D02*
X95460317Y-105394647D01*
X95663492Y-105547028D02*
X95866666Y-105547028D01*
X95917460Y-105508933D02*
X95955556Y-105521631D01*
X95955556Y-105521631D02*
X96019048Y-105521631D01*
X96019048Y-105521631D02*
X96044445Y-105508933D01*
X96044445Y-105508933D02*
X96057143Y-105496234D01*
X96057143Y-105496234D02*
X96069841Y-105470837D01*
X96069841Y-105470837D02*
X96069841Y-105445440D01*
X96069841Y-105445440D02*
X96057143Y-105420044D01*
X96057143Y-105420044D02*
X96044445Y-105407345D01*
X96044445Y-105407345D02*
X96019048Y-105394647D01*
X96019048Y-105394647D02*
X95968254Y-105381948D01*
X95968254Y-105381948D02*
X95942857Y-105369250D01*
X95942857Y-105369250D02*
X95930159Y-105356551D01*
X95930159Y-105356551D02*
X95917460Y-105331155D01*
X95917460Y-105331155D02*
X95917460Y-105305758D01*
X95917460Y-105305758D02*
X95930159Y-105280361D01*
X95930159Y-105280361D02*
X95942857Y-105267662D01*
X95942857Y-105267662D02*
X95968254Y-105254964D01*
X95968254Y-105254964D02*
X96031746Y-105254964D01*
X96031746Y-105254964D02*
X96069841Y-105267662D01*
X96336509Y-105496234D02*
X96323810Y-105508933D01*
X96323810Y-105508933D02*
X96285715Y-105521631D01*
X96285715Y-105521631D02*
X96260318Y-105521631D01*
X96260318Y-105521631D02*
X96222223Y-105508933D01*
X96222223Y-105508933D02*
X96196826Y-105483536D01*
X96196826Y-105483536D02*
X96184128Y-105458139D01*
X96184128Y-105458139D02*
X96171429Y-105407345D01*
X96171429Y-105407345D02*
X96171429Y-105369250D01*
X96171429Y-105369250D02*
X96184128Y-105318456D01*
X96184128Y-105318456D02*
X96196826Y-105293059D01*
X96196826Y-105293059D02*
X96222223Y-105267662D01*
X96222223Y-105267662D02*
X96260318Y-105254964D01*
X96260318Y-105254964D02*
X96285715Y-105254964D01*
X96285715Y-105254964D02*
X96323810Y-105267662D01*
X96323810Y-105267662D02*
X96336509Y-105280361D01*
X96577779Y-105521631D02*
X96450795Y-105521631D01*
X96450795Y-105521631D02*
X96450795Y-105254964D01*
D16*
X109040463Y-98913412D02*
X109040463Y-99453094D01*
X109040463Y-99453094D02*
X109072209Y-99516586D01*
X109072209Y-99516586D02*
X109103955Y-99548333D01*
X109103955Y-99548333D02*
X109167447Y-99580079D01*
X109167447Y-99580079D02*
X109294431Y-99580079D01*
X109294431Y-99580079D02*
X109357923Y-99548333D01*
X109357923Y-99548333D02*
X109389669Y-99516586D01*
X109389669Y-99516586D02*
X109421415Y-99453094D01*
X109421415Y-99453094D02*
X109421415Y-98913412D01*
X110024590Y-99135634D02*
X110024590Y-99580079D01*
X109865860Y-98881666D02*
X109707130Y-99357856D01*
X109707130Y-99357856D02*
X110119828Y-99357856D01*
X97838850Y-105333100D02*
X97838850Y-105872782D01*
X97838850Y-105872782D02*
X97870596Y-105936274D01*
X97870596Y-105936274D02*
X97902342Y-105968021D01*
X97902342Y-105968021D02*
X97965834Y-105999767D01*
X97965834Y-105999767D02*
X98092818Y-105999767D01*
X98092818Y-105999767D02*
X98156310Y-105968021D01*
X98156310Y-105968021D02*
X98188056Y-105936274D01*
X98188056Y-105936274D02*
X98219802Y-105872782D01*
X98219802Y-105872782D02*
X98219802Y-105333100D01*
X98473771Y-105333100D02*
X98886469Y-105333100D01*
X98886469Y-105333100D02*
X98664247Y-105587068D01*
X98664247Y-105587068D02*
X98759485Y-105587068D01*
X98759485Y-105587068D02*
X98822977Y-105618814D01*
X98822977Y-105618814D02*
X98854723Y-105650560D01*
X98854723Y-105650560D02*
X98886469Y-105714052D01*
X98886469Y-105714052D02*
X98886469Y-105872782D01*
X98886469Y-105872782D02*
X98854723Y-105936274D01*
X98854723Y-105936274D02*
X98822977Y-105968021D01*
X98822977Y-105968021D02*
X98759485Y-105999767D01*
X98759485Y-105999767D02*
X98569009Y-105999767D01*
X98569009Y-105999767D02*
X98505517Y-105968021D01*
X98505517Y-105968021D02*
X98473771Y-105936274D01*
D14*
X92231745Y-96496234D02*
X92219046Y-96508933D01*
X92219046Y-96508933D02*
X92180951Y-96521631D01*
X92180951Y-96521631D02*
X92155554Y-96521631D01*
X92155554Y-96521631D02*
X92117459Y-96508933D01*
X92117459Y-96508933D02*
X92092062Y-96483536D01*
X92092062Y-96483536D02*
X92079364Y-96458139D01*
X92079364Y-96458139D02*
X92066665Y-96407345D01*
X92066665Y-96407345D02*
X92066665Y-96369250D01*
X92066665Y-96369250D02*
X92079364Y-96318456D01*
X92079364Y-96318456D02*
X92092062Y-96293059D01*
X92092062Y-96293059D02*
X92117459Y-96267662D01*
X92117459Y-96267662D02*
X92155554Y-96254964D01*
X92155554Y-96254964D02*
X92180951Y-96254964D01*
X92180951Y-96254964D02*
X92219046Y-96267662D01*
X92219046Y-96267662D02*
X92231745Y-96280361D01*
X92282539Y-96547028D02*
X92485713Y-96547028D01*
X92549206Y-96521631D02*
X92549206Y-96254964D01*
X92549206Y-96254964D02*
X92612698Y-96254964D01*
X92612698Y-96254964D02*
X92650793Y-96267662D01*
X92650793Y-96267662D02*
X92676190Y-96293059D01*
X92676190Y-96293059D02*
X92688888Y-96318456D01*
X92688888Y-96318456D02*
X92701587Y-96369250D01*
X92701587Y-96369250D02*
X92701587Y-96407345D01*
X92701587Y-96407345D02*
X92688888Y-96458139D01*
X92688888Y-96458139D02*
X92676190Y-96483536D01*
X92676190Y-96483536D02*
X92650793Y-96508933D01*
X92650793Y-96508933D02*
X92612698Y-96521631D01*
X92612698Y-96521631D02*
X92549206Y-96521631D01*
X92968254Y-96496234D02*
X92955555Y-96508933D01*
X92955555Y-96508933D02*
X92917460Y-96521631D01*
X92917460Y-96521631D02*
X92892063Y-96521631D01*
X92892063Y-96521631D02*
X92853968Y-96508933D01*
X92853968Y-96508933D02*
X92828571Y-96483536D01*
X92828571Y-96483536D02*
X92815873Y-96458139D01*
X92815873Y-96458139D02*
X92803174Y-96407345D01*
X92803174Y-96407345D02*
X92803174Y-96369250D01*
X92803174Y-96369250D02*
X92815873Y-96318456D01*
X92815873Y-96318456D02*
X92828571Y-96293059D01*
X92828571Y-96293059D02*
X92853968Y-96267662D01*
X92853968Y-96267662D02*
X92892063Y-96254964D01*
X92892063Y-96254964D02*
X92917460Y-96254964D01*
X92917460Y-96254964D02*
X92955555Y-96267662D01*
X92955555Y-96267662D02*
X92968254Y-96280361D01*
X93019048Y-96547028D02*
X93222222Y-96547028D01*
X93336508Y-96254964D02*
X93387302Y-96254964D01*
X93387302Y-96254964D02*
X93412699Y-96267662D01*
X93412699Y-96267662D02*
X93438096Y-96293059D01*
X93438096Y-96293059D02*
X93450794Y-96343853D01*
X93450794Y-96343853D02*
X93450794Y-96432742D01*
X93450794Y-96432742D02*
X93438096Y-96483536D01*
X93438096Y-96483536D02*
X93412699Y-96508933D01*
X93412699Y-96508933D02*
X93387302Y-96521631D01*
X93387302Y-96521631D02*
X93336508Y-96521631D01*
X93336508Y-96521631D02*
X93311112Y-96508933D01*
X93311112Y-96508933D02*
X93285715Y-96483536D01*
X93285715Y-96483536D02*
X93273016Y-96432742D01*
X93273016Y-96432742D02*
X93273016Y-96343853D01*
X93273016Y-96343853D02*
X93285715Y-96293059D01*
X93285715Y-96293059D02*
X93311112Y-96267662D01*
X93311112Y-96267662D02*
X93336508Y-96254964D01*
X93565080Y-96254964D02*
X93565080Y-96470837D01*
X93565080Y-96470837D02*
X93577778Y-96496234D01*
X93577778Y-96496234D02*
X93590477Y-96508933D01*
X93590477Y-96508933D02*
X93615873Y-96521631D01*
X93615873Y-96521631D02*
X93666667Y-96521631D01*
X93666667Y-96521631D02*
X93692064Y-96508933D01*
X93692064Y-96508933D02*
X93704762Y-96496234D01*
X93704762Y-96496234D02*
X93717461Y-96470837D01*
X93717461Y-96470837D02*
X93717461Y-96254964D01*
X93806349Y-96254964D02*
X93958731Y-96254964D01*
X93882540Y-96521631D02*
X93882540Y-96254964D01*
X80785713Y-109121631D02*
X80696824Y-108994647D01*
X80633332Y-109121631D02*
X80633332Y-108854964D01*
X80633332Y-108854964D02*
X80734919Y-108854964D01*
X80734919Y-108854964D02*
X80760316Y-108867662D01*
X80760316Y-108867662D02*
X80773014Y-108880361D01*
X80773014Y-108880361D02*
X80785713Y-108905758D01*
X80785713Y-108905758D02*
X80785713Y-108943853D01*
X80785713Y-108943853D02*
X80773014Y-108969250D01*
X80773014Y-108969250D02*
X80760316Y-108981948D01*
X80760316Y-108981948D02*
X80734919Y-108994647D01*
X80734919Y-108994647D02*
X80633332Y-108994647D01*
X80836507Y-109147028D02*
X81039681Y-109147028D01*
X81090475Y-109108933D02*
X81128571Y-109121631D01*
X81128571Y-109121631D02*
X81192063Y-109121631D01*
X81192063Y-109121631D02*
X81217460Y-109108933D01*
X81217460Y-109108933D02*
X81230158Y-109096234D01*
X81230158Y-109096234D02*
X81242856Y-109070837D01*
X81242856Y-109070837D02*
X81242856Y-109045440D01*
X81242856Y-109045440D02*
X81230158Y-109020044D01*
X81230158Y-109020044D02*
X81217460Y-109007345D01*
X81217460Y-109007345D02*
X81192063Y-108994647D01*
X81192063Y-108994647D02*
X81141269Y-108981948D01*
X81141269Y-108981948D02*
X81115872Y-108969250D01*
X81115872Y-108969250D02*
X81103174Y-108956551D01*
X81103174Y-108956551D02*
X81090475Y-108931155D01*
X81090475Y-108931155D02*
X81090475Y-108905758D01*
X81090475Y-108905758D02*
X81103174Y-108880361D01*
X81103174Y-108880361D02*
X81115872Y-108867662D01*
X81115872Y-108867662D02*
X81141269Y-108854964D01*
X81141269Y-108854964D02*
X81204761Y-108854964D01*
X81204761Y-108854964D02*
X81242856Y-108867662D01*
X81509524Y-109096234D02*
X81496825Y-109108933D01*
X81496825Y-109108933D02*
X81458730Y-109121631D01*
X81458730Y-109121631D02*
X81433333Y-109121631D01*
X81433333Y-109121631D02*
X81395238Y-109108933D01*
X81395238Y-109108933D02*
X81369841Y-109083536D01*
X81369841Y-109083536D02*
X81357143Y-109058139D01*
X81357143Y-109058139D02*
X81344444Y-109007345D01*
X81344444Y-109007345D02*
X81344444Y-108969250D01*
X81344444Y-108969250D02*
X81357143Y-108918456D01*
X81357143Y-108918456D02*
X81369841Y-108893059D01*
X81369841Y-108893059D02*
X81395238Y-108867662D01*
X81395238Y-108867662D02*
X81433333Y-108854964D01*
X81433333Y-108854964D02*
X81458730Y-108854964D01*
X81458730Y-108854964D02*
X81496825Y-108867662D01*
X81496825Y-108867662D02*
X81509524Y-108880361D01*
X81750794Y-109121631D02*
X81623810Y-109121631D01*
X81623810Y-109121631D02*
X81623810Y-108854964D01*
X81826984Y-108880361D02*
X81839683Y-108867662D01*
X81839683Y-108867662D02*
X81865080Y-108854964D01*
X81865080Y-108854964D02*
X81928572Y-108854964D01*
X81928572Y-108854964D02*
X81953969Y-108867662D01*
X81953969Y-108867662D02*
X81966667Y-108880361D01*
X81966667Y-108880361D02*
X81979365Y-108905758D01*
X81979365Y-108905758D02*
X81979365Y-108931155D01*
X81979365Y-108931155D02*
X81966667Y-108969250D01*
X81966667Y-108969250D02*
X81814286Y-109121631D01*
X81814286Y-109121631D02*
X81979365Y-109121631D01*
D16*
X86585459Y-87975799D02*
X86585459Y-88515481D01*
X86585459Y-88515481D02*
X86617205Y-88578973D01*
X86617205Y-88578973D02*
X86648951Y-88610720D01*
X86648951Y-88610720D02*
X86712443Y-88642466D01*
X86712443Y-88642466D02*
X86839427Y-88642466D01*
X86839427Y-88642466D02*
X86902919Y-88610720D01*
X86902919Y-88610720D02*
X86934665Y-88578973D01*
X86934665Y-88578973D02*
X86966411Y-88515481D01*
X86966411Y-88515481D02*
X86966411Y-87975799D01*
X87633078Y-88642466D02*
X87252126Y-88642466D01*
X87442602Y-88642466D02*
X87442602Y-87975799D01*
X87442602Y-87975799D02*
X87379110Y-88071037D01*
X87379110Y-88071037D02*
X87315618Y-88134529D01*
X87315618Y-88134529D02*
X87252126Y-88166275D01*
D14*
X77701587Y-110521631D02*
X77574603Y-110521631D01*
X77574603Y-110521631D02*
X77574603Y-110254964D01*
X77790476Y-110381948D02*
X77879365Y-110381948D01*
X77917460Y-110521631D02*
X77790476Y-110521631D01*
X77790476Y-110521631D02*
X77790476Y-110254964D01*
X77790476Y-110254964D02*
X77917460Y-110254964D01*
X78031746Y-110521631D02*
X78031746Y-110254964D01*
X78031746Y-110254964D02*
X78095238Y-110254964D01*
X78095238Y-110254964D02*
X78133333Y-110267662D01*
X78133333Y-110267662D02*
X78158730Y-110293059D01*
X78158730Y-110293059D02*
X78171428Y-110318456D01*
X78171428Y-110318456D02*
X78184127Y-110369250D01*
X78184127Y-110369250D02*
X78184127Y-110407345D01*
X78184127Y-110407345D02*
X78171428Y-110458139D01*
X78171428Y-110458139D02*
X78158730Y-110483536D01*
X78158730Y-110483536D02*
X78133333Y-110508933D01*
X78133333Y-110508933D02*
X78095238Y-110521631D01*
X78095238Y-110521631D02*
X78031746Y-110521631D01*
X78285714Y-110280361D02*
X78298413Y-110267662D01*
X78298413Y-110267662D02*
X78323810Y-110254964D01*
X78323810Y-110254964D02*
X78387302Y-110254964D01*
X78387302Y-110254964D02*
X78412699Y-110267662D01*
X78412699Y-110267662D02*
X78425397Y-110280361D01*
X78425397Y-110280361D02*
X78438095Y-110305758D01*
X78438095Y-110305758D02*
X78438095Y-110331155D01*
X78438095Y-110331155D02*
X78425397Y-110369250D01*
X78425397Y-110369250D02*
X78273016Y-110521631D01*
X78273016Y-110521631D02*
X78438095Y-110521631D01*
X79473015Y-93971631D02*
X79384126Y-93844647D01*
X79320634Y-93971631D02*
X79320634Y-93704964D01*
X79320634Y-93704964D02*
X79422221Y-93704964D01*
X79422221Y-93704964D02*
X79447618Y-93717662D01*
X79447618Y-93717662D02*
X79460316Y-93730361D01*
X79460316Y-93730361D02*
X79473015Y-93755758D01*
X79473015Y-93755758D02*
X79473015Y-93793853D01*
X79473015Y-93793853D02*
X79460316Y-93819250D01*
X79460316Y-93819250D02*
X79447618Y-93831948D01*
X79447618Y-93831948D02*
X79422221Y-93844647D01*
X79422221Y-93844647D02*
X79320634Y-93844647D01*
X79523809Y-93997028D02*
X79726983Y-93997028D01*
X79942857Y-93946234D02*
X79930158Y-93958933D01*
X79930158Y-93958933D02*
X79892063Y-93971631D01*
X79892063Y-93971631D02*
X79866666Y-93971631D01*
X79866666Y-93971631D02*
X79828571Y-93958933D01*
X79828571Y-93958933D02*
X79803174Y-93933536D01*
X79803174Y-93933536D02*
X79790476Y-93908139D01*
X79790476Y-93908139D02*
X79777777Y-93857345D01*
X79777777Y-93857345D02*
X79777777Y-93819250D01*
X79777777Y-93819250D02*
X79790476Y-93768456D01*
X79790476Y-93768456D02*
X79803174Y-93743059D01*
X79803174Y-93743059D02*
X79828571Y-93717662D01*
X79828571Y-93717662D02*
X79866666Y-93704964D01*
X79866666Y-93704964D02*
X79892063Y-93704964D01*
X79892063Y-93704964D02*
X79930158Y-93717662D01*
X79930158Y-93717662D02*
X79942857Y-93730361D01*
X80146032Y-93831948D02*
X80057143Y-93831948D01*
X80057143Y-93971631D02*
X80057143Y-93704964D01*
X80057143Y-93704964D02*
X80184127Y-93704964D01*
X80425397Y-93717662D02*
X80400001Y-93704964D01*
X80400001Y-93704964D02*
X80361905Y-93704964D01*
X80361905Y-93704964D02*
X80323810Y-93717662D01*
X80323810Y-93717662D02*
X80298413Y-93743059D01*
X80298413Y-93743059D02*
X80285715Y-93768456D01*
X80285715Y-93768456D02*
X80273016Y-93819250D01*
X80273016Y-93819250D02*
X80273016Y-93857345D01*
X80273016Y-93857345D02*
X80285715Y-93908139D01*
X80285715Y-93908139D02*
X80298413Y-93933536D01*
X80298413Y-93933536D02*
X80323810Y-93958933D01*
X80323810Y-93958933D02*
X80361905Y-93971631D01*
X80361905Y-93971631D02*
X80387302Y-93971631D01*
X80387302Y-93971631D02*
X80425397Y-93958933D01*
X80425397Y-93958933D02*
X80438096Y-93946234D01*
X80438096Y-93946234D02*
X80438096Y-93857345D01*
X80438096Y-93857345D02*
X80387302Y-93857345D01*
X80692064Y-93971631D02*
X80539683Y-93971631D01*
X80615874Y-93971631D02*
X80615874Y-93704964D01*
X80615874Y-93704964D02*
X80590477Y-93743059D01*
X80590477Y-93743059D02*
X80565080Y-93768456D01*
X80565080Y-93768456D02*
X80539683Y-93781155D01*
X79599999Y-88596234D02*
X79587300Y-88608933D01*
X79587300Y-88608933D02*
X79549205Y-88621631D01*
X79549205Y-88621631D02*
X79523808Y-88621631D01*
X79523808Y-88621631D02*
X79485713Y-88608933D01*
X79485713Y-88608933D02*
X79460316Y-88583536D01*
X79460316Y-88583536D02*
X79447618Y-88558139D01*
X79447618Y-88558139D02*
X79434919Y-88507345D01*
X79434919Y-88507345D02*
X79434919Y-88469250D01*
X79434919Y-88469250D02*
X79447618Y-88418456D01*
X79447618Y-88418456D02*
X79460316Y-88393059D01*
X79460316Y-88393059D02*
X79485713Y-88367662D01*
X79485713Y-88367662D02*
X79523808Y-88354964D01*
X79523808Y-88354964D02*
X79549205Y-88354964D01*
X79549205Y-88354964D02*
X79587300Y-88367662D01*
X79587300Y-88367662D02*
X79599999Y-88380361D01*
X79650793Y-88647028D02*
X79853967Y-88647028D01*
X79879364Y-88354964D02*
X79968253Y-88621631D01*
X79968253Y-88621631D02*
X80057142Y-88354964D01*
X80146032Y-88621631D02*
X80146032Y-88354964D01*
X80146032Y-88354964D02*
X80209524Y-88354964D01*
X80209524Y-88354964D02*
X80247619Y-88367662D01*
X80247619Y-88367662D02*
X80273016Y-88393059D01*
X80273016Y-88393059D02*
X80285714Y-88418456D01*
X80285714Y-88418456D02*
X80298413Y-88469250D01*
X80298413Y-88469250D02*
X80298413Y-88507345D01*
X80298413Y-88507345D02*
X80285714Y-88558139D01*
X80285714Y-88558139D02*
X80273016Y-88583536D01*
X80273016Y-88583536D02*
X80247619Y-88608933D01*
X80247619Y-88608933D02*
X80209524Y-88621631D01*
X80209524Y-88621631D02*
X80146032Y-88621631D01*
X80412699Y-88621631D02*
X80412699Y-88354964D01*
X80412699Y-88354964D02*
X80476191Y-88354964D01*
X80476191Y-88354964D02*
X80514286Y-88367662D01*
X80514286Y-88367662D02*
X80539683Y-88393059D01*
X80539683Y-88393059D02*
X80552381Y-88418456D01*
X80552381Y-88418456D02*
X80565080Y-88469250D01*
X80565080Y-88469250D02*
X80565080Y-88507345D01*
X80565080Y-88507345D02*
X80552381Y-88558139D01*
X80552381Y-88558139D02*
X80539683Y-88583536D01*
X80539683Y-88583536D02*
X80514286Y-88608933D01*
X80514286Y-88608933D02*
X80476191Y-88621631D01*
X80476191Y-88621631D02*
X80412699Y-88621631D01*
X100206348Y-100096234D02*
X100193649Y-100108933D01*
X100193649Y-100108933D02*
X100155554Y-100121631D01*
X100155554Y-100121631D02*
X100130157Y-100121631D01*
X100130157Y-100121631D02*
X100092062Y-100108933D01*
X100092062Y-100108933D02*
X100066665Y-100083536D01*
X100066665Y-100083536D02*
X100053967Y-100058139D01*
X100053967Y-100058139D02*
X100041268Y-100007345D01*
X100041268Y-100007345D02*
X100041268Y-99969250D01*
X100041268Y-99969250D02*
X100053967Y-99918456D01*
X100053967Y-99918456D02*
X100066665Y-99893059D01*
X100066665Y-99893059D02*
X100092062Y-99867662D01*
X100092062Y-99867662D02*
X100130157Y-99854964D01*
X100130157Y-99854964D02*
X100155554Y-99854964D01*
X100155554Y-99854964D02*
X100193649Y-99867662D01*
X100193649Y-99867662D02*
X100206348Y-99880361D01*
X100257142Y-100147028D02*
X100460316Y-100147028D01*
X100511110Y-100045440D02*
X100638095Y-100045440D01*
X100485713Y-100121631D02*
X100574602Y-99854964D01*
X100574602Y-99854964D02*
X100663491Y-100121631D01*
X100752381Y-100121631D02*
X100752381Y-99854964D01*
X100752381Y-99854964D02*
X100815873Y-99854964D01*
X100815873Y-99854964D02*
X100853968Y-99867662D01*
X100853968Y-99867662D02*
X100879365Y-99893059D01*
X100879365Y-99893059D02*
X100892063Y-99918456D01*
X100892063Y-99918456D02*
X100904762Y-99969250D01*
X100904762Y-99969250D02*
X100904762Y-100007345D01*
X100904762Y-100007345D02*
X100892063Y-100058139D01*
X100892063Y-100058139D02*
X100879365Y-100083536D01*
X100879365Y-100083536D02*
X100853968Y-100108933D01*
X100853968Y-100108933D02*
X100815873Y-100121631D01*
X100815873Y-100121631D02*
X100752381Y-100121631D01*
X101006349Y-100108933D02*
X101044445Y-100121631D01*
X101044445Y-100121631D02*
X101107937Y-100121631D01*
X101107937Y-100121631D02*
X101133334Y-100108933D01*
X101133334Y-100108933D02*
X101146032Y-100096234D01*
X101146032Y-100096234D02*
X101158730Y-100070837D01*
X101158730Y-100070837D02*
X101158730Y-100045440D01*
X101158730Y-100045440D02*
X101146032Y-100020044D01*
X101146032Y-100020044D02*
X101133334Y-100007345D01*
X101133334Y-100007345D02*
X101107937Y-99994647D01*
X101107937Y-99994647D02*
X101057143Y-99981948D01*
X101057143Y-99981948D02*
X101031746Y-99969250D01*
X101031746Y-99969250D02*
X101019048Y-99956551D01*
X101019048Y-99956551D02*
X101006349Y-99931155D01*
X101006349Y-99931155D02*
X101006349Y-99905758D01*
X101006349Y-99905758D02*
X101019048Y-99880361D01*
X101019048Y-99880361D02*
X101031746Y-99867662D01*
X101031746Y-99867662D02*
X101057143Y-99854964D01*
X101057143Y-99854964D02*
X101120635Y-99854964D01*
X101120635Y-99854964D02*
X101158730Y-99867662D01*
D16*
X85819063Y-111439412D02*
X85819063Y-111979094D01*
X85819063Y-111979094D02*
X85850809Y-112042586D01*
X85850809Y-112042586D02*
X85882555Y-112074333D01*
X85882555Y-112074333D02*
X85946047Y-112106079D01*
X85946047Y-112106079D02*
X86073031Y-112106079D01*
X86073031Y-112106079D02*
X86136523Y-112074333D01*
X86136523Y-112074333D02*
X86168269Y-112042586D01*
X86168269Y-112042586D02*
X86200015Y-111979094D01*
X86200015Y-111979094D02*
X86200015Y-111439412D01*
X86803190Y-111439412D02*
X86676206Y-111439412D01*
X86676206Y-111439412D02*
X86612714Y-111471158D01*
X86612714Y-111471158D02*
X86580968Y-111502904D01*
X86580968Y-111502904D02*
X86517476Y-111598142D01*
X86517476Y-111598142D02*
X86485730Y-111725126D01*
X86485730Y-111725126D02*
X86485730Y-111979094D01*
X86485730Y-111979094D02*
X86517476Y-112042586D01*
X86517476Y-112042586D02*
X86549222Y-112074333D01*
X86549222Y-112074333D02*
X86612714Y-112106079D01*
X86612714Y-112106079D02*
X86739698Y-112106079D01*
X86739698Y-112106079D02*
X86803190Y-112074333D01*
X86803190Y-112074333D02*
X86834936Y-112042586D01*
X86834936Y-112042586D02*
X86866682Y-111979094D01*
X86866682Y-111979094D02*
X86866682Y-111820364D01*
X86866682Y-111820364D02*
X86834936Y-111756872D01*
X86834936Y-111756872D02*
X86803190Y-111725126D01*
X86803190Y-111725126D02*
X86739698Y-111693380D01*
X86739698Y-111693380D02*
X86612714Y-111693380D01*
X86612714Y-111693380D02*
X86549222Y-111725126D01*
X86549222Y-111725126D02*
X86517476Y-111756872D01*
X86517476Y-111756872D02*
X86485730Y-111820364D01*
D14*
X116999999Y-101596234D02*
X116987300Y-101608933D01*
X116987300Y-101608933D02*
X116949205Y-101621631D01*
X116949205Y-101621631D02*
X116923808Y-101621631D01*
X116923808Y-101621631D02*
X116885713Y-101608933D01*
X116885713Y-101608933D02*
X116860316Y-101583536D01*
X116860316Y-101583536D02*
X116847618Y-101558139D01*
X116847618Y-101558139D02*
X116834919Y-101507345D01*
X116834919Y-101507345D02*
X116834919Y-101469250D01*
X116834919Y-101469250D02*
X116847618Y-101418456D01*
X116847618Y-101418456D02*
X116860316Y-101393059D01*
X116860316Y-101393059D02*
X116885713Y-101367662D01*
X116885713Y-101367662D02*
X116923808Y-101354964D01*
X116923808Y-101354964D02*
X116949205Y-101354964D01*
X116949205Y-101354964D02*
X116987300Y-101367662D01*
X116987300Y-101367662D02*
X116999999Y-101380361D01*
X117050793Y-101647028D02*
X117253967Y-101647028D01*
X117279364Y-101354964D02*
X117368253Y-101621631D01*
X117368253Y-101621631D02*
X117457142Y-101354964D01*
X117698413Y-101596234D02*
X117685714Y-101608933D01*
X117685714Y-101608933D02*
X117647619Y-101621631D01*
X117647619Y-101621631D02*
X117622222Y-101621631D01*
X117622222Y-101621631D02*
X117584127Y-101608933D01*
X117584127Y-101608933D02*
X117558730Y-101583536D01*
X117558730Y-101583536D02*
X117546032Y-101558139D01*
X117546032Y-101558139D02*
X117533333Y-101507345D01*
X117533333Y-101507345D02*
X117533333Y-101469250D01*
X117533333Y-101469250D02*
X117546032Y-101418456D01*
X117546032Y-101418456D02*
X117558730Y-101393059D01*
X117558730Y-101393059D02*
X117584127Y-101367662D01*
X117584127Y-101367662D02*
X117622222Y-101354964D01*
X117622222Y-101354964D02*
X117647619Y-101354964D01*
X117647619Y-101354964D02*
X117685714Y-101367662D01*
X117685714Y-101367662D02*
X117698413Y-101380361D01*
X117965080Y-101596234D02*
X117952381Y-101608933D01*
X117952381Y-101608933D02*
X117914286Y-101621631D01*
X117914286Y-101621631D02*
X117888889Y-101621631D01*
X117888889Y-101621631D02*
X117850794Y-101608933D01*
X117850794Y-101608933D02*
X117825397Y-101583536D01*
X117825397Y-101583536D02*
X117812699Y-101558139D01*
X117812699Y-101558139D02*
X117800000Y-101507345D01*
X117800000Y-101507345D02*
X117800000Y-101469250D01*
X117800000Y-101469250D02*
X117812699Y-101418456D01*
X117812699Y-101418456D02*
X117825397Y-101393059D01*
X117825397Y-101393059D02*
X117850794Y-101367662D01*
X117850794Y-101367662D02*
X117888889Y-101354964D01*
X117888889Y-101354964D02*
X117914286Y-101354964D01*
X117914286Y-101354964D02*
X117952381Y-101367662D01*
X117952381Y-101367662D02*
X117965080Y-101380361D01*
%TO.C,R_BLD*%
D17*
X99272936Y-117265000D02*
X99727064Y-117265000D01*
X99272936Y-118735000D02*
X99727064Y-118735000D01*
%TO.C,C_VM2*%
D18*
X115825000Y-96400000D02*
X115825000Y-98600000D01*
X115825000Y-98600000D02*
X118362500Y-98600000D01*
X118362500Y-96400000D02*
X115825000Y-96400000D01*
%TO.C,R_SDA*%
D17*
X95772936Y-100865000D02*
X96227064Y-100865000D01*
X95772936Y-102335000D02*
X96227064Y-102335000D01*
%TO.C,R_LED*%
X108822936Y-91015000D02*
X109277064Y-91015000D01*
X108822936Y-92485000D02*
X109277064Y-92485000D01*
%TO.C,D1*%
D18*
X92450000Y-88300000D02*
X92450000Y-91700000D01*
X92450000Y-91700000D02*
X98500000Y-91700000D01*
X98500000Y-88300000D02*
X92450000Y-88300000D01*
%TO.C,C_ISO1*%
X76475000Y-100200000D02*
X76475000Y-102400000D01*
X76475000Y-102400000D02*
X79012500Y-102400000D01*
X79012500Y-100200000D02*
X76475000Y-100200000D01*
%TO.C,C_ISO2*%
X91375000Y-94300000D02*
X91375000Y-96500000D01*
X91375000Y-96500000D02*
X93912500Y-96500000D01*
X93912500Y-94300000D02*
X91375000Y-94300000D01*
%TO.C,J1*%
X77927924Y-74694025D02*
X77927924Y-76166996D01*
X77927924Y-78123050D02*
X77927924Y-80117001D01*
X77999933Y-74545029D02*
X86999915Y-74545029D01*
X86999915Y-74545029D02*
X86999915Y-76163872D01*
X86999915Y-78126175D02*
X86999915Y-80113902D01*
%TO.C,R_VSNS*%
D17*
X79772936Y-87265000D02*
X80227064Y-87265000D01*
X79772936Y-88735000D02*
X80227064Y-88735000D01*
%TO.C,R_SDA2*%
X81072936Y-104465000D02*
X81527064Y-104465000D01*
X81072936Y-105935000D02*
X81527064Y-105935000D01*
%TO.C,U2*%
D18*
X107386051Y-76543800D02*
X107855316Y-76543800D01*
X107386051Y-86856200D02*
X107855316Y-86856200D01*
X107485161Y-76543800D02*
X105696290Y-76543800D01*
X107509850Y-86856200D02*
X105696290Y-86856200D01*
X107855316Y-86856200D02*
X107855316Y-76543800D01*
X111211291Y-86272000D02*
X111218105Y-86220236D01*
X111218105Y-86220236D02*
X111238085Y-86172000D01*
X111218105Y-86323764D02*
X111211291Y-86272000D01*
X111238085Y-86172000D02*
X111269869Y-86130579D01*
X111238085Y-86372000D02*
X111218105Y-86323764D01*
X111269869Y-86130579D02*
X111311290Y-86098795D01*
X111269869Y-86413421D02*
X111238085Y-86372000D01*
X111311290Y-86098795D02*
X111359526Y-86078815D01*
X111311290Y-86445205D02*
X111269869Y-86413421D01*
X111359526Y-86078815D02*
X111411290Y-86072000D01*
X111359526Y-86465185D02*
X111311290Y-86445205D01*
X111411290Y-86072000D02*
X111463054Y-86078815D01*
X111411290Y-86472000D02*
X111359526Y-86465185D01*
X111463054Y-86078815D02*
X111511290Y-86098795D01*
X111463054Y-86465185D02*
X111411290Y-86472000D01*
X111511290Y-86098795D02*
X111552711Y-86130579D01*
X111511290Y-86445205D02*
X111463054Y-86465185D01*
X111552711Y-86130579D02*
X111584495Y-86172000D01*
X111552711Y-86413421D02*
X111511290Y-86445205D01*
X111584495Y-86172000D02*
X111604475Y-86220236D01*
X111584495Y-86372000D02*
X111552711Y-86413421D01*
X111604475Y-86220236D02*
X111611290Y-86272000D01*
X111604475Y-86323764D02*
X111584495Y-86372000D01*
X111611290Y-86272000D02*
X111604475Y-86323764D01*
%TO.C,U5*%
X81249999Y-115100001D02*
X81249999Y-121099989D01*
X81249999Y-121099989D02*
X92749976Y-121099989D01*
X82505038Y-115100001D02*
X81249999Y-115100001D01*
X85045038Y-115100001D02*
X83874962Y-115100001D01*
X87585038Y-115100001D02*
X86414962Y-115100001D01*
X87585038Y-115100001D02*
X87460400Y-115100001D01*
X89829865Y-115100001D02*
X88954962Y-115100001D01*
X91959858Y-115809906D02*
X91964973Y-115771054D01*
X91964973Y-115771054D02*
X91979969Y-115734849D01*
X91964973Y-115848758D02*
X91959858Y-115809906D01*
X91979969Y-115734849D02*
X92003825Y-115703759D01*
X91979969Y-115884963D02*
X91964973Y-115848758D01*
X92003825Y-115703759D02*
X92034915Y-115679903D01*
X92003825Y-115916053D02*
X91979969Y-115884963D01*
X92034915Y-115679903D02*
X92071120Y-115664907D01*
X92034915Y-115939909D02*
X92003825Y-115916053D01*
X92071120Y-115664907D02*
X92109972Y-115659792D01*
X92071120Y-115954905D02*
X92034915Y-115939909D01*
X92109972Y-115659792D02*
X92148824Y-115664907D01*
X92109972Y-115960020D02*
X92071120Y-115954905D01*
X92148824Y-115664907D02*
X92185029Y-115679903D01*
X92148824Y-115954905D02*
X92109972Y-115960020D01*
X92185029Y-115679903D02*
X92216119Y-115703759D01*
X92185029Y-115939909D02*
X92148824Y-115954905D01*
X92216119Y-115703759D02*
X92239975Y-115734849D01*
X92216119Y-115916053D02*
X92185029Y-115939909D01*
X92239975Y-115734849D02*
X92254971Y-115771054D01*
X92239975Y-115884963D02*
X92216119Y-115916053D01*
X92254971Y-115771054D02*
X92260086Y-115809906D01*
X92254971Y-115848758D02*
X92239975Y-115884963D01*
X92260086Y-115809906D02*
X92254971Y-115848758D01*
X92749976Y-115100001D02*
X91790135Y-115100001D01*
X92749976Y-121099989D02*
X92749976Y-115100001D01*
%TO.C,C_DC_IN*%
X111375000Y-88250000D02*
X111375000Y-90450000D01*
X111375000Y-90450000D02*
X113912500Y-90450000D01*
X113912500Y-88250000D02*
X111375000Y-88250000D01*
%TO.C,R_LED2*%
D17*
X77772936Y-109265000D02*
X78227064Y-109265000D01*
X77772936Y-110735000D02*
X78227064Y-110735000D01*
%TO.C,L1*%
D18*
X100500000Y-87500000D02*
X106900000Y-87500000D01*
X100500000Y-93300000D02*
X100500000Y-87500000D01*
X106900000Y-87500000D02*
X106900000Y-93300000D01*
X106900000Y-93300000D02*
X100500000Y-93300000D01*
%TO.C,C_VM*%
X115825000Y-94350000D02*
X115825000Y-96550000D01*
X115825000Y-96550000D02*
X118362500Y-96550000D01*
X118362500Y-94350000D02*
X115825000Y-94350000D01*
%TO.C,LED1*%
X111375000Y-90700000D02*
X111375000Y-92900000D01*
X111375000Y-92900000D02*
X113912500Y-92900000D01*
X113912500Y-90700000D02*
X111375000Y-90700000D01*
%TO.C,R_VDD*%
D17*
X79772936Y-85265000D02*
X80227064Y-85265000D01*
X79772936Y-86735000D02*
X80227064Y-86735000D01*
%TO.C,R_ADDR*%
X100372936Y-103065000D02*
X100827064Y-103065000D01*
X100372936Y-104535000D02*
X100827064Y-104535000D01*
%TO.C,R_SCL*%
X95772936Y-103065000D02*
X96227064Y-103065000D01*
X95772936Y-104535000D02*
X96227064Y-104535000D01*
%TO.C,U4*%
D18*
X105318538Y-107902096D02*
X105323653Y-107863244D01*
X105323653Y-107863244D02*
X105338649Y-107827039D01*
X105323653Y-107940948D02*
X105318538Y-107902096D01*
X105338649Y-107827039D02*
X105362505Y-107795949D01*
X105338649Y-107977153D02*
X105323653Y-107940948D01*
X105362505Y-107795949D02*
X105393595Y-107772093D01*
X105362505Y-108008243D02*
X105338649Y-107977153D01*
X105393595Y-107772093D02*
X105429800Y-107757097D01*
X105393595Y-108032099D02*
X105362505Y-108008243D01*
X105429800Y-107757097D02*
X105468652Y-107751982D01*
X105429800Y-108047095D02*
X105393595Y-108032099D01*
X105468652Y-107751982D02*
X105507504Y-107757097D01*
X105468652Y-108052210D02*
X105429800Y-108047095D01*
X105507504Y-107757097D02*
X105543709Y-107772093D01*
X105507504Y-108047095D02*
X105468652Y-108052210D01*
X105543709Y-107772093D02*
X105574799Y-107795949D01*
X105543709Y-108032099D02*
X105507504Y-108047095D01*
X105574799Y-107795949D02*
X105598655Y-107827039D01*
X105574799Y-108008243D02*
X105543709Y-108032099D01*
X105586000Y-101673000D02*
X105586000Y-107007000D01*
X105586000Y-107007000D02*
X113587000Y-107007000D01*
X105598655Y-107827039D02*
X105613651Y-107863244D01*
X105598655Y-107977153D02*
X105574799Y-108008243D01*
X105613651Y-107863244D02*
X105618766Y-107902096D01*
X105613651Y-107940948D02*
X105598655Y-107977153D01*
X105618766Y-107902096D02*
X105613651Y-107940948D01*
X105924836Y-106158894D02*
X105929951Y-106120042D01*
X105929951Y-106120042D02*
X105944947Y-106083837D01*
X105929951Y-106197746D02*
X105924836Y-106158894D01*
X105944947Y-106083837D02*
X105968803Y-106052747D01*
X105944947Y-106233951D02*
X105929951Y-106197746D01*
X105968803Y-106052747D02*
X105999893Y-106028891D01*
X105968803Y-106265041D02*
X105944947Y-106233951D01*
X105999893Y-106028891D02*
X106036098Y-106013895D01*
X105999893Y-106288897D02*
X105968803Y-106265041D01*
X106036098Y-106013895D02*
X106074950Y-106008780D01*
X106036098Y-106303893D02*
X105999893Y-106288897D01*
X106074950Y-106008780D02*
X106113802Y-106013895D01*
X106074950Y-106309008D02*
X106036098Y-106303893D01*
X106113802Y-106013895D02*
X106150007Y-106028891D01*
X106113802Y-106303893D02*
X106074950Y-106309008D01*
X106150007Y-106028891D02*
X106181097Y-106052747D01*
X106150007Y-106288897D02*
X106113802Y-106303893D01*
X106181097Y-106052747D02*
X106204953Y-106083837D01*
X106181097Y-106265041D02*
X106150007Y-106288897D01*
X106204953Y-106083837D02*
X106219949Y-106120042D01*
X106204953Y-106233951D02*
X106181097Y-106265041D01*
X106219949Y-106120042D02*
X106225064Y-106158894D01*
X106219949Y-106197746D02*
X106204953Y-106233951D01*
X106225064Y-106158894D02*
X106219949Y-106197746D01*
X113587000Y-101673000D02*
X105586000Y-101673000D01*
X113587000Y-107007000D02*
X113587000Y-101673000D01*
%TO.C,U3*%
X96776051Y-111681200D02*
X96779461Y-111655298D01*
X96779461Y-111655298D02*
X96789459Y-111631162D01*
X96779461Y-111707102D02*
X96776051Y-111681200D01*
X96789459Y-111631162D02*
X96805363Y-111610436D01*
X96789459Y-111731238D02*
X96779461Y-111707102D01*
X96797387Y-108163478D02*
X96797387Y-109001678D01*
X96797387Y-109027078D02*
X97004472Y-109129743D01*
X96797387Y-110424078D02*
X96797387Y-111262278D01*
X96805363Y-111610436D02*
X96826089Y-111594532D01*
X96805363Y-111751964D02*
X96789459Y-111731238D01*
X96821517Y-108163478D02*
X99921587Y-108163478D01*
X96821517Y-111262278D02*
X99921587Y-111262278D01*
X96826089Y-111594532D02*
X96850225Y-111584534D01*
X96826089Y-111767868D02*
X96805363Y-111751964D01*
X96850225Y-111584534D02*
X96876127Y-111581124D01*
X96850225Y-111777866D02*
X96826089Y-111767868D01*
X96876127Y-111581124D02*
X96902029Y-111584534D01*
X96876127Y-111781276D02*
X96850225Y-111777866D01*
X96902029Y-111584534D02*
X96926165Y-111594532D01*
X96902029Y-111777866D02*
X96876127Y-111781276D01*
X96926165Y-111594532D02*
X96946891Y-111610436D01*
X96926165Y-111767868D02*
X96902029Y-111777866D01*
X96946891Y-111610436D02*
X96962795Y-111631162D01*
X96946891Y-111751964D02*
X96926165Y-111767868D01*
X96962795Y-111631162D02*
X96972793Y-111655298D01*
X96962795Y-111731238D02*
X96946891Y-111751964D01*
X96972793Y-111655298D02*
X96976203Y-111681200D01*
X96972793Y-111707102D02*
X96962795Y-111731238D01*
X96976203Y-111681200D02*
X96972793Y-111707102D01*
X97004472Y-109129743D02*
X97169188Y-109291895D01*
X97004472Y-110321412D02*
X96797387Y-110424078D01*
X97169188Y-109291895D02*
X97275091Y-109497343D01*
X97169188Y-110159261D02*
X97004472Y-110321412D01*
X97275091Y-109497343D02*
X97311607Y-109725578D01*
X97275091Y-109953812D02*
X97169188Y-110159261D01*
X97311607Y-109725578D02*
X97275091Y-109953812D01*
X99921587Y-111263548D02*
X99921587Y-108163478D01*
%TO.C,C_DC_OUT*%
X91375000Y-96900000D02*
X91375000Y-99100000D01*
X91375000Y-99100000D02*
X93912500Y-99100000D01*
X93912500Y-96900000D02*
X91375000Y-96900000D01*
%TO.C,R_SCL2*%
D17*
X81072936Y-106665000D02*
X81527064Y-106665000D01*
X81072936Y-108135000D02*
X81527064Y-108135000D01*
%TO.C,U1*%
D18*
X84599929Y-91150042D02*
X89599919Y-91150042D01*
X84599929Y-92280012D02*
X84599929Y-91150042D01*
X84599929Y-92519991D02*
X84599929Y-92280012D01*
X84599929Y-93580035D02*
X84699954Y-93580035D01*
X84599929Y-95050009D02*
X84599929Y-93580035D01*
X84599929Y-95050009D02*
X89599919Y-95050009D01*
X84639908Y-92559996D02*
X84599929Y-92519991D01*
X84699929Y-93580009D02*
X84939933Y-93515700D01*
X84853947Y-92588000D02*
X84639934Y-92559996D01*
X84895788Y-94360221D02*
X84905473Y-94286658D01*
X84905473Y-94286658D02*
X84933867Y-94218108D01*
X84905473Y-94433784D02*
X84895788Y-94360221D01*
X84933867Y-94218108D02*
X84979036Y-94159243D01*
X84933867Y-94502334D02*
X84905473Y-94433784D01*
X84939933Y-93515700D02*
X85115629Y-93340005D01*
X84979036Y-94159243D02*
X85037901Y-94114074D01*
X84979036Y-94561199D02*
X84933867Y-94502334D01*
X85036013Y-92703921D02*
X84853947Y-92588000D01*
X85037901Y-94114074D02*
X85106451Y-94085680D01*
X85037901Y-94606368D02*
X84979036Y-94561199D01*
X85106451Y-94085680D02*
X85180014Y-94075995D01*
X85106451Y-94634762D02*
X85037901Y-94606368D01*
X85115629Y-93340005D02*
X85179938Y-93100000D01*
X85151934Y-92885987D02*
X85036013Y-92703921D01*
X85179938Y-93100000D02*
X85151934Y-92885987D01*
X85180014Y-94075995D02*
X85253577Y-94085680D01*
X85180014Y-94644447D02*
X85106451Y-94634762D01*
X85253577Y-94085680D02*
X85322127Y-94114074D01*
X85253577Y-94634762D02*
X85180014Y-94644447D01*
X85322127Y-94114074D02*
X85380992Y-94159243D01*
X85322127Y-94606368D02*
X85253577Y-94634762D01*
X85380992Y-94159243D02*
X85426161Y-94218108D01*
X85380992Y-94561199D02*
X85322127Y-94606368D01*
X85426161Y-94218108D02*
X85454555Y-94286658D01*
X85426161Y-94502334D02*
X85380992Y-94561199D01*
X85454555Y-94286658D02*
X85464240Y-94360221D01*
X85454555Y-94433784D02*
X85426161Y-94502334D01*
X85464240Y-94360221D02*
X85454555Y-94433784D01*
X89599919Y-95050009D02*
X89599919Y-91150042D01*
%TO.C,LED2*%
X76375000Y-110900000D02*
X76375000Y-113100000D01*
X76375000Y-113100000D02*
X78912500Y-113100000D01*
X78912500Y-110900000D02*
X76375000Y-110900000D01*
%TO.C,R_CFG1*%
D17*
X79772936Y-91515000D02*
X80227064Y-91515000D01*
X79772936Y-92985000D02*
X80227064Y-92985000D01*
%TO.C,C_VDD*%
D18*
X78375000Y-89000000D02*
X78375000Y-91200000D01*
X78375000Y-91200000D02*
X80912500Y-91200000D01*
X80912500Y-89000000D02*
X78375000Y-89000000D01*
%TO.C,C_ADS*%
X98975000Y-100500000D02*
X98975000Y-102700000D01*
X98975000Y-102700000D02*
X101512500Y-102700000D01*
X101512500Y-100500000D02*
X98975000Y-100500000D01*
%TO.C,U6*%
X83673792Y-105978591D02*
X88726208Y-105978591D01*
X83673792Y-109021409D02*
X83673792Y-105978591D01*
X87954886Y-106730888D02*
X87960001Y-106692036D01*
X87960001Y-106692036D02*
X87974997Y-106655831D01*
X87960001Y-106769740D02*
X87954886Y-106730888D01*
X87974997Y-106655831D02*
X87998853Y-106624741D01*
X87974997Y-106805945D02*
X87960001Y-106769740D01*
X87998853Y-106624741D02*
X88029943Y-106600885D01*
X87998853Y-106837035D02*
X87974997Y-106805945D01*
X88029943Y-106600885D02*
X88066148Y-106585889D01*
X88029943Y-106860891D02*
X87998853Y-106837035D01*
X88066148Y-106585889D02*
X88105000Y-106580774D01*
X88066148Y-106875887D02*
X88029943Y-106860891D01*
X88105000Y-106580774D02*
X88143852Y-106585889D01*
X88105000Y-106881002D02*
X88066148Y-106875887D01*
X88143852Y-106585889D02*
X88180057Y-106600885D01*
X88143852Y-106875887D02*
X88105000Y-106881002D01*
X88180057Y-106600885D02*
X88211147Y-106624741D01*
X88180057Y-106860891D02*
X88143852Y-106875887D01*
X88211147Y-106624741D02*
X88235003Y-106655831D01*
X88211147Y-106837035D02*
X88180057Y-106860891D01*
X88235003Y-106655831D02*
X88249999Y-106692036D01*
X88235003Y-106805945D02*
X88211147Y-106837035D01*
X88249999Y-106692036D02*
X88255114Y-106730888D01*
X88249999Y-106769740D02*
X88235003Y-106805945D01*
X88255114Y-106730888D02*
X88249999Y-106769740D01*
X88701392Y-104727590D02*
X88706507Y-104688738D01*
X88706507Y-104688738D02*
X88721503Y-104652533D01*
X88706507Y-104766442D02*
X88701392Y-104727590D01*
X88721503Y-104652533D02*
X88745359Y-104621443D01*
X88721503Y-104802647D02*
X88706507Y-104766442D01*
X88726208Y-105978591D02*
X88726208Y-109021409D01*
X88726208Y-109021409D02*
X83673792Y-109021409D01*
X88745359Y-104621443D02*
X88776449Y-104597587D01*
X88745359Y-104833737D02*
X88721503Y-104802647D01*
X88776449Y-104597587D02*
X88812654Y-104582591D01*
X88776449Y-104857593D02*
X88745359Y-104833737D01*
X88812654Y-104582591D02*
X88851506Y-104577476D01*
X88812654Y-104872589D02*
X88776449Y-104857593D01*
X88851506Y-104577476D02*
X88890358Y-104582591D01*
X88851506Y-104877704D02*
X88812654Y-104872589D01*
X88890358Y-104582591D02*
X88926563Y-104597587D01*
X88890358Y-104872589D02*
X88851506Y-104877704D01*
X88926563Y-104597587D02*
X88957653Y-104621443D01*
X88926563Y-104857593D02*
X88890358Y-104872589D01*
X88957653Y-104621443D02*
X88981509Y-104652533D01*
X88957653Y-104833737D02*
X88926563Y-104857593D01*
X88981509Y-104652533D02*
X88996505Y-104688738D01*
X88981509Y-104802647D02*
X88957653Y-104833737D01*
X88996505Y-104688738D02*
X89001620Y-104727590D01*
X88996505Y-104766442D02*
X88981509Y-104802647D01*
X89001620Y-104727590D02*
X88996505Y-104766442D01*
%TO.C,C_VCC*%
X115775000Y-98800000D02*
X115775000Y-101000000D01*
X115775000Y-101000000D02*
X118312500Y-101000000D01*
X118312500Y-98800000D02*
X115775000Y-98800000D01*
D19*
%TO.C,G\u002A\u002A\u002A*%
X90075757Y-85221343D02*
X90120660Y-85223696D01*
X90157609Y-85228032D01*
X90179449Y-85234117D01*
X90181411Y-85235559D01*
X90184825Y-85245175D01*
X90187717Y-85267596D01*
X90190119Y-85304243D01*
X90192066Y-85356538D01*
X90193592Y-85425904D01*
X90194729Y-85513762D01*
X90195512Y-85621533D01*
X90195974Y-85750640D01*
X90196127Y-85856639D01*
X90196508Y-86037437D01*
X90197414Y-86196115D01*
X90198921Y-86334325D01*
X90201105Y-86453716D01*
X90204040Y-86555937D01*
X90207803Y-86642641D01*
X90212470Y-86715475D01*
X90218115Y-86776092D01*
X90224814Y-86826139D01*
X90232643Y-86867269D01*
X90241677Y-86901131D01*
X90244321Y-86909207D01*
X90292847Y-87019145D01*
X90357161Y-87111394D01*
X90436911Y-87185721D01*
X90531744Y-87241889D01*
X90641306Y-87279665D01*
X90765244Y-87298811D01*
X90833446Y-87301327D01*
X90900633Y-87299940D01*
X90953488Y-87294740D01*
X91001314Y-87284441D01*
X91038285Y-87273002D01*
X91141216Y-87230586D01*
X91227247Y-87177451D01*
X91299123Y-87110790D01*
X91359589Y-87027794D01*
X91411388Y-86925657D01*
X91434498Y-86867603D01*
X91439779Y-86852919D01*
X91444314Y-86838297D01*
X91448171Y-86821872D01*
X91451418Y-86801784D01*
X91454120Y-86776168D01*
X91456347Y-86743163D01*
X91458163Y-86700904D01*
X91459637Y-86647531D01*
X91460835Y-86581179D01*
X91461825Y-86499985D01*
X91462674Y-86402088D01*
X91463448Y-86285625D01*
X91464215Y-86148731D01*
X91464864Y-86024091D01*
X91465957Y-85846036D01*
X91467289Y-85691435D01*
X91468865Y-85559971D01*
X91470692Y-85451325D01*
X91472777Y-85365180D01*
X91475126Y-85301217D01*
X91477747Y-85259119D01*
X91480646Y-85238568D01*
X91481536Y-85236597D01*
X91499191Y-85229283D01*
X91533493Y-85224260D01*
X91577418Y-85221641D01*
X91623938Y-85221542D01*
X91666027Y-85224078D01*
X91696662Y-85229363D01*
X91705286Y-85232943D01*
X91708899Y-85237546D01*
X91711996Y-85247553D01*
X91714615Y-85264631D01*
X91716792Y-85290447D01*
X91718567Y-85326669D01*
X91719975Y-85374965D01*
X91721054Y-85437002D01*
X91721842Y-85514449D01*
X91722377Y-85608971D01*
X91722695Y-85722238D01*
X91722835Y-85855917D01*
X91722833Y-86011675D01*
X91722832Y-86014312D01*
X91722760Y-86168622D01*
X91722625Y-86301092D01*
X91722368Y-86413654D01*
X91721930Y-86508241D01*
X91721249Y-86586786D01*
X91720266Y-86651221D01*
X91718922Y-86703479D01*
X91717156Y-86745494D01*
X91714909Y-86779196D01*
X91712120Y-86806520D01*
X91708730Y-86829399D01*
X91704678Y-86849765D01*
X91699906Y-86869550D01*
X91695846Y-86885063D01*
X91677056Y-86945724D01*
X91651814Y-87013986D01*
X91625078Y-87076599D01*
X91620807Y-87085592D01*
X91560060Y-87186223D01*
X91481158Y-87278158D01*
X91388335Y-87357970D01*
X91285824Y-87422231D01*
X91177859Y-87467513D01*
X91134385Y-87479476D01*
X91090831Y-87490049D01*
X91051294Y-87500360D01*
X91034885Y-87505023D01*
X91005362Y-87509715D01*
X90957558Y-87512638D01*
X90896892Y-87513889D01*
X90828782Y-87513565D01*
X90758648Y-87511763D01*
X90691908Y-87508581D01*
X90633982Y-87504116D01*
X90590288Y-87498465D01*
X90582357Y-87496907D01*
X90491039Y-87471535D01*
X90399732Y-87436200D01*
X90313568Y-87393618D01*
X90237679Y-87346503D01*
X90177194Y-87297571D01*
X90150262Y-87268254D01*
X90068694Y-87145582D01*
X90006802Y-87010139D01*
X89965296Y-86863483D01*
X89964425Y-86859190D01*
X89960616Y-86837040D01*
X89957354Y-86810210D01*
X89954599Y-86776847D01*
X89952312Y-86735097D01*
X89950453Y-86683107D01*
X89948982Y-86619026D01*
X89947859Y-86540998D01*
X89947045Y-86447173D01*
X89946501Y-86335695D01*
X89946186Y-86204713D01*
X89946060Y-86052373D01*
X89946054Y-86001647D01*
X89946098Y-85846799D01*
X89946259Y-85714034D01*
X89946578Y-85601664D01*
X89947094Y-85507999D01*
X89947851Y-85431350D01*
X89948888Y-85370028D01*
X89950247Y-85322343D01*
X89951969Y-85286607D01*
X89954095Y-85261129D01*
X89956665Y-85244221D01*
X89959723Y-85234193D01*
X89963307Y-85229355D01*
X89964856Y-85228510D01*
X89990701Y-85223518D01*
X90030053Y-85221206D01*
X90075757Y-85221343D01*
G36*
X90075757Y-85221343D02*
G01*
X90120660Y-85223696D01*
X90157609Y-85228032D01*
X90179449Y-85234117D01*
X90181411Y-85235559D01*
X90184825Y-85245175D01*
X90187717Y-85267596D01*
X90190119Y-85304243D01*
X90192066Y-85356538D01*
X90193592Y-85425904D01*
X90194729Y-85513762D01*
X90195512Y-85621533D01*
X90195974Y-85750640D01*
X90196127Y-85856639D01*
X90196508Y-86037437D01*
X90197414Y-86196115D01*
X90198921Y-86334325D01*
X90201105Y-86453716D01*
X90204040Y-86555937D01*
X90207803Y-86642641D01*
X90212470Y-86715475D01*
X90218115Y-86776092D01*
X90224814Y-86826139D01*
X90232643Y-86867269D01*
X90241677Y-86901131D01*
X90244321Y-86909207D01*
X90292847Y-87019145D01*
X90357161Y-87111394D01*
X90436911Y-87185721D01*
X90531744Y-87241889D01*
X90641306Y-87279665D01*
X90765244Y-87298811D01*
X90833446Y-87301327D01*
X90900633Y-87299940D01*
X90953488Y-87294740D01*
X91001314Y-87284441D01*
X91038285Y-87273002D01*
X91141216Y-87230586D01*
X91227247Y-87177451D01*
X91299123Y-87110790D01*
X91359589Y-87027794D01*
X91411388Y-86925657D01*
X91434498Y-86867603D01*
X91439779Y-86852919D01*
X91444314Y-86838297D01*
X91448171Y-86821872D01*
X91451418Y-86801784D01*
X91454120Y-86776168D01*
X91456347Y-86743163D01*
X91458163Y-86700904D01*
X91459637Y-86647531D01*
X91460835Y-86581179D01*
X91461825Y-86499985D01*
X91462674Y-86402088D01*
X91463448Y-86285625D01*
X91464215Y-86148731D01*
X91464864Y-86024091D01*
X91465957Y-85846036D01*
X91467289Y-85691435D01*
X91468865Y-85559971D01*
X91470692Y-85451325D01*
X91472777Y-85365180D01*
X91475126Y-85301217D01*
X91477747Y-85259119D01*
X91480646Y-85238568D01*
X91481536Y-85236597D01*
X91499191Y-85229283D01*
X91533493Y-85224260D01*
X91577418Y-85221641D01*
X91623938Y-85221542D01*
X91666027Y-85224078D01*
X91696662Y-85229363D01*
X91705286Y-85232943D01*
X91708899Y-85237546D01*
X91711996Y-85247553D01*
X91714615Y-85264631D01*
X91716792Y-85290447D01*
X91718567Y-85326669D01*
X91719975Y-85374965D01*
X91721054Y-85437002D01*
X91721842Y-85514449D01*
X91722377Y-85608971D01*
X91722695Y-85722238D01*
X91722835Y-85855917D01*
X91722833Y-86011675D01*
X91722832Y-86014312D01*
X91722760Y-86168622D01*
X91722625Y-86301092D01*
X91722368Y-86413654D01*
X91721930Y-86508241D01*
X91721249Y-86586786D01*
X91720266Y-86651221D01*
X91718922Y-86703479D01*
X91717156Y-86745494D01*
X91714909Y-86779196D01*
X91712120Y-86806520D01*
X91708730Y-86829399D01*
X91704678Y-86849765D01*
X91699906Y-86869550D01*
X91695846Y-86885063D01*
X91677056Y-86945724D01*
X91651814Y-87013986D01*
X91625078Y-87076599D01*
X91620807Y-87085592D01*
X91560060Y-87186223D01*
X91481158Y-87278158D01*
X91388335Y-87357970D01*
X91285824Y-87422231D01*
X91177859Y-87467513D01*
X91134385Y-87479476D01*
X91090831Y-87490049D01*
X91051294Y-87500360D01*
X91034885Y-87505023D01*
X91005362Y-87509715D01*
X90957558Y-87512638D01*
X90896892Y-87513889D01*
X90828782Y-87513565D01*
X90758648Y-87511763D01*
X90691908Y-87508581D01*
X90633982Y-87504116D01*
X90590288Y-87498465D01*
X90582357Y-87496907D01*
X90491039Y-87471535D01*
X90399732Y-87436200D01*
X90313568Y-87393618D01*
X90237679Y-87346503D01*
X90177194Y-87297571D01*
X90150262Y-87268254D01*
X90068694Y-87145582D01*
X90006802Y-87010139D01*
X89965296Y-86863483D01*
X89964425Y-86859190D01*
X89960616Y-86837040D01*
X89957354Y-86810210D01*
X89954599Y-86776847D01*
X89952312Y-86735097D01*
X89950453Y-86683107D01*
X89948982Y-86619026D01*
X89947859Y-86540998D01*
X89947045Y-86447173D01*
X89946501Y-86335695D01*
X89946186Y-86204713D01*
X89946060Y-86052373D01*
X89946054Y-86001647D01*
X89946098Y-85846799D01*
X89946259Y-85714034D01*
X89946578Y-85601664D01*
X89947094Y-85507999D01*
X89947851Y-85431350D01*
X89948888Y-85370028D01*
X89950247Y-85322343D01*
X89951969Y-85286607D01*
X89954095Y-85261129D01*
X89956665Y-85244221D01*
X89959723Y-85234193D01*
X89963307Y-85229355D01*
X89964856Y-85228510D01*
X89990701Y-85223518D01*
X90030053Y-85221206D01*
X90075757Y-85221343D01*
G37*
X88253001Y-85223431D02*
X88355592Y-85224384D01*
X88475635Y-85225686D01*
X88574455Y-85226955D01*
X88654602Y-85228334D01*
X88718623Y-85229965D01*
X88769069Y-85231990D01*
X88808489Y-85234553D01*
X88839433Y-85237795D01*
X88864449Y-85241860D01*
X88886087Y-85246889D01*
X88906897Y-85253026D01*
X88915074Y-85255664D01*
X89014304Y-85296496D01*
X89109070Y-85351236D01*
X89194603Y-85416236D01*
X89266131Y-85487851D01*
X89318885Y-85562433D01*
X89320728Y-85565775D01*
X89362941Y-85655256D01*
X89390964Y-85745244D01*
X89406475Y-85842926D01*
X89411153Y-85953070D01*
X89408384Y-86047055D01*
X89398966Y-86124886D01*
X89381230Y-86193653D01*
X89353509Y-86260446D01*
X89327198Y-86309950D01*
X89268791Y-86396793D01*
X89199465Y-86468945D01*
X89115254Y-86529747D01*
X89012193Y-86582545D01*
X88995086Y-86589887D01*
X88942555Y-86610108D01*
X88889401Y-86626188D01*
X88832116Y-86638552D01*
X88767189Y-86647624D01*
X88691108Y-86653827D01*
X88600364Y-86657584D01*
X88491446Y-86659321D01*
X88418019Y-86659570D01*
X88316547Y-86659948D01*
X88237107Y-86661124D01*
X88177965Y-86663178D01*
X88137391Y-86666187D01*
X88113653Y-86670231D01*
X88105993Y-86673850D01*
X88101726Y-86685151D01*
X88098302Y-86710744D01*
X88095663Y-86752295D01*
X88093748Y-86811468D01*
X88092498Y-86889929D01*
X88091853Y-86989342D01*
X88091729Y-87071206D01*
X88091605Y-87178511D01*
X88091156Y-87264502D01*
X88090269Y-87331634D01*
X88088828Y-87382364D01*
X88086720Y-87419151D01*
X88083831Y-87444450D01*
X88080045Y-87460718D01*
X88075251Y-87470414D01*
X88073050Y-87472976D01*
X88051313Y-87482624D01*
X88013741Y-87488943D01*
X87968065Y-87491717D01*
X87922019Y-87490732D01*
X87883334Y-87485773D01*
X87862910Y-87478816D01*
X87859390Y-87475736D01*
X87856290Y-87469898D01*
X87853584Y-87459874D01*
X87851243Y-87444234D01*
X87849243Y-87421550D01*
X87847556Y-87390395D01*
X87846157Y-87349338D01*
X87845018Y-87296951D01*
X87844113Y-87231806D01*
X87843416Y-87152474D01*
X87842900Y-87057526D01*
X87842539Y-86945534D01*
X87842306Y-86815069D01*
X87842174Y-86664703D01*
X87842117Y-86493006D01*
X87842108Y-86357340D01*
X87842148Y-86167155D01*
X87842280Y-85999373D01*
X87842527Y-85852621D01*
X87842887Y-85732472D01*
X88095122Y-85732472D01*
X88095284Y-85826891D01*
X88095792Y-85928825D01*
X88095939Y-85950280D01*
X88096924Y-86070068D01*
X88098046Y-86168176D01*
X88099396Y-86246699D01*
X88101064Y-86307730D01*
X88103141Y-86353363D01*
X88105716Y-86385692D01*
X88108879Y-86406811D01*
X88112722Y-86418814D01*
X88116297Y-86423228D01*
X88133828Y-86426892D01*
X88171323Y-86429503D01*
X88225002Y-86431127D01*
X88291082Y-86431831D01*
X88365781Y-86431679D01*
X88445318Y-86430740D01*
X88525910Y-86429078D01*
X88603776Y-86426759D01*
X88675133Y-86423852D01*
X88736200Y-86420420D01*
X88783195Y-86416530D01*
X88812336Y-86412249D01*
X88816818Y-86410976D01*
X88920268Y-86363226D01*
X89005809Y-86300874D01*
X89072670Y-86224709D01*
X89120083Y-86135518D01*
X89137104Y-86083081D01*
X89149200Y-86002632D01*
X89148411Y-85911788D01*
X89135709Y-85819472D01*
X89112066Y-85734606D01*
X89094699Y-85694230D01*
X89049230Y-85620988D01*
X88992395Y-85562220D01*
X88920447Y-85514958D01*
X88829639Y-85476231D01*
X88812459Y-85470414D01*
X88788669Y-85463306D01*
X88763655Y-85457794D01*
X88734109Y-85453681D01*
X88696719Y-85450766D01*
X88648177Y-85448853D01*
X88585171Y-85447745D01*
X88504393Y-85447242D01*
X88423394Y-85447143D01*
X88327810Y-85447246D01*
X88253320Y-85447669D01*
X88197247Y-85448583D01*
X88156913Y-85450162D01*
X88129638Y-85452576D01*
X88112745Y-85455996D01*
X88103556Y-85460595D01*
X88099393Y-85466545D01*
X88098917Y-85467945D01*
X88097600Y-85484144D01*
X88096545Y-85521405D01*
X88095769Y-85577020D01*
X88095289Y-85648279D01*
X88095122Y-85732472D01*
X87842887Y-85732472D01*
X87842908Y-85725529D01*
X87843446Y-85616725D01*
X87844160Y-85524839D01*
X87845072Y-85448499D01*
X87846204Y-85386334D01*
X87847575Y-85336972D01*
X87849208Y-85299043D01*
X87851123Y-85271175D01*
X87853340Y-85251998D01*
X87855882Y-85240139D01*
X87858769Y-85234228D01*
X87859322Y-85233694D01*
X87869975Y-85229954D01*
X87893034Y-85227024D01*
X87930174Y-85224873D01*
X87983067Y-85223470D01*
X88053387Y-85222783D01*
X88142807Y-85222780D01*
X88253001Y-85223431D01*
G36*
X88253001Y-85223431D02*
G01*
X88355592Y-85224384D01*
X88475635Y-85225686D01*
X88574455Y-85226955D01*
X88654602Y-85228334D01*
X88718623Y-85229965D01*
X88769069Y-85231990D01*
X88808489Y-85234553D01*
X88839433Y-85237795D01*
X88864449Y-85241860D01*
X88886087Y-85246889D01*
X88906897Y-85253026D01*
X88915074Y-85255664D01*
X89014304Y-85296496D01*
X89109070Y-85351236D01*
X89194603Y-85416236D01*
X89266131Y-85487851D01*
X89318885Y-85562433D01*
X89320728Y-85565775D01*
X89362941Y-85655256D01*
X89390964Y-85745244D01*
X89406475Y-85842926D01*
X89411153Y-85953070D01*
X89408384Y-86047055D01*
X89398966Y-86124886D01*
X89381230Y-86193653D01*
X89353509Y-86260446D01*
X89327198Y-86309950D01*
X89268791Y-86396793D01*
X89199465Y-86468945D01*
X89115254Y-86529747D01*
X89012193Y-86582545D01*
X88995086Y-86589887D01*
X88942555Y-86610108D01*
X88889401Y-86626188D01*
X88832116Y-86638552D01*
X88767189Y-86647624D01*
X88691108Y-86653827D01*
X88600364Y-86657584D01*
X88491446Y-86659321D01*
X88418019Y-86659570D01*
X88316547Y-86659948D01*
X88237107Y-86661124D01*
X88177965Y-86663178D01*
X88137391Y-86666187D01*
X88113653Y-86670231D01*
X88105993Y-86673850D01*
X88101726Y-86685151D01*
X88098302Y-86710744D01*
X88095663Y-86752295D01*
X88093748Y-86811468D01*
X88092498Y-86889929D01*
X88091853Y-86989342D01*
X88091729Y-87071206D01*
X88091605Y-87178511D01*
X88091156Y-87264502D01*
X88090269Y-87331634D01*
X88088828Y-87382364D01*
X88086720Y-87419151D01*
X88083831Y-87444450D01*
X88080045Y-87460718D01*
X88075251Y-87470414D01*
X88073050Y-87472976D01*
X88051313Y-87482624D01*
X88013741Y-87488943D01*
X87968065Y-87491717D01*
X87922019Y-87490732D01*
X87883334Y-87485773D01*
X87862910Y-87478816D01*
X87859390Y-87475736D01*
X87856290Y-87469898D01*
X87853584Y-87459874D01*
X87851243Y-87444234D01*
X87849243Y-87421550D01*
X87847556Y-87390395D01*
X87846157Y-87349338D01*
X87845018Y-87296951D01*
X87844113Y-87231806D01*
X87843416Y-87152474D01*
X87842900Y-87057526D01*
X87842539Y-86945534D01*
X87842306Y-86815069D01*
X87842174Y-86664703D01*
X87842117Y-86493006D01*
X87842108Y-86357340D01*
X87842148Y-86167155D01*
X87842280Y-85999373D01*
X87842527Y-85852621D01*
X87842887Y-85732472D01*
X88095122Y-85732472D01*
X88095284Y-85826891D01*
X88095792Y-85928825D01*
X88095939Y-85950280D01*
X88096924Y-86070068D01*
X88098046Y-86168176D01*
X88099396Y-86246699D01*
X88101064Y-86307730D01*
X88103141Y-86353363D01*
X88105716Y-86385692D01*
X88108879Y-86406811D01*
X88112722Y-86418814D01*
X88116297Y-86423228D01*
X88133828Y-86426892D01*
X88171323Y-86429503D01*
X88225002Y-86431127D01*
X88291082Y-86431831D01*
X88365781Y-86431679D01*
X88445318Y-86430740D01*
X88525910Y-86429078D01*
X88603776Y-86426759D01*
X88675133Y-86423852D01*
X88736200Y-86420420D01*
X88783195Y-86416530D01*
X88812336Y-86412249D01*
X88816818Y-86410976D01*
X88920268Y-86363226D01*
X89005809Y-86300874D01*
X89072670Y-86224709D01*
X89120083Y-86135518D01*
X89137104Y-86083081D01*
X89149200Y-86002632D01*
X89148411Y-85911788D01*
X89135709Y-85819472D01*
X89112066Y-85734606D01*
X89094699Y-85694230D01*
X89049230Y-85620988D01*
X88992395Y-85562220D01*
X88920447Y-85514958D01*
X88829639Y-85476231D01*
X88812459Y-85470414D01*
X88788669Y-85463306D01*
X88763655Y-85457794D01*
X88734109Y-85453681D01*
X88696719Y-85450766D01*
X88648177Y-85448853D01*
X88585171Y-85447745D01*
X88504393Y-85447242D01*
X88423394Y-85447143D01*
X88327810Y-85447246D01*
X88253320Y-85447669D01*
X88197247Y-85448583D01*
X88156913Y-85450162D01*
X88129638Y-85452576D01*
X88112745Y-85455996D01*
X88103556Y-85460595D01*
X88099393Y-85466545D01*
X88098917Y-85467945D01*
X88097600Y-85484144D01*
X88096545Y-85521405D01*
X88095769Y-85577020D01*
X88095289Y-85648279D01*
X88095122Y-85732472D01*
X87842887Y-85732472D01*
X87842908Y-85725529D01*
X87843446Y-85616725D01*
X87844160Y-85524839D01*
X87845072Y-85448499D01*
X87846204Y-85386334D01*
X87847575Y-85336972D01*
X87849208Y-85299043D01*
X87851123Y-85271175D01*
X87853340Y-85251998D01*
X87855882Y-85240139D01*
X87858769Y-85234228D01*
X87859322Y-85233694D01*
X87869975Y-85229954D01*
X87893034Y-85227024D01*
X87930174Y-85224873D01*
X87983067Y-85223470D01*
X88053387Y-85222783D01*
X88142807Y-85222780D01*
X88253001Y-85223431D01*
G37*
X92895810Y-85224354D02*
X92971219Y-85224830D01*
X93097259Y-85225862D01*
X93201904Y-85226900D01*
X93287533Y-85228060D01*
X93356523Y-85229454D01*
X93411253Y-85231197D01*
X93454102Y-85233403D01*
X93487447Y-85236186D01*
X93513667Y-85239662D01*
X93535140Y-85243943D01*
X93554244Y-85249145D01*
X93567719Y-85253474D01*
X93686825Y-85303997D01*
X93788107Y-85370155D01*
X93872130Y-85452517D01*
X93939461Y-85551652D01*
X93990666Y-85668130D01*
X93996096Y-85684352D01*
X94018414Y-85777784D01*
X94029441Y-85880247D01*
X94029061Y-85983653D01*
X94017159Y-86079912D01*
X94002587Y-86136661D01*
X93954002Y-86251051D01*
X93889005Y-86349398D01*
X93808547Y-86430566D01*
X93713581Y-86493424D01*
X93695143Y-86502647D01*
X93643666Y-86527404D01*
X93609944Y-86544568D01*
X93590263Y-86556749D01*
X93580907Y-86566559D01*
X93578160Y-86576609D01*
X93578169Y-86584849D01*
X93584538Y-86605513D01*
X93600774Y-86639513D01*
X93623682Y-86680323D01*
X93629736Y-86690272D01*
X93653834Y-86729613D01*
X93686039Y-86782712D01*
X93724576Y-86846600D01*
X93767673Y-86918307D01*
X93813558Y-86994862D01*
X93860458Y-87073297D01*
X93906599Y-87150642D01*
X93950209Y-87223926D01*
X93989516Y-87290180D01*
X94022747Y-87346434D01*
X94048128Y-87389718D01*
X94063888Y-87417062D01*
X94067562Y-87423746D01*
X94078171Y-87450855D01*
X94075532Y-87469901D01*
X94057246Y-87482170D01*
X94020910Y-87488945D01*
X93964122Y-87491513D01*
X93940601Y-87491655D01*
X93881710Y-87490776D01*
X93840541Y-87485869D01*
X93811049Y-87473532D01*
X93787193Y-87450361D01*
X93762929Y-87412953D01*
X93745353Y-87381703D01*
X93710176Y-87318220D01*
X93679562Y-87263382D01*
X93649685Y-87210417D01*
X93616720Y-87152555D01*
X93576840Y-87083024D01*
X93562331Y-87057791D01*
X93529289Y-87000317D01*
X93498901Y-86947401D01*
X93473888Y-86903786D01*
X93456971Y-86874214D01*
X93453208Y-86867603D01*
X93422869Y-86813918D01*
X93392473Y-86759755D01*
X93364828Y-86710159D01*
X93342746Y-86670175D01*
X93329036Y-86644848D01*
X93327586Y-86642063D01*
X93318063Y-86626728D01*
X93305264Y-86614895D01*
X93286342Y-86606197D01*
X93258449Y-86600270D01*
X93218740Y-86596747D01*
X93164367Y-86595262D01*
X93092483Y-86595449D01*
X93000242Y-86596942D01*
X92979722Y-86597352D01*
X92895789Y-86599539D01*
X92821505Y-86602399D01*
X92760014Y-86605744D01*
X92714466Y-86609389D01*
X92688006Y-86613147D01*
X92682967Y-86614968D01*
X92678807Y-86623882D01*
X92675435Y-86644555D01*
X92672787Y-86678845D01*
X92670798Y-86728610D01*
X92669405Y-86795707D01*
X92668543Y-86881995D01*
X92668150Y-86989332D01*
X92668108Y-87046941D01*
X92668295Y-87161824D01*
X92668384Y-87255161D01*
X92667670Y-87329172D01*
X92665446Y-87386077D01*
X92661008Y-87428095D01*
X92653647Y-87457446D01*
X92642660Y-87476351D01*
X92627339Y-87487029D01*
X92606979Y-87491699D01*
X92580873Y-87492581D01*
X92548316Y-87491896D01*
X92526667Y-87491655D01*
X92477275Y-87490797D01*
X92446533Y-87487556D01*
X92429357Y-87480930D01*
X92421104Y-87470853D01*
X92419671Y-87456178D01*
X92418364Y-87419422D01*
X92417194Y-87362278D01*
X92416171Y-87286440D01*
X92415305Y-87193599D01*
X92414608Y-87085448D01*
X92414089Y-86963681D01*
X92413760Y-86829990D01*
X92413630Y-86686067D01*
X92413711Y-86533606D01*
X92414012Y-86374299D01*
X92414089Y-86345694D01*
X92414684Y-86152783D01*
X92415338Y-85982380D01*
X92415825Y-85883241D01*
X92667365Y-85883241D01*
X92667430Y-85972571D01*
X92668063Y-86059267D01*
X92669270Y-86140030D01*
X92671055Y-86211559D01*
X92673425Y-86270555D01*
X92676384Y-86313716D01*
X92679938Y-86337743D01*
X92680948Y-86340426D01*
X92685210Y-86347075D01*
X92691767Y-86352328D01*
X92703144Y-86356316D01*
X92721862Y-86359165D01*
X92750445Y-86361003D01*
X92791415Y-86361958D01*
X92847295Y-86362159D01*
X92920608Y-86361733D01*
X93013876Y-86360809D01*
X93070237Y-86360183D01*
X93446687Y-86355950D01*
X93525654Y-86318901D01*
X93611755Y-86266369D01*
X93680213Y-86198759D01*
X93730128Y-86117872D01*
X93760600Y-86025510D01*
X93770728Y-85923473D01*
X93764397Y-85841447D01*
X93739356Y-85734734D01*
X93698162Y-85645320D01*
X93640246Y-85572551D01*
X93565037Y-85515772D01*
X93471965Y-85474327D01*
X93435313Y-85463389D01*
X93405864Y-85458627D01*
X93358505Y-85454625D01*
X93296824Y-85451393D01*
X93224414Y-85448940D01*
X93144863Y-85447275D01*
X93061763Y-85446408D01*
X92978704Y-85446348D01*
X92899275Y-85447105D01*
X92827067Y-85448689D01*
X92765671Y-85451108D01*
X92718677Y-85454373D01*
X92689674Y-85458491D01*
X92682372Y-85461407D01*
X92678609Y-85476767D01*
X92675377Y-85512595D01*
X92672681Y-85565590D01*
X92670527Y-85632452D01*
X92668919Y-85709881D01*
X92667863Y-85794578D01*
X92667365Y-85883241D01*
X92415825Y-85883241D01*
X92416071Y-85833217D01*
X92416906Y-85704029D01*
X92417862Y-85593549D01*
X92418962Y-85500511D01*
X92420226Y-85423648D01*
X92421675Y-85361695D01*
X92423331Y-85313385D01*
X92425215Y-85277451D01*
X92427348Y-85252628D01*
X92429751Y-85237649D01*
X92432445Y-85231248D01*
X92432693Y-85231055D01*
X92447494Y-85228996D01*
X92483573Y-85227257D01*
X92538434Y-85225866D01*
X92609583Y-85224851D01*
X92694525Y-85224241D01*
X92790766Y-85224066D01*
X92895810Y-85224354D01*
G36*
X92895810Y-85224354D02*
G01*
X92971219Y-85224830D01*
X93097259Y-85225862D01*
X93201904Y-85226900D01*
X93287533Y-85228060D01*
X93356523Y-85229454D01*
X93411253Y-85231197D01*
X93454102Y-85233403D01*
X93487447Y-85236186D01*
X93513667Y-85239662D01*
X93535140Y-85243943D01*
X93554244Y-85249145D01*
X93567719Y-85253474D01*
X93686825Y-85303997D01*
X93788107Y-85370155D01*
X93872130Y-85452517D01*
X93939461Y-85551652D01*
X93990666Y-85668130D01*
X93996096Y-85684352D01*
X94018414Y-85777784D01*
X94029441Y-85880247D01*
X94029061Y-85983653D01*
X94017159Y-86079912D01*
X94002587Y-86136661D01*
X93954002Y-86251051D01*
X93889005Y-86349398D01*
X93808547Y-86430566D01*
X93713581Y-86493424D01*
X93695143Y-86502647D01*
X93643666Y-86527404D01*
X93609944Y-86544568D01*
X93590263Y-86556749D01*
X93580907Y-86566559D01*
X93578160Y-86576609D01*
X93578169Y-86584849D01*
X93584538Y-86605513D01*
X93600774Y-86639513D01*
X93623682Y-86680323D01*
X93629736Y-86690272D01*
X93653834Y-86729613D01*
X93686039Y-86782712D01*
X93724576Y-86846600D01*
X93767673Y-86918307D01*
X93813558Y-86994862D01*
X93860458Y-87073297D01*
X93906599Y-87150642D01*
X93950209Y-87223926D01*
X93989516Y-87290180D01*
X94022747Y-87346434D01*
X94048128Y-87389718D01*
X94063888Y-87417062D01*
X94067562Y-87423746D01*
X94078171Y-87450855D01*
X94075532Y-87469901D01*
X94057246Y-87482170D01*
X94020910Y-87488945D01*
X93964122Y-87491513D01*
X93940601Y-87491655D01*
X93881710Y-87490776D01*
X93840541Y-87485869D01*
X93811049Y-87473532D01*
X93787193Y-87450361D01*
X93762929Y-87412953D01*
X93745353Y-87381703D01*
X93710176Y-87318220D01*
X93679562Y-87263382D01*
X93649685Y-87210417D01*
X93616720Y-87152555D01*
X93576840Y-87083024D01*
X93562331Y-87057791D01*
X93529289Y-87000317D01*
X93498901Y-86947401D01*
X93473888Y-86903786D01*
X93456971Y-86874214D01*
X93453208Y-86867603D01*
X93422869Y-86813918D01*
X93392473Y-86759755D01*
X93364828Y-86710159D01*
X93342746Y-86670175D01*
X93329036Y-86644848D01*
X93327586Y-86642063D01*
X93318063Y-86626728D01*
X93305264Y-86614895D01*
X93286342Y-86606197D01*
X93258449Y-86600270D01*
X93218740Y-86596747D01*
X93164367Y-86595262D01*
X93092483Y-86595449D01*
X93000242Y-86596942D01*
X92979722Y-86597352D01*
X92895789Y-86599539D01*
X92821505Y-86602399D01*
X92760014Y-86605744D01*
X92714466Y-86609389D01*
X92688006Y-86613147D01*
X92682967Y-86614968D01*
X92678807Y-86623882D01*
X92675435Y-86644555D01*
X92672787Y-86678845D01*
X92670798Y-86728610D01*
X92669405Y-86795707D01*
X92668543Y-86881995D01*
X92668150Y-86989332D01*
X92668108Y-87046941D01*
X92668295Y-87161824D01*
X92668384Y-87255161D01*
X92667670Y-87329172D01*
X92665446Y-87386077D01*
X92661008Y-87428095D01*
X92653647Y-87457446D01*
X92642660Y-87476351D01*
X92627339Y-87487029D01*
X92606979Y-87491699D01*
X92580873Y-87492581D01*
X92548316Y-87491896D01*
X92526667Y-87491655D01*
X92477275Y-87490797D01*
X92446533Y-87487556D01*
X92429357Y-87480930D01*
X92421104Y-87470853D01*
X92419671Y-87456178D01*
X92418364Y-87419422D01*
X92417194Y-87362278D01*
X92416171Y-87286440D01*
X92415305Y-87193599D01*
X92414608Y-87085448D01*
X92414089Y-86963681D01*
X92413760Y-86829990D01*
X92413630Y-86686067D01*
X92413711Y-86533606D01*
X92414012Y-86374299D01*
X92414089Y-86345694D01*
X92414684Y-86152783D01*
X92415338Y-85982380D01*
X92415825Y-85883241D01*
X92667365Y-85883241D01*
X92667430Y-85972571D01*
X92668063Y-86059267D01*
X92669270Y-86140030D01*
X92671055Y-86211559D01*
X92673425Y-86270555D01*
X92676384Y-86313716D01*
X92679938Y-86337743D01*
X92680948Y-86340426D01*
X92685210Y-86347075D01*
X92691767Y-86352328D01*
X92703144Y-86356316D01*
X92721862Y-86359165D01*
X92750445Y-86361003D01*
X92791415Y-86361958D01*
X92847295Y-86362159D01*
X92920608Y-86361733D01*
X93013876Y-86360809D01*
X93070237Y-86360183D01*
X93446687Y-86355950D01*
X93525654Y-86318901D01*
X93611755Y-86266369D01*
X93680213Y-86198759D01*
X93730128Y-86117872D01*
X93760600Y-86025510D01*
X93770728Y-85923473D01*
X93764397Y-85841447D01*
X93739356Y-85734734D01*
X93698162Y-85645320D01*
X93640246Y-85572551D01*
X93565037Y-85515772D01*
X93471965Y-85474327D01*
X93435313Y-85463389D01*
X93405864Y-85458627D01*
X93358505Y-85454625D01*
X93296824Y-85451393D01*
X93224414Y-85448940D01*
X93144863Y-85447275D01*
X93061763Y-85446408D01*
X92978704Y-85446348D01*
X92899275Y-85447105D01*
X92827067Y-85448689D01*
X92765671Y-85451108D01*
X92718677Y-85454373D01*
X92689674Y-85458491D01*
X92682372Y-85461407D01*
X92678609Y-85476767D01*
X92675377Y-85512595D01*
X92672681Y-85565590D01*
X92670527Y-85632452D01*
X92668919Y-85709881D01*
X92667863Y-85794578D01*
X92667365Y-85883241D01*
X92415825Y-85883241D01*
X92416071Y-85833217D01*
X92416906Y-85704029D01*
X92417862Y-85593549D01*
X92418962Y-85500511D01*
X92420226Y-85423648D01*
X92421675Y-85361695D01*
X92423331Y-85313385D01*
X92425215Y-85277451D01*
X92427348Y-85252628D01*
X92429751Y-85237649D01*
X92432445Y-85231248D01*
X92432693Y-85231055D01*
X92447494Y-85228996D01*
X92483573Y-85227257D01*
X92538434Y-85225866D01*
X92609583Y-85224851D01*
X92694525Y-85224241D01*
X92790766Y-85224066D01*
X92895810Y-85224354D01*
G37*
X95525409Y-85223102D02*
X95565252Y-85230557D01*
X95592066Y-85246712D01*
X95611153Y-85274622D01*
X95626304Y-85312892D01*
X95640932Y-85352998D01*
X95655965Y-85390558D01*
X95657300Y-85393653D01*
X95688327Y-85465581D01*
X95724429Y-85550485D01*
X95761768Y-85639299D01*
X95788145Y-85702707D01*
X95809223Y-85753454D01*
X95828611Y-85799782D01*
X95843347Y-85834631D01*
X95847960Y-85845347D01*
X95858006Y-85869126D01*
X95874872Y-85909844D01*
X95896461Y-85962404D01*
X95920673Y-86021710D01*
X95928713Y-86041478D01*
X95958291Y-86113884D01*
X95990776Y-86192771D01*
X96022252Y-86268665D01*
X96048804Y-86332091D01*
X96049061Y-86332702D01*
X96067587Y-86377137D01*
X96093324Y-86439601D01*
X96124624Y-86516063D01*
X96159845Y-86602489D01*
X96197339Y-86694846D01*
X96235460Y-86789103D01*
X96247945Y-86820056D01*
X96285740Y-86913609D01*
X96323305Y-87006200D01*
X96359027Y-87093882D01*
X96391293Y-87172709D01*
X96418491Y-87238732D01*
X96439006Y-87288006D01*
X96444256Y-87300438D01*
X96465241Y-87353220D01*
X96481559Y-87400784D01*
X96491367Y-87437313D01*
X96493256Y-87454965D01*
X96490731Y-87469197D01*
X96484108Y-87478340D01*
X96468810Y-87483725D01*
X96440260Y-87486683D01*
X96393882Y-87488547D01*
X96375994Y-87489087D01*
X96321426Y-87490089D01*
X96285510Y-87488741D01*
X96263182Y-87484357D01*
X96249379Y-87476248D01*
X96244647Y-87471257D01*
X96234866Y-87453747D01*
X96218377Y-87417920D01*
X96196864Y-87367702D01*
X96172010Y-87307021D01*
X96146362Y-87242034D01*
X96118995Y-87172119D01*
X96092658Y-87106098D01*
X96069270Y-87048688D01*
X96050750Y-87004605D01*
X96039976Y-86980527D01*
X96014214Y-86927037D01*
X95460459Y-86923949D01*
X95330918Y-86923275D01*
X95223085Y-86922869D01*
X95134891Y-86922797D01*
X95064270Y-86923121D01*
X95009157Y-86923907D01*
X94967484Y-86925220D01*
X94937186Y-86927122D01*
X94916196Y-86929680D01*
X94902448Y-86932957D01*
X94893875Y-86937018D01*
X94888538Y-86941779D01*
X94876624Y-86961153D01*
X94858743Y-86997018D01*
X94837599Y-87043729D01*
X94821603Y-87081564D01*
X94778892Y-87185385D01*
X94744075Y-87269289D01*
X94716190Y-87335422D01*
X94694278Y-87385927D01*
X94677376Y-87422950D01*
X94664524Y-87448637D01*
X94654761Y-87465134D01*
X94647126Y-87474584D01*
X94644553Y-87476797D01*
X94620462Y-87485309D01*
X94580701Y-87490272D01*
X94533100Y-87491725D01*
X94485491Y-87489706D01*
X94445703Y-87484256D01*
X94421916Y-87475675D01*
X94409094Y-87459761D01*
X94406936Y-87435738D01*
X94415984Y-87399757D01*
X94436782Y-87347972D01*
X94441426Y-87337540D01*
X94461067Y-87293929D01*
X94483580Y-87244040D01*
X94494048Y-87220880D01*
X94509353Y-87186210D01*
X94519659Y-87161274D01*
X94522434Y-87152891D01*
X94526946Y-87140678D01*
X94539309Y-87110885D01*
X94557758Y-87067678D01*
X94580531Y-87015220D01*
X94586456Y-87001688D01*
X94616434Y-86932944D01*
X94648744Y-86858204D01*
X94679199Y-86787189D01*
X94700568Y-86736850D01*
X94723704Y-86682200D01*
X94725808Y-86677272D01*
X95002144Y-86677272D01*
X95006439Y-86681953D01*
X95016830Y-86685761D01*
X95035500Y-86688783D01*
X95064635Y-86691105D01*
X95106418Y-86692813D01*
X95163033Y-86693995D01*
X95236664Y-86694736D01*
X95329497Y-86695124D01*
X95443714Y-86695245D01*
X95455539Y-86695246D01*
X95571412Y-86695157D01*
X95665727Y-86694829D01*
X95740699Y-86694170D01*
X95798546Y-86693089D01*
X95841480Y-86691493D01*
X95871719Y-86689293D01*
X95891476Y-86686396D01*
X95902969Y-86682710D01*
X95908411Y-86678144D01*
X95909230Y-86676500D01*
X95907345Y-86659619D01*
X95897513Y-86624989D01*
X95881106Y-86576731D01*
X95859497Y-86518968D01*
X95842953Y-86477397D01*
X95819008Y-86418413D01*
X95788196Y-86342201D01*
X95752471Y-86253609D01*
X95713785Y-86157487D01*
X95674092Y-86058682D01*
X95635344Y-85962044D01*
X95631453Y-85952328D01*
X95597006Y-85866730D01*
X95564967Y-85787932D01*
X95536501Y-85718735D01*
X95512772Y-85661942D01*
X95494947Y-85620355D01*
X95484191Y-85596777D01*
X95481941Y-85592755D01*
X95466426Y-85579597D01*
X95451880Y-85585128D01*
X95435534Y-85611165D01*
X95427569Y-85628415D01*
X95404162Y-85682479D01*
X95374560Y-85751843D01*
X95341581Y-85829808D01*
X95308042Y-85909676D01*
X95276762Y-85984749D01*
X95250558Y-86048327D01*
X95239839Y-86074708D01*
X95218693Y-86126515D01*
X95197867Y-86176486D01*
X95181089Y-86215699D01*
X95177733Y-86223292D01*
X95145315Y-86297296D01*
X95113278Y-86373119D01*
X95082927Y-86447387D01*
X95055568Y-86516726D01*
X95032506Y-86577760D01*
X95015047Y-86627116D01*
X95004494Y-86661420D01*
X95002144Y-86677272D01*
X94725808Y-86677272D01*
X94745803Y-86630447D01*
X94763790Y-86588767D01*
X94771839Y-86570436D01*
X94784469Y-86541401D01*
X94803726Y-86496303D01*
X94827111Y-86441031D01*
X94852122Y-86381473D01*
X94855120Y-86374305D01*
X94896992Y-86275060D01*
X94944573Y-86163840D01*
X94993700Y-86050296D01*
X95040209Y-85944081D01*
X95057605Y-85904781D01*
X95071054Y-85874093D01*
X95090864Y-85828367D01*
X95114084Y-85774437D01*
X95132085Y-85732423D01*
X95173447Y-85636277D01*
X95213328Y-85544725D01*
X95250494Y-85460519D01*
X95283707Y-85386409D01*
X95311733Y-85325145D01*
X95333336Y-85279477D01*
X95347280Y-85252155D01*
X95349725Y-85248041D01*
X95360376Y-85234873D01*
X95375225Y-85226895D01*
X95399867Y-85222832D01*
X95439897Y-85221412D01*
X95467237Y-85221295D01*
X95525409Y-85223102D01*
G36*
X95525409Y-85223102D02*
G01*
X95565252Y-85230557D01*
X95592066Y-85246712D01*
X95611153Y-85274622D01*
X95626304Y-85312892D01*
X95640932Y-85352998D01*
X95655965Y-85390558D01*
X95657300Y-85393653D01*
X95688327Y-85465581D01*
X95724429Y-85550485D01*
X95761768Y-85639299D01*
X95788145Y-85702707D01*
X95809223Y-85753454D01*
X95828611Y-85799782D01*
X95843347Y-85834631D01*
X95847960Y-85845347D01*
X95858006Y-85869126D01*
X95874872Y-85909844D01*
X95896461Y-85962404D01*
X95920673Y-86021710D01*
X95928713Y-86041478D01*
X95958291Y-86113884D01*
X95990776Y-86192771D01*
X96022252Y-86268665D01*
X96048804Y-86332091D01*
X96049061Y-86332702D01*
X96067587Y-86377137D01*
X96093324Y-86439601D01*
X96124624Y-86516063D01*
X96159845Y-86602489D01*
X96197339Y-86694846D01*
X96235460Y-86789103D01*
X96247945Y-86820056D01*
X96285740Y-86913609D01*
X96323305Y-87006200D01*
X96359027Y-87093882D01*
X96391293Y-87172709D01*
X96418491Y-87238732D01*
X96439006Y-87288006D01*
X96444256Y-87300438D01*
X96465241Y-87353220D01*
X96481559Y-87400784D01*
X96491367Y-87437313D01*
X96493256Y-87454965D01*
X96490731Y-87469197D01*
X96484108Y-87478340D01*
X96468810Y-87483725D01*
X96440260Y-87486683D01*
X96393882Y-87488547D01*
X96375994Y-87489087D01*
X96321426Y-87490089D01*
X96285510Y-87488741D01*
X96263182Y-87484357D01*
X96249379Y-87476248D01*
X96244647Y-87471257D01*
X96234866Y-87453747D01*
X96218377Y-87417920D01*
X96196864Y-87367702D01*
X96172010Y-87307021D01*
X96146362Y-87242034D01*
X96118995Y-87172119D01*
X96092658Y-87106098D01*
X96069270Y-87048688D01*
X96050750Y-87004605D01*
X96039976Y-86980527D01*
X96014214Y-86927037D01*
X95460459Y-86923949D01*
X95330918Y-86923275D01*
X95223085Y-86922869D01*
X95134891Y-86922797D01*
X95064270Y-86923121D01*
X95009157Y-86923907D01*
X94967484Y-86925220D01*
X94937186Y-86927122D01*
X94916196Y-86929680D01*
X94902448Y-86932957D01*
X94893875Y-86937018D01*
X94888538Y-86941779D01*
X94876624Y-86961153D01*
X94858743Y-86997018D01*
X94837599Y-87043729D01*
X94821603Y-87081564D01*
X94778892Y-87185385D01*
X94744075Y-87269289D01*
X94716190Y-87335422D01*
X94694278Y-87385927D01*
X94677376Y-87422950D01*
X94664524Y-87448637D01*
X94654761Y-87465134D01*
X94647126Y-87474584D01*
X94644553Y-87476797D01*
X94620462Y-87485309D01*
X94580701Y-87490272D01*
X94533100Y-87491725D01*
X94485491Y-87489706D01*
X94445703Y-87484256D01*
X94421916Y-87475675D01*
X94409094Y-87459761D01*
X94406936Y-87435738D01*
X94415984Y-87399757D01*
X94436782Y-87347972D01*
X94441426Y-87337540D01*
X94461067Y-87293929D01*
X94483580Y-87244040D01*
X94494048Y-87220880D01*
X94509353Y-87186210D01*
X94519659Y-87161274D01*
X94522434Y-87152891D01*
X94526946Y-87140678D01*
X94539309Y-87110885D01*
X94557758Y-87067678D01*
X94580531Y-87015220D01*
X94586456Y-87001688D01*
X94616434Y-86932944D01*
X94648744Y-86858204D01*
X94679199Y-86787189D01*
X94700568Y-86736850D01*
X94723704Y-86682200D01*
X94725808Y-86677272D01*
X95002144Y-86677272D01*
X95006439Y-86681953D01*
X95016830Y-86685761D01*
X95035500Y-86688783D01*
X95064635Y-86691105D01*
X95106418Y-86692813D01*
X95163033Y-86693995D01*
X95236664Y-86694736D01*
X95329497Y-86695124D01*
X95443714Y-86695245D01*
X95455539Y-86695246D01*
X95571412Y-86695157D01*
X95665727Y-86694829D01*
X95740699Y-86694170D01*
X95798546Y-86693089D01*
X95841480Y-86691493D01*
X95871719Y-86689293D01*
X95891476Y-86686396D01*
X95902969Y-86682710D01*
X95908411Y-86678144D01*
X95909230Y-86676500D01*
X95907345Y-86659619D01*
X95897513Y-86624989D01*
X95881106Y-86576731D01*
X95859497Y-86518968D01*
X95842953Y-86477397D01*
X95819008Y-86418413D01*
X95788196Y-86342201D01*
X95752471Y-86253609D01*
X95713785Y-86157487D01*
X95674092Y-86058682D01*
X95635344Y-85962044D01*
X95631453Y-85952328D01*
X95597006Y-85866730D01*
X95564967Y-85787932D01*
X95536501Y-85718735D01*
X95512772Y-85661942D01*
X95494947Y-85620355D01*
X95484191Y-85596777D01*
X95481941Y-85592755D01*
X95466426Y-85579597D01*
X95451880Y-85585128D01*
X95435534Y-85611165D01*
X95427569Y-85628415D01*
X95404162Y-85682479D01*
X95374560Y-85751843D01*
X95341581Y-85829808D01*
X95308042Y-85909676D01*
X95276762Y-85984749D01*
X95250558Y-86048327D01*
X95239839Y-86074708D01*
X95218693Y-86126515D01*
X95197867Y-86176486D01*
X95181089Y-86215699D01*
X95177733Y-86223292D01*
X95145315Y-86297296D01*
X95113278Y-86373119D01*
X95082927Y-86447387D01*
X95055568Y-86516726D01*
X95032506Y-86577760D01*
X95015047Y-86627116D01*
X95004494Y-86661420D01*
X95002144Y-86677272D01*
X94725808Y-86677272D01*
X94745803Y-86630447D01*
X94763790Y-86588767D01*
X94771839Y-86570436D01*
X94784469Y-86541401D01*
X94803726Y-86496303D01*
X94827111Y-86441031D01*
X94852122Y-86381473D01*
X94855120Y-86374305D01*
X94896992Y-86275060D01*
X94944573Y-86163840D01*
X94993700Y-86050296D01*
X95040209Y-85944081D01*
X95057605Y-85904781D01*
X95071054Y-85874093D01*
X95090864Y-85828367D01*
X95114084Y-85774437D01*
X95132085Y-85732423D01*
X95173447Y-85636277D01*
X95213328Y-85544725D01*
X95250494Y-85460519D01*
X95283707Y-85386409D01*
X95311733Y-85325145D01*
X95333336Y-85279477D01*
X95347280Y-85252155D01*
X95349725Y-85248041D01*
X95360376Y-85234873D01*
X95375225Y-85226895D01*
X95399867Y-85222832D01*
X95439897Y-85221412D01*
X95467237Y-85221295D01*
X95525409Y-85223102D01*
G37*
X90767271Y-82661664D02*
X90891347Y-82664307D01*
X90999944Y-82669152D01*
X91097182Y-82676495D01*
X91187181Y-82686633D01*
X91274059Y-82699860D01*
X91342741Y-82712599D01*
X91479373Y-82740128D01*
X91607297Y-82766691D01*
X91723318Y-82791595D01*
X91824245Y-82814148D01*
X91906883Y-82833656D01*
X91946563Y-82843663D01*
X92005354Y-82858762D01*
X92084518Y-82878708D01*
X92181305Y-82902825D01*
X92292966Y-82930434D01*
X92416751Y-82960859D01*
X92549909Y-82993421D01*
X92689692Y-83027444D01*
X92833351Y-83062250D01*
X92858295Y-83068277D01*
X92971160Y-83094638D01*
X93096308Y-83122322D01*
X93227671Y-83150095D01*
X93359182Y-83176726D01*
X93484773Y-83200979D01*
X93598377Y-83221622D01*
X93678478Y-83235013D01*
X93731451Y-83243213D01*
X93781110Y-83250421D01*
X93831945Y-83257182D01*
X93888446Y-83264042D01*
X93955103Y-83271543D01*
X94036405Y-83280233D01*
X94136842Y-83290655D01*
X94137813Y-83290755D01*
X94184605Y-83293880D01*
X94250296Y-83295937D01*
X94330037Y-83296973D01*
X94418981Y-83297033D01*
X94512278Y-83296165D01*
X94605081Y-83294415D01*
X94692541Y-83291828D01*
X94769809Y-83288451D01*
X94832038Y-83284332D01*
X94834911Y-83284086D01*
X94954895Y-83269669D01*
X95094563Y-83245669D01*
X95252002Y-83212444D01*
X95376800Y-83182634D01*
X95427571Y-83171570D01*
X95460601Y-83167701D01*
X95474593Y-83170699D01*
X95468254Y-83180237D01*
X95440286Y-83195990D01*
X95436638Y-83197714D01*
X95392115Y-83217038D01*
X95335334Y-83239633D01*
X95273611Y-83262802D01*
X95214263Y-83283847D01*
X95164605Y-83300071D01*
X95140542Y-83306866D01*
X95108955Y-83314941D01*
X95063360Y-83326865D01*
X95012703Y-83340297D01*
X95003845Y-83342665D01*
X94917752Y-83364906D01*
X94839357Y-83383051D01*
X94764660Y-83397537D01*
X94689662Y-83408803D01*
X94610365Y-83417289D01*
X94522769Y-83423434D01*
X94422875Y-83427675D01*
X94306685Y-83430453D01*
X94189606Y-83432016D01*
X94094134Y-83432831D01*
X94004658Y-83433306D01*
X93924383Y-83433445D01*
X93856517Y-83433254D01*
X93804264Y-83432738D01*
X93770830Y-83431902D01*
X93761685Y-83431314D01*
X93574121Y-83407257D01*
X93378583Y-83375669D01*
X93172400Y-83335998D01*
X92952902Y-83287689D01*
X92717418Y-83230189D01*
X92463277Y-83162947D01*
X92454147Y-83160447D01*
X92402118Y-83146226D01*
X92336853Y-83128445D01*
X92263141Y-83108404D01*
X92185766Y-83087399D01*
X92109517Y-83066729D01*
X92039177Y-83047691D01*
X91979534Y-83031583D01*
X91935374Y-83019704D01*
X91919246Y-83015396D01*
X91877015Y-83003726D01*
X91839873Y-82992698D01*
X91824153Y-82987568D01*
X91775060Y-82972184D01*
X91706409Y-82953384D01*
X91622026Y-82932017D01*
X91525739Y-82908932D01*
X91421379Y-82884977D01*
X91312771Y-82861001D01*
X91203745Y-82837855D01*
X91098129Y-82816385D01*
X90999751Y-82797442D01*
X90912440Y-82781874D01*
X90855386Y-82772754D01*
X90799314Y-82764139D01*
X90742310Y-82754944D01*
X90696364Y-82747102D01*
X90694916Y-82746843D01*
X90664092Y-82743195D01*
X90613886Y-82739479D01*
X90548685Y-82735921D01*
X90472877Y-82732744D01*
X90390853Y-82730172D01*
X90350202Y-82729212D01*
X90245056Y-82726775D01*
X90162725Y-82724217D01*
X90102250Y-82721300D01*
X90062673Y-82717787D01*
X90043033Y-82713439D01*
X90042374Y-82708021D01*
X90059736Y-82701293D01*
X90094161Y-82693020D01*
X90144690Y-82682963D01*
X90155365Y-82680955D01*
X90193119Y-82674864D01*
X90235860Y-82670075D01*
X90286768Y-82666454D01*
X90349026Y-82663864D01*
X90425815Y-82662169D01*
X90520315Y-82661233D01*
X90623596Y-82660927D01*
X90767271Y-82661664D01*
G36*
X90767271Y-82661664D02*
G01*
X90891347Y-82664307D01*
X90999944Y-82669152D01*
X91097182Y-82676495D01*
X91187181Y-82686633D01*
X91274059Y-82699860D01*
X91342741Y-82712599D01*
X91479373Y-82740128D01*
X91607297Y-82766691D01*
X91723318Y-82791595D01*
X91824245Y-82814148D01*
X91906883Y-82833656D01*
X91946563Y-82843663D01*
X92005354Y-82858762D01*
X92084518Y-82878708D01*
X92181305Y-82902825D01*
X92292966Y-82930434D01*
X92416751Y-82960859D01*
X92549909Y-82993421D01*
X92689692Y-83027444D01*
X92833351Y-83062250D01*
X92858295Y-83068277D01*
X92971160Y-83094638D01*
X93096308Y-83122322D01*
X93227671Y-83150095D01*
X93359182Y-83176726D01*
X93484773Y-83200979D01*
X93598377Y-83221622D01*
X93678478Y-83235013D01*
X93731451Y-83243213D01*
X93781110Y-83250421D01*
X93831945Y-83257182D01*
X93888446Y-83264042D01*
X93955103Y-83271543D01*
X94036405Y-83280233D01*
X94136842Y-83290655D01*
X94137813Y-83290755D01*
X94184605Y-83293880D01*
X94250296Y-83295937D01*
X94330037Y-83296973D01*
X94418981Y-83297033D01*
X94512278Y-83296165D01*
X94605081Y-83294415D01*
X94692541Y-83291828D01*
X94769809Y-83288451D01*
X94832038Y-83284332D01*
X94834911Y-83284086D01*
X94954895Y-83269669D01*
X95094563Y-83245669D01*
X95252002Y-83212444D01*
X95376800Y-83182634D01*
X95427571Y-83171570D01*
X95460601Y-83167701D01*
X95474593Y-83170699D01*
X95468254Y-83180237D01*
X95440286Y-83195990D01*
X95436638Y-83197714D01*
X95392115Y-83217038D01*
X95335334Y-83239633D01*
X95273611Y-83262802D01*
X95214263Y-83283847D01*
X95164605Y-83300071D01*
X95140542Y-83306866D01*
X95108955Y-83314941D01*
X95063360Y-83326865D01*
X95012703Y-83340297D01*
X95003845Y-83342665D01*
X94917752Y-83364906D01*
X94839357Y-83383051D01*
X94764660Y-83397537D01*
X94689662Y-83408803D01*
X94610365Y-83417289D01*
X94522769Y-83423434D01*
X94422875Y-83427675D01*
X94306685Y-83430453D01*
X94189606Y-83432016D01*
X94094134Y-83432831D01*
X94004658Y-83433306D01*
X93924383Y-83433445D01*
X93856517Y-83433254D01*
X93804264Y-83432738D01*
X93770830Y-83431902D01*
X93761685Y-83431314D01*
X93574121Y-83407257D01*
X93378583Y-83375669D01*
X93172400Y-83335998D01*
X92952902Y-83287689D01*
X92717418Y-83230189D01*
X92463277Y-83162947D01*
X92454147Y-83160447D01*
X92402118Y-83146226D01*
X92336853Y-83128445D01*
X92263141Y-83108404D01*
X92185766Y-83087399D01*
X92109517Y-83066729D01*
X92039177Y-83047691D01*
X91979534Y-83031583D01*
X91935374Y-83019704D01*
X91919246Y-83015396D01*
X91877015Y-83003726D01*
X91839873Y-82992698D01*
X91824153Y-82987568D01*
X91775060Y-82972184D01*
X91706409Y-82953384D01*
X91622026Y-82932017D01*
X91525739Y-82908932D01*
X91421379Y-82884977D01*
X91312771Y-82861001D01*
X91203745Y-82837855D01*
X91098129Y-82816385D01*
X90999751Y-82797442D01*
X90912440Y-82781874D01*
X90855386Y-82772754D01*
X90799314Y-82764139D01*
X90742310Y-82754944D01*
X90696364Y-82747102D01*
X90694916Y-82746843D01*
X90664092Y-82743195D01*
X90613886Y-82739479D01*
X90548685Y-82735921D01*
X90472877Y-82732744D01*
X90390853Y-82730172D01*
X90350202Y-82729212D01*
X90245056Y-82726775D01*
X90162725Y-82724217D01*
X90102250Y-82721300D01*
X90062673Y-82717787D01*
X90043033Y-82713439D01*
X90042374Y-82708021D01*
X90059736Y-82701293D01*
X90094161Y-82693020D01*
X90144690Y-82682963D01*
X90155365Y-82680955D01*
X90193119Y-82674864D01*
X90235860Y-82670075D01*
X90286768Y-82666454D01*
X90349026Y-82663864D01*
X90425815Y-82662169D01*
X90520315Y-82661233D01*
X90623596Y-82660927D01*
X90767271Y-82661664D01*
G37*
X90089686Y-81809970D02*
X90240347Y-81816316D01*
X90319938Y-81822763D01*
X90473166Y-81838482D01*
X90608541Y-81853893D01*
X90731953Y-81869937D01*
X90849289Y-81887551D01*
X90966437Y-81907675D01*
X91089286Y-81931248D01*
X91223723Y-81959212D01*
X91354628Y-81987826D01*
X91418861Y-82001913D01*
X91492486Y-82017785D01*
X91561604Y-82032452D01*
X91574532Y-82035158D01*
X91639653Y-82049061D01*
X91711095Y-82064796D01*
X91775622Y-82079441D01*
X91788492Y-82082441D01*
X91937870Y-82117445D01*
X92065795Y-82147297D01*
X92173931Y-82172381D01*
X92263946Y-82193082D01*
X92337506Y-82209784D01*
X92396277Y-82222870D01*
X92418488Y-82227713D01*
X92482318Y-82241576D01*
X92551326Y-82256657D01*
X92612969Y-82270212D01*
X92626505Y-82273206D01*
X92688929Y-82286812D01*
X92758739Y-82301687D01*
X92816692Y-82313759D01*
X92868848Y-82324651D01*
X92918512Y-82335371D01*
X92955905Y-82343805D01*
X92959332Y-82344617D01*
X93008025Y-82355215D01*
X93075673Y-82368456D01*
X93157706Y-82383572D01*
X93249551Y-82399791D01*
X93346637Y-82416345D01*
X93444394Y-82432462D01*
X93538248Y-82447373D01*
X93623631Y-82460308D01*
X93695968Y-82470498D01*
X93737911Y-82475759D01*
X93785052Y-82481174D01*
X93847684Y-82488341D01*
X93917674Y-82496331D01*
X93986892Y-82504216D01*
X93987532Y-82504289D01*
X94058323Y-82510484D01*
X94147987Y-82515461D01*
X94251654Y-82519184D01*
X94364452Y-82521620D01*
X94481510Y-82522735D01*
X94597959Y-82522494D01*
X94708926Y-82520864D01*
X94809542Y-82517811D01*
X94894935Y-82513301D01*
X94926581Y-82510833D01*
X95011774Y-82501881D01*
X95106425Y-82489546D01*
X95205771Y-82474664D01*
X95305048Y-82458070D01*
X95399491Y-82440600D01*
X95484337Y-82423089D01*
X95554821Y-82406374D01*
X95604123Y-82391997D01*
X95628569Y-82384124D01*
X95668803Y-82371640D01*
X95717828Y-82356705D01*
X95740820Y-82349783D01*
X95860130Y-82311453D01*
X95976682Y-82268403D01*
X96096860Y-82218039D01*
X96227049Y-82157767D01*
X96293833Y-82125120D01*
X96341259Y-82101259D01*
X96383080Y-82079598D01*
X96412929Y-82063462D01*
X96421074Y-82058693D01*
X96446038Y-82048761D01*
X96456529Y-82054603D01*
X96449590Y-82071193D01*
X96436014Y-82084070D01*
X96415349Y-82098797D01*
X96379222Y-82123180D01*
X96332255Y-82154150D01*
X96279067Y-82188640D01*
X96263835Y-82198416D01*
X96073631Y-82312177D01*
X95883582Y-82408859D01*
X95685526Y-82492313D01*
X95509029Y-82554349D01*
X95439135Y-82576849D01*
X95381818Y-82594720D01*
X95331287Y-82609490D01*
X95281751Y-82622686D01*
X95227420Y-82635837D01*
X95162503Y-82650471D01*
X95081208Y-82668116D01*
X95063278Y-82671968D01*
X94944715Y-82694434D01*
X94818976Y-82712157D01*
X94682300Y-82725479D01*
X94530920Y-82734740D01*
X94361073Y-82740281D01*
X94296586Y-82741405D01*
X94205330Y-82742488D01*
X94117036Y-82743179D01*
X94035947Y-82743471D01*
X93966303Y-82743358D01*
X93912345Y-82742835D01*
X93880552Y-82742001D01*
X93812005Y-82738227D01*
X93733380Y-82732746D01*
X93650683Y-82726091D01*
X93569922Y-82718793D01*
X93497102Y-82711383D01*
X93438232Y-82704394D01*
X93411027Y-82700448D01*
X93366671Y-82693422D01*
X93308611Y-82684516D01*
X93246675Y-82675230D01*
X93220840Y-82671426D01*
X93078079Y-82648544D01*
X92925719Y-82620596D01*
X92776724Y-82589995D01*
X92739428Y-82581743D01*
X92683895Y-82569351D01*
X92631085Y-82557745D01*
X92589369Y-82548760D01*
X92576594Y-82546090D01*
X92541595Y-82538581D01*
X92492459Y-82527632D01*
X92438187Y-82515254D01*
X92422067Y-82511521D01*
X92361621Y-82497597D01*
X92297447Y-82483023D01*
X92241928Y-82470606D01*
X92234244Y-82468913D01*
X92179114Y-82456592D01*
X92114859Y-82441927D01*
X92055943Y-82428225D01*
X91996901Y-82414505D01*
X91928093Y-82398797D01*
X91862981Y-82384172D01*
X91853869Y-82382152D01*
X91800375Y-82370266D01*
X91732174Y-82355039D01*
X91657748Y-82338368D01*
X91585581Y-82322151D01*
X91580475Y-82321001D01*
X91478731Y-82298094D01*
X91397152Y-82279756D01*
X91332717Y-82265318D01*
X91282402Y-82254108D01*
X91243183Y-82245456D01*
X91212040Y-82238693D01*
X91185947Y-82233148D01*
X91161883Y-82228152D01*
X91158497Y-82227457D01*
X91031863Y-82201989D01*
X90923352Y-82181332D01*
X90828011Y-82164583D01*
X90740886Y-82150839D01*
X90724633Y-82148462D01*
X90669249Y-82140310D01*
X90620800Y-82132901D01*
X90585230Y-82127159D01*
X90570106Y-82124403D01*
X90551084Y-82121383D01*
X90512659Y-82116134D01*
X90459042Y-82109200D01*
X90394440Y-82101126D01*
X90326428Y-82092861D01*
X90262562Y-82085560D01*
X90203105Y-82079706D01*
X90144256Y-82075142D01*
X90082217Y-82071713D01*
X90013190Y-82069265D01*
X89933377Y-82067642D01*
X89838978Y-82066690D01*
X89726195Y-82066253D01*
X89672660Y-82066186D01*
X89525059Y-82066574D01*
X89397011Y-82068180D01*
X89284313Y-82071332D01*
X89182759Y-82076362D01*
X89088147Y-82083598D01*
X88996273Y-82093369D01*
X88902932Y-82106004D01*
X88803921Y-82121834D01*
X88695036Y-82141187D01*
X88680120Y-82143945D01*
X88401865Y-82206619D01*
X88133229Y-82289380D01*
X87876378Y-82391497D01*
X87719666Y-82466426D01*
X87668051Y-82491243D01*
X87634690Y-82503887D01*
X87618222Y-82505609D01*
X87617282Y-82497663D01*
X87630505Y-82481300D01*
X87656529Y-82457773D01*
X87693990Y-82428334D01*
X87741523Y-82394236D01*
X87797765Y-82356730D01*
X87861352Y-82317069D01*
X87919372Y-82283045D01*
X88148612Y-82164982D01*
X88393136Y-82062731D01*
X88649459Y-81977512D01*
X88914094Y-81910547D01*
X89066438Y-81881163D01*
X89224565Y-81857530D01*
X89394755Y-81838273D01*
X89571685Y-81823640D01*
X89750031Y-81813881D01*
X89924473Y-81809241D01*
X90089686Y-81809970D01*
G36*
X90089686Y-81809970D02*
G01*
X90240347Y-81816316D01*
X90319938Y-81822763D01*
X90473166Y-81838482D01*
X90608541Y-81853893D01*
X90731953Y-81869937D01*
X90849289Y-81887551D01*
X90966437Y-81907675D01*
X91089286Y-81931248D01*
X91223723Y-81959212D01*
X91354628Y-81987826D01*
X91418861Y-82001913D01*
X91492486Y-82017785D01*
X91561604Y-82032452D01*
X91574532Y-82035158D01*
X91639653Y-82049061D01*
X91711095Y-82064796D01*
X91775622Y-82079441D01*
X91788492Y-82082441D01*
X91937870Y-82117445D01*
X92065795Y-82147297D01*
X92173931Y-82172381D01*
X92263946Y-82193082D01*
X92337506Y-82209784D01*
X92396277Y-82222870D01*
X92418488Y-82227713D01*
X92482318Y-82241576D01*
X92551326Y-82256657D01*
X92612969Y-82270212D01*
X92626505Y-82273206D01*
X92688929Y-82286812D01*
X92758739Y-82301687D01*
X92816692Y-82313759D01*
X92868848Y-82324651D01*
X92918512Y-82335371D01*
X92955905Y-82343805D01*
X92959332Y-82344617D01*
X93008025Y-82355215D01*
X93075673Y-82368456D01*
X93157706Y-82383572D01*
X93249551Y-82399791D01*
X93346637Y-82416345D01*
X93444394Y-82432462D01*
X93538248Y-82447373D01*
X93623631Y-82460308D01*
X93695968Y-82470498D01*
X93737911Y-82475759D01*
X93785052Y-82481174D01*
X93847684Y-82488341D01*
X93917674Y-82496331D01*
X93986892Y-82504216D01*
X93987532Y-82504289D01*
X94058323Y-82510484D01*
X94147987Y-82515461D01*
X94251654Y-82519184D01*
X94364452Y-82521620D01*
X94481510Y-82522735D01*
X94597959Y-82522494D01*
X94708926Y-82520864D01*
X94809542Y-82517811D01*
X94894935Y-82513301D01*
X94926581Y-82510833D01*
X95011774Y-82501881D01*
X95106425Y-82489546D01*
X95205771Y-82474664D01*
X95305048Y-82458070D01*
X95399491Y-82440600D01*
X95484337Y-82423089D01*
X95554821Y-82406374D01*
X95604123Y-82391997D01*
X95628569Y-82384124D01*
X95668803Y-82371640D01*
X95717828Y-82356705D01*
X95740820Y-82349783D01*
X95860130Y-82311453D01*
X95976682Y-82268403D01*
X96096860Y-82218039D01*
X96227049Y-82157767D01*
X96293833Y-82125120D01*
X96341259Y-82101259D01*
X96383080Y-82079598D01*
X96412929Y-82063462D01*
X96421074Y-82058693D01*
X96446038Y-82048761D01*
X96456529Y-82054603D01*
X96449590Y-82071193D01*
X96436014Y-82084070D01*
X96415349Y-82098797D01*
X96379222Y-82123180D01*
X96332255Y-82154150D01*
X96279067Y-82188640D01*
X96263835Y-82198416D01*
X96073631Y-82312177D01*
X95883582Y-82408859D01*
X95685526Y-82492313D01*
X95509029Y-82554349D01*
X95439135Y-82576849D01*
X95381818Y-82594720D01*
X95331287Y-82609490D01*
X95281751Y-82622686D01*
X95227420Y-82635837D01*
X95162503Y-82650471D01*
X95081208Y-82668116D01*
X95063278Y-82671968D01*
X94944715Y-82694434D01*
X94818976Y-82712157D01*
X94682300Y-82725479D01*
X94530920Y-82734740D01*
X94361073Y-82740281D01*
X94296586Y-82741405D01*
X94205330Y-82742488D01*
X94117036Y-82743179D01*
X94035947Y-82743471D01*
X93966303Y-82743358D01*
X93912345Y-82742835D01*
X93880552Y-82742001D01*
X93812005Y-82738227D01*
X93733380Y-82732746D01*
X93650683Y-82726091D01*
X93569922Y-82718793D01*
X93497102Y-82711383D01*
X93438232Y-82704394D01*
X93411027Y-82700448D01*
X93366671Y-82693422D01*
X93308611Y-82684516D01*
X93246675Y-82675230D01*
X93220840Y-82671426D01*
X93078079Y-82648544D01*
X92925719Y-82620596D01*
X92776724Y-82589995D01*
X92739428Y-82581743D01*
X92683895Y-82569351D01*
X92631085Y-82557745D01*
X92589369Y-82548760D01*
X92576594Y-82546090D01*
X92541595Y-82538581D01*
X92492459Y-82527632D01*
X92438187Y-82515254D01*
X92422067Y-82511521D01*
X92361621Y-82497597D01*
X92297447Y-82483023D01*
X92241928Y-82470606D01*
X92234244Y-82468913D01*
X92179114Y-82456592D01*
X92114859Y-82441927D01*
X92055943Y-82428225D01*
X91996901Y-82414505D01*
X91928093Y-82398797D01*
X91862981Y-82384172D01*
X91853869Y-82382152D01*
X91800375Y-82370266D01*
X91732174Y-82355039D01*
X91657748Y-82338368D01*
X91585581Y-82322151D01*
X91580475Y-82321001D01*
X91478731Y-82298094D01*
X91397152Y-82279756D01*
X91332717Y-82265318D01*
X91282402Y-82254108D01*
X91243183Y-82245456D01*
X91212040Y-82238693D01*
X91185947Y-82233148D01*
X91161883Y-82228152D01*
X91158497Y-82227457D01*
X91031863Y-82201989D01*
X90923352Y-82181332D01*
X90828011Y-82164583D01*
X90740886Y-82150839D01*
X90724633Y-82148462D01*
X90669249Y-82140310D01*
X90620800Y-82132901D01*
X90585230Y-82127159D01*
X90570106Y-82124403D01*
X90551084Y-82121383D01*
X90512659Y-82116134D01*
X90459042Y-82109200D01*
X90394440Y-82101126D01*
X90326428Y-82092861D01*
X90262562Y-82085560D01*
X90203105Y-82079706D01*
X90144256Y-82075142D01*
X90082217Y-82071713D01*
X90013190Y-82069265D01*
X89933377Y-82067642D01*
X89838978Y-82066690D01*
X89726195Y-82066253D01*
X89672660Y-82066186D01*
X89525059Y-82066574D01*
X89397011Y-82068180D01*
X89284313Y-82071332D01*
X89182759Y-82076362D01*
X89088147Y-82083598D01*
X88996273Y-82093369D01*
X88902932Y-82106004D01*
X88803921Y-82121834D01*
X88695036Y-82141187D01*
X88680120Y-82143945D01*
X88401865Y-82206619D01*
X88133229Y-82289380D01*
X87876378Y-82391497D01*
X87719666Y-82466426D01*
X87668051Y-82491243D01*
X87634690Y-82503887D01*
X87618222Y-82505609D01*
X87617282Y-82497663D01*
X87630505Y-82481300D01*
X87656529Y-82457773D01*
X87693990Y-82428334D01*
X87741523Y-82394236D01*
X87797765Y-82356730D01*
X87861352Y-82317069D01*
X87919372Y-82283045D01*
X88148612Y-82164982D01*
X88393136Y-82062731D01*
X88649459Y-81977512D01*
X88914094Y-81910547D01*
X89066438Y-81881163D01*
X89224565Y-81857530D01*
X89394755Y-81838273D01*
X89571685Y-81823640D01*
X89750031Y-81813881D01*
X89924473Y-81809241D01*
X90089686Y-81809970D01*
G37*
X93771068Y-76238208D02*
X93813152Y-76244047D01*
X93844079Y-76257454D01*
X93875873Y-76283903D01*
X93879773Y-76287681D01*
X93908283Y-76320737D01*
X93929535Y-76354770D01*
X93935488Y-76369871D01*
X93936368Y-76384952D01*
X93937229Y-76422784D01*
X93938068Y-76482344D01*
X93938882Y-76562608D01*
X93939666Y-76662554D01*
X93940418Y-76781159D01*
X93941133Y-76917399D01*
X93941809Y-77070252D01*
X93942442Y-77238695D01*
X93943029Y-77421705D01*
X93943565Y-77618259D01*
X93944049Y-77827334D01*
X93944476Y-78047907D01*
X93944842Y-78278956D01*
X93945144Y-78519456D01*
X93945380Y-78768387D01*
X93945545Y-79024723D01*
X93945636Y-79287443D01*
X93945650Y-79381952D01*
X93945928Y-82356597D01*
X93862722Y-82355029D01*
X93805302Y-82351774D01*
X93740440Y-82344907D01*
X93692043Y-82337584D01*
X93647155Y-82328058D01*
X93610391Y-82317753D01*
X93589063Y-82308751D01*
X93588035Y-82307981D01*
X93584355Y-82301608D01*
X93581242Y-82287922D01*
X93578654Y-82265166D01*
X93576545Y-82231584D01*
X93574873Y-82185419D01*
X93573593Y-82124914D01*
X93572660Y-82048312D01*
X93572031Y-81953856D01*
X93571662Y-81839789D01*
X93571508Y-81704356D01*
X93571497Y-81648588D01*
X93571297Y-81511728D01*
X93570715Y-81387549D01*
X93569777Y-81277614D01*
X93568510Y-81183486D01*
X93566939Y-81106730D01*
X93565093Y-81048911D01*
X93562996Y-81011590D01*
X93560676Y-80996335D01*
X93560451Y-80996093D01*
X93547394Y-80995236D01*
X93512008Y-80994415D01*
X93455739Y-80993635D01*
X93380032Y-80992903D01*
X93286332Y-80992227D01*
X93176083Y-80991611D01*
X93050732Y-80991062D01*
X92911723Y-80990587D01*
X92760500Y-80990192D01*
X92598510Y-80989883D01*
X92427197Y-80989668D01*
X92248006Y-80989551D01*
X92078695Y-80989537D01*
X91851710Y-80989627D01*
X91647461Y-80989812D01*
X91464914Y-80990105D01*
X91303031Y-80990516D01*
X91160776Y-80991055D01*
X91037113Y-80991732D01*
X90931006Y-80992559D01*
X90841418Y-80993545D01*
X90767313Y-80994702D01*
X90707656Y-80996038D01*
X90661409Y-80997566D01*
X90627537Y-80999295D01*
X90605004Y-81001237D01*
X90592772Y-81003401D01*
X90590184Y-81004578D01*
X90584908Y-81011691D01*
X90580951Y-81024887D01*
X90578233Y-81046795D01*
X90576674Y-81080041D01*
X90576194Y-81127253D01*
X90576714Y-81191059D01*
X90578152Y-81274085D01*
X90579732Y-81348102D01*
X90581785Y-81447303D01*
X90582948Y-81525321D01*
X90583149Y-81584731D01*
X90582313Y-81628111D01*
X90580367Y-81658036D01*
X90577240Y-81677082D01*
X90572856Y-81687826D01*
X90569993Y-81691039D01*
X90556986Y-81696600D01*
X90532726Y-81699164D01*
X90493829Y-81698741D01*
X90436907Y-81695341D01*
X90389189Y-81691586D01*
X90328985Y-81685989D01*
X90277361Y-81680090D01*
X90238917Y-81674497D01*
X90218251Y-81669818D01*
X90216239Y-81668718D01*
X90215368Y-81656130D01*
X90214518Y-81620841D01*
X90213690Y-81563921D01*
X90212890Y-81486443D01*
X90212122Y-81389476D01*
X90211388Y-81274093D01*
X90210694Y-81141366D01*
X90210042Y-80992365D01*
X90209437Y-80828161D01*
X90208882Y-80649828D01*
X90208381Y-80458435D01*
X90207939Y-80255054D01*
X90207558Y-80040758D01*
X90207244Y-79816616D01*
X90207052Y-79634147D01*
X90576130Y-79634147D01*
X90576283Y-79725398D01*
X90576789Y-79836060D01*
X90577600Y-79968079D01*
X90577836Y-80003245D01*
X90578894Y-80144481D01*
X90580038Y-80263715D01*
X90581326Y-80362718D01*
X90582815Y-80443260D01*
X90584561Y-80507115D01*
X90586623Y-80556052D01*
X90589058Y-80591842D01*
X90591922Y-80616259D01*
X90595274Y-80631071D01*
X90598345Y-80637196D01*
X90602058Y-80640112D01*
X90608914Y-80642719D01*
X90620145Y-80645033D01*
X90636986Y-80647065D01*
X90660667Y-80648830D01*
X90692423Y-80650342D01*
X90733485Y-80651615D01*
X90785086Y-80652662D01*
X90848461Y-80653497D01*
X90924840Y-80654133D01*
X91015457Y-80654586D01*
X91121544Y-80654868D01*
X91244335Y-80654993D01*
X91385062Y-80654975D01*
X91544958Y-80654828D01*
X91725255Y-80654566D01*
X91927187Y-80654202D01*
X92090125Y-80653877D01*
X93565554Y-80650859D01*
X93568661Y-80014921D01*
X93569300Y-79875273D01*
X93569706Y-79757491D01*
X93569829Y-79659669D01*
X93569618Y-79579902D01*
X93569022Y-79516282D01*
X93567991Y-79466904D01*
X93566474Y-79429862D01*
X93564421Y-79403249D01*
X93561780Y-79385159D01*
X93558502Y-79373685D01*
X93554535Y-79366923D01*
X93551369Y-79364006D01*
X93543779Y-79361696D01*
X93526927Y-79359622D01*
X93499746Y-79357774D01*
X93461173Y-79356142D01*
X93410140Y-79354716D01*
X93345584Y-79353485D01*
X93266438Y-79352438D01*
X93171637Y-79351565D01*
X93060116Y-79350855D01*
X92930810Y-79350298D01*
X92782652Y-79349883D01*
X92614579Y-79349600D01*
X92425523Y-79349438D01*
X92214421Y-79349387D01*
X92071931Y-79349407D01*
X91854446Y-79349481D01*
X91659494Y-79349598D01*
X91485833Y-79349773D01*
X91332223Y-79350024D01*
X91197422Y-79350367D01*
X91080190Y-79350819D01*
X90979285Y-79351397D01*
X90893468Y-79352117D01*
X90821496Y-79352997D01*
X90762129Y-79354053D01*
X90714125Y-79355302D01*
X90676245Y-79356761D01*
X90647246Y-79358446D01*
X90625889Y-79360374D01*
X90610932Y-79362562D01*
X90601133Y-79365027D01*
X90595253Y-79367786D01*
X90593284Y-79369389D01*
X90588910Y-79375417D01*
X90585268Y-79385285D01*
X90582310Y-79400941D01*
X90579989Y-79424330D01*
X90578258Y-79457399D01*
X90577070Y-79502094D01*
X90576376Y-79560361D01*
X90576130Y-79634147D01*
X90207052Y-79634147D01*
X90206998Y-79583700D01*
X90206827Y-79343083D01*
X90206732Y-79095836D01*
X90206719Y-79012608D01*
X90206658Y-78712401D01*
X90206563Y-78435055D01*
X90206477Y-78210106D01*
X90575224Y-78210106D01*
X90575298Y-78315298D01*
X90575803Y-78421826D01*
X90576726Y-78526909D01*
X90578054Y-78627768D01*
X90579774Y-78721624D01*
X90581872Y-78805698D01*
X90584335Y-78877211D01*
X90587150Y-78933382D01*
X90590302Y-78971433D01*
X90593780Y-78988584D01*
X90593901Y-78988763D01*
X90597065Y-78992031D01*
X90602366Y-78994965D01*
X90611070Y-78997590D01*
X90624439Y-78999931D01*
X90643740Y-79002010D01*
X90670236Y-79003854D01*
X90705191Y-79005485D01*
X90749873Y-79006930D01*
X90805543Y-79008211D01*
X90873467Y-79009354D01*
X90954910Y-79010382D01*
X91051136Y-79011321D01*
X91163410Y-79012193D01*
X91292997Y-79013026D01*
X91441161Y-79013841D01*
X91609166Y-79014664D01*
X91798278Y-79015519D01*
X92009761Y-79016430D01*
X92034182Y-79016534D01*
X92216824Y-79017331D01*
X92393218Y-79018144D01*
X92561863Y-79018965D01*
X92721260Y-79019784D01*
X92869910Y-79020592D01*
X93006312Y-79021380D01*
X93128967Y-79022139D01*
X93236375Y-79022859D01*
X93327037Y-79023531D01*
X93399453Y-79024147D01*
X93452124Y-79024697D01*
X93483550Y-79025172D01*
X93492044Y-79025449D01*
X93525595Y-79023300D01*
X93548505Y-79016020D01*
X93553568Y-79012607D01*
X93557827Y-79006956D01*
X93561353Y-78997142D01*
X93564215Y-78981239D01*
X93566481Y-78957323D01*
X93568222Y-78923468D01*
X93569506Y-78877748D01*
X93570402Y-78818238D01*
X93570980Y-78743012D01*
X93571309Y-78650145D01*
X93571458Y-78537711D01*
X93571497Y-78403786D01*
X93571497Y-78376516D01*
X93571358Y-78228919D01*
X93570920Y-78103684D01*
X93570150Y-77999401D01*
X93569020Y-77914660D01*
X93567495Y-77848050D01*
X93565546Y-77798162D01*
X93563141Y-77763585D01*
X93560248Y-77742909D01*
X93557234Y-77735052D01*
X93549644Y-77732830D01*
X93530902Y-77730831D01*
X93500041Y-77729044D01*
X93456094Y-77727461D01*
X93398093Y-77726073D01*
X93325073Y-77724869D01*
X93236064Y-77723841D01*
X93130102Y-77722980D01*
X93006218Y-77722276D01*
X92863445Y-77721720D01*
X92700817Y-77721302D01*
X92517367Y-77721014D01*
X92312127Y-77720845D01*
X92084130Y-77720788D01*
X92071814Y-77720788D01*
X91854434Y-77720793D01*
X91659582Y-77720821D01*
X91486015Y-77720891D01*
X91332488Y-77721026D01*
X91197756Y-77721242D01*
X91080576Y-77721562D01*
X90979702Y-77722004D01*
X90893891Y-77722589D01*
X90821897Y-77723338D01*
X90762476Y-77724268D01*
X90714384Y-77725402D01*
X90676377Y-77726758D01*
X90647209Y-77728357D01*
X90625637Y-77730218D01*
X90610416Y-77732362D01*
X90600301Y-77734808D01*
X90594048Y-77737577D01*
X90590413Y-77740688D01*
X90588151Y-77744162D01*
X90587918Y-77744594D01*
X90584596Y-77762622D01*
X90581799Y-77801440D01*
X90579514Y-77858269D01*
X90577727Y-77930330D01*
X90576425Y-78014842D01*
X90575595Y-78109027D01*
X90575224Y-78210106D01*
X90206477Y-78210106D01*
X90206465Y-78179659D01*
X90206394Y-77945299D01*
X90206379Y-77731066D01*
X90206453Y-77536045D01*
X90206645Y-77359326D01*
X90206986Y-77199996D01*
X90207505Y-77057144D01*
X90208234Y-76929857D01*
X90209202Y-76817223D01*
X90210441Y-76718331D01*
X90211981Y-76632269D01*
X90213851Y-76558123D01*
X90216084Y-76494984D01*
X90218707Y-76441937D01*
X90221753Y-76398073D01*
X90225253Y-76362477D01*
X90229235Y-76334239D01*
X90233730Y-76312447D01*
X90238770Y-76296188D01*
X90244384Y-76284551D01*
X90250603Y-76276623D01*
X90257457Y-76271492D01*
X90264977Y-76268248D01*
X90273193Y-76265976D01*
X90282135Y-76263767D01*
X90291835Y-76260706D01*
X90298596Y-76257812D01*
X90357741Y-76239713D01*
X90418555Y-76239046D01*
X90475442Y-76254275D01*
X90522810Y-76283865D01*
X90555066Y-76326282D01*
X90556073Y-76328470D01*
X90560150Y-76347362D01*
X90563788Y-76385368D01*
X90567016Y-76443294D01*
X90569867Y-76521948D01*
X90572369Y-76622135D01*
X90574555Y-76744663D01*
X90576049Y-76855451D01*
X90578038Y-76995882D01*
X90580366Y-77114125D01*
X90583024Y-77209892D01*
X90585999Y-77282891D01*
X90589283Y-77332833D01*
X90592863Y-77359427D01*
X90594618Y-77363752D01*
X90607699Y-77365205D01*
X90642803Y-77366592D01*
X90698181Y-77367912D01*
X90772082Y-77369159D01*
X90862758Y-77370331D01*
X90968458Y-77371424D01*
X91087432Y-77372434D01*
X91217930Y-77373359D01*
X91358204Y-77374193D01*
X91506501Y-77374935D01*
X91661074Y-77375581D01*
X91820172Y-77376126D01*
X91982045Y-77376567D01*
X92144944Y-77376902D01*
X92307118Y-77377126D01*
X92466818Y-77377236D01*
X92622293Y-77377228D01*
X92771795Y-77377099D01*
X92913573Y-77376845D01*
X93045878Y-77376463D01*
X93166959Y-77375949D01*
X93275066Y-77375301D01*
X93368451Y-77374513D01*
X93445362Y-77373583D01*
X93504051Y-77372508D01*
X93542767Y-77371283D01*
X93559761Y-77369905D01*
X93560293Y-77369709D01*
X93562998Y-77356347D01*
X93565397Y-77320912D01*
X93567452Y-77265100D01*
X93569128Y-77190611D01*
X93570385Y-77099142D01*
X93571186Y-76992390D01*
X93571495Y-76872055D01*
X93571497Y-76860059D01*
X93571517Y-76737664D01*
X93571652Y-76636767D01*
X93572013Y-76555092D01*
X93572714Y-76490364D01*
X93573866Y-76440307D01*
X93575582Y-76402647D01*
X93577974Y-76375106D01*
X93581155Y-76355411D01*
X93585236Y-76341284D01*
X93590330Y-76330452D01*
X93596550Y-76320637D01*
X93598242Y-76318151D01*
X93643407Y-76270494D01*
X93699666Y-76243808D01*
X93767328Y-76237952D01*
X93771068Y-76238208D01*
G36*
X93771068Y-76238208D02*
G01*
X93813152Y-76244047D01*
X93844079Y-76257454D01*
X93875873Y-76283903D01*
X93879773Y-76287681D01*
X93908283Y-76320737D01*
X93929535Y-76354770D01*
X93935488Y-76369871D01*
X93936368Y-76384952D01*
X93937229Y-76422784D01*
X93938068Y-76482344D01*
X93938882Y-76562608D01*
X93939666Y-76662554D01*
X93940418Y-76781159D01*
X93941133Y-76917399D01*
X93941809Y-77070252D01*
X93942442Y-77238695D01*
X93943029Y-77421705D01*
X93943565Y-77618259D01*
X93944049Y-77827334D01*
X93944476Y-78047907D01*
X93944842Y-78278956D01*
X93945144Y-78519456D01*
X93945380Y-78768387D01*
X93945545Y-79024723D01*
X93945636Y-79287443D01*
X93945650Y-79381952D01*
X93945928Y-82356597D01*
X93862722Y-82355029D01*
X93805302Y-82351774D01*
X93740440Y-82344907D01*
X93692043Y-82337584D01*
X93647155Y-82328058D01*
X93610391Y-82317753D01*
X93589063Y-82308751D01*
X93588035Y-82307981D01*
X93584355Y-82301608D01*
X93581242Y-82287922D01*
X93578654Y-82265166D01*
X93576545Y-82231584D01*
X93574873Y-82185419D01*
X93573593Y-82124914D01*
X93572660Y-82048312D01*
X93572031Y-81953856D01*
X93571662Y-81839789D01*
X93571508Y-81704356D01*
X93571497Y-81648588D01*
X93571297Y-81511728D01*
X93570715Y-81387549D01*
X93569777Y-81277614D01*
X93568510Y-81183486D01*
X93566939Y-81106730D01*
X93565093Y-81048911D01*
X93562996Y-81011590D01*
X93560676Y-80996335D01*
X93560451Y-80996093D01*
X93547394Y-80995236D01*
X93512008Y-80994415D01*
X93455739Y-80993635D01*
X93380032Y-80992903D01*
X93286332Y-80992227D01*
X93176083Y-80991611D01*
X93050732Y-80991062D01*
X92911723Y-80990587D01*
X92760500Y-80990192D01*
X92598510Y-80989883D01*
X92427197Y-80989668D01*
X92248006Y-80989551D01*
X92078695Y-80989537D01*
X91851710Y-80989627D01*
X91647461Y-80989812D01*
X91464914Y-80990105D01*
X91303031Y-80990516D01*
X91160776Y-80991055D01*
X91037113Y-80991732D01*
X90931006Y-80992559D01*
X90841418Y-80993545D01*
X90767313Y-80994702D01*
X90707656Y-80996038D01*
X90661409Y-80997566D01*
X90627537Y-80999295D01*
X90605004Y-81001237D01*
X90592772Y-81003401D01*
X90590184Y-81004578D01*
X90584908Y-81011691D01*
X90580951Y-81024887D01*
X90578233Y-81046795D01*
X90576674Y-81080041D01*
X90576194Y-81127253D01*
X90576714Y-81191059D01*
X90578152Y-81274085D01*
X90579732Y-81348102D01*
X90581785Y-81447303D01*
X90582948Y-81525321D01*
X90583149Y-81584731D01*
X90582313Y-81628111D01*
X90580367Y-81658036D01*
X90577240Y-81677082D01*
X90572856Y-81687826D01*
X90569993Y-81691039D01*
X90556986Y-81696600D01*
X90532726Y-81699164D01*
X90493829Y-81698741D01*
X90436907Y-81695341D01*
X90389189Y-81691586D01*
X90328985Y-81685989D01*
X90277361Y-81680090D01*
X90238917Y-81674497D01*
X90218251Y-81669818D01*
X90216239Y-81668718D01*
X90215368Y-81656130D01*
X90214518Y-81620841D01*
X90213690Y-81563921D01*
X90212890Y-81486443D01*
X90212122Y-81389476D01*
X90211388Y-81274093D01*
X90210694Y-81141366D01*
X90210042Y-80992365D01*
X90209437Y-80828161D01*
X90208882Y-80649828D01*
X90208381Y-80458435D01*
X90207939Y-80255054D01*
X90207558Y-80040758D01*
X90207244Y-79816616D01*
X90207052Y-79634147D01*
X90576130Y-79634147D01*
X90576283Y-79725398D01*
X90576789Y-79836060D01*
X90577600Y-79968079D01*
X90577836Y-80003245D01*
X90578894Y-80144481D01*
X90580038Y-80263715D01*
X90581326Y-80362718D01*
X90582815Y-80443260D01*
X90584561Y-80507115D01*
X90586623Y-80556052D01*
X90589058Y-80591842D01*
X90591922Y-80616259D01*
X90595274Y-80631071D01*
X90598345Y-80637196D01*
X90602058Y-80640112D01*
X90608914Y-80642719D01*
X90620145Y-80645033D01*
X90636986Y-80647065D01*
X90660667Y-80648830D01*
X90692423Y-80650342D01*
X90733485Y-80651615D01*
X90785086Y-80652662D01*
X90848461Y-80653497D01*
X90924840Y-80654133D01*
X91015457Y-80654586D01*
X91121544Y-80654868D01*
X91244335Y-80654993D01*
X91385062Y-80654975D01*
X91544958Y-80654828D01*
X91725255Y-80654566D01*
X91927187Y-80654202D01*
X92090125Y-80653877D01*
X93565554Y-80650859D01*
X93568661Y-80014921D01*
X93569300Y-79875273D01*
X93569706Y-79757491D01*
X93569829Y-79659669D01*
X93569618Y-79579902D01*
X93569022Y-79516282D01*
X93567991Y-79466904D01*
X93566474Y-79429862D01*
X93564421Y-79403249D01*
X93561780Y-79385159D01*
X93558502Y-79373685D01*
X93554535Y-79366923D01*
X93551369Y-79364006D01*
X93543779Y-79361696D01*
X93526927Y-79359622D01*
X93499746Y-79357774D01*
X93461173Y-79356142D01*
X93410140Y-79354716D01*
X93345584Y-79353485D01*
X93266438Y-79352438D01*
X93171637Y-79351565D01*
X93060116Y-79350855D01*
X92930810Y-79350298D01*
X92782652Y-79349883D01*
X92614579Y-79349600D01*
X92425523Y-79349438D01*
X92214421Y-79349387D01*
X92071931Y-79349407D01*
X91854446Y-79349481D01*
X91659494Y-79349598D01*
X91485833Y-79349773D01*
X91332223Y-79350024D01*
X91197422Y-79350367D01*
X91080190Y-79350819D01*
X90979285Y-79351397D01*
X90893468Y-79352117D01*
X90821496Y-79352997D01*
X90762129Y-79354053D01*
X90714125Y-79355302D01*
X90676245Y-79356761D01*
X90647246Y-79358446D01*
X90625889Y-79360374D01*
X90610932Y-79362562D01*
X90601133Y-79365027D01*
X90595253Y-79367786D01*
X90593284Y-79369389D01*
X90588910Y-79375417D01*
X90585268Y-79385285D01*
X90582310Y-79400941D01*
X90579989Y-79424330D01*
X90578258Y-79457399D01*
X90577070Y-79502094D01*
X90576376Y-79560361D01*
X90576130Y-79634147D01*
X90207052Y-79634147D01*
X90206998Y-79583700D01*
X90206827Y-79343083D01*
X90206732Y-79095836D01*
X90206719Y-79012608D01*
X90206658Y-78712401D01*
X90206563Y-78435055D01*
X90206477Y-78210106D01*
X90575224Y-78210106D01*
X90575298Y-78315298D01*
X90575803Y-78421826D01*
X90576726Y-78526909D01*
X90578054Y-78627768D01*
X90579774Y-78721624D01*
X90581872Y-78805698D01*
X90584335Y-78877211D01*
X90587150Y-78933382D01*
X90590302Y-78971433D01*
X90593780Y-78988584D01*
X90593901Y-78988763D01*
X90597065Y-78992031D01*
X90602366Y-78994965D01*
X90611070Y-78997590D01*
X90624439Y-78999931D01*
X90643740Y-79002010D01*
X90670236Y-79003854D01*
X90705191Y-79005485D01*
X90749873Y-79006930D01*
X90805543Y-79008211D01*
X90873467Y-79009354D01*
X90954910Y-79010382D01*
X91051136Y-79011321D01*
X91163410Y-79012193D01*
X91292997Y-79013026D01*
X91441161Y-79013841D01*
X91609166Y-79014664D01*
X91798278Y-79015519D01*
X92009761Y-79016430D01*
X92034182Y-79016534D01*
X92216824Y-79017331D01*
X92393218Y-79018144D01*
X92561863Y-79018965D01*
X92721260Y-79019784D01*
X92869910Y-79020592D01*
X93006312Y-79021380D01*
X93128967Y-79022139D01*
X93236375Y-79022859D01*
X93327037Y-79023531D01*
X93399453Y-79024147D01*
X93452124Y-79024697D01*
X93483550Y-79025172D01*
X93492044Y-79025449D01*
X93525595Y-79023300D01*
X93548505Y-79016020D01*
X93553568Y-79012607D01*
X93557827Y-79006956D01*
X93561353Y-78997142D01*
X93564215Y-78981239D01*
X93566481Y-78957323D01*
X93568222Y-78923468D01*
X93569506Y-78877748D01*
X93570402Y-78818238D01*
X93570980Y-78743012D01*
X93571309Y-78650145D01*
X93571458Y-78537711D01*
X93571497Y-78403786D01*
X93571497Y-78376516D01*
X93571358Y-78228919D01*
X93570920Y-78103684D01*
X93570150Y-77999401D01*
X93569020Y-77914660D01*
X93567495Y-77848050D01*
X93565546Y-77798162D01*
X93563141Y-77763585D01*
X93560248Y-77742909D01*
X93557234Y-77735052D01*
X93549644Y-77732830D01*
X93530902Y-77730831D01*
X93500041Y-77729044D01*
X93456094Y-77727461D01*
X93398093Y-77726073D01*
X93325073Y-77724869D01*
X93236064Y-77723841D01*
X93130102Y-77722980D01*
X93006218Y-77722276D01*
X92863445Y-77721720D01*
X92700817Y-77721302D01*
X92517367Y-77721014D01*
X92312127Y-77720845D01*
X92084130Y-77720788D01*
X92071814Y-77720788D01*
X91854434Y-77720793D01*
X91659582Y-77720821D01*
X91486015Y-77720891D01*
X91332488Y-77721026D01*
X91197756Y-77721242D01*
X91080576Y-77721562D01*
X90979702Y-77722004D01*
X90893891Y-77722589D01*
X90821897Y-77723338D01*
X90762476Y-77724268D01*
X90714384Y-77725402D01*
X90676377Y-77726758D01*
X90647209Y-77728357D01*
X90625637Y-77730218D01*
X90610416Y-77732362D01*
X90600301Y-77734808D01*
X90594048Y-77737577D01*
X90590413Y-77740688D01*
X90588151Y-77744162D01*
X90587918Y-77744594D01*
X90584596Y-77762622D01*
X90581799Y-77801440D01*
X90579514Y-77858269D01*
X90577727Y-77930330D01*
X90576425Y-78014842D01*
X90575595Y-78109027D01*
X90575224Y-78210106D01*
X90206477Y-78210106D01*
X90206465Y-78179659D01*
X90206394Y-77945299D01*
X90206379Y-77731066D01*
X90206453Y-77536045D01*
X90206645Y-77359326D01*
X90206986Y-77199996D01*
X90207505Y-77057144D01*
X90208234Y-76929857D01*
X90209202Y-76817223D01*
X90210441Y-76718331D01*
X90211981Y-76632269D01*
X90213851Y-76558123D01*
X90216084Y-76494984D01*
X90218707Y-76441937D01*
X90221753Y-76398073D01*
X90225253Y-76362477D01*
X90229235Y-76334239D01*
X90233730Y-76312447D01*
X90238770Y-76296188D01*
X90244384Y-76284551D01*
X90250603Y-76276623D01*
X90257457Y-76271492D01*
X90264977Y-76268248D01*
X90273193Y-76265976D01*
X90282135Y-76263767D01*
X90291835Y-76260706D01*
X90298596Y-76257812D01*
X90357741Y-76239713D01*
X90418555Y-76239046D01*
X90475442Y-76254275D01*
X90522810Y-76283865D01*
X90555066Y-76326282D01*
X90556073Y-76328470D01*
X90560150Y-76347362D01*
X90563788Y-76385368D01*
X90567016Y-76443294D01*
X90569867Y-76521948D01*
X90572369Y-76622135D01*
X90574555Y-76744663D01*
X90576049Y-76855451D01*
X90578038Y-76995882D01*
X90580366Y-77114125D01*
X90583024Y-77209892D01*
X90585999Y-77282891D01*
X90589283Y-77332833D01*
X90592863Y-77359427D01*
X90594618Y-77363752D01*
X90607699Y-77365205D01*
X90642803Y-77366592D01*
X90698181Y-77367912D01*
X90772082Y-77369159D01*
X90862758Y-77370331D01*
X90968458Y-77371424D01*
X91087432Y-77372434D01*
X91217930Y-77373359D01*
X91358204Y-77374193D01*
X91506501Y-77374935D01*
X91661074Y-77375581D01*
X91820172Y-77376126D01*
X91982045Y-77376567D01*
X92144944Y-77376902D01*
X92307118Y-77377126D01*
X92466818Y-77377236D01*
X92622293Y-77377228D01*
X92771795Y-77377099D01*
X92913573Y-77376845D01*
X93045878Y-77376463D01*
X93166959Y-77375949D01*
X93275066Y-77375301D01*
X93368451Y-77374513D01*
X93445362Y-77373583D01*
X93504051Y-77372508D01*
X93542767Y-77371283D01*
X93559761Y-77369905D01*
X93560293Y-77369709D01*
X93562998Y-77356347D01*
X93565397Y-77320912D01*
X93567452Y-77265100D01*
X93569128Y-77190611D01*
X93570385Y-77099142D01*
X93571186Y-76992390D01*
X93571495Y-76872055D01*
X93571497Y-76860059D01*
X93571517Y-76737664D01*
X93571652Y-76636767D01*
X93572013Y-76555092D01*
X93572714Y-76490364D01*
X93573866Y-76440307D01*
X93575582Y-76402647D01*
X93577974Y-76375106D01*
X93581155Y-76355411D01*
X93585236Y-76341284D01*
X93590330Y-76330452D01*
X93596550Y-76320637D01*
X93598242Y-76318151D01*
X93643407Y-76270494D01*
X93699666Y-76243808D01*
X93767328Y-76237952D01*
X93771068Y-76238208D01*
G37*
%TD*%
M02*
