%TF.GenerationSoftware,KiCad,Pcbnew,10.0.4*%
%TF.CreationDate,2026-07-14T22:15:48+02:00*%
%TF.ProjectId,pura-mainboard-0805-0.3,70757261-2d6d-4616-996e-626f6172642d,rev?*%
%TF.SameCoordinates,Original*%
%TF.FileFunction,Copper,L2,Bot*%
%TF.FilePolarity,Positive*%
%FSLAX46Y46*%
G04 Gerber Fmt 4.6, Leading zero omitted, Abs format (unit mm)*
G04 Created by KiCad (PCBNEW 10.0.4) date 2026-07-14 22:15:48*
%MOMM*%
%LPD*%
G01*
G04 APERTURE LIST*
%TA.AperFunction,ComponentPad*%
%ADD10R,1.500000X1.500000*%
%TD*%
%TA.AperFunction,ComponentPad*%
%ADD11C,1.500000*%
%TD*%
%TA.AperFunction,ComponentPad*%
%ADD12O,1.099998X1.999996*%
%TD*%
%TA.AperFunction,ComponentPad*%
%ADD13O,1.199998X1.799996*%
%TD*%
%TA.AperFunction,ComponentPad*%
%ADD14C,1.599997*%
%TD*%
%TA.AperFunction,ViaPad*%
%ADD15C,0.600000*%
%TD*%
%TA.AperFunction,ViaPad*%
%ADD16C,0.800000*%
%TD*%
%TA.AperFunction,Conductor*%
%ADD17C,0.250000*%
%TD*%
%TA.AperFunction,Conductor*%
%ADD18C,0.200000*%
%TD*%
%TA.AperFunction,Conductor*%
%ADD19C,0.600000*%
%TD*%
G04 APERTURE END LIST*
D10*
%TO.P,J_ESP,1*%
%TO.N,.L1 > .pin2 to .U2 > .FB*%
X122000000Y-102200000D03*
D11*
%TO.P,J_ESP,2*%
%TO.N,.J_ESP > .V33 to .U4 > .VCC*%
X122000000Y-99660000D03*
%TO.P,J_ESP,3*%
%TO.N,GND*%
X122000000Y-97120000D03*
%TO.P,J_ESP,4*%
%TO.N,.J_ESP > .SDA to .U6 > .SDA2*%
X122000000Y-94580000D03*
%TO.P,J_ESP,5*%
%TO.N,.J_ESP > .SCL to .U6 > .SCL2*%
X122000000Y-92040000D03*
%TO.P,J_ESP,6*%
%TO.N,.U4 > .PWMA to .J_ESP > .PWMA*%
X122000000Y-89500000D03*
%TO.P,J_ESP,7*%
%TO.N,.U4 > .PWMB to .J_ESP > .PWMB*%
X122000000Y-86960000D03*
%TO.P,J_ESP,8*%
%TO.N,.U4 > .AIN1 to .J_ESP > .AIN1*%
X122000000Y-84420000D03*
%TO.P,J_ESP,9*%
%TO.N,.U4 > .AIN2 to .J_ESP > .AIN2*%
X122000000Y-81880000D03*
%TO.P,J_ESP,10*%
%TO.N,.U4 > .BIN1 to .J_ESP > .BIN1*%
X122000000Y-79340000D03*
%TO.P,J_ESP,11*%
%TO.N,.U4 > .BIN2 to .J_ESP > .BIN2*%
X122000000Y-76800000D03*
%TD*%
D10*
%TO.P,J_M1,1*%
%TO.N,.U4 > .AO11 to .J_M1 > .MA1*%
X110200000Y-114870000D03*
D11*
%TO.P,J_M1,2*%
%TO.N,.U4 > .AO21 to .J_M1 > .MA2*%
X110200000Y-112330000D03*
%TD*%
D12*
%TO.P,J1,13*%
%TO.N,GND*%
X86824985Y-81345117D03*
%TO.P,J1,14*%
X78175015Y-81345117D03*
D13*
%TO.P,J1,15*%
%TO.N,N/C*%
X86824985Y-77144973D03*
%TO.P,J1,16*%
X78175015Y-77144973D03*
%TD*%
D14*
%TO.P,U5,1*%
%TO.N,GND*%
X90810000Y-115800000D03*
%TO.P,U5,2*%
%TO.N,.L1 > .pin2 to .U2 > .FB*%
X88270000Y-115800000D03*
%TO.P,U5,3*%
%TO.N,AGND*%
X85730000Y-115800000D03*
%TO.P,U5,4*%
%TO.N,.U5 > .pin4 to .U6 > .VDD1*%
X83190000Y-115800000D03*
%TD*%
D10*
%TO.P,J_12V,1*%
%TO.N,.J1 > .A4B9 to .R_VDD > .pin1*%
X122000000Y-120770000D03*
D11*
%TO.P,J_12V,2*%
%TO.N,GND*%
X122000000Y-118230000D03*
%TD*%
D10*
%TO.P,J_PROBE,1*%
%TO.N,.U5 > .pin4 to .U6 > .VDD1*%
X122000000Y-113810000D03*
D11*
%TO.P,J_PROBE,2*%
%TO.N,AGND*%
X122000000Y-111270000D03*
%TO.P,J_PROBE,3*%
%TO.N,.U3 > .AIN0 to .J_PROBE > .PH_PO*%
X122000000Y-108730000D03*
%TO.P,J_PROBE,4*%
%TO.N,.U3 > .AIN1 to .J_PROBE > .ORP_PO*%
X122000000Y-106190000D03*
%TD*%
D10*
%TO.P,J_M2,1*%
%TO.N,.U4 > .BO11 to .J_M2 > .MB1*%
X114100000Y-114870000D03*
D11*
%TO.P,J_M2,2*%
%TO.N,.U4 > .BO21 to .J_M2 > .MB2*%
X114100000Y-112330000D03*
%TD*%
D15*
%TO.N,AGND*%
X96200000Y-114400000D03*
X93200000Y-99300000D03*
X94200000Y-116400000D03*
X122200000Y-116400000D03*
X102100000Y-105500000D03*
X80200000Y-114400000D03*
X95600000Y-120000000D03*
X82200000Y-112400000D03*
X78910000Y-113300000D03*
X93000000Y-109000000D03*
X84600000Y-103950000D03*
X92200000Y-114400000D03*
X82200000Y-110400000D03*
X92200000Y-112400000D03*
D16*
%TO.N,.L1 > .pin2 to .U2 > .FB*%
X96923500Y-96828200D03*
D15*
%TO.N,.J_ESP > .V33 to .U4 > .VCC*%
X89127500Y-109781500D03*
X109831200Y-99624800D03*
%TO.N,GND*%
X122940900Y-107219200D03*
%TO.N,.J_ESP > .SDA to .U6 > .SDA2*%
X89512300Y-108276700D03*
%TO.N,.J_ESP > .SCL to .U6 > .SCL2*%
X85487100Y-108548200D03*
%TO.N,.U4 > .PWMA to .J_ESP > .PWMA*%
X109939100Y-97406300D03*
%TO.N,.U4 > .PWMB to .J_ESP > .PWMB*%
X115160700Y-95530100D03*
%TO.N,.U4 > .AIN1 to .J_ESP > .AIN1*%
X109208200Y-98055600D03*
%TO.N,.U4 > .AIN2 to .J_ESP > .AIN2*%
X108251800Y-99181700D03*
%TO.N,.U4 > .BIN1 to .J_ESP > .BIN1*%
X114775100Y-87879300D03*
%TO.N,.U4 > .BIN2 to .J_ESP > .BIN2*%
X115450300Y-86148900D03*
%TO.N,.U3 > .SDA to .R_SDA > .pin1*%
X86840000Y-105350000D03*
X94350000Y-101600000D03*
X98100000Y-109400000D03*
D16*
%TO.N,.U2 > .OUT to .L1 > .pin1*%
X103549200Y-90400000D03*
X113654300Y-83400000D03*
D15*
%TO.N,.U3 > .AIN0 to .J_PROBE > .PH_PO*%
X99500000Y-117000000D03*
%TO.N,.U3 > .AIN1 to .J_PROBE > .ORP_PO*%
X101500000Y-116800000D03*
%TO.N,.U3 > .SCL to .R_SCL > .pin1*%
X85560000Y-106400000D03*
X94350000Y-103800000D03*
X97000000Y-108800000D03*
%TD*%
%TO.N,AGND*%
D17*
X78300000Y-112700000D02*
X78300000Y-105000000D01*
D18*
X85730000Y-115800000D02*
X83230000Y-113300000D01*
D17*
X85730000Y-117800000D02*
X87930000Y-120000000D01*
D18*
X83230000Y-113300000D02*
X78910000Y-113300000D01*
D17*
X122000000Y-111270000D02*
X123400000Y-111270000D01*
X79350000Y-103950000D02*
X84600000Y-103950000D01*
X78300000Y-105000000D02*
X79350000Y-103950000D01*
X93000000Y-109000000D02*
X93000000Y-119420000D01*
X87930000Y-120000000D02*
X95600000Y-120000000D01*
X78910000Y-113300000D02*
X78300000Y-112700000D01*
X85730000Y-115800000D02*
X85730000Y-117800000D01*
%TO.N,.L1 > .pin2 to .U2 > .FB*%
D19*
X93975800Y-96828200D02*
X84717000Y-106087000D01*
X96923500Y-96828200D02*
X93975800Y-96828200D01*
X84717000Y-112247000D02*
X88270000Y-115800000D01*
X84717000Y-106087000D02*
X84717000Y-112247000D01*
%TO.N,.J_ESP > .V33 to .U4 > .VCC*%
D18*
X90486600Y-108422400D02*
X94513700Y-108422400D01*
X96827400Y-110736100D02*
X98755100Y-110736100D01*
X109831200Y-99660000D02*
X109831200Y-99624800D01*
X98755100Y-110736100D02*
X109831200Y-99660000D01*
X122000000Y-99660000D02*
X109831200Y-99660000D01*
X94513700Y-108422400D02*
X96827400Y-110736100D01*
X89127500Y-109781500D02*
X90486600Y-108422400D01*
%TO.N,GND*%
X78175000Y-81345100D02*
X78175000Y-82615200D01*
X123813200Y-116416800D02*
X122000000Y-118230000D01*
X123813200Y-108091500D02*
X123813200Y-116416800D01*
X123065200Y-107094900D02*
X122940900Y-107219200D01*
X122000000Y-97120000D02*
X123065200Y-98185200D01*
X78175000Y-82615200D02*
X86825000Y-82615200D01*
X86825000Y-81345100D02*
X86825000Y-82615200D01*
X122940900Y-107219200D02*
X123813200Y-108091500D01*
X123065200Y-98185200D02*
X123065200Y-107094900D01*
%TO.N,.J_ESP > .SDA to .U6 > .SDA2*%
X117605300Y-98974700D02*
X109669800Y-98974700D01*
X109669800Y-98974700D02*
X109192200Y-99452300D01*
X122000000Y-94580000D02*
X117605300Y-98974700D01*
X109192200Y-99452300D02*
X109192200Y-99741600D01*
X94667000Y-108052300D02*
X89736700Y-108052300D01*
X109192200Y-99741600D02*
X98567800Y-110366000D01*
X96980700Y-110366000D02*
X94667000Y-108052300D01*
X89736700Y-108052300D02*
X89512300Y-108276700D01*
X98567800Y-110366000D02*
X96980700Y-110366000D01*
%TO.N,.J_ESP > .SCL to .U6 > .SCL2*%
X94803300Y-107665100D02*
X86370200Y-107665100D01*
X97134000Y-109995800D02*
X94803300Y-107665100D01*
X98414500Y-109995800D02*
X97134000Y-109995800D01*
X115435400Y-98604600D02*
X109483400Y-98604600D01*
X122000000Y-92040000D02*
X115435400Y-98604600D01*
X108822000Y-99266000D02*
X108822000Y-99588300D01*
X108822000Y-99588300D02*
X98414500Y-109995800D01*
X109483400Y-98604600D02*
X108822000Y-99266000D01*
X86370200Y-107665100D02*
X85487100Y-108548200D01*
%TO.N,.U4 > .PWMA to .J_ESP > .PWMA*%
X122000000Y-89500000D02*
X114093700Y-97406300D01*
X114093700Y-97406300D02*
X109939100Y-97406300D01*
%TO.N,.U4 > .PWMB to .J_ESP > .PWMB*%
X122000000Y-86960000D02*
X115160700Y-93799300D01*
X115160700Y-93799300D02*
X115160700Y-95530100D01*
%TO.N,.U4 > .AIN1 to .J_ESP > .AIN1*%
X122000000Y-84420000D02*
X109208200Y-97211800D01*
X109208200Y-97211800D02*
X109208200Y-98055600D01*
%TO.N,.U4 > .AIN2 to .J_ESP > .AIN2*%
X108251800Y-95628200D02*
X108251800Y-99181700D01*
X122000000Y-81880000D02*
X108251800Y-95628200D01*
%TO.N,.U4 > .BIN1 to .J_ESP > .BIN1*%
X117790800Y-84863600D02*
X117790800Y-83549200D01*
X117790800Y-83549200D02*
X122000000Y-79340000D01*
X114775100Y-87879300D02*
X117790800Y-84863600D01*
%TO.N,.U4 > .BIN2 to .J_ESP > .BIN2*%
X115450300Y-83349700D02*
X115450300Y-86148900D01*
X122000000Y-76800000D02*
X115450300Y-83349700D01*
%TO.N,.U3 > .SDA to .R_SDA > .pin1*%
X90590000Y-101600000D02*
X94350000Y-101600000D01*
X94350000Y-101600000D02*
X98100000Y-105350000D01*
X86840000Y-105350000D02*
X90590000Y-101600000D01*
X98100000Y-105350000D02*
X98100000Y-109400000D01*
%TO.N,.U2 > .OUT to .L1 > .pin1*%
D19*
X110549200Y-83400000D02*
X113654300Y-83400000D01*
X103549200Y-90400000D02*
X110549200Y-83400000D01*
%TO.N,.U3 > .AIN0 to .J_PROBE > .PH_PO*%
D17*
X100500000Y-119600000D02*
X119500000Y-119600000D01*
X120500000Y-109480000D02*
X121250000Y-108730000D01*
X121250000Y-108730000D02*
X122000000Y-108730000D01*
X99500000Y-118600000D02*
X100500000Y-119600000D01*
X119500000Y-119600000D02*
X120500000Y-118600000D01*
X120500000Y-118600000D02*
X120500000Y-109480000D01*
X99500000Y-117000000D02*
X99500000Y-118600000D01*
%TO.N,.U3 > .AIN1 to .J_PROBE > .ORP_PO*%
X101500000Y-118150000D02*
X102500000Y-119150000D01*
X119900000Y-107190000D02*
X120900000Y-106190000D01*
X120900000Y-106190000D02*
X122000000Y-106190000D01*
X118900000Y-119150000D02*
X119900000Y-118150000D01*
X101500000Y-116800000D02*
X101500000Y-118150000D01*
X102500000Y-119150000D02*
X118900000Y-119150000D01*
X119900000Y-118150000D02*
X119900000Y-107190000D01*
%TO.N,.U3 > .SCL to .R_SCL > .pin1*%
D18*
X85560000Y-106400000D02*
X91750000Y-106400000D01*
X94350000Y-103800000D02*
X97000000Y-106450000D01*
X97000000Y-106450000D02*
X97000000Y-108800000D01*
X91750000Y-106400000D02*
X94350000Y-103800000D01*
%TD*%
%TA.AperFunction,Conductor*%
%TO.N,AGND*%
G36*
X86315369Y-103618907D02*
G01*
X86351333Y-103668407D01*
X86351333Y-103729593D01*
X86327182Y-103769004D01*
X84409686Y-105686500D01*
X84409685Y-105686499D01*
X84316500Y-105779685D01*
X84316496Y-105779690D01*
X84250609Y-105893809D01*
X84250608Y-105893814D01*
X84216500Y-106021108D01*
X84216500Y-112181108D01*
X84216500Y-112312892D01*
X84223522Y-112339097D01*
X84250609Y-112440190D01*
X84316496Y-112554309D01*
X84316497Y-112554310D01*
X84316498Y-112554311D01*
X84316500Y-112554314D01*
X85681686Y-113919500D01*
X86128054Y-114365868D01*
X86155831Y-114420385D01*
X86146260Y-114480817D01*
X86102995Y-114524082D01*
X86042563Y-114533653D01*
X86034945Y-114532138D01*
X86034419Y-114532011D01*
X85832315Y-114500002D01*
X85627685Y-114500002D01*
X85425587Y-114532010D01*
X85230973Y-114595244D01*
X85048652Y-114688141D01*
X85048648Y-114688143D01*
X85004079Y-114720525D01*
X85600592Y-115317038D01*
X85537008Y-115334076D01*
X85422994Y-115399902D01*
X85329902Y-115492994D01*
X85264076Y-115607008D01*
X85247038Y-115670592D01*
X84650525Y-115074079D01*
X84618143Y-115118648D01*
X84618141Y-115118652D01*
X84525244Y-115300973D01*
X84462010Y-115495587D01*
X84430002Y-115697684D01*
X84430002Y-115902315D01*
X84462010Y-116104412D01*
X84525244Y-116299026D01*
X84618141Y-116481347D01*
X84618145Y-116481352D01*
X84650525Y-116525919D01*
X85247037Y-115929406D01*
X85264076Y-115992992D01*
X85329902Y-116107006D01*
X85422994Y-116200098D01*
X85537008Y-116265924D01*
X85600590Y-116282961D01*
X85004080Y-116879473D01*
X85048650Y-116911856D01*
X85048658Y-116911861D01*
X85230973Y-117004755D01*
X85425587Y-117067989D01*
X85627685Y-117099998D01*
X85832315Y-117099998D01*
X86034412Y-117067989D01*
X86229029Y-117004754D01*
X86411347Y-116911857D01*
X86455919Y-116879473D01*
X85859407Y-116282961D01*
X85922992Y-116265924D01*
X86037006Y-116200098D01*
X86130098Y-116107006D01*
X86195924Y-115992992D01*
X86212961Y-115929407D01*
X86809473Y-116525919D01*
X86841857Y-116481347D01*
X86934754Y-116299029D01*
X86997989Y-116104412D01*
X87029998Y-115902315D01*
X87029998Y-115697684D01*
X86997989Y-115495586D01*
X86997865Y-115495070D01*
X86997879Y-115494891D01*
X86997380Y-115491741D01*
X86998136Y-115491621D01*
X86998181Y-115491039D01*
X86996346Y-115487436D01*
X87000552Y-115460876D01*
X87002659Y-115434073D01*
X87005284Y-115430998D01*
X87005917Y-115427004D01*
X87024933Y-115407988D01*
X87042391Y-115387543D01*
X87046322Y-115386598D01*
X87049182Y-115383739D01*
X87075738Y-115379533D01*
X87101884Y-115373253D01*
X87105620Y-115374800D01*
X87109614Y-115374168D01*
X87133570Y-115386374D01*
X87158415Y-115396662D01*
X87164131Y-115401945D01*
X87264294Y-115502108D01*
X87292071Y-115556625D01*
X87291388Y-115591425D01*
X87269502Y-115701455D01*
X87269502Y-115898542D01*
X87307951Y-116091834D01*
X87307951Y-116091836D01*
X87383367Y-116273909D01*
X87383373Y-116273921D01*
X87461670Y-116391098D01*
X87492862Y-116437780D01*
X87632220Y-116577138D01*
X87694732Y-116618907D01*
X87796078Y-116686626D01*
X87796090Y-116686632D01*
X87825950Y-116699000D01*
X87978165Y-116762049D01*
X88171460Y-116800498D01*
X88171461Y-116800498D01*
X88368539Y-116800498D01*
X88368540Y-116800498D01*
X88561835Y-116762049D01*
X88743914Y-116686630D01*
X88743916Y-116686628D01*
X88743921Y-116686626D01*
X88800182Y-116649033D01*
X88907780Y-116577138D01*
X89047138Y-116437780D01*
X89139851Y-116299026D01*
X89156626Y-116273921D01*
X89156632Y-116273909D01*
X89232049Y-116091835D01*
X89270498Y-115898540D01*
X89270498Y-115701460D01*
X89270497Y-115701457D01*
X89809502Y-115701457D01*
X89809502Y-115898542D01*
X89847951Y-116091834D01*
X89847951Y-116091836D01*
X89923367Y-116273909D01*
X89923373Y-116273921D01*
X90001670Y-116391098D01*
X90032862Y-116437780D01*
X90172220Y-116577138D01*
X90234732Y-116618907D01*
X90336078Y-116686626D01*
X90336090Y-116686632D01*
X90365950Y-116699000D01*
X90518165Y-116762049D01*
X90711460Y-116800498D01*
X90711461Y-116800498D01*
X90908539Y-116800498D01*
X90908540Y-116800498D01*
X91101835Y-116762049D01*
X91283914Y-116686630D01*
X91283916Y-116686628D01*
X91283921Y-116686626D01*
X91340182Y-116649033D01*
X91447780Y-116577138D01*
X91587138Y-116437780D01*
X91679851Y-116299026D01*
X91696626Y-116273921D01*
X91696632Y-116273909D01*
X91772049Y-116091835D01*
X91810498Y-115898540D01*
X91810498Y-115701460D01*
X91772049Y-115508165D01*
X91721602Y-115386374D01*
X91696632Y-115326090D01*
X91696626Y-115326078D01*
X91633818Y-115232082D01*
X91587138Y-115162220D01*
X91447780Y-115022862D01*
X91401098Y-114991670D01*
X91283921Y-114913373D01*
X91283909Y-114913367D01*
X91101835Y-114837951D01*
X90908542Y-114799502D01*
X90908540Y-114799502D01*
X90711460Y-114799502D01*
X90711457Y-114799502D01*
X90518165Y-114837951D01*
X90518163Y-114837951D01*
X90336090Y-114913367D01*
X90336078Y-114913373D01*
X90172220Y-115022862D01*
X90172216Y-115022865D01*
X90032865Y-115162216D01*
X90032862Y-115162220D01*
X89923373Y-115326078D01*
X89923367Y-115326090D01*
X89847951Y-115508163D01*
X89847951Y-115508165D01*
X89809502Y-115701457D01*
X89270497Y-115701457D01*
X89232049Y-115508165D01*
X89181602Y-115386374D01*
X89156632Y-115326090D01*
X89156626Y-115326078D01*
X89093818Y-115232082D01*
X89047138Y-115162220D01*
X88907780Y-115022862D01*
X88861098Y-114991670D01*
X88743921Y-114913373D01*
X88743909Y-114913367D01*
X88561835Y-114837951D01*
X88368542Y-114799502D01*
X88368540Y-114799502D01*
X88171460Y-114799502D01*
X88171455Y-114799502D01*
X88061425Y-114821388D01*
X88000664Y-114814196D01*
X87972108Y-114794294D01*
X85246496Y-112068682D01*
X85218719Y-112014165D01*
X85217500Y-111998678D01*
X85217500Y-109123135D01*
X85236407Y-109064944D01*
X85285907Y-109028980D01*
X85342121Y-109027509D01*
X85421208Y-109048700D01*
X85421209Y-109048700D01*
X85552990Y-109048700D01*
X85552992Y-109048700D01*
X85680286Y-109014592D01*
X85680288Y-109014590D01*
X85680290Y-109014590D01*
X85794409Y-108948703D01*
X85794409Y-108948702D01*
X85794414Y-108948700D01*
X85887600Y-108855514D01*
X85906015Y-108823618D01*
X85953490Y-108741390D01*
X85953490Y-108741388D01*
X85953492Y-108741386D01*
X85987600Y-108614092D01*
X85987600Y-108513678D01*
X86006507Y-108455487D01*
X86016597Y-108443674D01*
X86465676Y-107994596D01*
X86520192Y-107966819D01*
X86535679Y-107965600D01*
X88948484Y-107965600D01*
X89006675Y-107984507D01*
X89042639Y-108034007D01*
X89044110Y-108090220D01*
X89011800Y-108210808D01*
X89011800Y-108342592D01*
X89029827Y-108409870D01*
X89045909Y-108469890D01*
X89111796Y-108584009D01*
X89111798Y-108584011D01*
X89111800Y-108584014D01*
X89204986Y-108677200D01*
X89204988Y-108677201D01*
X89204990Y-108677203D01*
X89319110Y-108743090D01*
X89319108Y-108743090D01*
X89319112Y-108743091D01*
X89319114Y-108743092D01*
X89446408Y-108777200D01*
X89446410Y-108777200D01*
X89467820Y-108777200D01*
X89526011Y-108796107D01*
X89561975Y-108845607D01*
X89561975Y-108906793D01*
X89537824Y-108946204D01*
X89232024Y-109252004D01*
X89177507Y-109279781D01*
X89162020Y-109281000D01*
X89061608Y-109281000D01*
X88994979Y-109298853D01*
X88934309Y-109315109D01*
X88820190Y-109380996D01*
X88726996Y-109474190D01*
X88661109Y-109588309D01*
X88642039Y-109659478D01*
X88627000Y-109715608D01*
X88627000Y-109847392D01*
X88657079Y-109959651D01*
X88661109Y-109974690D01*
X88726996Y-110088809D01*
X88726998Y-110088811D01*
X88727000Y-110088814D01*
X88820186Y-110182000D01*
X88820188Y-110182001D01*
X88820190Y-110182003D01*
X88934310Y-110247890D01*
X88934308Y-110247890D01*
X88934312Y-110247891D01*
X88934314Y-110247892D01*
X89061608Y-110282000D01*
X89061610Y-110282000D01*
X89193390Y-110282000D01*
X89193392Y-110282000D01*
X89320686Y-110247892D01*
X89320688Y-110247890D01*
X89320690Y-110247890D01*
X89434809Y-110182003D01*
X89434809Y-110182002D01*
X89434814Y-110182000D01*
X89528000Y-110088814D01*
X89593892Y-109974686D01*
X89628000Y-109847392D01*
X89628000Y-109746978D01*
X89646907Y-109688787D01*
X89656996Y-109676974D01*
X90582075Y-108751896D01*
X90636592Y-108724119D01*
X90652079Y-108722900D01*
X94348221Y-108722900D01*
X94406412Y-108741807D01*
X94418225Y-108751896D01*
X96586940Y-110920611D01*
X96586939Y-110920611D01*
X96642889Y-110976560D01*
X96711407Y-111016119D01*
X96711411Y-111016121D01*
X96787835Y-111036599D01*
X96787837Y-111036600D01*
X96787838Y-111036600D01*
X98794663Y-111036600D01*
X98794663Y-111036599D01*
X98871089Y-111016121D01*
X98939611Y-110976560D01*
X98995560Y-110920611D01*
X102430996Y-107485175D01*
X102485513Y-107457398D01*
X102545945Y-107466969D01*
X102589210Y-107510234D01*
X102600000Y-107555179D01*
X102600000Y-116600000D01*
X102600001Y-116600000D01*
X119475500Y-116600000D01*
X119533691Y-116618907D01*
X119569655Y-116668407D01*
X119574500Y-116699000D01*
X119574500Y-117974165D01*
X119555593Y-118032356D01*
X119545504Y-118044169D01*
X118794169Y-118795504D01*
X118739652Y-118823281D01*
X118724165Y-118824500D01*
X102675834Y-118824500D01*
X102617643Y-118805593D01*
X102605830Y-118795504D01*
X101854496Y-118044169D01*
X101826719Y-117989652D01*
X101825500Y-117974165D01*
X101825500Y-117223321D01*
X101844407Y-117165130D01*
X101854490Y-117153323D01*
X101900500Y-117107314D01*
X101904724Y-117099998D01*
X101966390Y-116993190D01*
X101966390Y-116993188D01*
X101966392Y-116993186D01*
X102000500Y-116865892D01*
X102000500Y-116734108D01*
X101966392Y-116606814D01*
X101966390Y-116606811D01*
X101966390Y-116606809D01*
X101900503Y-116492690D01*
X101900501Y-116492688D01*
X101900500Y-116492686D01*
X101807314Y-116399500D01*
X101807311Y-116399498D01*
X101807309Y-116399496D01*
X101693189Y-116333609D01*
X101693191Y-116333609D01*
X101643799Y-116320375D01*
X101565892Y-116299500D01*
X101434108Y-116299500D01*
X101356200Y-116320375D01*
X101306809Y-116333609D01*
X101192690Y-116399496D01*
X101099496Y-116492690D01*
X101033609Y-116606809D01*
X101017104Y-116668407D01*
X100999500Y-116734108D01*
X100999500Y-116865892D01*
X101017778Y-116934108D01*
X101033609Y-116993190D01*
X101099496Y-117107309D01*
X101099498Y-117107311D01*
X101099500Y-117107314D01*
X101145505Y-117153319D01*
X101173281Y-117207834D01*
X101174500Y-117223321D01*
X101174500Y-118107147D01*
X101174500Y-118192853D01*
X101194062Y-118265863D01*
X101196683Y-118275643D01*
X101239531Y-118349857D01*
X101239533Y-118349859D01*
X101239535Y-118349862D01*
X101712955Y-118823281D01*
X101995170Y-119105496D01*
X102022947Y-119160013D01*
X102013376Y-119220445D01*
X101970111Y-119263710D01*
X101925166Y-119274500D01*
X100675834Y-119274500D01*
X100617643Y-119255593D01*
X100605830Y-119245504D01*
X99854496Y-118494169D01*
X99826719Y-118439652D01*
X99825500Y-118424165D01*
X99825500Y-117423321D01*
X99844407Y-117365130D01*
X99854490Y-117353323D01*
X99900500Y-117307314D01*
X99900503Y-117307309D01*
X99966390Y-117193190D01*
X99966390Y-117193188D01*
X99966392Y-117193186D01*
X100000500Y-117065892D01*
X100000500Y-116934108D01*
X99966392Y-116806814D01*
X99966390Y-116806811D01*
X99966390Y-116806809D01*
X99900503Y-116692690D01*
X99900501Y-116692688D01*
X99900500Y-116692686D01*
X99807314Y-116599500D01*
X99807311Y-116599498D01*
X99807309Y-116599496D01*
X99693189Y-116533609D01*
X99693191Y-116533609D01*
X99643799Y-116520375D01*
X99565892Y-116499500D01*
X99434108Y-116499500D01*
X99356200Y-116520375D01*
X99306809Y-116533609D01*
X99192690Y-116599496D01*
X99099496Y-116692690D01*
X99033609Y-116806809D01*
X99033608Y-116806814D01*
X98999500Y-116934108D01*
X98999500Y-117065892D01*
X99029579Y-117178151D01*
X99033609Y-117193190D01*
X99099496Y-117307309D01*
X99099498Y-117307311D01*
X99099500Y-117307314D01*
X99145505Y-117353319D01*
X99173281Y-117407834D01*
X99174500Y-117423321D01*
X99174500Y-118557147D01*
X99174500Y-118642853D01*
X99184515Y-118680229D01*
X99196683Y-118725643D01*
X99239531Y-118799857D01*
X99239533Y-118799859D01*
X99239535Y-118799862D01*
X100239533Y-119799859D01*
X100239535Y-119799862D01*
X100300138Y-119860465D01*
X100374362Y-119903318D01*
X100374364Y-119903318D01*
X100374365Y-119903319D01*
X100415755Y-119914409D01*
X100457145Y-119925500D01*
X100457147Y-119925501D01*
X100457148Y-119925501D01*
X100548916Y-119925501D01*
X100548932Y-119925500D01*
X119542851Y-119925500D01*
X119542853Y-119925500D01*
X119625639Y-119903318D01*
X119625641Y-119903316D01*
X119625643Y-119903316D01*
X119699857Y-119860468D01*
X119699857Y-119860467D01*
X119699862Y-119860465D01*
X120699859Y-118860466D01*
X120699862Y-118860465D01*
X120760465Y-118799862D01*
X120803318Y-118725638D01*
X120815485Y-118680231D01*
X120825501Y-118642852D01*
X120825501Y-118557147D01*
X120825500Y-118557143D01*
X120825500Y-113040253D01*
X121049500Y-113040253D01*
X121049500Y-114579746D01*
X121049501Y-114579758D01*
X121061132Y-114638227D01*
X121061134Y-114638233D01*
X121105445Y-114704548D01*
X121105448Y-114704552D01*
X121171769Y-114748867D01*
X121216231Y-114757711D01*
X121230241Y-114760498D01*
X121230246Y-114760498D01*
X121230252Y-114760500D01*
X121230253Y-114760500D01*
X122769747Y-114760500D01*
X122769748Y-114760500D01*
X122828231Y-114748867D01*
X122894552Y-114704552D01*
X122938867Y-114638231D01*
X122950500Y-114579748D01*
X122950500Y-113040252D01*
X122938867Y-112981769D01*
X122894552Y-112915448D01*
X122894548Y-112915445D01*
X122828233Y-112871134D01*
X122828231Y-112871133D01*
X122828228Y-112871132D01*
X122828227Y-112871132D01*
X122769758Y-112859501D01*
X122769748Y-112859500D01*
X121230252Y-112859500D01*
X121230251Y-112859500D01*
X121230241Y-112859501D01*
X121171772Y-112871132D01*
X121171766Y-112871134D01*
X121105451Y-112915445D01*
X121105445Y-112915451D01*
X121061134Y-112981766D01*
X121061132Y-112981772D01*
X121049501Y-113040241D01*
X121049500Y-113040253D01*
X120825500Y-113040253D01*
X120825500Y-112056927D01*
X120844407Y-111998736D01*
X120893907Y-111962772D01*
X120932269Y-111958232D01*
X120956319Y-111960125D01*
X121517036Y-111399407D01*
X121534075Y-111462993D01*
X121599901Y-111577007D01*
X121692993Y-111670099D01*
X121807007Y-111735925D01*
X121870590Y-111752962D01*
X121309874Y-112313678D01*
X121344860Y-112339097D01*
X121520170Y-112428421D01*
X121520173Y-112428423D01*
X121707285Y-112489220D01*
X121707289Y-112489221D01*
X121901620Y-112520000D01*
X122098380Y-112520000D01*
X122292710Y-112489221D01*
X122292714Y-112489220D01*
X122479826Y-112428423D01*
X122479829Y-112428421D01*
X122655142Y-112339096D01*
X122655148Y-112339092D01*
X122690125Y-112313679D01*
X122690125Y-112313678D01*
X122129409Y-111752962D01*
X122192993Y-111735925D01*
X122307007Y-111670099D01*
X122400099Y-111577007D01*
X122465925Y-111462993D01*
X122482962Y-111399409D01*
X123043678Y-111960125D01*
X123043679Y-111960125D01*
X123069092Y-111925148D01*
X123069096Y-111925142D01*
X123158421Y-111749829D01*
X123158423Y-111749826D01*
X123219220Y-111562714D01*
X123219221Y-111562710D01*
X123250000Y-111368380D01*
X123250000Y-111171619D01*
X123219221Y-110977289D01*
X123219220Y-110977285D01*
X123158423Y-110790173D01*
X123158421Y-110790170D01*
X123069097Y-110614860D01*
X123043678Y-110579874D01*
X122482962Y-111140590D01*
X122465925Y-111077007D01*
X122400099Y-110962993D01*
X122307007Y-110869901D01*
X122192993Y-110804075D01*
X122129407Y-110787036D01*
X122690125Y-110226319D01*
X122655148Y-110200907D01*
X122479829Y-110111578D01*
X122479826Y-110111576D01*
X122292714Y-110050779D01*
X122292710Y-110050778D01*
X122098380Y-110020000D01*
X121901620Y-110020000D01*
X121707289Y-110050778D01*
X121707285Y-110050779D01*
X121520173Y-110111576D01*
X121520170Y-110111578D01*
X121344856Y-110200904D01*
X121309873Y-110226319D01*
X121870591Y-110787037D01*
X121807007Y-110804075D01*
X121692993Y-110869901D01*
X121599901Y-110962993D01*
X121534075Y-111077007D01*
X121517037Y-111140591D01*
X120956319Y-110579873D01*
X120932268Y-110581766D01*
X120872773Y-110567483D01*
X120833036Y-110520957D01*
X120825500Y-110483071D01*
X120825500Y-109655833D01*
X120844407Y-109597642D01*
X120854490Y-109585836D01*
X121113567Y-109326758D01*
X121168082Y-109298982D01*
X121228514Y-109308553D01*
X121258253Y-109332474D01*
X121258259Y-109332469D01*
X121258313Y-109332523D01*
X121260098Y-109333959D01*
X121261695Y-109335905D01*
X121261697Y-109335907D01*
X121261698Y-109335908D01*
X121394092Y-109468302D01*
X121460463Y-109512649D01*
X121549761Y-109572318D01*
X121549767Y-109572320D01*
X121549769Y-109572322D01*
X121722749Y-109643973D01*
X121906384Y-109680500D01*
X121906385Y-109680500D01*
X122093615Y-109680500D01*
X122093616Y-109680500D01*
X122277251Y-109643973D01*
X122450231Y-109572322D01*
X122450234Y-109572319D01*
X122450238Y-109572318D01*
X122495187Y-109542282D01*
X122605908Y-109468302D01*
X122738302Y-109335908D01*
X122824563Y-109206809D01*
X122842318Y-109180238D01*
X122842319Y-109180234D01*
X122842322Y-109180231D01*
X122913973Y-109007251D01*
X122950500Y-108823616D01*
X122950500Y-108636384D01*
X122913973Y-108452749D01*
X122842322Y-108279769D01*
X122842320Y-108279767D01*
X122842318Y-108279761D01*
X122780319Y-108186975D01*
X122738302Y-108124092D01*
X122605908Y-107991698D01*
X122561559Y-107962065D01*
X122450238Y-107887681D01*
X122450229Y-107887677D01*
X122277249Y-107816026D01*
X122093618Y-107779500D01*
X122093616Y-107779500D01*
X121906384Y-107779500D01*
X121906381Y-107779500D01*
X121722750Y-107816026D01*
X121549770Y-107887677D01*
X121549761Y-107887681D01*
X121394092Y-107991698D01*
X121394088Y-107991701D01*
X121261701Y-108124088D01*
X121261698Y-108124092D01*
X121157681Y-108279761D01*
X121157679Y-108279767D01*
X121101028Y-108416531D01*
X121061291Y-108463056D01*
X121059072Y-108464376D01*
X121050137Y-108469535D01*
X120394504Y-109125169D01*
X120339987Y-109152946D01*
X120279555Y-109143375D01*
X120236290Y-109100110D01*
X120225500Y-109055165D01*
X120225500Y-107365834D01*
X120244407Y-107307643D01*
X120254496Y-107295830D01*
X120598668Y-106951658D01*
X120980396Y-106569929D01*
X121034911Y-106542154D01*
X121095343Y-106551725D01*
X121138608Y-106594990D01*
X121141862Y-106602049D01*
X121157677Y-106640230D01*
X121157678Y-106640231D01*
X121261698Y-106795908D01*
X121394092Y-106928302D01*
X121460463Y-106972649D01*
X121549761Y-107032318D01*
X121549767Y-107032320D01*
X121549769Y-107032322D01*
X121722749Y-107103973D01*
X121906384Y-107140500D01*
X121906385Y-107140500D01*
X122093615Y-107140500D01*
X122093616Y-107140500D01*
X122277251Y-107103973D01*
X122303515Y-107093093D01*
X122364511Y-107088293D01*
X122416680Y-107120263D01*
X122440095Y-107176790D01*
X122440400Y-107184558D01*
X122440400Y-107285092D01*
X122450752Y-107323725D01*
X122474509Y-107412390D01*
X122540396Y-107526509D01*
X122540398Y-107526511D01*
X122540400Y-107526514D01*
X122633586Y-107619700D01*
X122633588Y-107619701D01*
X122633590Y-107619703D01*
X122747710Y-107685590D01*
X122747708Y-107685590D01*
X122747712Y-107685591D01*
X122747714Y-107685592D01*
X122875008Y-107719700D01*
X122875010Y-107719700D01*
X122975421Y-107719700D01*
X123033612Y-107738607D01*
X123045425Y-107748696D01*
X123483704Y-108186975D01*
X123511481Y-108241492D01*
X123512700Y-108256979D01*
X123512700Y-116251320D01*
X123493793Y-116309511D01*
X123483704Y-116321324D01*
X122473755Y-117331272D01*
X122419238Y-117359049D01*
X122365866Y-117352732D01*
X122277251Y-117316027D01*
X122093618Y-117279500D01*
X122093616Y-117279500D01*
X121906384Y-117279500D01*
X121906381Y-117279500D01*
X121722750Y-117316026D01*
X121549770Y-117387677D01*
X121549761Y-117387681D01*
X121394092Y-117491698D01*
X121394088Y-117491701D01*
X121261701Y-117624088D01*
X121261698Y-117624092D01*
X121157681Y-117779761D01*
X121157677Y-117779770D01*
X121086026Y-117952750D01*
X121049500Y-118136381D01*
X121049500Y-118323618D01*
X121086026Y-118507249D01*
X121157677Y-118680229D01*
X121157681Y-118680238D01*
X121232065Y-118791559D01*
X121261698Y-118835908D01*
X121394092Y-118968302D01*
X121460463Y-119012649D01*
X121549761Y-119072318D01*
X121549767Y-119072320D01*
X121549769Y-119072322D01*
X121722749Y-119143973D01*
X121906384Y-119180500D01*
X121906385Y-119180500D01*
X122093615Y-119180500D01*
X122093616Y-119180500D01*
X122277251Y-119143973D01*
X122450231Y-119072322D01*
X122450234Y-119072319D01*
X122450238Y-119072318D01*
X122495187Y-119042282D01*
X122605908Y-118968302D01*
X122738302Y-118835908D01*
X122836695Y-118688653D01*
X122842318Y-118680238D01*
X122842319Y-118680234D01*
X122842322Y-118680231D01*
X122913973Y-118507251D01*
X122950500Y-118323616D01*
X122950500Y-118136384D01*
X122913973Y-117952749D01*
X122877265Y-117864130D01*
X122872465Y-117803136D01*
X122898724Y-117756245D01*
X124030998Y-116623972D01*
X124085513Y-116596197D01*
X124145945Y-116605768D01*
X124189210Y-116649033D01*
X124200000Y-116693978D01*
X124200000Y-120901000D01*
X124181093Y-120959191D01*
X124131593Y-120995155D01*
X124101000Y-121000000D01*
X123049500Y-121000000D01*
X122991309Y-120981093D01*
X122955345Y-120931593D01*
X122950500Y-120901000D01*
X122950500Y-120000253D01*
X122950498Y-120000241D01*
X122947711Y-119986231D01*
X122938867Y-119941769D01*
X122894552Y-119875448D01*
X122894548Y-119875445D01*
X122828233Y-119831134D01*
X122828231Y-119831133D01*
X122828228Y-119831132D01*
X122828227Y-119831132D01*
X122769758Y-119819501D01*
X122769748Y-119819500D01*
X121230252Y-119819500D01*
X121230251Y-119819500D01*
X121230241Y-119819501D01*
X121171772Y-119831132D01*
X121171766Y-119831134D01*
X121105451Y-119875445D01*
X121105445Y-119875451D01*
X121061134Y-119941766D01*
X121061132Y-119941772D01*
X121049501Y-120000241D01*
X121049500Y-120000253D01*
X121049500Y-120901000D01*
X121030593Y-120959191D01*
X120981093Y-120995155D01*
X120950500Y-121000000D01*
X76299000Y-121000000D01*
X76240809Y-120981093D01*
X76204845Y-120931593D01*
X76200000Y-120901000D01*
X76200000Y-115701457D01*
X82189502Y-115701457D01*
X82189502Y-115898542D01*
X82227951Y-116091834D01*
X82227951Y-116091836D01*
X82303367Y-116273909D01*
X82303373Y-116273921D01*
X82381670Y-116391098D01*
X82412862Y-116437780D01*
X82552220Y-116577138D01*
X82614732Y-116618907D01*
X82716078Y-116686626D01*
X82716090Y-116686632D01*
X82745950Y-116699000D01*
X82898165Y-116762049D01*
X83091460Y-116800498D01*
X83091461Y-116800498D01*
X83288539Y-116800498D01*
X83288540Y-116800498D01*
X83481835Y-116762049D01*
X83663914Y-116686630D01*
X83663916Y-116686628D01*
X83663921Y-116686626D01*
X83720182Y-116649033D01*
X83827780Y-116577138D01*
X83967138Y-116437780D01*
X84059851Y-116299026D01*
X84076626Y-116273921D01*
X84076632Y-116273909D01*
X84152049Y-116091835D01*
X84190498Y-115898540D01*
X84190498Y-115701460D01*
X84190497Y-115701457D01*
X84184118Y-115669389D01*
X84152049Y-115508165D01*
X84101602Y-115386374D01*
X84076632Y-115326090D01*
X84076626Y-115326078D01*
X84013818Y-115232082D01*
X83967138Y-115162220D01*
X83827780Y-115022862D01*
X83781098Y-114991670D01*
X83663921Y-114913373D01*
X83663909Y-114913367D01*
X83481835Y-114837951D01*
X83288542Y-114799502D01*
X83288540Y-114799502D01*
X83091460Y-114799502D01*
X83091457Y-114799502D01*
X82898165Y-114837951D01*
X82898163Y-114837951D01*
X82716090Y-114913367D01*
X82716078Y-114913373D01*
X82552220Y-115022862D01*
X82552216Y-115022865D01*
X82412865Y-115162216D01*
X82412862Y-115162220D01*
X82303373Y-115326078D01*
X82303367Y-115326090D01*
X82227951Y-115508163D01*
X82227951Y-115508165D01*
X82189502Y-115701457D01*
X76200000Y-115701457D01*
X76200000Y-103699000D01*
X76218907Y-103640809D01*
X76268407Y-103604845D01*
X76299000Y-103600000D01*
X86257178Y-103600000D01*
X86315369Y-103618907D01*
G37*
%TD.AperFunction*%
%TA.AperFunction,Conductor*%
G36*
X94959191Y-97347607D02*
G01*
X94995155Y-97397107D01*
X95000000Y-97427700D01*
X95000000Y-100600000D01*
X102501000Y-100600000D01*
X102559191Y-100618907D01*
X102595155Y-100668407D01*
X102600000Y-100699000D01*
X102600000Y-105344321D01*
X102581093Y-105402512D01*
X102571004Y-105414325D01*
X98732468Y-109252860D01*
X98677951Y-109280637D01*
X98617519Y-109271066D01*
X98574254Y-109227801D01*
X98566839Y-109208482D01*
X98566392Y-109206814D01*
X98566389Y-109206810D01*
X98566389Y-109206807D01*
X98500503Y-109092690D01*
X98500501Y-109092688D01*
X98500500Y-109092686D01*
X98429494Y-109021680D01*
X98401719Y-108967166D01*
X98400500Y-108951679D01*
X98400500Y-105310437D01*
X98400499Y-105310435D01*
X98380021Y-105234011D01*
X98380019Y-105234007D01*
X98340460Y-105165489D01*
X98284511Y-105109539D01*
X98284511Y-105109540D01*
X94879496Y-101704525D01*
X94851719Y-101650008D01*
X94850500Y-101634521D01*
X94850500Y-101534109D01*
X94822672Y-101430252D01*
X94816392Y-101406814D01*
X94816390Y-101406811D01*
X94816390Y-101406809D01*
X94750503Y-101292690D01*
X94750501Y-101292688D01*
X94750500Y-101292686D01*
X94657314Y-101199500D01*
X94657311Y-101199498D01*
X94657309Y-101199496D01*
X94543189Y-101133609D01*
X94543191Y-101133609D01*
X94493799Y-101120375D01*
X94415892Y-101099500D01*
X94284108Y-101099500D01*
X94206200Y-101120375D01*
X94156809Y-101133609D01*
X94042690Y-101199496D01*
X94042689Y-101199497D01*
X94042686Y-101199499D01*
X94042686Y-101199500D01*
X93971680Y-101270505D01*
X93917166Y-101298281D01*
X93901679Y-101299500D01*
X91299000Y-101299500D01*
X91240809Y-101280593D01*
X91204845Y-101231093D01*
X91200000Y-101200500D01*
X91200000Y-100352821D01*
X91218907Y-100294630D01*
X91228992Y-100282821D01*
X94154118Y-97357696D01*
X94208635Y-97329919D01*
X94224122Y-97328700D01*
X94901000Y-97328700D01*
X94959191Y-97347607D01*
G37*
%TD.AperFunction*%
%TD*%
%TA.AperFunction,Conductor*%
%TO.N,GND*%
G36*
X124506913Y-75405832D02*
G01*
X124520887Y-75410373D01*
X124575376Y-75449956D01*
X124578674Y-75454496D01*
X124599500Y-75518560D01*
X124599500Y-116559756D01*
X124578683Y-116623825D01*
X124524183Y-116663421D01*
X124456817Y-116663421D01*
X124402317Y-116623825D01*
X124385931Y-116590519D01*
X124383178Y-116581161D01*
X124383177Y-116581159D01*
X124334521Y-116503725D01*
X124334520Y-116503723D01*
X124291255Y-116460458D01*
X124291248Y-116460452D01*
X124291246Y-116460450D01*
X124262973Y-116436846D01*
X124178092Y-116402798D01*
X124178085Y-116402796D01*
X124117657Y-116393226D01*
X124080909Y-116390749D01*
X124080905Y-116390749D01*
X124021164Y-116405801D01*
X123992223Y-116413093D01*
X123992222Y-116413093D01*
X123992220Y-116413094D01*
X123992218Y-116413095D01*
X123937708Y-116440867D01*
X123937704Y-116440870D01*
X123885693Y-116478656D01*
X123885685Y-116478663D01*
X123861934Y-116502414D01*
X123801910Y-116532996D01*
X123735374Y-116522457D01*
X123687740Y-116474821D01*
X123677203Y-116408285D01*
X123687651Y-116378162D01*
X123687091Y-116377917D01*
X123689233Y-116373018D01*
X123689236Y-116373013D01*
X123708143Y-116314822D01*
X123718200Y-116251320D01*
X123718200Y-111340097D01*
X123725500Y-111312853D01*
X123725500Y-111227147D01*
X123718200Y-111199902D01*
X123718200Y-108256979D01*
X123717566Y-108240854D01*
X123716347Y-108225367D01*
X123694584Y-108148199D01*
X123666807Y-108093682D01*
X123648544Y-108068545D01*
X123629021Y-108041674D01*
X123629015Y-108041667D01*
X123629014Y-108041665D01*
X123190735Y-107603386D01*
X123178885Y-107592431D01*
X123167072Y-107582342D01*
X123167071Y-107582341D01*
X123097117Y-107543165D01*
X123097108Y-107543161D01*
X123038929Y-107524258D01*
X123038926Y-107524257D01*
X122975422Y-107514200D01*
X122975421Y-107514200D01*
X122916414Y-107514200D01*
X122888201Y-107510485D01*
X122840890Y-107497807D01*
X122814604Y-107486919D01*
X122772194Y-107462434D01*
X122749618Y-107445112D01*
X122714984Y-107410478D01*
X122697662Y-107387903D01*
X122673178Y-107345495D01*
X122662289Y-107319204D01*
X122649614Y-107271897D01*
X122645900Y-107243688D01*
X122645900Y-107184556D01*
X122645893Y-107184240D01*
X122645742Y-107176496D01*
X122645437Y-107168728D01*
X122629951Y-107098146D01*
X122606536Y-107041619D01*
X122604551Y-107037829D01*
X122593262Y-106971416D01*
X122623167Y-106911052D01*
X122623945Y-106910264D01*
X122738302Y-106795908D01*
X122842322Y-106640231D01*
X122913973Y-106467251D01*
X122950500Y-106283616D01*
X122950500Y-106096384D01*
X122913973Y-105912749D01*
X122842322Y-105739769D01*
X122842319Y-105739765D01*
X122842319Y-105739764D01*
X122841916Y-105739056D01*
X122840668Y-105737294D01*
X122787225Y-105657311D01*
X122738305Y-105584096D01*
X122738304Y-105584095D01*
X122738302Y-105584092D01*
X122605908Y-105451698D01*
X122605904Y-105451695D01*
X122605903Y-105451694D01*
X122605901Y-105451692D01*
X122450232Y-105347678D01*
X122450192Y-105347657D01*
X122449590Y-105347412D01*
X122280686Y-105277450D01*
X122277263Y-105276032D01*
X122277249Y-105276026D01*
X122166668Y-105254030D01*
X122093616Y-105239500D01*
X122093614Y-105239500D01*
X121906385Y-105239500D01*
X121906384Y-105239500D01*
X121891076Y-105242545D01*
X121722754Y-105276025D01*
X121722733Y-105276032D01*
X121550408Y-105347412D01*
X121549810Y-105347655D01*
X121549766Y-105347678D01*
X121394100Y-105451690D01*
X121261690Y-105584100D01*
X121157679Y-105739763D01*
X121157061Y-105741026D01*
X121156199Y-105743336D01*
X121140490Y-105781261D01*
X121122673Y-105810337D01*
X121114653Y-105819727D01*
X121114465Y-105819966D01*
X121114428Y-105819990D01*
X121113270Y-105821347D01*
X121112887Y-105821020D01*
X121098091Y-105830903D01*
X121096739Y-105832487D01*
X121095149Y-105832868D01*
X121058481Y-105857363D01*
X121047698Y-105860405D01*
X121018103Y-105864500D01*
X120951262Y-105864500D01*
X120951198Y-105864499D01*
X120949529Y-105864499D01*
X120942853Y-105864499D01*
X120857148Y-105864499D01*
X120857146Y-105864499D01*
X120857144Y-105864499D01*
X120774361Y-105886681D01*
X120700136Y-105929535D01*
X120607626Y-106022043D01*
X120607609Y-106022064D01*
X119639533Y-106990140D01*
X119586256Y-107082414D01*
X119588114Y-107091153D01*
X119584997Y-107107968D01*
X119574500Y-107147145D01*
X119574500Y-116285500D01*
X119553683Y-116349569D01*
X119499183Y-116389165D01*
X119465500Y-116394500D01*
X102914500Y-116394500D01*
X102850431Y-116373683D01*
X102810835Y-116319183D01*
X102805500Y-116285500D01*
X102805500Y-114100252D01*
X109249500Y-114100252D01*
X109249500Y-114104745D01*
X109249500Y-115639750D01*
X109258805Y-115686531D01*
X109261132Y-115698229D01*
X109261133Y-115698232D01*
X109305441Y-115764544D01*
X109305442Y-115764545D01*
X109305445Y-115764549D01*
X109305450Y-115764554D01*
X109371767Y-115808866D01*
X109371769Y-115808867D01*
X109430252Y-115820500D01*
X109430255Y-115820500D01*
X110969744Y-115820500D01*
X110969748Y-115820500D01*
X111028231Y-115808867D01*
X111094552Y-115764552D01*
X111138867Y-115698231D01*
X111150500Y-115639748D01*
X111150500Y-114100252D01*
X111150500Y-114100251D01*
X113149500Y-114100251D01*
X113149500Y-115639750D01*
X113158805Y-115686531D01*
X113161132Y-115698229D01*
X113161133Y-115698232D01*
X113205441Y-115764544D01*
X113205442Y-115764545D01*
X113205445Y-115764549D01*
X113205450Y-115764554D01*
X113271767Y-115808866D01*
X113271769Y-115808867D01*
X113330252Y-115820500D01*
X113330255Y-115820500D01*
X114869744Y-115820500D01*
X114869748Y-115820500D01*
X114928231Y-115808867D01*
X114994552Y-115764552D01*
X115038867Y-115698231D01*
X115050500Y-115639748D01*
X115050500Y-114100252D01*
X115038867Y-114041769D01*
X115018238Y-114010896D01*
X114994554Y-113975450D01*
X114994549Y-113975445D01*
X114928232Y-113931133D01*
X114913610Y-113928224D01*
X114869748Y-113919500D01*
X114869747Y-113919500D01*
X113330245Y-113919500D01*
X113295159Y-113926479D01*
X113271769Y-113931131D01*
X113271768Y-113931132D01*
X113205452Y-113975443D01*
X113205443Y-113975452D01*
X113161133Y-114041766D01*
X113159567Y-114046929D01*
X113159039Y-114052294D01*
X113149500Y-114100251D01*
X111150500Y-114100251D01*
X111138867Y-114041769D01*
X111118238Y-114010896D01*
X111094554Y-113975450D01*
X111094549Y-113975445D01*
X111028232Y-113931133D01*
X111013610Y-113928224D01*
X110969748Y-113919500D01*
X110969747Y-113919500D01*
X109430245Y-113919500D01*
X109395159Y-113926479D01*
X109371769Y-113931131D01*
X109371768Y-113931132D01*
X109305452Y-113975443D01*
X109305443Y-113975452D01*
X109261133Y-114041766D01*
X109259567Y-114046929D01*
X109259276Y-114049879D01*
X109259369Y-114050564D01*
X109259210Y-114051432D01*
X109249500Y-114100252D01*
X102805500Y-114100252D01*
X102805500Y-112236384D01*
X109249500Y-112236384D01*
X109249500Y-112423616D01*
X109286027Y-112607250D01*
X109286028Y-112607253D01*
X109286032Y-112607265D01*
X109353491Y-112770125D01*
X109353492Y-112770127D01*
X109357676Y-112780227D01*
X109357678Y-112780232D01*
X109461694Y-112935903D01*
X109461695Y-112935904D01*
X109461698Y-112935908D01*
X109594092Y-113068302D01*
X109594095Y-113068304D01*
X109594096Y-113068305D01*
X109749767Y-113172321D01*
X109749768Y-113172321D01*
X109750664Y-113172920D01*
X109754696Y-113174362D01*
X109922749Y-113243973D01*
X110106384Y-113280500D01*
X110106387Y-113280500D01*
X110293612Y-113280500D01*
X110293616Y-113280500D01*
X110477251Y-113243973D01*
X110650231Y-113172322D01*
X110805908Y-113068302D01*
X110938302Y-112935908D01*
X111042322Y-112780231D01*
X111113973Y-112607251D01*
X111150500Y-112423616D01*
X111150500Y-112236384D01*
X113149500Y-112236384D01*
X113149500Y-112423616D01*
X113186027Y-112607250D01*
X113186028Y-112607253D01*
X113186032Y-112607265D01*
X113253491Y-112770125D01*
X113253492Y-112770127D01*
X113257676Y-112780227D01*
X113257678Y-112780232D01*
X113361694Y-112935903D01*
X113361695Y-112935904D01*
X113361698Y-112935908D01*
X113494092Y-113068302D01*
X113494095Y-113068304D01*
X113494096Y-113068305D01*
X113649767Y-113172321D01*
X113649768Y-113172321D01*
X113650664Y-113172920D01*
X113654696Y-113174362D01*
X113822749Y-113243973D01*
X114006384Y-113280500D01*
X114006387Y-113280500D01*
X114193612Y-113280500D01*
X114193616Y-113280500D01*
X114377251Y-113243973D01*
X114550231Y-113172322D01*
X114705908Y-113068302D01*
X114838302Y-112935908D01*
X114942322Y-112780231D01*
X115013973Y-112607251D01*
X115050500Y-112423616D01*
X115050500Y-112236384D01*
X115013973Y-112052749D01*
X114942322Y-111879769D01*
X114838307Y-111724100D01*
X114838305Y-111724096D01*
X114838304Y-111724095D01*
X114838302Y-111724092D01*
X114705908Y-111591698D01*
X114705904Y-111591695D01*
X114705903Y-111591694D01*
X114705901Y-111591692D01*
X114550232Y-111487678D01*
X114550192Y-111487657D01*
X114549590Y-111487412D01*
X114453856Y-111447758D01*
X114433030Y-111429971D01*
X114377286Y-111416035D01*
X114377258Y-111416029D01*
X114377253Y-111416028D01*
X114377255Y-111416028D01*
X114377251Y-111416027D01*
X114193616Y-111379500D01*
X114193613Y-111379500D01*
X114006385Y-111379500D01*
X114006384Y-111379500D01*
X113976056Y-111385532D01*
X113822754Y-111416025D01*
X113822733Y-111416032D01*
X113650408Y-111487412D01*
X113649810Y-111487655D01*
X113649766Y-111487678D01*
X113494100Y-111591690D01*
X113361690Y-111724100D01*
X113257678Y-111879766D01*
X113257655Y-111879810D01*
X113257412Y-111880408D01*
X113204436Y-112008305D01*
X113186028Y-112052745D01*
X113186028Y-112052746D01*
X113186027Y-112052749D01*
X113149500Y-112236384D01*
X111150500Y-112236384D01*
X111113973Y-112052749D01*
X111042322Y-111879769D01*
X110938307Y-111724100D01*
X110938305Y-111724096D01*
X110938304Y-111724095D01*
X110938302Y-111724092D01*
X110805908Y-111591698D01*
X110805904Y-111591695D01*
X110805903Y-111591694D01*
X110805901Y-111591692D01*
X110650232Y-111487678D01*
X110650192Y-111487657D01*
X110649590Y-111487412D01*
X110553856Y-111447758D01*
X110533030Y-111429971D01*
X110477286Y-111416035D01*
X110477258Y-111416029D01*
X110477253Y-111416028D01*
X110477255Y-111416028D01*
X110477251Y-111416027D01*
X110293616Y-111379500D01*
X110293613Y-111379500D01*
X110106385Y-111379500D01*
X110106384Y-111379500D01*
X110076056Y-111385532D01*
X109922754Y-111416025D01*
X109922733Y-111416032D01*
X109750408Y-111487412D01*
X109749810Y-111487655D01*
X109749766Y-111487678D01*
X109594100Y-111591690D01*
X109461690Y-111724100D01*
X109357678Y-111879766D01*
X109357655Y-111879810D01*
X109357412Y-111880408D01*
X109304436Y-112008305D01*
X109286028Y-112052745D01*
X109286028Y-112052746D01*
X109286027Y-112052749D01*
X109249500Y-112236384D01*
X102805500Y-112236384D01*
X102805500Y-107555177D01*
X102805499Y-107555171D01*
X102799822Y-107507206D01*
X102789038Y-107462286D01*
X102789036Y-107462279D01*
X102789032Y-107462262D01*
X102783178Y-107442362D01*
X102772042Y-107424640D01*
X102734521Y-107364926D01*
X102734520Y-107364924D01*
X102719955Y-107350359D01*
X102689374Y-107290338D01*
X102699912Y-107223802D01*
X102719954Y-107196215D01*
X108485918Y-101430252D01*
X121049500Y-101430252D01*
X121049500Y-101434745D01*
X121049500Y-102969750D01*
X121058805Y-103016531D01*
X121061132Y-103028229D01*
X121061133Y-103028232D01*
X121105441Y-103094544D01*
X121105442Y-103094545D01*
X121105445Y-103094549D01*
X121105450Y-103094554D01*
X121171767Y-103138866D01*
X121171769Y-103138867D01*
X121230252Y-103150500D01*
X121230255Y-103150500D01*
X122769744Y-103150500D01*
X122769748Y-103150500D01*
X122828231Y-103138867D01*
X122894552Y-103094552D01*
X122938867Y-103028231D01*
X122950500Y-102969748D01*
X122950500Y-101430252D01*
X122938867Y-101371769D01*
X122930696Y-101359540D01*
X122894554Y-101305450D01*
X122894549Y-101305445D01*
X122828232Y-101261133D01*
X122813610Y-101258224D01*
X122769748Y-101249500D01*
X122769747Y-101249500D01*
X121230245Y-101249500D01*
X121195159Y-101256479D01*
X121171769Y-101261131D01*
X121171768Y-101261132D01*
X121105452Y-101305443D01*
X121105443Y-101305452D01*
X121061133Y-101371766D01*
X121059567Y-101376929D01*
X121059276Y-101379879D01*
X121059369Y-101380564D01*
X121059210Y-101381432D01*
X121049500Y-101430252D01*
X108485918Y-101430252D01*
X109746742Y-100169428D01*
X109774325Y-100149388D01*
X109798290Y-100137178D01*
X109847771Y-100125300D01*
X109897092Y-100125300D01*
X110024386Y-100091192D01*
X110138514Y-100025300D01*
X110159184Y-100004629D01*
X110186773Y-99984586D01*
X110210735Y-99972378D01*
X110260216Y-99960500D01*
X121005563Y-99960500D01*
X121039241Y-99965833D01*
X121055449Y-99971100D01*
X121107357Y-100007276D01*
X121114189Y-100015941D01*
X121129298Y-100041717D01*
X121157674Y-100110223D01*
X121157678Y-100110232D01*
X121157680Y-100110235D01*
X121261691Y-100265900D01*
X121261694Y-100265903D01*
X121261695Y-100265904D01*
X121261698Y-100265908D01*
X121394092Y-100398302D01*
X121394095Y-100398304D01*
X121394096Y-100398305D01*
X121549767Y-100502321D01*
X121549768Y-100502321D01*
X121550664Y-100502920D01*
X121554696Y-100504362D01*
X121722749Y-100573973D01*
X121906384Y-100610500D01*
X121906387Y-100610500D01*
X122093612Y-100610500D01*
X122093616Y-100610500D01*
X122277251Y-100573973D01*
X122450231Y-100502322D01*
X122605908Y-100398302D01*
X122738302Y-100265908D01*
X122842322Y-100110231D01*
X122913973Y-99937251D01*
X122950500Y-99753616D01*
X122950500Y-99566384D01*
X122913973Y-99382749D01*
X122842323Y-99209772D01*
X122842324Y-99209772D01*
X122829001Y-99189833D01*
X122808540Y-99159211D01*
X122738305Y-99054096D01*
X122738304Y-99054095D01*
X122738302Y-99054092D01*
X122605908Y-98921698D01*
X122605904Y-98921695D01*
X122605903Y-98921694D01*
X122605901Y-98921692D01*
X122450232Y-98817678D01*
X122450192Y-98817657D01*
X122449590Y-98817412D01*
X122353856Y-98777758D01*
X122333030Y-98759971D01*
X122277286Y-98746035D01*
X122277258Y-98746029D01*
X122277253Y-98746028D01*
X122277255Y-98746028D01*
X122277251Y-98746027D01*
X122093616Y-98709500D01*
X122093613Y-98709500D01*
X121906385Y-98709500D01*
X121906384Y-98709500D01*
X121876056Y-98715532D01*
X121722754Y-98746025D01*
X121722733Y-98746032D01*
X121550408Y-98817412D01*
X121549810Y-98817655D01*
X121549766Y-98817678D01*
X121394100Y-98921690D01*
X121261690Y-99054100D01*
X121157680Y-99209763D01*
X121157678Y-99209766D01*
X121157676Y-99209770D01*
X121130135Y-99276261D01*
X121112317Y-99305337D01*
X121101251Y-99318294D01*
X121047954Y-99352412D01*
X121037335Y-99355407D01*
X121007747Y-99359500D01*
X117925883Y-99359500D01*
X117892199Y-99354164D01*
X117880745Y-99350442D01*
X117856795Y-99333041D01*
X117831553Y-99317575D01*
X117829849Y-99313462D01*
X117826247Y-99310845D01*
X117817098Y-99282684D01*
X117805769Y-99255339D01*
X117806807Y-99251010D01*
X117805432Y-99246776D01*
X117821488Y-99189837D01*
X117824806Y-99184423D01*
X117840673Y-99164298D01*
X118390818Y-98614153D01*
X118781294Y-98223677D01*
X119983351Y-97021619D01*
X120750000Y-97021619D01*
X120750000Y-97218379D01*
X120780778Y-97412709D01*
X120839836Y-97594469D01*
X120841578Y-97599829D01*
X120845184Y-97606907D01*
X120930899Y-97775135D01*
X120930903Y-97775141D01*
X120956319Y-97810125D01*
X121404120Y-97362322D01*
X121464142Y-97331741D01*
X121530678Y-97342279D01*
X121575589Y-97384898D01*
X121599901Y-97427007D01*
X121692993Y-97520099D01*
X121692995Y-97520100D01*
X121735096Y-97544407D01*
X121780172Y-97594469D01*
X121787214Y-97661466D01*
X121757671Y-97715878D01*
X121309873Y-98163677D01*
X121309873Y-98163678D01*
X121344855Y-98189094D01*
X121344860Y-98189097D01*
X121344862Y-98189098D01*
X121344867Y-98189101D01*
X121412728Y-98223677D01*
X121520170Y-98278421D01*
X121562633Y-98292218D01*
X121625568Y-98312667D01*
X121649523Y-98330071D01*
X121707292Y-98339220D01*
X121707294Y-98339221D01*
X121707291Y-98339221D01*
X121901534Y-98369985D01*
X121901622Y-98369999D01*
X121901624Y-98370000D01*
X121901626Y-98370000D01*
X122098376Y-98370000D01*
X122099160Y-98370000D01*
X122102394Y-98369362D01*
X122292706Y-98339221D01*
X122479831Y-98278420D01*
X122655135Y-98189100D01*
X122655147Y-98189093D01*
X122690125Y-98163679D01*
X122242326Y-97715880D01*
X122211743Y-97655856D01*
X122222281Y-97589320D01*
X122264899Y-97544409D01*
X122307007Y-97520099D01*
X122400099Y-97427007D01*
X122424409Y-97384899D01*
X122474469Y-97339825D01*
X122541466Y-97332783D01*
X122595880Y-97362326D01*
X123043679Y-97810125D01*
X123069093Y-97775147D01*
X123069100Y-97775135D01*
X123158420Y-97599831D01*
X123219221Y-97412706D01*
X123249362Y-97222394D01*
X123250000Y-97219160D01*
X123250000Y-97021623D01*
X123249969Y-97021434D01*
X123219221Y-96827293D01*
X123214575Y-96812995D01*
X123184327Y-96719901D01*
X123158421Y-96640170D01*
X123069097Y-96464860D01*
X123069094Y-96464855D01*
X123043678Y-96429873D01*
X123043677Y-96429873D01*
X122595878Y-96877671D01*
X122535855Y-96908254D01*
X122469319Y-96897716D01*
X122424407Y-96855096D01*
X122400100Y-96812995D01*
X122400099Y-96812993D01*
X122307007Y-96719901D01*
X122264898Y-96695589D01*
X122219823Y-96645527D01*
X122212781Y-96578531D01*
X122242322Y-96524120D01*
X122690125Y-96076319D01*
X122655141Y-96050903D01*
X122655138Y-96050901D01*
X122655136Y-96050900D01*
X122479827Y-95961577D01*
X122374430Y-95927331D01*
X122350476Y-95909927D01*
X122098379Y-95870000D01*
X122098378Y-95870000D01*
X121901621Y-95870000D01*
X121901619Y-95870000D01*
X121707289Y-95900778D01*
X121520171Y-95961577D01*
X121344860Y-96050901D01*
X121344854Y-96050904D01*
X121309873Y-96076318D01*
X121309873Y-96076319D01*
X121539475Y-96305921D01*
X121757673Y-96524119D01*
X121788256Y-96584143D01*
X121777718Y-96650679D01*
X121735099Y-96695590D01*
X121692996Y-96719898D01*
X121599898Y-96812996D01*
X121575590Y-96855099D01*
X121525527Y-96900175D01*
X121458531Y-96907216D01*
X121404119Y-96877673D01*
X121180521Y-96654075D01*
X120956319Y-96429873D01*
X120956318Y-96429873D01*
X120930904Y-96464854D01*
X120930901Y-96464860D01*
X120841577Y-96640171D01*
X120780778Y-96827289D01*
X120750000Y-97021619D01*
X119983351Y-97021619D01*
X121509315Y-95495653D01*
X121536903Y-95475611D01*
X121552083Y-95467876D01*
X121614380Y-95456754D01*
X121621172Y-95457557D01*
X121625336Y-95458051D01*
X121654232Y-95465592D01*
X121659749Y-95467877D01*
X121722749Y-95493973D01*
X121906384Y-95530500D01*
X121906387Y-95530500D01*
X122093612Y-95530500D01*
X122093616Y-95530500D01*
X122277251Y-95493973D01*
X122450231Y-95422322D01*
X122605908Y-95318302D01*
X122738302Y-95185908D01*
X122842322Y-95030231D01*
X122913973Y-94857251D01*
X122950500Y-94673616D01*
X122950500Y-94486384D01*
X122913973Y-94302749D01*
X122842322Y-94129769D01*
X122746380Y-93986182D01*
X122738305Y-93974096D01*
X122738304Y-93974095D01*
X122738302Y-93974092D01*
X122605908Y-93841698D01*
X122605904Y-93841695D01*
X122605903Y-93841694D01*
X122605901Y-93841692D01*
X122450232Y-93737678D01*
X122450192Y-93737657D01*
X122449590Y-93737412D01*
X122353856Y-93697758D01*
X122333030Y-93679971D01*
X122277286Y-93666035D01*
X122277258Y-93666029D01*
X122277253Y-93666028D01*
X122277255Y-93666028D01*
X122277251Y-93666027D01*
X122093616Y-93629500D01*
X122093613Y-93629500D01*
X121906385Y-93629500D01*
X121906384Y-93629500D01*
X121876056Y-93635532D01*
X121722754Y-93666025D01*
X121722733Y-93666032D01*
X121550408Y-93737412D01*
X121549810Y-93737655D01*
X121549766Y-93737678D01*
X121394100Y-93841690D01*
X121261690Y-93974100D01*
X121157678Y-94129766D01*
X121157655Y-94129810D01*
X121157412Y-94130408D01*
X121086032Y-94302733D01*
X121086025Y-94302754D01*
X121055532Y-94456056D01*
X121049500Y-94486384D01*
X121049500Y-94673616D01*
X121086027Y-94857250D01*
X121086028Y-94857253D01*
X121086028Y-94857256D01*
X121113568Y-94923743D01*
X121121529Y-94956901D01*
X121122866Y-94973885D01*
X121109301Y-95035703D01*
X121103909Y-95045330D01*
X121085885Y-95069141D01*
X117524960Y-98630068D01*
X117497373Y-98650111D01*
X117479731Y-98659100D01*
X117473415Y-98662318D01*
X117423929Y-98674200D01*
X116071183Y-98674200D01*
X116037499Y-98668864D01*
X116026045Y-98665142D01*
X115971547Y-98625545D01*
X115950732Y-98561476D01*
X115966788Y-98504537D01*
X115970106Y-98499123D01*
X115985961Y-98479009D01*
X117360513Y-97104458D01*
X121509315Y-92955653D01*
X121536903Y-92935611D01*
X121552083Y-92927876D01*
X121614380Y-92916754D01*
X121621172Y-92917557D01*
X121625336Y-92918051D01*
X121654232Y-92925592D01*
X121659749Y-92927877D01*
X121722749Y-92953973D01*
X121906384Y-92990500D01*
X121906387Y-92990500D01*
X122093612Y-92990500D01*
X122093616Y-92990500D01*
X122277251Y-92953973D01*
X122450231Y-92882322D01*
X122605908Y-92778302D01*
X122738302Y-92645908D01*
X122842322Y-92490231D01*
X122913973Y-92317251D01*
X122950500Y-92133616D01*
X122950500Y-91946384D01*
X122913973Y-91762749D01*
X122842322Y-91589769D01*
X122738307Y-91434100D01*
X122738305Y-91434096D01*
X122738304Y-91434095D01*
X122738302Y-91434092D01*
X122605908Y-91301698D01*
X122605904Y-91301695D01*
X122605903Y-91301694D01*
X122605901Y-91301692D01*
X122450232Y-91197678D01*
X122450192Y-91197657D01*
X122449590Y-91197412D01*
X122353856Y-91157758D01*
X122333030Y-91139971D01*
X122277286Y-91126035D01*
X122277258Y-91126029D01*
X122277253Y-91126028D01*
X122277255Y-91126028D01*
X122277251Y-91126027D01*
X122093616Y-91089500D01*
X122093613Y-91089500D01*
X121906385Y-91089500D01*
X121906384Y-91089500D01*
X121876056Y-91095532D01*
X121722754Y-91126025D01*
X121722733Y-91126032D01*
X121550408Y-91197412D01*
X121549810Y-91197655D01*
X121549766Y-91197678D01*
X121394100Y-91301690D01*
X121261690Y-91434100D01*
X121157678Y-91589766D01*
X121157655Y-91589810D01*
X121157412Y-91590408D01*
X121086032Y-91762733D01*
X121086025Y-91762754D01*
X121055532Y-91916056D01*
X121049500Y-91946384D01*
X121049500Y-92133616D01*
X121086027Y-92317250D01*
X121086028Y-92317253D01*
X121086028Y-92317256D01*
X121113568Y-92383743D01*
X121121529Y-92416901D01*
X121122866Y-92433885D01*
X121109301Y-92495703D01*
X121103909Y-92505330D01*
X121085885Y-92529141D01*
X115355060Y-98259968D01*
X115327473Y-98280011D01*
X115309831Y-98289000D01*
X115303515Y-98292218D01*
X115254029Y-98304100D01*
X109819084Y-98304100D01*
X109785400Y-98298764D01*
X109771433Y-98294226D01*
X109768669Y-98292218D01*
X109716943Y-98254640D01*
X109715422Y-98252547D01*
X109694598Y-98188481D01*
X109698311Y-98160264D01*
X109708700Y-98121492D01*
X109708700Y-98018554D01*
X109717191Y-97976376D01*
X109720442Y-97968631D01*
X109720444Y-97968622D01*
X109721134Y-97966980D01*
X109765121Y-97915958D01*
X109818793Y-97900195D01*
X109830116Y-97899899D01*
X109861178Y-97903576D01*
X109873207Y-97906800D01*
X109873208Y-97906800D01*
X110004992Y-97906800D01*
X110132286Y-97872692D01*
X110246414Y-97806800D01*
X110278079Y-97775135D01*
X110302284Y-97750930D01*
X110329871Y-97730887D01*
X110353833Y-97718679D01*
X110403316Y-97706800D01*
X114133260Y-97706800D01*
X114133262Y-97706800D01*
X114209689Y-97686321D01*
X114278211Y-97646760D01*
X114334160Y-97590811D01*
X121509315Y-90415653D01*
X121536903Y-90395611D01*
X121552083Y-90387876D01*
X121614380Y-90376754D01*
X121621172Y-90377557D01*
X121625336Y-90378051D01*
X121654232Y-90385592D01*
X121659749Y-90387877D01*
X121722749Y-90413973D01*
X121906384Y-90450500D01*
X121906387Y-90450500D01*
X122093612Y-90450500D01*
X122093616Y-90450500D01*
X122277251Y-90413973D01*
X122450231Y-90342322D01*
X122605908Y-90238302D01*
X122738302Y-90105908D01*
X122842322Y-89950231D01*
X122913973Y-89777251D01*
X122950500Y-89593616D01*
X122950500Y-89406384D01*
X122913973Y-89222749D01*
X122842322Y-89049769D01*
X122738307Y-88894100D01*
X122738305Y-88894096D01*
X122738304Y-88894095D01*
X122738302Y-88894092D01*
X122605908Y-88761698D01*
X122605904Y-88761695D01*
X122605903Y-88761694D01*
X122605901Y-88761692D01*
X122450232Y-88657678D01*
X122450192Y-88657657D01*
X122449590Y-88657412D01*
X122353856Y-88617758D01*
X122333030Y-88599971D01*
X122277286Y-88586035D01*
X122277258Y-88586029D01*
X122277253Y-88586028D01*
X122277255Y-88586028D01*
X122277251Y-88586027D01*
X122093616Y-88549500D01*
X122093613Y-88549500D01*
X121906385Y-88549500D01*
X121906384Y-88549500D01*
X121879412Y-88554865D01*
X121722754Y-88586025D01*
X121722733Y-88586032D01*
X121550408Y-88657412D01*
X121549810Y-88657655D01*
X121549766Y-88657678D01*
X121394100Y-88761690D01*
X121261690Y-88894100D01*
X121157678Y-89049766D01*
X121157655Y-89049810D01*
X121157412Y-89050408D01*
X121086032Y-89222733D01*
X121086025Y-89222754D01*
X121055532Y-89376056D01*
X121049500Y-89406384D01*
X121049500Y-89593616D01*
X121086027Y-89777250D01*
X121086028Y-89777253D01*
X121086028Y-89777256D01*
X121113568Y-89843743D01*
X121121529Y-89876901D01*
X121122866Y-89893885D01*
X121109301Y-89955703D01*
X121103909Y-89965330D01*
X121085885Y-89989141D01*
X115780380Y-95294646D01*
X115752786Y-95314693D01*
X115739702Y-95321359D01*
X115673210Y-95331901D01*
X115670767Y-95331515D01*
X115618563Y-95308055D01*
X115618372Y-95307898D01*
X115613816Y-95302523D01*
X115610732Y-95300954D01*
X115608084Y-95295763D01*
X115593190Y-95278194D01*
X115561199Y-95222785D01*
X115502210Y-95163795D01*
X115479370Y-95130286D01*
X115478198Y-95127599D01*
X115475149Y-95119431D01*
X115471599Y-95112463D01*
X115470285Y-95109450D01*
X115469348Y-95099826D01*
X115461200Y-95065885D01*
X115461200Y-93986182D01*
X115466533Y-93952505D01*
X115474844Y-93926925D01*
X115501431Y-93883538D01*
X121509315Y-87875653D01*
X121536903Y-87855611D01*
X121552083Y-87847876D01*
X121614380Y-87836754D01*
X121621172Y-87837557D01*
X121625336Y-87838051D01*
X121654232Y-87845592D01*
X121659749Y-87847877D01*
X121722749Y-87873973D01*
X121906384Y-87910500D01*
X121906387Y-87910500D01*
X122093612Y-87910500D01*
X122093616Y-87910500D01*
X122277251Y-87873973D01*
X122450231Y-87802322D01*
X122605908Y-87698302D01*
X122738302Y-87565908D01*
X122842322Y-87410231D01*
X122913973Y-87237251D01*
X122950500Y-87053616D01*
X122950500Y-86866384D01*
X122913973Y-86682749D01*
X122842322Y-86509769D01*
X122738307Y-86354100D01*
X122738305Y-86354096D01*
X122738304Y-86354095D01*
X122738302Y-86354092D01*
X122605908Y-86221698D01*
X122605904Y-86221695D01*
X122605903Y-86221694D01*
X122605901Y-86221692D01*
X122450232Y-86117678D01*
X122450192Y-86117657D01*
X122449590Y-86117412D01*
X122353856Y-86077758D01*
X122333030Y-86059971D01*
X122277286Y-86046035D01*
X122277258Y-86046029D01*
X122277253Y-86046028D01*
X122277255Y-86046028D01*
X122277251Y-86046027D01*
X122093616Y-86009500D01*
X122093613Y-86009500D01*
X121906385Y-86009500D01*
X121906384Y-86009500D01*
X121876056Y-86015532D01*
X121722754Y-86046025D01*
X121722733Y-86046032D01*
X121550408Y-86117412D01*
X121549810Y-86117655D01*
X121549766Y-86117678D01*
X121394100Y-86221690D01*
X121261690Y-86354100D01*
X121157678Y-86509766D01*
X121157656Y-86509808D01*
X121157424Y-86510379D01*
X121087760Y-86678560D01*
X121087761Y-86678561D01*
X121087760Y-86678564D01*
X121086027Y-86682749D01*
X121049500Y-86866384D01*
X121049500Y-87053616D01*
X121086027Y-87237250D01*
X121086028Y-87237253D01*
X121086028Y-87237256D01*
X121113568Y-87303743D01*
X121121529Y-87336901D01*
X121122866Y-87353885D01*
X121109301Y-87415703D01*
X121103909Y-87425330D01*
X121085885Y-87449141D01*
X115008115Y-93526914D01*
X115008108Y-93526917D01*
X114920240Y-93614787D01*
X114880678Y-93683310D01*
X114860200Y-93759734D01*
X114860200Y-95060374D01*
X114854865Y-95094056D01*
X114851069Y-95105736D01*
X114846557Y-95119626D01*
X114819967Y-95163017D01*
X114760206Y-95222777D01*
X114760207Y-95222778D01*
X114760200Y-95222784D01*
X114760200Y-95222785D01*
X114694307Y-95336913D01*
X114694306Y-95336915D01*
X114660200Y-95464207D01*
X114660200Y-95595991D01*
X114694306Y-95723284D01*
X114694308Y-95723286D01*
X114760199Y-95837413D01*
X114853381Y-95930596D01*
X114853384Y-95930598D01*
X114853386Y-95930600D01*
X114853387Y-95930600D01*
X114853998Y-95931040D01*
X114856208Y-95932230D01*
X114877333Y-95944426D01*
X114899927Y-95957470D01*
X114926428Y-95978931D01*
X114935495Y-95989000D01*
X114962894Y-96050543D01*
X114950280Y-96113949D01*
X114944991Y-96123689D01*
X114926277Y-96148749D01*
X114013360Y-97061668D01*
X113985773Y-97081711D01*
X113968131Y-97090700D01*
X113961815Y-97093918D01*
X113912329Y-97105800D01*
X110408826Y-97105800D01*
X110375145Y-97100465D01*
X110349573Y-97092156D01*
X110306182Y-97065567D01*
X110246412Y-97005797D01*
X110151385Y-96950935D01*
X110146507Y-96947945D01*
X110110432Y-96924511D01*
X110068044Y-96872153D01*
X110064527Y-96804881D01*
X110065919Y-96799689D01*
X110094122Y-96750847D01*
X121509315Y-85335653D01*
X121536903Y-85315611D01*
X121552083Y-85307876D01*
X121614380Y-85296754D01*
X121621172Y-85297557D01*
X121625336Y-85298051D01*
X121654232Y-85305592D01*
X121659749Y-85307877D01*
X121722749Y-85333973D01*
X121906384Y-85370500D01*
X121906387Y-85370500D01*
X122093612Y-85370500D01*
X122093616Y-85370500D01*
X122277251Y-85333973D01*
X122450231Y-85262322D01*
X122605908Y-85158302D01*
X122738302Y-85025908D01*
X122842322Y-84870231D01*
X122913973Y-84697251D01*
X122950500Y-84513616D01*
X122950500Y-84326384D01*
X122913973Y-84142749D01*
X122842322Y-83969769D01*
X122835512Y-83959577D01*
X122805797Y-83915105D01*
X122805794Y-83915102D01*
X122803312Y-83911387D01*
X122738305Y-83814096D01*
X122738304Y-83814095D01*
X122738302Y-83814092D01*
X122605908Y-83681698D01*
X122605904Y-83681695D01*
X122605903Y-83681694D01*
X122605901Y-83681692D01*
X122450232Y-83577678D01*
X122450192Y-83577657D01*
X122449590Y-83577412D01*
X122309343Y-83519320D01*
X122309341Y-83519318D01*
X122277257Y-83506029D01*
X122277253Y-83506027D01*
X122277251Y-83506027D01*
X122093616Y-83469500D01*
X122093613Y-83469500D01*
X121906385Y-83469500D01*
X121906384Y-83469500D01*
X121876056Y-83475532D01*
X121722754Y-83506025D01*
X121722733Y-83506032D01*
X121550408Y-83577412D01*
X121549810Y-83577655D01*
X121549766Y-83577678D01*
X121394100Y-83681690D01*
X121261690Y-83814100D01*
X121157678Y-83969766D01*
X121157655Y-83969810D01*
X121157412Y-83970408D01*
X121086032Y-84142733D01*
X121086025Y-84142754D01*
X121055532Y-84296056D01*
X121049500Y-84326384D01*
X121049500Y-84513616D01*
X121081942Y-84676715D01*
X121085375Y-84693972D01*
X121086026Y-84697244D01*
X121086028Y-84697256D01*
X121113568Y-84763743D01*
X121121529Y-84796901D01*
X121122866Y-84813885D01*
X121109301Y-84875703D01*
X121103909Y-84885330D01*
X121085885Y-84909141D01*
X109055615Y-96939414D01*
X109055608Y-96939417D01*
X108967740Y-97027287D01*
X108928178Y-97095810D01*
X108907700Y-97172234D01*
X108907700Y-97585874D01*
X108902365Y-97619556D01*
X108894057Y-97645126D01*
X108867468Y-97688516D01*
X108817261Y-97738725D01*
X108817260Y-97738724D01*
X108807698Y-97748287D01*
X108807694Y-97748292D01*
X108764327Y-97823406D01*
X108755664Y-97831205D01*
X108750921Y-97841855D01*
X108742871Y-97849905D01*
X108736127Y-97855978D01*
X108720351Y-97863002D01*
X108714265Y-97868483D01*
X108692575Y-97875528D01*
X108691901Y-97875671D01*
X108674587Y-97883381D01*
X108608692Y-97869379D01*
X108577670Y-97834929D01*
X108566894Y-97825223D01*
X108566265Y-97822264D01*
X108563613Y-97819319D01*
X108563604Y-97819298D01*
X108561717Y-97815058D01*
X108552300Y-97770739D01*
X108552300Y-95815082D01*
X108557633Y-95781405D01*
X108565944Y-95755825D01*
X108592531Y-95712438D01*
X121509315Y-82795653D01*
X121536903Y-82775611D01*
X121552083Y-82767876D01*
X121614380Y-82756754D01*
X121621172Y-82757557D01*
X121625336Y-82758051D01*
X121654232Y-82765592D01*
X121659749Y-82767877D01*
X121722749Y-82793973D01*
X121906384Y-82830500D01*
X121906387Y-82830500D01*
X122093612Y-82830500D01*
X122093616Y-82830500D01*
X122277251Y-82793973D01*
X122450231Y-82722322D01*
X122605908Y-82618302D01*
X122738302Y-82485908D01*
X122842322Y-82330231D01*
X122913973Y-82157251D01*
X122950500Y-81973616D01*
X122950500Y-81786384D01*
X122913973Y-81602749D01*
X122842322Y-81429769D01*
X122738307Y-81274100D01*
X122738305Y-81274096D01*
X122738304Y-81274095D01*
X122738302Y-81274092D01*
X122605908Y-81141698D01*
X122605904Y-81141695D01*
X122605903Y-81141694D01*
X122605901Y-81141692D01*
X122450232Y-81037678D01*
X122450192Y-81037657D01*
X122449590Y-81037412D01*
X122353856Y-80997758D01*
X122333030Y-80979971D01*
X122277286Y-80966035D01*
X122277258Y-80966029D01*
X122277253Y-80966028D01*
X122277255Y-80966028D01*
X122277251Y-80966027D01*
X122093616Y-80929500D01*
X122093613Y-80929500D01*
X121906385Y-80929500D01*
X121906384Y-80929500D01*
X121876056Y-80935532D01*
X121722754Y-80966025D01*
X121722733Y-80966032D01*
X121550408Y-81037412D01*
X121549810Y-81037655D01*
X121549766Y-81037678D01*
X121394100Y-81141690D01*
X121261690Y-81274100D01*
X121157678Y-81429766D01*
X121157655Y-81429810D01*
X121157412Y-81430408D01*
X121089187Y-81595118D01*
X121086029Y-81602742D01*
X121086028Y-81602746D01*
X121086027Y-81602749D01*
X121049500Y-81786384D01*
X121049500Y-81786387D01*
X121049500Y-81973614D01*
X121074916Y-82101392D01*
X121074915Y-82101392D01*
X121086022Y-82157230D01*
X121086025Y-82157244D01*
X121086028Y-82157256D01*
X121113568Y-82223743D01*
X121121529Y-82256901D01*
X121122866Y-82273885D01*
X121109301Y-82335703D01*
X121103909Y-82345330D01*
X121085885Y-82369141D01*
X115473883Y-87981144D01*
X115446291Y-88001189D01*
X115435561Y-88006656D01*
X115406318Y-88011287D01*
X115377523Y-88018200D01*
X115373415Y-88016498D01*
X115369025Y-88017194D01*
X115342641Y-88003750D01*
X115315286Y-87992418D01*
X115312963Y-87988627D01*
X115309002Y-87986609D01*
X115280090Y-87934980D01*
X115278610Y-87928818D01*
X115275600Y-87903379D01*
X115275600Y-87866182D01*
X115280933Y-87832505D01*
X115289244Y-87806925D01*
X115315831Y-87763538D01*
X116623159Y-86456211D01*
X118031260Y-85048111D01*
X118044079Y-85025908D01*
X118070821Y-84979589D01*
X118091300Y-84903162D01*
X118091300Y-83736082D01*
X118096633Y-83702405D01*
X118104944Y-83676825D01*
X118131531Y-83633438D01*
X121509315Y-80255653D01*
X121536903Y-80235611D01*
X121552083Y-80227876D01*
X121614380Y-80216754D01*
X121621172Y-80217557D01*
X121625336Y-80218051D01*
X121654232Y-80225592D01*
X121659749Y-80227877D01*
X121722749Y-80253973D01*
X121906384Y-80290500D01*
X121906387Y-80290500D01*
X122093612Y-80290500D01*
X122093616Y-80290500D01*
X122277251Y-80253973D01*
X122450231Y-80182322D01*
X122605908Y-80078302D01*
X122738302Y-79945908D01*
X122842322Y-79790231D01*
X122913973Y-79617251D01*
X122950500Y-79433616D01*
X122950500Y-79246384D01*
X122913973Y-79062749D01*
X122842322Y-78889769D01*
X122738307Y-78734100D01*
X122738305Y-78734096D01*
X122738304Y-78734095D01*
X122738302Y-78734092D01*
X122605908Y-78601698D01*
X122605904Y-78601695D01*
X122605903Y-78601694D01*
X122605901Y-78601692D01*
X122450232Y-78497678D01*
X122450192Y-78497657D01*
X122449590Y-78497412D01*
X122353856Y-78457758D01*
X122333030Y-78439971D01*
X122277286Y-78426035D01*
X122277258Y-78426029D01*
X122277253Y-78426028D01*
X122277255Y-78426028D01*
X122277251Y-78426027D01*
X122093616Y-78389500D01*
X122093613Y-78389500D01*
X121906385Y-78389500D01*
X121906384Y-78389500D01*
X121876056Y-78395532D01*
X121722754Y-78426025D01*
X121722733Y-78426032D01*
X121550408Y-78497412D01*
X121549810Y-78497655D01*
X121549766Y-78497678D01*
X121394100Y-78601690D01*
X121261690Y-78734100D01*
X121157678Y-78889766D01*
X121157655Y-78889810D01*
X121157412Y-78890408D01*
X121086032Y-79062733D01*
X121086025Y-79062754D01*
X121055532Y-79216056D01*
X121049500Y-79246384D01*
X121049500Y-79433616D01*
X121086027Y-79617250D01*
X121086028Y-79617253D01*
X121086028Y-79617256D01*
X121113568Y-79683743D01*
X121121529Y-79716901D01*
X121122866Y-79733885D01*
X121109301Y-79795703D01*
X121103909Y-79805330D01*
X121085885Y-79829141D01*
X117638215Y-83276814D01*
X117638208Y-83276817D01*
X117550340Y-83364687D01*
X117510778Y-83433210D01*
X117490300Y-83509634D01*
X117490300Y-84676715D01*
X117484965Y-84710395D01*
X117476656Y-84735971D01*
X117450066Y-84779361D01*
X116137842Y-86091584D01*
X116110256Y-86111627D01*
X116105365Y-86114119D01*
X116099080Y-86117321D01*
X116032546Y-86127862D01*
X115972521Y-86097281D01*
X115968724Y-86093484D01*
X115940513Y-86044619D01*
X115916692Y-85955715D01*
X115916691Y-85955713D01*
X115850799Y-85841585D01*
X115794930Y-85785715D01*
X115774883Y-85758122D01*
X115762678Y-85734166D01*
X115750800Y-85684685D01*
X115750800Y-83536582D01*
X115756133Y-83502905D01*
X115764444Y-83477325D01*
X115791031Y-83433938D01*
X121509315Y-77715653D01*
X121536903Y-77695611D01*
X121552083Y-77687876D01*
X121614380Y-77676754D01*
X121621172Y-77677557D01*
X121625336Y-77678051D01*
X121654232Y-77685592D01*
X121659749Y-77687877D01*
X121722749Y-77713973D01*
X121906384Y-77750500D01*
X121906387Y-77750500D01*
X122093612Y-77750500D01*
X122093616Y-77750500D01*
X122277251Y-77713973D01*
X122450231Y-77642322D01*
X122605908Y-77538302D01*
X122738302Y-77405908D01*
X122842322Y-77250231D01*
X122913973Y-77077251D01*
X122950500Y-76893616D01*
X122950500Y-76706384D01*
X122913973Y-76522749D01*
X122842322Y-76349769D01*
X122757739Y-76223182D01*
X122757736Y-76223178D01*
X122748022Y-76208639D01*
X122738305Y-76194096D01*
X122738304Y-76194095D01*
X122738302Y-76194092D01*
X122605908Y-76061698D01*
X122605904Y-76061695D01*
X122605903Y-76061694D01*
X122605901Y-76061692D01*
X122450232Y-75957678D01*
X122450192Y-75957657D01*
X122449590Y-75957412D01*
X122353856Y-75917758D01*
X122333030Y-75899971D01*
X122277286Y-75886035D01*
X122277258Y-75886029D01*
X122277253Y-75886028D01*
X122277255Y-75886028D01*
X122277251Y-75886027D01*
X122093616Y-75849500D01*
X122093613Y-75849500D01*
X121906385Y-75849500D01*
X121906384Y-75849500D01*
X121876056Y-75855532D01*
X121722754Y-75886025D01*
X121722733Y-75886032D01*
X121550408Y-75957412D01*
X121549810Y-75957655D01*
X121549766Y-75957678D01*
X121394100Y-76061690D01*
X121261690Y-76194100D01*
X121157678Y-76349766D01*
X121157655Y-76349810D01*
X121157412Y-76350408D01*
X121086032Y-76522733D01*
X121086025Y-76522754D01*
X121068378Y-76611477D01*
X121049500Y-76706384D01*
X121049500Y-76893616D01*
X121086027Y-77077250D01*
X121086028Y-77077253D01*
X121086028Y-77077256D01*
X121113568Y-77143743D01*
X121121529Y-77176901D01*
X121122866Y-77193885D01*
X121109301Y-77255703D01*
X121103909Y-77265330D01*
X121085885Y-77289141D01*
X115297715Y-83077314D01*
X115297708Y-83077317D01*
X115209840Y-83165187D01*
X115170278Y-83233710D01*
X115149800Y-83310134D01*
X115149800Y-85679174D01*
X115144465Y-85712857D01*
X115136157Y-85738426D01*
X115109567Y-85781817D01*
X115049806Y-85841577D01*
X115049807Y-85841578D01*
X115049800Y-85841584D01*
X115049800Y-85841585D01*
X114983906Y-85955715D01*
X114957324Y-86054926D01*
X114949800Y-86083006D01*
X114949800Y-86083008D01*
X114949800Y-86214792D01*
X114958938Y-86248898D01*
X114983906Y-86342085D01*
X114990839Y-86354091D01*
X114990840Y-86354096D01*
X114990842Y-86354096D01*
X115049800Y-86456214D01*
X115142986Y-86549400D01*
X115257114Y-86615292D01*
X115339650Y-86637406D01*
X115370801Y-86651274D01*
X115381323Y-86658107D01*
X115423719Y-86710459D01*
X115427247Y-86777732D01*
X115427246Y-86777736D01*
X115425858Y-86782916D01*
X115397647Y-86831779D01*
X114894759Y-87334668D01*
X114867172Y-87354711D01*
X114849530Y-87363700D01*
X114843214Y-87366918D01*
X114793728Y-87378800D01*
X114709207Y-87378800D01*
X114581915Y-87412906D01*
X114581913Y-87412907D01*
X114467790Y-87478796D01*
X114374596Y-87571990D01*
X114308707Y-87686113D01*
X114308706Y-87686115D01*
X114274600Y-87813407D01*
X114274600Y-87945191D01*
X114308706Y-88072484D01*
X114308708Y-88072486D01*
X114374599Y-88186613D01*
X114467782Y-88279797D01*
X114468394Y-88280238D01*
X114470616Y-88281434D01*
X114581914Y-88345692D01*
X114709208Y-88379800D01*
X114794816Y-88379800D01*
X114828493Y-88385133D01*
X114839947Y-88388855D01*
X114894447Y-88428449D01*
X114915266Y-88492517D01*
X114899208Y-88549466D01*
X114895900Y-88554865D01*
X114880033Y-88574994D01*
X108099215Y-95355814D01*
X108099208Y-95355817D01*
X108011340Y-95443687D01*
X107971778Y-95512210D01*
X107951300Y-95588634D01*
X107951300Y-98711974D01*
X107945965Y-98745656D01*
X107937657Y-98771226D01*
X107911068Y-98814616D01*
X107870556Y-98855130D01*
X107870555Y-98855129D01*
X107851298Y-98874387D01*
X107785407Y-98988513D01*
X107785406Y-98988515D01*
X107753712Y-99106807D01*
X107753710Y-99106815D01*
X107751300Y-99115805D01*
X107751300Y-99115808D01*
X107751300Y-99247592D01*
X107753376Y-99255339D01*
X107760438Y-99281698D01*
X107785406Y-99374884D01*
X107789947Y-99382749D01*
X107851298Y-99489011D01*
X107851300Y-99489014D01*
X107944486Y-99582200D01*
X107987985Y-99607314D01*
X108058614Y-99648092D01*
X108089402Y-99656341D01*
X108098786Y-99660906D01*
X108101488Y-99663510D01*
X108110474Y-99667511D01*
X108120994Y-99674343D01*
X108163388Y-99726696D01*
X108166912Y-99793970D01*
X108166910Y-99793978D01*
X108165521Y-99799160D01*
X108137313Y-99848014D01*
X102991575Y-104993752D01*
X102931551Y-105024335D01*
X102865015Y-105013797D01*
X102817380Y-104966162D01*
X102805500Y-104916677D01*
X102805500Y-100698999D01*
X102805247Y-100695785D01*
X102802970Y-100666856D01*
X102798125Y-100636263D01*
X102798114Y-100636196D01*
X102797354Y-100631721D01*
X102797352Y-100631714D01*
X102788285Y-100610500D01*
X102761408Y-100547617D01*
X102725444Y-100498117D01*
X102701203Y-100470372D01*
X102622693Y-100423464D01*
X102622690Y-100423463D01*
X102622687Y-100423461D01*
X102622688Y-100423461D01*
X102564508Y-100404558D01*
X102564505Y-100404557D01*
X102501001Y-100394500D01*
X102501000Y-100394500D01*
X95314500Y-100394500D01*
X95250431Y-100373683D01*
X95210835Y-100319183D01*
X95205500Y-100285500D01*
X95205500Y-97437700D01*
X95226317Y-97373631D01*
X95280817Y-97334035D01*
X95314500Y-97328700D01*
X96545834Y-97328700D01*
X96574040Y-97332412D01*
X96600825Y-97339589D01*
X96627106Y-97350475D01*
X96691716Y-97387777D01*
X96844443Y-97428700D01*
X97002557Y-97428700D01*
X97155284Y-97387777D01*
X97292216Y-97308720D01*
X97404020Y-97196916D01*
X97483077Y-97059984D01*
X97524000Y-96907257D01*
X97524000Y-96749143D01*
X97483077Y-96596416D01*
X97404020Y-96459484D01*
X97292216Y-96347680D01*
X97292213Y-96347678D01*
X97219887Y-96305921D01*
X97155282Y-96268621D01*
X97002557Y-96227700D01*
X96844443Y-96227700D01*
X96691715Y-96268622D01*
X96691713Y-96268622D01*
X96627110Y-96305921D01*
X96600826Y-96316809D01*
X96574049Y-96323985D01*
X96545834Y-96327700D01*
X93909907Y-96327700D01*
X93782615Y-96361806D01*
X93782613Y-96361807D01*
X93668490Y-96427696D01*
X86618365Y-103477819D01*
X86558341Y-103508402D01*
X86491805Y-103497864D01*
X86459209Y-103472464D01*
X86458815Y-103472014D01*
X86457381Y-103470372D01*
X86378871Y-103423464D01*
X86378868Y-103423463D01*
X86378865Y-103423461D01*
X86378866Y-103423461D01*
X86320686Y-103404558D01*
X86320683Y-103404557D01*
X86257179Y-103394500D01*
X86257178Y-103394500D01*
X76299000Y-103394500D01*
X76266865Y-103397029D01*
X76266854Y-103397030D01*
X76236196Y-103401885D01*
X76231721Y-103402645D01*
X76231714Y-103402647D01*
X76147616Y-103438592D01*
X76098123Y-103474551D01*
X76098118Y-103474554D01*
X76098117Y-103474556D01*
X76084538Y-103486419D01*
X76070374Y-103498795D01*
X76070371Y-103498798D01*
X76023461Y-103577311D01*
X76004558Y-103635491D01*
X76004557Y-103635494D01*
X75994500Y-103698998D01*
X75994500Y-120901000D01*
X75997029Y-120933134D01*
X75997030Y-120933145D01*
X76001885Y-120963803D01*
X76002645Y-120968278D01*
X76002647Y-120968285D01*
X76002648Y-120968287D01*
X76038592Y-121052383D01*
X76074556Y-121101883D01*
X76098797Y-121129628D01*
X76177307Y-121176536D01*
X76177310Y-121176537D01*
X76177312Y-121176538D01*
X76177311Y-121176538D01*
X76235491Y-121195441D01*
X76235494Y-121195442D01*
X76235495Y-121195442D01*
X76235498Y-121195443D01*
X76299000Y-121205500D01*
X120940500Y-121205500D01*
X121004569Y-121226317D01*
X121044165Y-121280817D01*
X121049500Y-121314500D01*
X121049500Y-121539750D01*
X121058805Y-121586531D01*
X121061132Y-121598229D01*
X121061133Y-121598232D01*
X121105441Y-121664544D01*
X121105442Y-121664545D01*
X121105445Y-121664549D01*
X121105450Y-121664554D01*
X121171767Y-121708866D01*
X121171769Y-121708867D01*
X121230252Y-121720500D01*
X121230255Y-121720500D01*
X122769744Y-121720500D01*
X122769748Y-121720500D01*
X122828231Y-121708867D01*
X122894552Y-121664552D01*
X122938867Y-121598231D01*
X122950500Y-121539748D01*
X122950500Y-121314500D01*
X122971317Y-121250431D01*
X123025817Y-121210835D01*
X123059500Y-121205500D01*
X124101000Y-121205500D01*
X124133144Y-121202970D01*
X124163737Y-121198125D01*
X124163784Y-121198116D01*
X124163803Y-121198114D01*
X124168278Y-121197354D01*
X124168282Y-121197352D01*
X124168287Y-121197352D01*
X124252383Y-121161408D01*
X124301883Y-121125444D01*
X124329628Y-121101203D01*
X124376536Y-121022693D01*
X124376538Y-121022688D01*
X124386835Y-120990997D01*
X124426431Y-120936497D01*
X124490499Y-120915679D01*
X124554568Y-120936496D01*
X124594165Y-120990995D01*
X124599500Y-121024679D01*
X124599500Y-124473237D01*
X124594164Y-124506923D01*
X124589626Y-124520888D01*
X124550043Y-124575376D01*
X124545505Y-124578674D01*
X124481439Y-124599500D01*
X75526762Y-124599500D01*
X75493078Y-124594164D01*
X75479112Y-124589626D01*
X75479111Y-124589626D01*
X75424614Y-124550030D01*
X75421317Y-124545492D01*
X75400500Y-124481423D01*
X75400500Y-90320943D01*
X102948700Y-90320943D01*
X102948700Y-90479056D01*
X102970316Y-90559731D01*
X102989622Y-90631783D01*
X102989623Y-90631784D01*
X103068677Y-90768712D01*
X103068680Y-90768716D01*
X103180484Y-90880520D01*
X103317416Y-90959577D01*
X103470143Y-91000500D01*
X103628257Y-91000500D01*
X103780984Y-90959577D01*
X103917916Y-90880520D01*
X104029720Y-90768716D01*
X104108777Y-90631784D01*
X104128084Y-90559721D01*
X104138967Y-90533446D01*
X104152833Y-90509429D01*
X104170149Y-90486862D01*
X110712385Y-83944628D01*
X110739968Y-83924588D01*
X110763933Y-83912378D01*
X110813414Y-83900500D01*
X113276634Y-83900500D01*
X113304840Y-83904212D01*
X113331625Y-83911389D01*
X113357906Y-83922275D01*
X113422516Y-83959577D01*
X113575243Y-84000500D01*
X113733357Y-84000500D01*
X113886084Y-83959577D01*
X114023016Y-83880520D01*
X114134820Y-83768716D01*
X114213877Y-83631784D01*
X114254800Y-83479057D01*
X114254800Y-83320943D01*
X114213877Y-83168216D01*
X114134820Y-83031284D01*
X114023016Y-82919480D01*
X114023013Y-82919478D01*
X113950687Y-82877721D01*
X113886082Y-82840421D01*
X113733357Y-82799500D01*
X113575243Y-82799500D01*
X113422515Y-82840422D01*
X113422513Y-82840422D01*
X113357910Y-82877721D01*
X113331626Y-82888609D01*
X113304849Y-82895785D01*
X113276634Y-82899500D01*
X110483307Y-82899500D01*
X110356015Y-82933606D01*
X110356013Y-82933607D01*
X110241890Y-82999496D01*
X103462338Y-89779045D01*
X103439763Y-89796367D01*
X103415760Y-89810225D01*
X103389473Y-89821113D01*
X103317418Y-89840421D01*
X103317412Y-89840423D01*
X103180489Y-89919475D01*
X103068676Y-90031288D01*
X102989622Y-90168215D01*
X102989622Y-90168216D01*
X102948700Y-90320943D01*
X75400500Y-90320943D01*
X75400500Y-80791705D01*
X77125016Y-80791705D01*
X77125016Y-81095116D01*
X77125017Y-81095117D01*
X77766015Y-81095117D01*
X77830084Y-81115934D01*
X77869680Y-81170434D01*
X77875015Y-81204117D01*
X77875015Y-81486117D01*
X77854198Y-81550186D01*
X77799698Y-81589782D01*
X77766015Y-81595117D01*
X77125017Y-81595117D01*
X77125016Y-81595118D01*
X77125016Y-81898526D01*
X77165365Y-82101382D01*
X77165372Y-82101403D01*
X77244255Y-82291844D01*
X77244495Y-82292433D01*
X77244521Y-82292484D01*
X77359420Y-82464441D01*
X77359421Y-82464442D01*
X77359424Y-82464446D01*
X77505684Y-82610706D01*
X77505687Y-82610708D01*
X77505688Y-82610709D01*
X77677645Y-82725608D01*
X77677649Y-82725610D01*
X77677652Y-82725612D01*
X77677654Y-82725613D01*
X77677693Y-82725633D01*
X77678267Y-82725866D01*
X77868740Y-82804763D01*
X77925015Y-82815956D01*
X77925015Y-82815955D01*
X77925015Y-82180763D01*
X77945832Y-82116694D01*
X78000332Y-82077098D01*
X78062223Y-82075477D01*
X78135519Y-82095116D01*
X78214511Y-82095116D01*
X78287806Y-82075477D01*
X78355077Y-82079003D01*
X78407430Y-82121397D01*
X78425015Y-82180763D01*
X78425015Y-82815955D01*
X78425015Y-82815956D01*
X78481289Y-82804763D01*
X78671880Y-82725817D01*
X78672341Y-82725630D01*
X78672372Y-82725614D01*
X78672377Y-82725612D01*
X78844345Y-82610706D01*
X78990605Y-82464446D01*
X79105511Y-82292478D01*
X79105513Y-82292473D01*
X79105513Y-82292470D01*
X79105530Y-82292440D01*
X79105739Y-82291926D01*
X79184661Y-82101391D01*
X79184662Y-82101388D01*
X79225014Y-81898528D01*
X79225014Y-81595118D01*
X79225013Y-81595117D01*
X78584015Y-81595117D01*
X78519946Y-81574300D01*
X78480350Y-81519800D01*
X78475015Y-81486117D01*
X78475015Y-81204117D01*
X78495832Y-81140048D01*
X78550332Y-81100452D01*
X78584015Y-81095117D01*
X79180521Y-81095117D01*
X79214197Y-81100450D01*
X79239774Y-81108760D01*
X79283164Y-81135349D01*
X79333239Y-81185424D01*
X79371527Y-81207529D01*
X79392544Y-81219663D01*
X79392547Y-81219664D01*
X79392550Y-81219666D01*
X79435970Y-81244735D01*
X79550550Y-81275437D01*
X79550552Y-81275437D01*
X79669170Y-81275437D01*
X79669172Y-81275437D01*
X79783752Y-81244735D01*
X79886482Y-81185424D01*
X79970360Y-81101546D01*
X80029671Y-80998816D01*
X80060373Y-80884236D01*
X80060373Y-80765614D01*
X80060372Y-80765610D01*
X84939373Y-80765610D01*
X84939373Y-80884238D01*
X84961290Y-80966032D01*
X84970075Y-80998816D01*
X85025673Y-81095116D01*
X85029386Y-81101546D01*
X85113264Y-81185424D01*
X85215994Y-81244735D01*
X85330574Y-81275437D01*
X85330576Y-81275437D01*
X85449194Y-81275437D01*
X85449196Y-81275437D01*
X85563776Y-81244735D01*
X85666506Y-81185424D01*
X85712685Y-81139245D01*
X85740268Y-81119205D01*
X85764232Y-81106996D01*
X85813715Y-81095117D01*
X86415985Y-81095117D01*
X86480054Y-81115934D01*
X86519650Y-81170434D01*
X86524985Y-81204117D01*
X86524985Y-81486117D01*
X86504168Y-81550186D01*
X86449668Y-81589782D01*
X86415985Y-81595117D01*
X85774987Y-81595117D01*
X85774986Y-81595118D01*
X85774986Y-81898526D01*
X85815335Y-82101382D01*
X85815342Y-82101403D01*
X85894225Y-82291844D01*
X85894465Y-82292433D01*
X85894491Y-82292484D01*
X86009390Y-82464441D01*
X86009391Y-82464442D01*
X86009394Y-82464446D01*
X86155654Y-82610706D01*
X86155657Y-82610708D01*
X86155658Y-82610709D01*
X86327615Y-82725608D01*
X86327619Y-82725610D01*
X86327622Y-82725612D01*
X86327624Y-82725613D01*
X86327663Y-82725633D01*
X86328237Y-82725866D01*
X86518710Y-82804763D01*
X86574985Y-82815956D01*
X86574985Y-82815955D01*
X86574985Y-82180763D01*
X86595802Y-82116694D01*
X86650302Y-82077098D01*
X86712193Y-82075477D01*
X86785489Y-82095116D01*
X86864481Y-82095116D01*
X86937776Y-82075477D01*
X87005047Y-82079003D01*
X87057400Y-82121397D01*
X87074985Y-82180763D01*
X87074985Y-82815955D01*
X87074985Y-82815956D01*
X87131259Y-82804763D01*
X87321850Y-82725817D01*
X87322311Y-82725630D01*
X87322342Y-82725614D01*
X87322347Y-82725612D01*
X87494315Y-82610706D01*
X87640575Y-82464446D01*
X87755481Y-82292478D01*
X87755483Y-82292473D01*
X87755483Y-82292470D01*
X87755500Y-82292440D01*
X87755709Y-82291926D01*
X87834631Y-82101391D01*
X87834632Y-82101388D01*
X87874984Y-81898528D01*
X87874984Y-81595118D01*
X87874983Y-81595117D01*
X87233985Y-81595117D01*
X87169916Y-81574300D01*
X87130320Y-81519800D01*
X87124985Y-81486117D01*
X87124985Y-81204117D01*
X87145802Y-81140048D01*
X87200302Y-81100452D01*
X87233985Y-81095117D01*
X87874983Y-81095117D01*
X87874984Y-81095116D01*
X87874984Y-80791708D01*
X87874984Y-80791706D01*
X87874984Y-80791705D01*
X87834632Y-80588845D01*
X87834631Y-80588842D01*
X87828292Y-80573539D01*
X87772749Y-80439445D01*
X87755735Y-80398370D01*
X87755502Y-80397796D01*
X87755477Y-80397748D01*
X87640578Y-80225791D01*
X87640577Y-80225790D01*
X87640575Y-80225787D01*
X87494315Y-80079527D01*
X87494311Y-80079524D01*
X87494310Y-80079523D01*
X87322353Y-79964624D01*
X87322302Y-79964598D01*
X87321713Y-79964358D01*
X87136210Y-79887521D01*
X87132318Y-79885680D01*
X87074985Y-79874276D01*
X87074985Y-80509470D01*
X87054168Y-80573539D01*
X86999668Y-80613135D01*
X86937775Y-80614756D01*
X86864482Y-80595118D01*
X86864481Y-80595118D01*
X86785489Y-80595118D01*
X86785488Y-80595118D01*
X86712195Y-80614756D01*
X86644922Y-80611230D01*
X86592569Y-80568835D01*
X86574985Y-80509470D01*
X86574985Y-79874276D01*
X86518712Y-79885469D01*
X86518711Y-79885469D01*
X86517649Y-79885681D01*
X86513761Y-79887520D01*
X86328255Y-79964358D01*
X86327668Y-79964597D01*
X86327615Y-79964624D01*
X86155658Y-80079523D01*
X86009390Y-80225791D01*
X85894491Y-80397750D01*
X85894481Y-80397766D01*
X85894479Y-80397770D01*
X85877217Y-80439445D01*
X85859397Y-80468524D01*
X85851252Y-80478060D01*
X85793812Y-80513257D01*
X85726658Y-80507971D01*
X85726655Y-80507970D01*
X85726654Y-80507969D01*
X85718341Y-80504526D01*
X85682978Y-80480898D01*
X85666504Y-80464424D01*
X85664014Y-80462987D01*
X85664008Y-80462984D01*
X85650863Y-80455395D01*
X85563776Y-80405115D01*
X85538671Y-80398388D01*
X85449198Y-80374413D01*
X85449197Y-80374413D01*
X85449196Y-80374413D01*
X85330574Y-80374413D01*
X85330572Y-80374413D01*
X85330570Y-80374413D01*
X85215992Y-80405115D01*
X85113268Y-80464422D01*
X85029382Y-80548308D01*
X84970075Y-80651032D01*
X84939373Y-80765610D01*
X80060372Y-80765610D01*
X80029671Y-80651034D01*
X79993757Y-80588829D01*
X79970360Y-80548303D01*
X79886483Y-80464426D01*
X79883990Y-80462987D01*
X79883984Y-80462984D01*
X79870839Y-80455395D01*
X79783752Y-80405115D01*
X79758647Y-80398388D01*
X79669174Y-80374413D01*
X79669173Y-80374413D01*
X79669172Y-80374413D01*
X79550550Y-80374413D01*
X79550548Y-80374413D01*
X79550546Y-80374413D01*
X79435968Y-80405115D01*
X79333240Y-80464424D01*
X79319293Y-80478372D01*
X79291698Y-80498418D01*
X79280523Y-80504111D01*
X79213986Y-80514645D01*
X79153970Y-80484063D01*
X79147605Y-80477698D01*
X79123977Y-80442335D01*
X79108560Y-80405115D01*
X79105515Y-80397763D01*
X79105511Y-80397755D01*
X79010563Y-80255656D01*
X78990608Y-80225791D01*
X78990607Y-80225790D01*
X78990605Y-80225787D01*
X78844345Y-80079527D01*
X78844341Y-80079524D01*
X78844340Y-80079523D01*
X78672383Y-79964624D01*
X78672332Y-79964598D01*
X78671743Y-79964358D01*
X78486240Y-79887521D01*
X78482348Y-79885680D01*
X78425015Y-79874276D01*
X78425015Y-80509470D01*
X78404198Y-80573539D01*
X78349698Y-80613135D01*
X78287805Y-80614756D01*
X78214512Y-80595118D01*
X78214511Y-80595118D01*
X78135519Y-80595118D01*
X78135518Y-80595118D01*
X78062225Y-80614756D01*
X77994952Y-80611230D01*
X77942599Y-80568835D01*
X77925015Y-80509470D01*
X77925015Y-79874276D01*
X77868742Y-79885469D01*
X77868741Y-79885469D01*
X77867679Y-79885681D01*
X77863791Y-79887520D01*
X77678285Y-79964358D01*
X77677698Y-79964597D01*
X77677645Y-79964624D01*
X77505688Y-80079523D01*
X77359420Y-80225791D01*
X77244521Y-80397748D01*
X77244494Y-80397801D01*
X77244255Y-80398388D01*
X77165372Y-80588829D01*
X77165365Y-80588850D01*
X77141086Y-80710913D01*
X77125016Y-80791705D01*
X75400500Y-80791705D01*
X75400500Y-76766132D01*
X77374516Y-76766132D01*
X77374516Y-77523814D01*
X77404165Y-77672868D01*
X77405279Y-77678468D01*
X77405280Y-77678471D01*
X77405282Y-77678475D01*
X77405284Y-77678483D01*
X77461464Y-77814114D01*
X77461465Y-77814116D01*
X77465620Y-77824146D01*
X77465622Y-77824151D01*
X77553223Y-77955255D01*
X77553224Y-77955256D01*
X77553227Y-77955260D01*
X77664727Y-78066760D01*
X77664730Y-78066762D01*
X77664731Y-78066763D01*
X77795835Y-78154364D01*
X77795836Y-78154364D01*
X77795837Y-78154365D01*
X77795840Y-78154366D01*
X77796738Y-78154966D01*
X77800775Y-78156411D01*
X77863844Y-78182534D01*
X77941518Y-78214708D01*
X78096173Y-78245471D01*
X78096176Y-78245471D01*
X78253853Y-78245471D01*
X78253857Y-78245471D01*
X78408512Y-78214708D01*
X78554193Y-78154365D01*
X78685303Y-78066760D01*
X78796803Y-77955260D01*
X78884408Y-77824150D01*
X78944751Y-77678469D01*
X78975514Y-77523814D01*
X78975514Y-76766132D01*
X86024486Y-76766132D01*
X86024486Y-77523814D01*
X86054135Y-77672868D01*
X86055249Y-77678468D01*
X86055250Y-77678471D01*
X86055252Y-77678475D01*
X86055254Y-77678483D01*
X86111434Y-77814114D01*
X86111435Y-77814116D01*
X86115590Y-77824146D01*
X86115592Y-77824151D01*
X86203193Y-77955255D01*
X86203194Y-77955256D01*
X86203197Y-77955260D01*
X86314697Y-78066760D01*
X86314700Y-78066762D01*
X86314701Y-78066763D01*
X86445805Y-78154364D01*
X86445806Y-78154364D01*
X86445807Y-78154365D01*
X86445810Y-78154366D01*
X86446708Y-78154966D01*
X86450745Y-78156411D01*
X86513814Y-78182534D01*
X86591488Y-78214708D01*
X86746143Y-78245471D01*
X86746146Y-78245471D01*
X86903823Y-78245471D01*
X86903827Y-78245471D01*
X87058482Y-78214708D01*
X87204163Y-78154365D01*
X87335273Y-78066760D01*
X87446773Y-77955260D01*
X87534378Y-77824150D01*
X87594721Y-77678469D01*
X87625484Y-77523814D01*
X87625484Y-76766132D01*
X87594721Y-76611477D01*
X87534378Y-76465796D01*
X87446778Y-76334694D01*
X87446776Y-76334690D01*
X87446775Y-76334689D01*
X87446773Y-76334686D01*
X87335273Y-76223186D01*
X87335269Y-76223183D01*
X87335268Y-76223182D01*
X87335266Y-76223180D01*
X87204164Y-76135581D01*
X87204126Y-76135561D01*
X87203555Y-76135329D01*
X87170938Y-76121818D01*
X87135086Y-76106968D01*
X87114262Y-76089182D01*
X87058505Y-76075243D01*
X87058494Y-76075240D01*
X86990372Y-76061690D01*
X86903827Y-76044475D01*
X86903824Y-76044475D01*
X86746146Y-76044475D01*
X86746143Y-76044475D01*
X86688544Y-76055932D01*
X86591493Y-76075236D01*
X86591472Y-76075243D01*
X86446446Y-76135315D01*
X86445848Y-76135558D01*
X86445804Y-76135581D01*
X86314705Y-76223178D01*
X86203189Y-76334694D01*
X86115592Y-76465793D01*
X86115570Y-76465834D01*
X86115327Y-76466431D01*
X86092001Y-76522749D01*
X86055249Y-76611477D01*
X86024486Y-76766132D01*
X78975514Y-76766132D01*
X78944751Y-76611477D01*
X78884408Y-76465796D01*
X78796808Y-76334694D01*
X78796806Y-76334690D01*
X78796805Y-76334689D01*
X78796803Y-76334686D01*
X78685303Y-76223186D01*
X78685299Y-76223183D01*
X78685298Y-76223182D01*
X78685296Y-76223180D01*
X78554194Y-76135581D01*
X78554156Y-76135561D01*
X78553585Y-76135329D01*
X78520968Y-76121818D01*
X78485116Y-76106968D01*
X78464292Y-76089182D01*
X78408535Y-76075243D01*
X78408524Y-76075240D01*
X78340402Y-76061690D01*
X78253857Y-76044475D01*
X78253854Y-76044475D01*
X78096176Y-76044475D01*
X78096173Y-76044475D01*
X78038574Y-76055932D01*
X77941523Y-76075236D01*
X77941502Y-76075243D01*
X77796476Y-76135315D01*
X77795878Y-76135558D01*
X77795834Y-76135581D01*
X77664735Y-76223178D01*
X77553219Y-76334694D01*
X77465622Y-76465793D01*
X77465600Y-76465834D01*
X77465357Y-76466431D01*
X77442031Y-76522749D01*
X77405279Y-76611477D01*
X77374516Y-76766132D01*
X75400500Y-76766132D01*
X75400500Y-75526762D01*
X75405834Y-75493083D01*
X75410372Y-75479116D01*
X75449965Y-75424617D01*
X75454517Y-75421309D01*
X75518576Y-75400500D01*
X124473238Y-75400500D01*
X124506913Y-75405832D01*
G37*
%TD.AperFunction*%
%TD*%
M02*
