%TF.GenerationSoftware,KiCad,Pcbnew,10.0.4*%
%TF.CreationDate,2026-07-14T22:15:48+02:00*%
%TF.ProjectId,pura-mainboard-0805-0.3,70757261-2d6d-4616-996e-626f6172642d,rev?*%
%TF.SameCoordinates,Original*%
%TF.FileFunction,Paste,Top*%
%TF.FilePolarity,Positive*%
%FSLAX46Y46*%
G04 Gerber Fmt 4.6, Leading zero omitted, Abs format (unit mm)*
G04 Created by KiCad (PCBNEW 10.0.4) date 2026-07-14 22:15:48*
%MOMM*%
%LPD*%
G01*
G04 APERTURE LIST*
G04 Aperture macros list*
%AMRoundRect*
0 Rectangle with rounded corners*
0 $1 Rounding radius*
0 $2 $3 $4 $5 $6 $7 $8 $9 X,Y pos of 4 corners*
0 Add a 4 corners polygon primitive as box body*
4,1,4,$2,$3,$4,$5,$6,$7,$8,$9,$2,$3,0*
0 Add four circle primitives for the rounded corners*
1,1,$1+$1,$2,$3*
1,1,$1+$1,$4,$5*
1,1,$1+$1,$6,$7*
1,1,$1+$1,$8,$9*
0 Add four rect primitives between the rounded corners*
20,1,$1+$1,$2,$3,$4,$5,0*
20,1,$1+$1,$4,$5,$6,$7,0*
20,1,$1+$1,$6,$7,$8,$9,0*
20,1,$1+$1,$8,$9,$2,$3,0*%
G04 Aperture macros list end*
%ADD10R,1.025000X1.400000*%
%ADD11R,2.200000X3.200000*%
%ADD12R,2.500000X1.800000*%
%ADD13R,0.550012X1.099998*%
%ADD14R,0.299999X1.099998*%
%ADD15R,3.082823X1.019988*%
%ADD16R,8.499983X10.999978*%
%ADD17R,2.150000X5.500000*%
%ADD18RoundRect,0.154000X-0.000010X-0.508000X0.000010X-0.508000X0.000010X0.508000X-0.000010X0.508000X0*%
%ADD19R,3.200000X2.200000*%
%ADD20R,0.299999X1.299997*%
%ADD21R,0.599999X1.499997*%
%ADD22R,3.299993X2.099996*%
%ADD23RoundRect,0.294005X0.000010X0.728497X-0.000010X0.728497X-0.000010X-0.728497X0.000010X-0.728497X0*%
G04 APERTURE END LIST*
D10*
%TO.C,R_BLD*%
X98587500Y-118000000D03*
X100412500Y-118000000D03*
%TD*%
%TO.C,C_VM2*%
X116537500Y-97500000D03*
X118362500Y-97500000D03*
%TD*%
D11*
%TO.C,C_IN*%
X117200000Y-83400000D03*
X117200000Y-78200000D03*
%TD*%
D10*
%TO.C,R_SDA*%
X95087500Y-101600000D03*
X96912500Y-101600000D03*
%TD*%
%TO.C,R_LED*%
X108137500Y-91750000D03*
X109962500Y-91750000D03*
%TD*%
D12*
%TO.C,D1*%
X94500000Y-90000000D03*
X98500000Y-90000000D03*
%TD*%
D10*
%TO.C,C_ISO1*%
X77187500Y-101300000D03*
X79012500Y-101300000D03*
%TD*%
%TO.C,C_ISO2*%
X92087500Y-95400000D03*
X93912500Y-95400000D03*
%TD*%
D13*
%TO.C,J1*%
X85700019Y-81895027D03*
X84899919Y-81895027D03*
D14*
X84249933Y-81895027D03*
X83749807Y-81895027D03*
X83249935Y-81895027D03*
X82750063Y-81895027D03*
X82249937Y-81895027D03*
X81750065Y-81895027D03*
X81249939Y-81895027D03*
X80749813Y-81895027D03*
D13*
X80099827Y-81895027D03*
X79299981Y-81895027D03*
%TD*%
D10*
%TO.C,R_VSNS*%
X79087500Y-88000000D03*
X80912500Y-88000000D03*
%TD*%
%TO.C,R_SDA2*%
X80387500Y-105200000D03*
X82212500Y-105200000D03*
%TD*%
D15*
%TO.C,U2*%
X111514160Y-85100044D03*
X111514160Y-83400022D03*
X111514160Y-81700000D03*
X111514160Y-79999978D03*
X111514160Y-78299956D03*
D16*
X101194420Y-81700000D03*
%TD*%
D10*
%TO.C,C_DC_IN*%
X112087500Y-89350000D03*
X113912500Y-89350000D03*
%TD*%
%TO.C,R_LED2*%
X77087500Y-110000000D03*
X78912500Y-110000000D03*
%TD*%
D17*
%TO.C,L1*%
X101775000Y-90400000D03*
X105625000Y-90400000D03*
%TD*%
D10*
%TO.C,C_VM*%
X116537500Y-95450000D03*
X118362500Y-95450000D03*
%TD*%
%TO.C,LED1*%
X112087500Y-91800000D03*
X113912500Y-91800000D03*
%TD*%
%TO.C,R_VDD*%
X79087500Y-86000000D03*
X80912500Y-86000000D03*
%TD*%
%TO.C,R_ADDR*%
X99687500Y-103800000D03*
X101512500Y-103800000D03*
%TD*%
%TO.C,R_SCL*%
X95087500Y-103800000D03*
X96912500Y-103800000D03*
%TD*%
D18*
%TO.C,U4*%
X106074950Y-107902096D03*
X106724936Y-107902096D03*
X107374922Y-107902096D03*
X108024908Y-107902096D03*
X108674894Y-107902096D03*
X109325134Y-107902096D03*
X109975120Y-107902096D03*
X110625106Y-107902096D03*
X111275092Y-107902096D03*
X111925078Y-107902096D03*
X112575064Y-107902096D03*
X113225050Y-107902096D03*
X113225050Y-100777904D03*
X112575064Y-100777904D03*
X111925078Y-100777904D03*
X111275092Y-100777904D03*
X110625106Y-100777904D03*
X109975120Y-100777904D03*
X109325134Y-100777904D03*
X108674894Y-100777904D03*
X108024908Y-100777904D03*
X107374922Y-100777904D03*
X106724936Y-100777904D03*
X106074950Y-100777904D03*
%TD*%
D19*
%TO.C,C_OUT*%
X99600000Y-97000000D03*
X104800000Y-97000000D03*
%TD*%
D20*
%TO.C,U3*%
X97400129Y-112050008D03*
X97900001Y-112050008D03*
X98399873Y-112050008D03*
X98899999Y-112050008D03*
X99400125Y-112050008D03*
X99399871Y-107349992D03*
X98899999Y-107349992D03*
X98400127Y-107349992D03*
X97900001Y-107349992D03*
X97399875Y-107349992D03*
%TD*%
D10*
%TO.C,C_DC_OUT*%
X92087500Y-98000000D03*
X93912500Y-98000000D03*
%TD*%
%TO.C,R_SCL2*%
X80387500Y-107400000D03*
X82212500Y-107400000D03*
%TD*%
D21*
%TO.C,U1*%
X85100004Y-96100121D03*
X86100002Y-96100121D03*
X87100000Y-96100121D03*
X88099998Y-96100121D03*
X89099996Y-96100121D03*
X89099996Y-90100133D03*
X88099998Y-90099879D03*
X87100000Y-90099879D03*
X86100002Y-90099879D03*
X85100004Y-90100133D03*
D22*
X87100000Y-93099873D03*
%TD*%
D10*
%TO.C,LED2*%
X77087500Y-112000000D03*
X78912500Y-112000000D03*
%TD*%
%TO.C,R_CFG1*%
X79087500Y-92250000D03*
X80912500Y-92250000D03*
%TD*%
%TO.C,C_VDD*%
X79087500Y-90100000D03*
X80912500Y-90100000D03*
%TD*%
%TO.C,C_ADS*%
X99687500Y-101600000D03*
X101512500Y-101600000D03*
%TD*%
D23*
%TO.C,U6*%
X88105000Y-104930028D03*
X86835000Y-104930028D03*
X85565000Y-104930028D03*
X84295000Y-104930028D03*
X84295000Y-110069972D03*
X85565000Y-110069972D03*
X86835000Y-110069972D03*
X88105000Y-110069972D03*
%TD*%
D10*
%TO.C,C_VCC*%
X116487500Y-99900000D03*
X118312500Y-99900000D03*
%TD*%
M02*
